%TF.GenerationSoftware,KiCad,Pcbnew,10.0.3*%
%TF.CreationDate,2026-07-17T23:31:58-04:00*%
%TF.ProjectId,Pangotag_PCB,50616e67-6f74-4616-975f-5043422e6b69,rev?*%
%TF.SameCoordinates,Original*%
%TF.FileFunction,Legend,Bot*%
%TF.FilePolarity,Positive*%
%FSLAX46Y46*%
G04 Gerber Fmt 4.6, Leading zero omitted, Abs format (unit mm)*
G04 Created by KiCad (PCBNEW 10.0.3) date 2026-07-17 23:31:58*
%MOMM*%
%LPD*%
G01*
G04 APERTURE LIST*
%ADD10C,0.254000*%
%ADD11C,0.150000*%
%ADD12C,0.100000*%
%ADD13C,0.127000*%
%ADD14C,0.200000*%
G04 APERTURE END LIST*
D10*
X92994318Y-51165237D02*
X91724318Y-51165237D01*
X92873365Y-52495714D02*
X92933842Y-52435238D01*
X92933842Y-52435238D02*
X92994318Y-52253809D01*
X92994318Y-52253809D02*
X92994318Y-52132857D01*
X92994318Y-52132857D02*
X92933842Y-51951428D01*
X92933842Y-51951428D02*
X92812889Y-51830476D01*
X92812889Y-51830476D02*
X92691937Y-51769999D01*
X92691937Y-51769999D02*
X92450032Y-51709523D01*
X92450032Y-51709523D02*
X92268603Y-51709523D01*
X92268603Y-51709523D02*
X92026699Y-51769999D01*
X92026699Y-51769999D02*
X91905746Y-51830476D01*
X91905746Y-51830476D02*
X91784794Y-51951428D01*
X91784794Y-51951428D02*
X91724318Y-52132857D01*
X91724318Y-52132857D02*
X91724318Y-52253809D01*
X91724318Y-52253809D02*
X91784794Y-52435238D01*
X91784794Y-52435238D02*
X91845270Y-52495714D01*
X92994318Y-53705238D02*
X92994318Y-52979523D01*
X92994318Y-53342380D02*
X91724318Y-53342380D01*
X91724318Y-53342380D02*
X91905746Y-53221428D01*
X91905746Y-53221428D02*
X92026699Y-53100476D01*
X92026699Y-53100476D02*
X92087175Y-52979523D01*
X101204318Y-54565237D02*
X99934318Y-54565237D01*
X101083365Y-55895714D02*
X101143842Y-55835238D01*
X101143842Y-55835238D02*
X101204318Y-55653809D01*
X101204318Y-55653809D02*
X101204318Y-55532857D01*
X101204318Y-55532857D02*
X101143842Y-55351428D01*
X101143842Y-55351428D02*
X101022889Y-55230476D01*
X101022889Y-55230476D02*
X100901937Y-55169999D01*
X100901937Y-55169999D02*
X100660032Y-55109523D01*
X100660032Y-55109523D02*
X100478603Y-55109523D01*
X100478603Y-55109523D02*
X100236699Y-55169999D01*
X100236699Y-55169999D02*
X100115746Y-55230476D01*
X100115746Y-55230476D02*
X99994794Y-55351428D01*
X99994794Y-55351428D02*
X99934318Y-55532857D01*
X99934318Y-55532857D02*
X99934318Y-55653809D01*
X99934318Y-55653809D02*
X99994794Y-55835238D01*
X99994794Y-55835238D02*
X100055270Y-55895714D01*
X100055270Y-56379523D02*
X99994794Y-56439999D01*
X99994794Y-56439999D02*
X99934318Y-56560952D01*
X99934318Y-56560952D02*
X99934318Y-56863333D01*
X99934318Y-56863333D02*
X99994794Y-56984285D01*
X99994794Y-56984285D02*
X100055270Y-57044761D01*
X100055270Y-57044761D02*
X100176222Y-57105238D01*
X100176222Y-57105238D02*
X100297175Y-57105238D01*
X100297175Y-57105238D02*
X100478603Y-57044761D01*
X100478603Y-57044761D02*
X101204318Y-56319047D01*
X101204318Y-56319047D02*
X101204318Y-57105238D01*
D11*
X94707880Y-53154604D02*
X93898357Y-53154604D01*
X93898357Y-53154604D02*
X93803119Y-53106985D01*
X93803119Y-53106985D02*
X93755500Y-53059366D01*
X93755500Y-53059366D02*
X93707880Y-52964128D01*
X93707880Y-52964128D02*
X93707880Y-52773652D01*
X93707880Y-52773652D02*
X93755500Y-52678414D01*
X93755500Y-52678414D02*
X93803119Y-52630795D01*
X93803119Y-52630795D02*
X93898357Y-52583176D01*
X93898357Y-52583176D02*
X94707880Y-52583176D01*
X94707880Y-52202223D02*
X94707880Y-51583176D01*
X94707880Y-51583176D02*
X94326928Y-51916509D01*
X94326928Y-51916509D02*
X94326928Y-51773652D01*
X94326928Y-51773652D02*
X94279309Y-51678414D01*
X94279309Y-51678414D02*
X94231690Y-51630795D01*
X94231690Y-51630795D02*
X94136452Y-51583176D01*
X94136452Y-51583176D02*
X93898357Y-51583176D01*
X93898357Y-51583176D02*
X93803119Y-51630795D01*
X93803119Y-51630795D02*
X93755500Y-51678414D01*
X93755500Y-51678414D02*
X93707880Y-51773652D01*
X93707880Y-51773652D02*
X93707880Y-52059366D01*
X93707880Y-52059366D02*
X93755500Y-52154604D01*
X93755500Y-52154604D02*
X93803119Y-52202223D01*
%TO.C,IC1*%
D12*
X92820000Y-53605000D02*
G75*
G02*
X92820000Y-53505000I0J50000D01*
G01*
X92820000Y-53505000D02*
G75*
G02*
X92820000Y-53605000I0J-50000D01*
G01*
X92820000Y-53605000D02*
X92820000Y-53605000D01*
X92820000Y-53505000D02*
X92820000Y-53505000D01*
%TO.C,IC2*%
X96380000Y-53480000D02*
G75*
G02*
X96380000Y-53380000I0J50000D01*
G01*
X96380000Y-53380000D02*
G75*
G02*
X96380000Y-53480000I0J-50000D01*
G01*
X96380000Y-53480000D02*
X96380000Y-53480000D01*
X96380000Y-53380000D02*
X96380000Y-53380000D01*
%TO.C,U2*%
D13*
X97250000Y-47490000D02*
X97250000Y-50715000D01*
X97250000Y-47490000D02*
X100100000Y-47490000D01*
X97250000Y-60490000D02*
X97250000Y-57265000D01*
X97250000Y-60490000D02*
X100100000Y-60490000D01*
X108750000Y-47490000D02*
X105900000Y-47490000D01*
X108750000Y-47490000D02*
X108750000Y-50715000D01*
X108750000Y-60490000D02*
X105900000Y-60490000D01*
X108750000Y-60490000D02*
X108750000Y-57265000D01*
D14*
X109400000Y-50740000D02*
G75*
G02*
X109200000Y-50740000I-100000J0D01*
G01*
X109200000Y-50740000D02*
G75*
G02*
X109400000Y-50740000I100000J0D01*
G01*
%TD*%
M02*
