%TF.GenerationSoftware,KiCad,Pcbnew,10.0.3*%
%TF.CreationDate,2026-07-17T23:31:58-04:00*%
%TF.ProjectId,Pangotag_PCB,50616e67-6f74-4616-975f-5043422e6b69,rev?*%
%TF.SameCoordinates,Original*%
%TF.FileFunction,Legend,Top*%
%TF.FilePolarity,Positive*%
%FSLAX46Y46*%
G04 Gerber Fmt 4.6, Leading zero omitted, Abs format (unit mm)*
G04 Created by KiCad (PCBNEW 10.0.3) date 2026-07-17 23:31:58*
%MOMM*%
%LPD*%
G01*
G04 APERTURE LIST*
%ADD10C,0.150000*%
%ADD11C,0.120000*%
%ADD12C,0.254000*%
%ADD13C,0.100000*%
%ADD14C,0.127000*%
%ADD15C,0.200000*%
%ADD16C,0.250000*%
%ADD17C,0.175000*%
%ADD18C,0.152400*%
%ADD19C,0.000000*%
G04 APERTURE END LIST*
D10*
X93034819Y-50217857D02*
X92558628Y-50551190D01*
X93034819Y-50789285D02*
X92034819Y-50789285D01*
X92034819Y-50789285D02*
X92034819Y-50408333D01*
X92034819Y-50408333D02*
X92082438Y-50313095D01*
X92082438Y-50313095D02*
X92130057Y-50265476D01*
X92130057Y-50265476D02*
X92225295Y-50217857D01*
X92225295Y-50217857D02*
X92368152Y-50217857D01*
X92368152Y-50217857D02*
X92463390Y-50265476D01*
X92463390Y-50265476D02*
X92511009Y-50313095D01*
X92511009Y-50313095D02*
X92558628Y-50408333D01*
X92558628Y-50408333D02*
X92558628Y-50789285D01*
X92130057Y-49836904D02*
X92082438Y-49789285D01*
X92082438Y-49789285D02*
X92034819Y-49694047D01*
X92034819Y-49694047D02*
X92034819Y-49455952D01*
X92034819Y-49455952D02*
X92082438Y-49360714D01*
X92082438Y-49360714D02*
X92130057Y-49313095D01*
X92130057Y-49313095D02*
X92225295Y-49265476D01*
X92225295Y-49265476D02*
X92320533Y-49265476D01*
X92320533Y-49265476D02*
X92463390Y-49313095D01*
X92463390Y-49313095D02*
X93034819Y-49884523D01*
X93034819Y-49884523D02*
X93034819Y-49265476D01*
X92130057Y-48884523D02*
X92082438Y-48836904D01*
X92082438Y-48836904D02*
X92034819Y-48741666D01*
X92034819Y-48741666D02*
X92034819Y-48503571D01*
X92034819Y-48503571D02*
X92082438Y-48408333D01*
X92082438Y-48408333D02*
X92130057Y-48360714D01*
X92130057Y-48360714D02*
X92225295Y-48313095D01*
X92225295Y-48313095D02*
X92320533Y-48313095D01*
X92320533Y-48313095D02*
X92463390Y-48360714D01*
X92463390Y-48360714D02*
X93034819Y-48932142D01*
X93034819Y-48932142D02*
X93034819Y-48313095D01*
X108994819Y-54021904D02*
X109804342Y-54021904D01*
X109804342Y-54021904D02*
X109899580Y-53974285D01*
X109899580Y-53974285D02*
X109947200Y-53926666D01*
X109947200Y-53926666D02*
X109994819Y-53831428D01*
X109994819Y-53831428D02*
X109994819Y-53640952D01*
X109994819Y-53640952D02*
X109947200Y-53545714D01*
X109947200Y-53545714D02*
X109899580Y-53498095D01*
X109899580Y-53498095D02*
X109804342Y-53450476D01*
X109804342Y-53450476D02*
X108994819Y-53450476D01*
X108994819Y-52545714D02*
X108994819Y-52736190D01*
X108994819Y-52736190D02*
X109042438Y-52831428D01*
X109042438Y-52831428D02*
X109090057Y-52879047D01*
X109090057Y-52879047D02*
X109232914Y-52974285D01*
X109232914Y-52974285D02*
X109423390Y-53021904D01*
X109423390Y-53021904D02*
X109804342Y-53021904D01*
X109804342Y-53021904D02*
X109899580Y-52974285D01*
X109899580Y-52974285D02*
X109947200Y-52926666D01*
X109947200Y-52926666D02*
X109994819Y-52831428D01*
X109994819Y-52831428D02*
X109994819Y-52640952D01*
X109994819Y-52640952D02*
X109947200Y-52545714D01*
X109947200Y-52545714D02*
X109899580Y-52498095D01*
X109899580Y-52498095D02*
X109804342Y-52450476D01*
X109804342Y-52450476D02*
X109566247Y-52450476D01*
X109566247Y-52450476D02*
X109471009Y-52498095D01*
X109471009Y-52498095D02*
X109423390Y-52545714D01*
X109423390Y-52545714D02*
X109375771Y-52640952D01*
X109375771Y-52640952D02*
X109375771Y-52831428D01*
X109375771Y-52831428D02*
X109423390Y-52926666D01*
X109423390Y-52926666D02*
X109471009Y-52974285D01*
X109471009Y-52974285D02*
X109566247Y-53021904D01*
X90183333Y-21509580D02*
X90135714Y-21557200D01*
X90135714Y-21557200D02*
X89992857Y-21604819D01*
X89992857Y-21604819D02*
X89897619Y-21604819D01*
X89897619Y-21604819D02*
X89754762Y-21557200D01*
X89754762Y-21557200D02*
X89659524Y-21461961D01*
X89659524Y-21461961D02*
X89611905Y-21366723D01*
X89611905Y-21366723D02*
X89564286Y-21176247D01*
X89564286Y-21176247D02*
X89564286Y-21033390D01*
X89564286Y-21033390D02*
X89611905Y-20842914D01*
X89611905Y-20842914D02*
X89659524Y-20747676D01*
X89659524Y-20747676D02*
X89754762Y-20652438D01*
X89754762Y-20652438D02*
X89897619Y-20604819D01*
X89897619Y-20604819D02*
X89992857Y-20604819D01*
X89992857Y-20604819D02*
X90135714Y-20652438D01*
X90135714Y-20652438D02*
X90183333Y-20700057D01*
X90516667Y-20604819D02*
X91183333Y-20604819D01*
X91183333Y-20604819D02*
X90754762Y-21604819D01*
X141762142Y-71149819D02*
X141428809Y-70673628D01*
X141190714Y-71149819D02*
X141190714Y-70149819D01*
X141190714Y-70149819D02*
X141571666Y-70149819D01*
X141571666Y-70149819D02*
X141666904Y-70197438D01*
X141666904Y-70197438D02*
X141714523Y-70245057D01*
X141714523Y-70245057D02*
X141762142Y-70340295D01*
X141762142Y-70340295D02*
X141762142Y-70483152D01*
X141762142Y-70483152D02*
X141714523Y-70578390D01*
X141714523Y-70578390D02*
X141666904Y-70626009D01*
X141666904Y-70626009D02*
X141571666Y-70673628D01*
X141571666Y-70673628D02*
X141190714Y-70673628D01*
X142714523Y-71149819D02*
X142143095Y-71149819D01*
X142428809Y-71149819D02*
X142428809Y-70149819D01*
X142428809Y-70149819D02*
X142333571Y-70292676D01*
X142333571Y-70292676D02*
X142238333Y-70387914D01*
X142238333Y-70387914D02*
X142143095Y-70435533D01*
X143333571Y-70149819D02*
X143428809Y-70149819D01*
X143428809Y-70149819D02*
X143524047Y-70197438D01*
X143524047Y-70197438D02*
X143571666Y-70245057D01*
X143571666Y-70245057D02*
X143619285Y-70340295D01*
X143619285Y-70340295D02*
X143666904Y-70530771D01*
X143666904Y-70530771D02*
X143666904Y-70768866D01*
X143666904Y-70768866D02*
X143619285Y-70959342D01*
X143619285Y-70959342D02*
X143571666Y-71054580D01*
X143571666Y-71054580D02*
X143524047Y-71102200D01*
X143524047Y-71102200D02*
X143428809Y-71149819D01*
X143428809Y-71149819D02*
X143333571Y-71149819D01*
X143333571Y-71149819D02*
X143238333Y-71102200D01*
X143238333Y-71102200D02*
X143190714Y-71054580D01*
X143190714Y-71054580D02*
X143143095Y-70959342D01*
X143143095Y-70959342D02*
X143095476Y-70768866D01*
X143095476Y-70768866D02*
X143095476Y-70530771D01*
X143095476Y-70530771D02*
X143143095Y-70340295D01*
X143143095Y-70340295D02*
X143190714Y-70245057D01*
X143190714Y-70245057D02*
X143238333Y-70197438D01*
X143238333Y-70197438D02*
X143333571Y-70149819D01*
X106407142Y-21604819D02*
X106073809Y-21128628D01*
X105835714Y-21604819D02*
X105835714Y-20604819D01*
X105835714Y-20604819D02*
X106216666Y-20604819D01*
X106216666Y-20604819D02*
X106311904Y-20652438D01*
X106311904Y-20652438D02*
X106359523Y-20700057D01*
X106359523Y-20700057D02*
X106407142Y-20795295D01*
X106407142Y-20795295D02*
X106407142Y-20938152D01*
X106407142Y-20938152D02*
X106359523Y-21033390D01*
X106359523Y-21033390D02*
X106311904Y-21081009D01*
X106311904Y-21081009D02*
X106216666Y-21128628D01*
X106216666Y-21128628D02*
X105835714Y-21128628D01*
X107359523Y-21604819D02*
X106788095Y-21604819D01*
X107073809Y-21604819D02*
X107073809Y-20604819D01*
X107073809Y-20604819D02*
X106978571Y-20747676D01*
X106978571Y-20747676D02*
X106883333Y-20842914D01*
X106883333Y-20842914D02*
X106788095Y-20890533D01*
X108216666Y-20604819D02*
X108026190Y-20604819D01*
X108026190Y-20604819D02*
X107930952Y-20652438D01*
X107930952Y-20652438D02*
X107883333Y-20700057D01*
X107883333Y-20700057D02*
X107788095Y-20842914D01*
X107788095Y-20842914D02*
X107740476Y-21033390D01*
X107740476Y-21033390D02*
X107740476Y-21414342D01*
X107740476Y-21414342D02*
X107788095Y-21509580D01*
X107788095Y-21509580D02*
X107835714Y-21557200D01*
X107835714Y-21557200D02*
X107930952Y-21604819D01*
X107930952Y-21604819D02*
X108121428Y-21604819D01*
X108121428Y-21604819D02*
X108216666Y-21557200D01*
X108216666Y-21557200D02*
X108264285Y-21509580D01*
X108264285Y-21509580D02*
X108311904Y-21414342D01*
X108311904Y-21414342D02*
X108311904Y-21176247D01*
X108311904Y-21176247D02*
X108264285Y-21081009D01*
X108264285Y-21081009D02*
X108216666Y-21033390D01*
X108216666Y-21033390D02*
X108121428Y-20985771D01*
X108121428Y-20985771D02*
X107930952Y-20985771D01*
X107930952Y-20985771D02*
X107835714Y-21033390D01*
X107835714Y-21033390D02*
X107788095Y-21081009D01*
X107788095Y-21081009D02*
X107740476Y-21176247D01*
X104433333Y-28604819D02*
X104100000Y-28128628D01*
X103861905Y-28604819D02*
X103861905Y-27604819D01*
X103861905Y-27604819D02*
X104242857Y-27604819D01*
X104242857Y-27604819D02*
X104338095Y-27652438D01*
X104338095Y-27652438D02*
X104385714Y-27700057D01*
X104385714Y-27700057D02*
X104433333Y-27795295D01*
X104433333Y-27795295D02*
X104433333Y-27938152D01*
X104433333Y-27938152D02*
X104385714Y-28033390D01*
X104385714Y-28033390D02*
X104338095Y-28081009D01*
X104338095Y-28081009D02*
X104242857Y-28128628D01*
X104242857Y-28128628D02*
X103861905Y-28128628D01*
X105290476Y-27938152D02*
X105290476Y-28604819D01*
X105052381Y-27557200D02*
X104814286Y-28271485D01*
X104814286Y-28271485D02*
X105433333Y-28271485D01*
X120911905Y-50679819D02*
X120911905Y-49679819D01*
X120911905Y-49679819D02*
X121150000Y-49679819D01*
X121150000Y-49679819D02*
X121292857Y-49727438D01*
X121292857Y-49727438D02*
X121388095Y-49822676D01*
X121388095Y-49822676D02*
X121435714Y-49917914D01*
X121435714Y-49917914D02*
X121483333Y-50108390D01*
X121483333Y-50108390D02*
X121483333Y-50251247D01*
X121483333Y-50251247D02*
X121435714Y-50441723D01*
X121435714Y-50441723D02*
X121388095Y-50536961D01*
X121388095Y-50536961D02*
X121292857Y-50632200D01*
X121292857Y-50632200D02*
X121150000Y-50679819D01*
X121150000Y-50679819D02*
X120911905Y-50679819D01*
X121816667Y-49679819D02*
X122435714Y-49679819D01*
X122435714Y-49679819D02*
X122102381Y-50060771D01*
X122102381Y-50060771D02*
X122245238Y-50060771D01*
X122245238Y-50060771D02*
X122340476Y-50108390D01*
X122340476Y-50108390D02*
X122388095Y-50156009D01*
X122388095Y-50156009D02*
X122435714Y-50251247D01*
X122435714Y-50251247D02*
X122435714Y-50489342D01*
X122435714Y-50489342D02*
X122388095Y-50584580D01*
X122388095Y-50584580D02*
X122340476Y-50632200D01*
X122340476Y-50632200D02*
X122245238Y-50679819D01*
X122245238Y-50679819D02*
X121959524Y-50679819D01*
X121959524Y-50679819D02*
X121864286Y-50632200D01*
X121864286Y-50632200D02*
X121816667Y-50584580D01*
X93956666Y-49904819D02*
X93956666Y-50619104D01*
X93956666Y-50619104D02*
X93909047Y-50761961D01*
X93909047Y-50761961D02*
X93813809Y-50857200D01*
X93813809Y-50857200D02*
X93670952Y-50904819D01*
X93670952Y-50904819D02*
X93575714Y-50904819D01*
X94956666Y-50904819D02*
X94385238Y-50904819D01*
X94670952Y-50904819D02*
X94670952Y-49904819D01*
X94670952Y-49904819D02*
X94575714Y-50047676D01*
X94575714Y-50047676D02*
X94480476Y-50142914D01*
X94480476Y-50142914D02*
X94385238Y-50190533D01*
X121248333Y-47179819D02*
X120915000Y-46703628D01*
X120676905Y-47179819D02*
X120676905Y-46179819D01*
X120676905Y-46179819D02*
X121057857Y-46179819D01*
X121057857Y-46179819D02*
X121153095Y-46227438D01*
X121153095Y-46227438D02*
X121200714Y-46275057D01*
X121200714Y-46275057D02*
X121248333Y-46370295D01*
X121248333Y-46370295D02*
X121248333Y-46513152D01*
X121248333Y-46513152D02*
X121200714Y-46608390D01*
X121200714Y-46608390D02*
X121153095Y-46656009D01*
X121153095Y-46656009D02*
X121057857Y-46703628D01*
X121057857Y-46703628D02*
X120676905Y-46703628D01*
X121724524Y-47179819D02*
X121915000Y-47179819D01*
X121915000Y-47179819D02*
X122010238Y-47132200D01*
X122010238Y-47132200D02*
X122057857Y-47084580D01*
X122057857Y-47084580D02*
X122153095Y-46941723D01*
X122153095Y-46941723D02*
X122200714Y-46751247D01*
X122200714Y-46751247D02*
X122200714Y-46370295D01*
X122200714Y-46370295D02*
X122153095Y-46275057D01*
X122153095Y-46275057D02*
X122105476Y-46227438D01*
X122105476Y-46227438D02*
X122010238Y-46179819D01*
X122010238Y-46179819D02*
X121819762Y-46179819D01*
X121819762Y-46179819D02*
X121724524Y-46227438D01*
X121724524Y-46227438D02*
X121676905Y-46275057D01*
X121676905Y-46275057D02*
X121629286Y-46370295D01*
X121629286Y-46370295D02*
X121629286Y-46608390D01*
X121629286Y-46608390D02*
X121676905Y-46703628D01*
X121676905Y-46703628D02*
X121724524Y-46751247D01*
X121724524Y-46751247D02*
X121819762Y-46798866D01*
X121819762Y-46798866D02*
X122010238Y-46798866D01*
X122010238Y-46798866D02*
X122105476Y-46751247D01*
X122105476Y-46751247D02*
X122153095Y-46703628D01*
X122153095Y-46703628D02*
X122200714Y-46608390D01*
X44407200Y-154333332D02*
X44454819Y-154190475D01*
X44454819Y-154190475D02*
X44454819Y-153952380D01*
X44454819Y-153952380D02*
X44407200Y-153857142D01*
X44407200Y-153857142D02*
X44359580Y-153809523D01*
X44359580Y-153809523D02*
X44264342Y-153761904D01*
X44264342Y-153761904D02*
X44169104Y-153761904D01*
X44169104Y-153761904D02*
X44073866Y-153809523D01*
X44073866Y-153809523D02*
X44026247Y-153857142D01*
X44026247Y-153857142D02*
X43978628Y-153952380D01*
X43978628Y-153952380D02*
X43931009Y-154142856D01*
X43931009Y-154142856D02*
X43883390Y-154238094D01*
X43883390Y-154238094D02*
X43835771Y-154285713D01*
X43835771Y-154285713D02*
X43740533Y-154333332D01*
X43740533Y-154333332D02*
X43645295Y-154333332D01*
X43645295Y-154333332D02*
X43550057Y-154285713D01*
X43550057Y-154285713D02*
X43502438Y-154238094D01*
X43502438Y-154238094D02*
X43454819Y-154142856D01*
X43454819Y-154142856D02*
X43454819Y-153904761D01*
X43454819Y-153904761D02*
X43502438Y-153761904D01*
X43454819Y-153428570D02*
X44454819Y-153190475D01*
X44454819Y-153190475D02*
X43740533Y-152999999D01*
X43740533Y-152999999D02*
X44454819Y-152809523D01*
X44454819Y-152809523D02*
X43454819Y-152571428D01*
X44454819Y-151666666D02*
X44454819Y-152238094D01*
X44454819Y-151952380D02*
X43454819Y-151952380D01*
X43454819Y-151952380D02*
X43597676Y-152047618D01*
X43597676Y-152047618D02*
X43692914Y-152142856D01*
X43692914Y-152142856D02*
X43740533Y-152238094D01*
X99533333Y-21509580D02*
X99485714Y-21557200D01*
X99485714Y-21557200D02*
X99342857Y-21604819D01*
X99342857Y-21604819D02*
X99247619Y-21604819D01*
X99247619Y-21604819D02*
X99104762Y-21557200D01*
X99104762Y-21557200D02*
X99009524Y-21461961D01*
X99009524Y-21461961D02*
X98961905Y-21366723D01*
X98961905Y-21366723D02*
X98914286Y-21176247D01*
X98914286Y-21176247D02*
X98914286Y-21033390D01*
X98914286Y-21033390D02*
X98961905Y-20842914D01*
X98961905Y-20842914D02*
X99009524Y-20747676D01*
X99009524Y-20747676D02*
X99104762Y-20652438D01*
X99104762Y-20652438D02*
X99247619Y-20604819D01*
X99247619Y-20604819D02*
X99342857Y-20604819D01*
X99342857Y-20604819D02*
X99485714Y-20652438D01*
X99485714Y-20652438D02*
X99533333Y-20700057D01*
X100485714Y-21604819D02*
X99914286Y-21604819D01*
X100200000Y-21604819D02*
X100200000Y-20604819D01*
X100200000Y-20604819D02*
X100104762Y-20747676D01*
X100104762Y-20747676D02*
X100009524Y-20842914D01*
X100009524Y-20842914D02*
X99914286Y-20890533D01*
X95083333Y-23354819D02*
X94607143Y-23354819D01*
X94607143Y-23354819D02*
X94607143Y-22354819D01*
X95321429Y-22354819D02*
X95940476Y-22354819D01*
X95940476Y-22354819D02*
X95607143Y-22735771D01*
X95607143Y-22735771D02*
X95750000Y-22735771D01*
X95750000Y-22735771D02*
X95845238Y-22783390D01*
X95845238Y-22783390D02*
X95892857Y-22831009D01*
X95892857Y-22831009D02*
X95940476Y-22926247D01*
X95940476Y-22926247D02*
X95940476Y-23164342D01*
X95940476Y-23164342D02*
X95892857Y-23259580D01*
X95892857Y-23259580D02*
X95845238Y-23307200D01*
X95845238Y-23307200D02*
X95750000Y-23354819D01*
X95750000Y-23354819D02*
X95464286Y-23354819D01*
X95464286Y-23354819D02*
X95369048Y-23307200D01*
X95369048Y-23307200D02*
X95321429Y-23259580D01*
X32677905Y-157185819D02*
X32677905Y-157995342D01*
X32677905Y-157995342D02*
X32725524Y-158090580D01*
X32725524Y-158090580D02*
X32773143Y-158138200D01*
X32773143Y-158138200D02*
X32868381Y-158185819D01*
X32868381Y-158185819D02*
X33058857Y-158185819D01*
X33058857Y-158185819D02*
X33154095Y-158138200D01*
X33154095Y-158138200D02*
X33201714Y-158090580D01*
X33201714Y-158090580D02*
X33249333Y-157995342D01*
X33249333Y-157995342D02*
X33249333Y-157185819D01*
X34249333Y-158185819D02*
X33677905Y-158185819D01*
X33963619Y-158185819D02*
X33963619Y-157185819D01*
X33963619Y-157185819D02*
X33868381Y-157328676D01*
X33868381Y-157328676D02*
X33773143Y-157423914D01*
X33773143Y-157423914D02*
X33677905Y-157471533D01*
X34820762Y-157614390D02*
X34725524Y-157566771D01*
X34725524Y-157566771D02*
X34677905Y-157519152D01*
X34677905Y-157519152D02*
X34630286Y-157423914D01*
X34630286Y-157423914D02*
X34630286Y-157376295D01*
X34630286Y-157376295D02*
X34677905Y-157281057D01*
X34677905Y-157281057D02*
X34725524Y-157233438D01*
X34725524Y-157233438D02*
X34820762Y-157185819D01*
X34820762Y-157185819D02*
X35011238Y-157185819D01*
X35011238Y-157185819D02*
X35106476Y-157233438D01*
X35106476Y-157233438D02*
X35154095Y-157281057D01*
X35154095Y-157281057D02*
X35201714Y-157376295D01*
X35201714Y-157376295D02*
X35201714Y-157423914D01*
X35201714Y-157423914D02*
X35154095Y-157519152D01*
X35154095Y-157519152D02*
X35106476Y-157566771D01*
X35106476Y-157566771D02*
X35011238Y-157614390D01*
X35011238Y-157614390D02*
X34820762Y-157614390D01*
X34820762Y-157614390D02*
X34725524Y-157662009D01*
X34725524Y-157662009D02*
X34677905Y-157709628D01*
X34677905Y-157709628D02*
X34630286Y-157804866D01*
X34630286Y-157804866D02*
X34630286Y-157995342D01*
X34630286Y-157995342D02*
X34677905Y-158090580D01*
X34677905Y-158090580D02*
X34725524Y-158138200D01*
X34725524Y-158138200D02*
X34820762Y-158185819D01*
X34820762Y-158185819D02*
X35011238Y-158185819D01*
X35011238Y-158185819D02*
X35106476Y-158138200D01*
X35106476Y-158138200D02*
X35154095Y-158090580D01*
X35154095Y-158090580D02*
X35201714Y-157995342D01*
X35201714Y-157995342D02*
X35201714Y-157804866D01*
X35201714Y-157804866D02*
X35154095Y-157709628D01*
X35154095Y-157709628D02*
X35106476Y-157662009D01*
X35106476Y-157662009D02*
X35011238Y-157614390D01*
X109157142Y-42854819D02*
X108823809Y-42378628D01*
X108585714Y-42854819D02*
X108585714Y-41854819D01*
X108585714Y-41854819D02*
X108966666Y-41854819D01*
X108966666Y-41854819D02*
X109061904Y-41902438D01*
X109061904Y-41902438D02*
X109109523Y-41950057D01*
X109109523Y-41950057D02*
X109157142Y-42045295D01*
X109157142Y-42045295D02*
X109157142Y-42188152D01*
X109157142Y-42188152D02*
X109109523Y-42283390D01*
X109109523Y-42283390D02*
X109061904Y-42331009D01*
X109061904Y-42331009D02*
X108966666Y-42378628D01*
X108966666Y-42378628D02*
X108585714Y-42378628D01*
X110109523Y-42854819D02*
X109538095Y-42854819D01*
X109823809Y-42854819D02*
X109823809Y-41854819D01*
X109823809Y-41854819D02*
X109728571Y-41997676D01*
X109728571Y-41997676D02*
X109633333Y-42092914D01*
X109633333Y-42092914D02*
X109538095Y-42140533D01*
X110966666Y-42188152D02*
X110966666Y-42854819D01*
X110728571Y-41807200D02*
X110490476Y-42521485D01*
X110490476Y-42521485D02*
X111109523Y-42521485D01*
X96230180Y-49563095D02*
X95420657Y-49563095D01*
X95420657Y-49563095D02*
X95325419Y-49610714D01*
X95325419Y-49610714D02*
X95277800Y-49658333D01*
X95277800Y-49658333D02*
X95230180Y-49753571D01*
X95230180Y-49753571D02*
X95230180Y-49944047D01*
X95230180Y-49944047D02*
X95277800Y-50039285D01*
X95277800Y-50039285D02*
X95325419Y-50086904D01*
X95325419Y-50086904D02*
X95420657Y-50134523D01*
X95420657Y-50134523D02*
X96230180Y-50134523D01*
X96230180Y-51086904D02*
X96230180Y-50610714D01*
X96230180Y-50610714D02*
X95753990Y-50563095D01*
X95753990Y-50563095D02*
X95801609Y-50610714D01*
X95801609Y-50610714D02*
X95849228Y-50705952D01*
X95849228Y-50705952D02*
X95849228Y-50944047D01*
X95849228Y-50944047D02*
X95801609Y-51039285D01*
X95801609Y-51039285D02*
X95753990Y-51086904D01*
X95753990Y-51086904D02*
X95658752Y-51134523D01*
X95658752Y-51134523D02*
X95420657Y-51134523D01*
X95420657Y-51134523D02*
X95325419Y-51086904D01*
X95325419Y-51086904D02*
X95277800Y-51039285D01*
X95277800Y-51039285D02*
X95230180Y-50944047D01*
X95230180Y-50944047D02*
X95230180Y-50705952D01*
X95230180Y-50705952D02*
X95277800Y-50610714D01*
X95277800Y-50610714D02*
X95325419Y-50563095D01*
X97439980Y-44612114D02*
X98439980Y-44612114D01*
X98439980Y-44612114D02*
X98439980Y-44850209D01*
X98439980Y-44850209D02*
X98392361Y-44993066D01*
X98392361Y-44993066D02*
X98297123Y-45088304D01*
X98297123Y-45088304D02*
X98201885Y-45135923D01*
X98201885Y-45135923D02*
X98011409Y-45183542D01*
X98011409Y-45183542D02*
X97868552Y-45183542D01*
X97868552Y-45183542D02*
X97678076Y-45135923D01*
X97678076Y-45135923D02*
X97582838Y-45088304D01*
X97582838Y-45088304D02*
X97487600Y-44993066D01*
X97487600Y-44993066D02*
X97439980Y-44850209D01*
X97439980Y-44850209D02*
X97439980Y-44612114D01*
X97487600Y-45993066D02*
X97439980Y-45897828D01*
X97439980Y-45897828D02*
X97439980Y-45707352D01*
X97439980Y-45707352D02*
X97487600Y-45612114D01*
X97487600Y-45612114D02*
X97582838Y-45564495D01*
X97582838Y-45564495D02*
X97963790Y-45564495D01*
X97963790Y-45564495D02*
X98059028Y-45612114D01*
X98059028Y-45612114D02*
X98106647Y-45707352D01*
X98106647Y-45707352D02*
X98106647Y-45897828D01*
X98106647Y-45897828D02*
X98059028Y-45993066D01*
X98059028Y-45993066D02*
X97963790Y-46040685D01*
X97963790Y-46040685D02*
X97868552Y-46040685D01*
X97868552Y-46040685D02*
X97773314Y-45564495D01*
X97487600Y-46421638D02*
X97439980Y-46516876D01*
X97439980Y-46516876D02*
X97439980Y-46707352D01*
X97439980Y-46707352D02*
X97487600Y-46802590D01*
X97487600Y-46802590D02*
X97582838Y-46850209D01*
X97582838Y-46850209D02*
X97630457Y-46850209D01*
X97630457Y-46850209D02*
X97725695Y-46802590D01*
X97725695Y-46802590D02*
X97773314Y-46707352D01*
X97773314Y-46707352D02*
X97773314Y-46564495D01*
X97773314Y-46564495D02*
X97820933Y-46469257D01*
X97820933Y-46469257D02*
X97916171Y-46421638D01*
X97916171Y-46421638D02*
X97963790Y-46421638D01*
X97963790Y-46421638D02*
X98059028Y-46469257D01*
X98059028Y-46469257D02*
X98106647Y-46564495D01*
X98106647Y-46564495D02*
X98106647Y-46707352D01*
X98106647Y-46707352D02*
X98059028Y-46802590D01*
X97439980Y-47278781D02*
X98106647Y-47278781D01*
X98439980Y-47278781D02*
X98392361Y-47231162D01*
X98392361Y-47231162D02*
X98344742Y-47278781D01*
X98344742Y-47278781D02*
X98392361Y-47326400D01*
X98392361Y-47326400D02*
X98439980Y-47278781D01*
X98439980Y-47278781D02*
X98344742Y-47278781D01*
X98106647Y-48183542D02*
X97297123Y-48183542D01*
X97297123Y-48183542D02*
X97201885Y-48135923D01*
X97201885Y-48135923D02*
X97154266Y-48088304D01*
X97154266Y-48088304D02*
X97106647Y-47993066D01*
X97106647Y-47993066D02*
X97106647Y-47850209D01*
X97106647Y-47850209D02*
X97154266Y-47754971D01*
X97487600Y-48183542D02*
X97439980Y-48088304D01*
X97439980Y-48088304D02*
X97439980Y-47897828D01*
X97439980Y-47897828D02*
X97487600Y-47802590D01*
X97487600Y-47802590D02*
X97535219Y-47754971D01*
X97535219Y-47754971D02*
X97630457Y-47707352D01*
X97630457Y-47707352D02*
X97916171Y-47707352D01*
X97916171Y-47707352D02*
X98011409Y-47754971D01*
X98011409Y-47754971D02*
X98059028Y-47802590D01*
X98059028Y-47802590D02*
X98106647Y-47897828D01*
X98106647Y-47897828D02*
X98106647Y-48088304D01*
X98106647Y-48088304D02*
X98059028Y-48183542D01*
X98106647Y-48659733D02*
X97439980Y-48659733D01*
X98011409Y-48659733D02*
X98059028Y-48707352D01*
X98059028Y-48707352D02*
X98106647Y-48802590D01*
X98106647Y-48802590D02*
X98106647Y-48945447D01*
X98106647Y-48945447D02*
X98059028Y-49040685D01*
X98059028Y-49040685D02*
X97963790Y-49088304D01*
X97963790Y-49088304D02*
X97439980Y-49088304D01*
X97439980Y-49993066D02*
X97963790Y-49993066D01*
X97963790Y-49993066D02*
X98059028Y-49945447D01*
X98059028Y-49945447D02*
X98106647Y-49850209D01*
X98106647Y-49850209D02*
X98106647Y-49659733D01*
X98106647Y-49659733D02*
X98059028Y-49564495D01*
X97487600Y-49993066D02*
X97439980Y-49897828D01*
X97439980Y-49897828D02*
X97439980Y-49659733D01*
X97439980Y-49659733D02*
X97487600Y-49564495D01*
X97487600Y-49564495D02*
X97582838Y-49516876D01*
X97582838Y-49516876D02*
X97678076Y-49516876D01*
X97678076Y-49516876D02*
X97773314Y-49564495D01*
X97773314Y-49564495D02*
X97820933Y-49659733D01*
X97820933Y-49659733D02*
X97820933Y-49897828D01*
X97820933Y-49897828D02*
X97868552Y-49993066D01*
X98106647Y-50326400D02*
X98106647Y-50707352D01*
X98439980Y-50469257D02*
X97582838Y-50469257D01*
X97582838Y-50469257D02*
X97487600Y-50516876D01*
X97487600Y-50516876D02*
X97439980Y-50612114D01*
X97439980Y-50612114D02*
X97439980Y-50707352D01*
X97439980Y-51183543D02*
X97487600Y-51088305D01*
X97487600Y-51088305D02*
X97535219Y-51040686D01*
X97535219Y-51040686D02*
X97630457Y-50993067D01*
X97630457Y-50993067D02*
X97916171Y-50993067D01*
X97916171Y-50993067D02*
X98011409Y-51040686D01*
X98011409Y-51040686D02*
X98059028Y-51088305D01*
X98059028Y-51088305D02*
X98106647Y-51183543D01*
X98106647Y-51183543D02*
X98106647Y-51326400D01*
X98106647Y-51326400D02*
X98059028Y-51421638D01*
X98059028Y-51421638D02*
X98011409Y-51469257D01*
X98011409Y-51469257D02*
X97916171Y-51516876D01*
X97916171Y-51516876D02*
X97630457Y-51516876D01*
X97630457Y-51516876D02*
X97535219Y-51469257D01*
X97535219Y-51469257D02*
X97487600Y-51421638D01*
X97487600Y-51421638D02*
X97439980Y-51326400D01*
X97439980Y-51326400D02*
X97439980Y-51183543D01*
X97439980Y-51945448D02*
X98106647Y-51945448D01*
X97916171Y-51945448D02*
X98011409Y-51993067D01*
X98011409Y-51993067D02*
X98059028Y-52040686D01*
X98059028Y-52040686D02*
X98106647Y-52135924D01*
X98106647Y-52135924D02*
X98106647Y-52231162D01*
X97439980Y-52612115D02*
X97439980Y-52802591D01*
X97439980Y-52802591D02*
X97487600Y-52897829D01*
X97487600Y-52897829D02*
X97535219Y-52945448D01*
X97535219Y-52945448D02*
X97678076Y-53040686D01*
X97678076Y-53040686D02*
X97868552Y-53088305D01*
X97868552Y-53088305D02*
X98249504Y-53088305D01*
X98249504Y-53088305D02*
X98344742Y-53040686D01*
X98344742Y-53040686D02*
X98392361Y-52993067D01*
X98392361Y-52993067D02*
X98439980Y-52897829D01*
X98439980Y-52897829D02*
X98439980Y-52707353D01*
X98439980Y-52707353D02*
X98392361Y-52612115D01*
X98392361Y-52612115D02*
X98344742Y-52564496D01*
X98344742Y-52564496D02*
X98249504Y-52516877D01*
X98249504Y-52516877D02*
X98011409Y-52516877D01*
X98011409Y-52516877D02*
X97916171Y-52564496D01*
X97916171Y-52564496D02*
X97868552Y-52612115D01*
X97868552Y-52612115D02*
X97820933Y-52707353D01*
X97820933Y-52707353D02*
X97820933Y-52897829D01*
X97820933Y-52897829D02*
X97868552Y-52993067D01*
X97868552Y-52993067D02*
X97916171Y-53040686D01*
X97916171Y-53040686D02*
X98011409Y-53088305D01*
X104433333Y-26854819D02*
X104100000Y-26378628D01*
X103861905Y-26854819D02*
X103861905Y-25854819D01*
X103861905Y-25854819D02*
X104242857Y-25854819D01*
X104242857Y-25854819D02*
X104338095Y-25902438D01*
X104338095Y-25902438D02*
X104385714Y-25950057D01*
X104385714Y-25950057D02*
X104433333Y-26045295D01*
X104433333Y-26045295D02*
X104433333Y-26188152D01*
X104433333Y-26188152D02*
X104385714Y-26283390D01*
X104385714Y-26283390D02*
X104338095Y-26331009D01*
X104338095Y-26331009D02*
X104242857Y-26378628D01*
X104242857Y-26378628D02*
X103861905Y-26378628D01*
X104766667Y-25854819D02*
X105385714Y-25854819D01*
X105385714Y-25854819D02*
X105052381Y-26235771D01*
X105052381Y-26235771D02*
X105195238Y-26235771D01*
X105195238Y-26235771D02*
X105290476Y-26283390D01*
X105290476Y-26283390D02*
X105338095Y-26331009D01*
X105338095Y-26331009D02*
X105385714Y-26426247D01*
X105385714Y-26426247D02*
X105385714Y-26664342D01*
X105385714Y-26664342D02*
X105338095Y-26759580D01*
X105338095Y-26759580D02*
X105290476Y-26807200D01*
X105290476Y-26807200D02*
X105195238Y-26854819D01*
X105195238Y-26854819D02*
X104909524Y-26854819D01*
X104909524Y-26854819D02*
X104814286Y-26807200D01*
X104814286Y-26807200D02*
X104766667Y-26759580D01*
X101507142Y-26759580D02*
X101459523Y-26807200D01*
X101459523Y-26807200D02*
X101316666Y-26854819D01*
X101316666Y-26854819D02*
X101221428Y-26854819D01*
X101221428Y-26854819D02*
X101078571Y-26807200D01*
X101078571Y-26807200D02*
X100983333Y-26711961D01*
X100983333Y-26711961D02*
X100935714Y-26616723D01*
X100935714Y-26616723D02*
X100888095Y-26426247D01*
X100888095Y-26426247D02*
X100888095Y-26283390D01*
X100888095Y-26283390D02*
X100935714Y-26092914D01*
X100935714Y-26092914D02*
X100983333Y-25997676D01*
X100983333Y-25997676D02*
X101078571Y-25902438D01*
X101078571Y-25902438D02*
X101221428Y-25854819D01*
X101221428Y-25854819D02*
X101316666Y-25854819D01*
X101316666Y-25854819D02*
X101459523Y-25902438D01*
X101459523Y-25902438D02*
X101507142Y-25950057D01*
X101888095Y-25950057D02*
X101935714Y-25902438D01*
X101935714Y-25902438D02*
X102030952Y-25854819D01*
X102030952Y-25854819D02*
X102269047Y-25854819D01*
X102269047Y-25854819D02*
X102364285Y-25902438D01*
X102364285Y-25902438D02*
X102411904Y-25950057D01*
X102411904Y-25950057D02*
X102459523Y-26045295D01*
X102459523Y-26045295D02*
X102459523Y-26140533D01*
X102459523Y-26140533D02*
X102411904Y-26283390D01*
X102411904Y-26283390D02*
X101840476Y-26854819D01*
X101840476Y-26854819D02*
X102459523Y-26854819D01*
X103078571Y-25854819D02*
X103173809Y-25854819D01*
X103173809Y-25854819D02*
X103269047Y-25902438D01*
X103269047Y-25902438D02*
X103316666Y-25950057D01*
X103316666Y-25950057D02*
X103364285Y-26045295D01*
X103364285Y-26045295D02*
X103411904Y-26235771D01*
X103411904Y-26235771D02*
X103411904Y-26473866D01*
X103411904Y-26473866D02*
X103364285Y-26664342D01*
X103364285Y-26664342D02*
X103316666Y-26759580D01*
X103316666Y-26759580D02*
X103269047Y-26807200D01*
X103269047Y-26807200D02*
X103173809Y-26854819D01*
X103173809Y-26854819D02*
X103078571Y-26854819D01*
X103078571Y-26854819D02*
X102983333Y-26807200D01*
X102983333Y-26807200D02*
X102935714Y-26759580D01*
X102935714Y-26759580D02*
X102888095Y-26664342D01*
X102888095Y-26664342D02*
X102840476Y-26473866D01*
X102840476Y-26473866D02*
X102840476Y-26235771D01*
X102840476Y-26235771D02*
X102888095Y-26045295D01*
X102888095Y-26045295D02*
X102935714Y-25950057D01*
X102935714Y-25950057D02*
X102983333Y-25902438D01*
X102983333Y-25902438D02*
X103078571Y-25854819D01*
X120911905Y-52429819D02*
X120911905Y-51429819D01*
X120911905Y-51429819D02*
X121150000Y-51429819D01*
X121150000Y-51429819D02*
X121292857Y-51477438D01*
X121292857Y-51477438D02*
X121388095Y-51572676D01*
X121388095Y-51572676D02*
X121435714Y-51667914D01*
X121435714Y-51667914D02*
X121483333Y-51858390D01*
X121483333Y-51858390D02*
X121483333Y-52001247D01*
X121483333Y-52001247D02*
X121435714Y-52191723D01*
X121435714Y-52191723D02*
X121388095Y-52286961D01*
X121388095Y-52286961D02*
X121292857Y-52382200D01*
X121292857Y-52382200D02*
X121150000Y-52429819D01*
X121150000Y-52429819D02*
X120911905Y-52429819D01*
X122340476Y-51763152D02*
X122340476Y-52429819D01*
X122102381Y-51382200D02*
X121864286Y-52096485D01*
X121864286Y-52096485D02*
X122483333Y-52096485D01*
X101507142Y-25009580D02*
X101459523Y-25057200D01*
X101459523Y-25057200D02*
X101316666Y-25104819D01*
X101316666Y-25104819D02*
X101221428Y-25104819D01*
X101221428Y-25104819D02*
X101078571Y-25057200D01*
X101078571Y-25057200D02*
X100983333Y-24961961D01*
X100983333Y-24961961D02*
X100935714Y-24866723D01*
X100935714Y-24866723D02*
X100888095Y-24676247D01*
X100888095Y-24676247D02*
X100888095Y-24533390D01*
X100888095Y-24533390D02*
X100935714Y-24342914D01*
X100935714Y-24342914D02*
X100983333Y-24247676D01*
X100983333Y-24247676D02*
X101078571Y-24152438D01*
X101078571Y-24152438D02*
X101221428Y-24104819D01*
X101221428Y-24104819D02*
X101316666Y-24104819D01*
X101316666Y-24104819D02*
X101459523Y-24152438D01*
X101459523Y-24152438D02*
X101507142Y-24200057D01*
X102459523Y-25104819D02*
X101888095Y-25104819D01*
X102173809Y-25104819D02*
X102173809Y-24104819D01*
X102173809Y-24104819D02*
X102078571Y-24247676D01*
X102078571Y-24247676D02*
X101983333Y-24342914D01*
X101983333Y-24342914D02*
X101888095Y-24390533D01*
X103030952Y-24533390D02*
X102935714Y-24485771D01*
X102935714Y-24485771D02*
X102888095Y-24438152D01*
X102888095Y-24438152D02*
X102840476Y-24342914D01*
X102840476Y-24342914D02*
X102840476Y-24295295D01*
X102840476Y-24295295D02*
X102888095Y-24200057D01*
X102888095Y-24200057D02*
X102935714Y-24152438D01*
X102935714Y-24152438D02*
X103030952Y-24104819D01*
X103030952Y-24104819D02*
X103221428Y-24104819D01*
X103221428Y-24104819D02*
X103316666Y-24152438D01*
X103316666Y-24152438D02*
X103364285Y-24200057D01*
X103364285Y-24200057D02*
X103411904Y-24295295D01*
X103411904Y-24295295D02*
X103411904Y-24342914D01*
X103411904Y-24342914D02*
X103364285Y-24438152D01*
X103364285Y-24438152D02*
X103316666Y-24485771D01*
X103316666Y-24485771D02*
X103221428Y-24533390D01*
X103221428Y-24533390D02*
X103030952Y-24533390D01*
X103030952Y-24533390D02*
X102935714Y-24581009D01*
X102935714Y-24581009D02*
X102888095Y-24628628D01*
X102888095Y-24628628D02*
X102840476Y-24723866D01*
X102840476Y-24723866D02*
X102840476Y-24914342D01*
X102840476Y-24914342D02*
X102888095Y-25009580D01*
X102888095Y-25009580D02*
X102935714Y-25057200D01*
X102935714Y-25057200D02*
X103030952Y-25104819D01*
X103030952Y-25104819D02*
X103221428Y-25104819D01*
X103221428Y-25104819D02*
X103316666Y-25057200D01*
X103316666Y-25057200D02*
X103364285Y-25009580D01*
X103364285Y-25009580D02*
X103411904Y-24914342D01*
X103411904Y-24914342D02*
X103411904Y-24723866D01*
X103411904Y-24723866D02*
X103364285Y-24628628D01*
X103364285Y-24628628D02*
X103316666Y-24581009D01*
X103316666Y-24581009D02*
X103221428Y-24533390D01*
X103957142Y-30354819D02*
X103623809Y-29878628D01*
X103385714Y-30354819D02*
X103385714Y-29354819D01*
X103385714Y-29354819D02*
X103766666Y-29354819D01*
X103766666Y-29354819D02*
X103861904Y-29402438D01*
X103861904Y-29402438D02*
X103909523Y-29450057D01*
X103909523Y-29450057D02*
X103957142Y-29545295D01*
X103957142Y-29545295D02*
X103957142Y-29688152D01*
X103957142Y-29688152D02*
X103909523Y-29783390D01*
X103909523Y-29783390D02*
X103861904Y-29831009D01*
X103861904Y-29831009D02*
X103766666Y-29878628D01*
X103766666Y-29878628D02*
X103385714Y-29878628D01*
X104909523Y-30354819D02*
X104338095Y-30354819D01*
X104623809Y-30354819D02*
X104623809Y-29354819D01*
X104623809Y-29354819D02*
X104528571Y-29497676D01*
X104528571Y-29497676D02*
X104433333Y-29592914D01*
X104433333Y-29592914D02*
X104338095Y-29640533D01*
X105290476Y-29450057D02*
X105338095Y-29402438D01*
X105338095Y-29402438D02*
X105433333Y-29354819D01*
X105433333Y-29354819D02*
X105671428Y-29354819D01*
X105671428Y-29354819D02*
X105766666Y-29402438D01*
X105766666Y-29402438D02*
X105814285Y-29450057D01*
X105814285Y-29450057D02*
X105861904Y-29545295D01*
X105861904Y-29545295D02*
X105861904Y-29640533D01*
X105861904Y-29640533D02*
X105814285Y-29783390D01*
X105814285Y-29783390D02*
X105242857Y-30354819D01*
X105242857Y-30354819D02*
X105861904Y-30354819D01*
X120911905Y-48929819D02*
X120911905Y-47929819D01*
X120911905Y-47929819D02*
X121150000Y-47929819D01*
X121150000Y-47929819D02*
X121292857Y-47977438D01*
X121292857Y-47977438D02*
X121388095Y-48072676D01*
X121388095Y-48072676D02*
X121435714Y-48167914D01*
X121435714Y-48167914D02*
X121483333Y-48358390D01*
X121483333Y-48358390D02*
X121483333Y-48501247D01*
X121483333Y-48501247D02*
X121435714Y-48691723D01*
X121435714Y-48691723D02*
X121388095Y-48786961D01*
X121388095Y-48786961D02*
X121292857Y-48882200D01*
X121292857Y-48882200D02*
X121150000Y-48929819D01*
X121150000Y-48929819D02*
X120911905Y-48929819D01*
X121864286Y-48025057D02*
X121911905Y-47977438D01*
X121911905Y-47977438D02*
X122007143Y-47929819D01*
X122007143Y-47929819D02*
X122245238Y-47929819D01*
X122245238Y-47929819D02*
X122340476Y-47977438D01*
X122340476Y-47977438D02*
X122388095Y-48025057D01*
X122388095Y-48025057D02*
X122435714Y-48120295D01*
X122435714Y-48120295D02*
X122435714Y-48215533D01*
X122435714Y-48215533D02*
X122388095Y-48358390D01*
X122388095Y-48358390D02*
X121816667Y-48929819D01*
X121816667Y-48929819D02*
X122435714Y-48929819D01*
X128093809Y-46608628D02*
X128093809Y-47084819D01*
X127760476Y-46084819D02*
X128093809Y-46608628D01*
X128093809Y-46608628D02*
X128427142Y-46084819D01*
X129284285Y-47084819D02*
X128712857Y-47084819D01*
X128998571Y-47084819D02*
X128998571Y-46084819D01*
X128998571Y-46084819D02*
X128903333Y-46227676D01*
X128903333Y-46227676D02*
X128808095Y-46322914D01*
X128808095Y-46322914D02*
X128712857Y-46370533D01*
D11*
X113858214Y-55287817D02*
X113858214Y-55676388D01*
X113858214Y-55676388D02*
X113881071Y-55722102D01*
X113881071Y-55722102D02*
X113903929Y-55744960D01*
X113903929Y-55744960D02*
X113949643Y-55767817D01*
X113949643Y-55767817D02*
X114041071Y-55767817D01*
X114041071Y-55767817D02*
X114086786Y-55744960D01*
X114086786Y-55744960D02*
X114109643Y-55722102D01*
X114109643Y-55722102D02*
X114132500Y-55676388D01*
X114132500Y-55676388D02*
X114132500Y-55287817D01*
X114612500Y-55767817D02*
X114338214Y-55767817D01*
X114475357Y-55767817D02*
X114475357Y-55287817D01*
X114475357Y-55287817D02*
X114429643Y-55356388D01*
X114429643Y-55356388D02*
X114383928Y-55402102D01*
X114383928Y-55402102D02*
X114338214Y-55424960D01*
X115023929Y-55447817D02*
X115023929Y-55767817D01*
X114909643Y-55264960D02*
X114795357Y-55607817D01*
X114795357Y-55607817D02*
X115092500Y-55607817D01*
D10*
X70003285Y-64289009D02*
X70146142Y-64336628D01*
X70146142Y-64336628D02*
X70193761Y-64384247D01*
X70193761Y-64384247D02*
X70241380Y-64479485D01*
X70241380Y-64479485D02*
X70241380Y-64622342D01*
X70241380Y-64622342D02*
X70193761Y-64717580D01*
X70193761Y-64717580D02*
X70146142Y-64765200D01*
X70146142Y-64765200D02*
X70050904Y-64812819D01*
X70050904Y-64812819D02*
X69669952Y-64812819D01*
X69669952Y-64812819D02*
X69669952Y-63812819D01*
X69669952Y-63812819D02*
X70003285Y-63812819D01*
X70003285Y-63812819D02*
X70098523Y-63860438D01*
X70098523Y-63860438D02*
X70146142Y-63908057D01*
X70146142Y-63908057D02*
X70193761Y-64003295D01*
X70193761Y-64003295D02*
X70193761Y-64098533D01*
X70193761Y-64098533D02*
X70146142Y-64193771D01*
X70146142Y-64193771D02*
X70098523Y-64241390D01*
X70098523Y-64241390D02*
X70003285Y-64289009D01*
X70003285Y-64289009D02*
X69669952Y-64289009D01*
X70527095Y-63812819D02*
X71098523Y-63812819D01*
X70812809Y-64812819D02*
X70812809Y-63812819D01*
X71955666Y-64812819D02*
X71384238Y-64812819D01*
X71669952Y-64812819D02*
X71669952Y-63812819D01*
X71669952Y-63812819D02*
X71574714Y-63955676D01*
X71574714Y-63955676D02*
X71479476Y-64050914D01*
X71479476Y-64050914D02*
X71384238Y-64098533D01*
X93014819Y-48827857D02*
X92538628Y-49161190D01*
X93014819Y-49399285D02*
X92014819Y-49399285D01*
X92014819Y-49399285D02*
X92014819Y-49018333D01*
X92014819Y-49018333D02*
X92062438Y-48923095D01*
X92062438Y-48923095D02*
X92110057Y-48875476D01*
X92110057Y-48875476D02*
X92205295Y-48827857D01*
X92205295Y-48827857D02*
X92348152Y-48827857D01*
X92348152Y-48827857D02*
X92443390Y-48875476D01*
X92443390Y-48875476D02*
X92491009Y-48923095D01*
X92491009Y-48923095D02*
X92538628Y-49018333D01*
X92538628Y-49018333D02*
X92538628Y-49399285D01*
X92110057Y-48446904D02*
X92062438Y-48399285D01*
X92062438Y-48399285D02*
X92014819Y-48304047D01*
X92014819Y-48304047D02*
X92014819Y-48065952D01*
X92014819Y-48065952D02*
X92062438Y-47970714D01*
X92062438Y-47970714D02*
X92110057Y-47923095D01*
X92110057Y-47923095D02*
X92205295Y-47875476D01*
X92205295Y-47875476D02*
X92300533Y-47875476D01*
X92300533Y-47875476D02*
X92443390Y-47923095D01*
X92443390Y-47923095D02*
X93014819Y-48494523D01*
X93014819Y-48494523D02*
X93014819Y-47875476D01*
X93014819Y-46923095D02*
X93014819Y-47494523D01*
X93014819Y-47208809D02*
X92014819Y-47208809D01*
X92014819Y-47208809D02*
X92157676Y-47304047D01*
X92157676Y-47304047D02*
X92252914Y-47399285D01*
X92252914Y-47399285D02*
X92300533Y-47494523D01*
X109157142Y-35759580D02*
X109109523Y-35807200D01*
X109109523Y-35807200D02*
X108966666Y-35854819D01*
X108966666Y-35854819D02*
X108871428Y-35854819D01*
X108871428Y-35854819D02*
X108728571Y-35807200D01*
X108728571Y-35807200D02*
X108633333Y-35711961D01*
X108633333Y-35711961D02*
X108585714Y-35616723D01*
X108585714Y-35616723D02*
X108538095Y-35426247D01*
X108538095Y-35426247D02*
X108538095Y-35283390D01*
X108538095Y-35283390D02*
X108585714Y-35092914D01*
X108585714Y-35092914D02*
X108633333Y-34997676D01*
X108633333Y-34997676D02*
X108728571Y-34902438D01*
X108728571Y-34902438D02*
X108871428Y-34854819D01*
X108871428Y-34854819D02*
X108966666Y-34854819D01*
X108966666Y-34854819D02*
X109109523Y-34902438D01*
X109109523Y-34902438D02*
X109157142Y-34950057D01*
X110109523Y-35854819D02*
X109538095Y-35854819D01*
X109823809Y-35854819D02*
X109823809Y-34854819D01*
X109823809Y-34854819D02*
X109728571Y-34997676D01*
X109728571Y-34997676D02*
X109633333Y-35092914D01*
X109633333Y-35092914D02*
X109538095Y-35140533D01*
X111061904Y-35854819D02*
X110490476Y-35854819D01*
X110776190Y-35854819D02*
X110776190Y-34854819D01*
X110776190Y-34854819D02*
X110680952Y-34997676D01*
X110680952Y-34997676D02*
X110585714Y-35092914D01*
X110585714Y-35092914D02*
X110490476Y-35140533D01*
X99533333Y-25009580D02*
X99485714Y-25057200D01*
X99485714Y-25057200D02*
X99342857Y-25104819D01*
X99342857Y-25104819D02*
X99247619Y-25104819D01*
X99247619Y-25104819D02*
X99104762Y-25057200D01*
X99104762Y-25057200D02*
X99009524Y-24961961D01*
X99009524Y-24961961D02*
X98961905Y-24866723D01*
X98961905Y-24866723D02*
X98914286Y-24676247D01*
X98914286Y-24676247D02*
X98914286Y-24533390D01*
X98914286Y-24533390D02*
X98961905Y-24342914D01*
X98961905Y-24342914D02*
X99009524Y-24247676D01*
X99009524Y-24247676D02*
X99104762Y-24152438D01*
X99104762Y-24152438D02*
X99247619Y-24104819D01*
X99247619Y-24104819D02*
X99342857Y-24104819D01*
X99342857Y-24104819D02*
X99485714Y-24152438D01*
X99485714Y-24152438D02*
X99533333Y-24200057D01*
X99866667Y-24104819D02*
X100485714Y-24104819D01*
X100485714Y-24104819D02*
X100152381Y-24485771D01*
X100152381Y-24485771D02*
X100295238Y-24485771D01*
X100295238Y-24485771D02*
X100390476Y-24533390D01*
X100390476Y-24533390D02*
X100438095Y-24581009D01*
X100438095Y-24581009D02*
X100485714Y-24676247D01*
X100485714Y-24676247D02*
X100485714Y-24914342D01*
X100485714Y-24914342D02*
X100438095Y-25009580D01*
X100438095Y-25009580D02*
X100390476Y-25057200D01*
X100390476Y-25057200D02*
X100295238Y-25104819D01*
X100295238Y-25104819D02*
X100009524Y-25104819D01*
X100009524Y-25104819D02*
X99914286Y-25057200D01*
X99914286Y-25057200D02*
X99866667Y-25009580D01*
X109633333Y-39354819D02*
X109157143Y-39354819D01*
X109157143Y-39354819D02*
X109157143Y-38354819D01*
X110395238Y-38688152D02*
X110395238Y-39354819D01*
X110157143Y-38307200D02*
X109919048Y-39021485D01*
X109919048Y-39021485D02*
X110538095Y-39021485D01*
X99057142Y-32009580D02*
X99009523Y-32057200D01*
X99009523Y-32057200D02*
X98866666Y-32104819D01*
X98866666Y-32104819D02*
X98771428Y-32104819D01*
X98771428Y-32104819D02*
X98628571Y-32057200D01*
X98628571Y-32057200D02*
X98533333Y-31961961D01*
X98533333Y-31961961D02*
X98485714Y-31866723D01*
X98485714Y-31866723D02*
X98438095Y-31676247D01*
X98438095Y-31676247D02*
X98438095Y-31533390D01*
X98438095Y-31533390D02*
X98485714Y-31342914D01*
X98485714Y-31342914D02*
X98533333Y-31247676D01*
X98533333Y-31247676D02*
X98628571Y-31152438D01*
X98628571Y-31152438D02*
X98771428Y-31104819D01*
X98771428Y-31104819D02*
X98866666Y-31104819D01*
X98866666Y-31104819D02*
X99009523Y-31152438D01*
X99009523Y-31152438D02*
X99057142Y-31200057D01*
X100009523Y-32104819D02*
X99438095Y-32104819D01*
X99723809Y-32104819D02*
X99723809Y-31104819D01*
X99723809Y-31104819D02*
X99628571Y-31247676D01*
X99628571Y-31247676D02*
X99533333Y-31342914D01*
X99533333Y-31342914D02*
X99438095Y-31390533D01*
X100914285Y-31104819D02*
X100438095Y-31104819D01*
X100438095Y-31104819D02*
X100390476Y-31581009D01*
X100390476Y-31581009D02*
X100438095Y-31533390D01*
X100438095Y-31533390D02*
X100533333Y-31485771D01*
X100533333Y-31485771D02*
X100771428Y-31485771D01*
X100771428Y-31485771D02*
X100866666Y-31533390D01*
X100866666Y-31533390D02*
X100914285Y-31581009D01*
X100914285Y-31581009D02*
X100961904Y-31676247D01*
X100961904Y-31676247D02*
X100961904Y-31914342D01*
X100961904Y-31914342D02*
X100914285Y-32009580D01*
X100914285Y-32009580D02*
X100866666Y-32057200D01*
X100866666Y-32057200D02*
X100771428Y-32104819D01*
X100771428Y-32104819D02*
X100533333Y-32104819D01*
X100533333Y-32104819D02*
X100438095Y-32057200D01*
X100438095Y-32057200D02*
X100390476Y-32009580D01*
X61303285Y-20789009D02*
X61446142Y-20836628D01*
X61446142Y-20836628D02*
X61493761Y-20884247D01*
X61493761Y-20884247D02*
X61541380Y-20979485D01*
X61541380Y-20979485D02*
X61541380Y-21122342D01*
X61541380Y-21122342D02*
X61493761Y-21217580D01*
X61493761Y-21217580D02*
X61446142Y-21265200D01*
X61446142Y-21265200D02*
X61350904Y-21312819D01*
X61350904Y-21312819D02*
X60969952Y-21312819D01*
X60969952Y-21312819D02*
X60969952Y-20312819D01*
X60969952Y-20312819D02*
X61303285Y-20312819D01*
X61303285Y-20312819D02*
X61398523Y-20360438D01*
X61398523Y-20360438D02*
X61446142Y-20408057D01*
X61446142Y-20408057D02*
X61493761Y-20503295D01*
X61493761Y-20503295D02*
X61493761Y-20598533D01*
X61493761Y-20598533D02*
X61446142Y-20693771D01*
X61446142Y-20693771D02*
X61398523Y-20741390D01*
X61398523Y-20741390D02*
X61303285Y-20789009D01*
X61303285Y-20789009D02*
X60969952Y-20789009D01*
X61827095Y-20312819D02*
X62398523Y-20312819D01*
X62112809Y-21312819D02*
X62112809Y-20312819D01*
X62684238Y-20408057D02*
X62731857Y-20360438D01*
X62731857Y-20360438D02*
X62827095Y-20312819D01*
X62827095Y-20312819D02*
X63065190Y-20312819D01*
X63065190Y-20312819D02*
X63160428Y-20360438D01*
X63160428Y-20360438D02*
X63208047Y-20408057D01*
X63208047Y-20408057D02*
X63255666Y-20503295D01*
X63255666Y-20503295D02*
X63255666Y-20598533D01*
X63255666Y-20598533D02*
X63208047Y-20741390D01*
X63208047Y-20741390D02*
X62636619Y-21312819D01*
X62636619Y-21312819D02*
X63255666Y-21312819D01*
X101507142Y-23259580D02*
X101459523Y-23307200D01*
X101459523Y-23307200D02*
X101316666Y-23354819D01*
X101316666Y-23354819D02*
X101221428Y-23354819D01*
X101221428Y-23354819D02*
X101078571Y-23307200D01*
X101078571Y-23307200D02*
X100983333Y-23211961D01*
X100983333Y-23211961D02*
X100935714Y-23116723D01*
X100935714Y-23116723D02*
X100888095Y-22926247D01*
X100888095Y-22926247D02*
X100888095Y-22783390D01*
X100888095Y-22783390D02*
X100935714Y-22592914D01*
X100935714Y-22592914D02*
X100983333Y-22497676D01*
X100983333Y-22497676D02*
X101078571Y-22402438D01*
X101078571Y-22402438D02*
X101221428Y-22354819D01*
X101221428Y-22354819D02*
X101316666Y-22354819D01*
X101316666Y-22354819D02*
X101459523Y-22402438D01*
X101459523Y-22402438D02*
X101507142Y-22450057D01*
X102459523Y-23354819D02*
X101888095Y-23354819D01*
X102173809Y-23354819D02*
X102173809Y-22354819D01*
X102173809Y-22354819D02*
X102078571Y-22497676D01*
X102078571Y-22497676D02*
X101983333Y-22592914D01*
X101983333Y-22592914D02*
X101888095Y-22640533D01*
X102792857Y-22354819D02*
X103459523Y-22354819D01*
X103459523Y-22354819D02*
X103030952Y-23354819D01*
X104433333Y-21604819D02*
X103957143Y-21604819D01*
X103957143Y-21604819D02*
X103957143Y-20604819D01*
X105290476Y-21604819D02*
X104719048Y-21604819D01*
X105004762Y-21604819D02*
X105004762Y-20604819D01*
X105004762Y-20604819D02*
X104909524Y-20747676D01*
X104909524Y-20747676D02*
X104814286Y-20842914D01*
X104814286Y-20842914D02*
X104719048Y-20890533D01*
X32141666Y-161604819D02*
X32141666Y-162319104D01*
X32141666Y-162319104D02*
X32094047Y-162461961D01*
X32094047Y-162461961D02*
X31998809Y-162557200D01*
X31998809Y-162557200D02*
X31855952Y-162604819D01*
X31855952Y-162604819D02*
X31760714Y-162604819D01*
X32522619Y-161604819D02*
X33141666Y-161604819D01*
X33141666Y-161604819D02*
X32808333Y-161985771D01*
X32808333Y-161985771D02*
X32951190Y-161985771D01*
X32951190Y-161985771D02*
X33046428Y-162033390D01*
X33046428Y-162033390D02*
X33094047Y-162081009D01*
X33094047Y-162081009D02*
X33141666Y-162176247D01*
X33141666Y-162176247D02*
X33141666Y-162414342D01*
X33141666Y-162414342D02*
X33094047Y-162509580D01*
X33094047Y-162509580D02*
X33046428Y-162557200D01*
X33046428Y-162557200D02*
X32951190Y-162604819D01*
X32951190Y-162604819D02*
X32665476Y-162604819D01*
X32665476Y-162604819D02*
X32570238Y-162557200D01*
X32570238Y-162557200D02*
X32522619Y-162509580D01*
X20706905Y-171114819D02*
X20706905Y-170114819D01*
X20706905Y-170114819D02*
X21087857Y-170114819D01*
X21087857Y-170114819D02*
X21183095Y-170162438D01*
X21183095Y-170162438D02*
X21230714Y-170210057D01*
X21230714Y-170210057D02*
X21278333Y-170305295D01*
X21278333Y-170305295D02*
X21278333Y-170448152D01*
X21278333Y-170448152D02*
X21230714Y-170543390D01*
X21230714Y-170543390D02*
X21183095Y-170591009D01*
X21183095Y-170591009D02*
X21087857Y-170638628D01*
X21087857Y-170638628D02*
X20706905Y-170638628D01*
X22230714Y-171114819D02*
X21659286Y-171114819D01*
X21945000Y-171114819D02*
X21945000Y-170114819D01*
X21945000Y-170114819D02*
X21849762Y-170257676D01*
X21849762Y-170257676D02*
X21754524Y-170352914D01*
X21754524Y-170352914D02*
X21659286Y-170400533D01*
X109633333Y-41104819D02*
X109300000Y-40628628D01*
X109061905Y-41104819D02*
X109061905Y-40104819D01*
X109061905Y-40104819D02*
X109442857Y-40104819D01*
X109442857Y-40104819D02*
X109538095Y-40152438D01*
X109538095Y-40152438D02*
X109585714Y-40200057D01*
X109585714Y-40200057D02*
X109633333Y-40295295D01*
X109633333Y-40295295D02*
X109633333Y-40438152D01*
X109633333Y-40438152D02*
X109585714Y-40533390D01*
X109585714Y-40533390D02*
X109538095Y-40581009D01*
X109538095Y-40581009D02*
X109442857Y-40628628D01*
X109442857Y-40628628D02*
X109061905Y-40628628D01*
X110538095Y-40104819D02*
X110061905Y-40104819D01*
X110061905Y-40104819D02*
X110014286Y-40581009D01*
X110014286Y-40581009D02*
X110061905Y-40533390D01*
X110061905Y-40533390D02*
X110157143Y-40485771D01*
X110157143Y-40485771D02*
X110395238Y-40485771D01*
X110395238Y-40485771D02*
X110490476Y-40533390D01*
X110490476Y-40533390D02*
X110538095Y-40581009D01*
X110538095Y-40581009D02*
X110585714Y-40676247D01*
X110585714Y-40676247D02*
X110585714Y-40914342D01*
X110585714Y-40914342D02*
X110538095Y-41009580D01*
X110538095Y-41009580D02*
X110490476Y-41057200D01*
X110490476Y-41057200D02*
X110395238Y-41104819D01*
X110395238Y-41104819D02*
X110157143Y-41104819D01*
X110157143Y-41104819D02*
X110061905Y-41057200D01*
X110061905Y-41057200D02*
X110014286Y-41009580D01*
X89707142Y-25009580D02*
X89659523Y-25057200D01*
X89659523Y-25057200D02*
X89516666Y-25104819D01*
X89516666Y-25104819D02*
X89421428Y-25104819D01*
X89421428Y-25104819D02*
X89278571Y-25057200D01*
X89278571Y-25057200D02*
X89183333Y-24961961D01*
X89183333Y-24961961D02*
X89135714Y-24866723D01*
X89135714Y-24866723D02*
X89088095Y-24676247D01*
X89088095Y-24676247D02*
X89088095Y-24533390D01*
X89088095Y-24533390D02*
X89135714Y-24342914D01*
X89135714Y-24342914D02*
X89183333Y-24247676D01*
X89183333Y-24247676D02*
X89278571Y-24152438D01*
X89278571Y-24152438D02*
X89421428Y-24104819D01*
X89421428Y-24104819D02*
X89516666Y-24104819D01*
X89516666Y-24104819D02*
X89659523Y-24152438D01*
X89659523Y-24152438D02*
X89707142Y-24200057D01*
X90659523Y-25104819D02*
X90088095Y-25104819D01*
X90373809Y-25104819D02*
X90373809Y-24104819D01*
X90373809Y-24104819D02*
X90278571Y-24247676D01*
X90278571Y-24247676D02*
X90183333Y-24342914D01*
X90183333Y-24342914D02*
X90088095Y-24390533D01*
X91040476Y-24200057D02*
X91088095Y-24152438D01*
X91088095Y-24152438D02*
X91183333Y-24104819D01*
X91183333Y-24104819D02*
X91421428Y-24104819D01*
X91421428Y-24104819D02*
X91516666Y-24152438D01*
X91516666Y-24152438D02*
X91564285Y-24200057D01*
X91564285Y-24200057D02*
X91611904Y-24295295D01*
X91611904Y-24295295D02*
X91611904Y-24390533D01*
X91611904Y-24390533D02*
X91564285Y-24533390D01*
X91564285Y-24533390D02*
X90992857Y-25104819D01*
X90992857Y-25104819D02*
X91611904Y-25104819D01*
D12*
X118189047Y-49465270D02*
X118068095Y-49404794D01*
X118068095Y-49404794D02*
X117947142Y-49283842D01*
X117947142Y-49283842D02*
X117765714Y-49102413D01*
X117765714Y-49102413D02*
X117644761Y-49041937D01*
X117644761Y-49041937D02*
X117523809Y-49041937D01*
X117584285Y-49344318D02*
X117463333Y-49283842D01*
X117463333Y-49283842D02*
X117342380Y-49162889D01*
X117342380Y-49162889D02*
X117281904Y-48920984D01*
X117281904Y-48920984D02*
X117281904Y-48497651D01*
X117281904Y-48497651D02*
X117342380Y-48255746D01*
X117342380Y-48255746D02*
X117463333Y-48134794D01*
X117463333Y-48134794D02*
X117584285Y-48074318D01*
X117584285Y-48074318D02*
X117826190Y-48074318D01*
X117826190Y-48074318D02*
X117947142Y-48134794D01*
X117947142Y-48134794D02*
X118068095Y-48255746D01*
X118068095Y-48255746D02*
X118128571Y-48497651D01*
X118128571Y-48497651D02*
X118128571Y-48920984D01*
X118128571Y-48920984D02*
X118068095Y-49162889D01*
X118068095Y-49162889D02*
X117947142Y-49283842D01*
X117947142Y-49283842D02*
X117826190Y-49344318D01*
X117826190Y-49344318D02*
X117584285Y-49344318D01*
X118612380Y-48195270D02*
X118672856Y-48134794D01*
X118672856Y-48134794D02*
X118793809Y-48074318D01*
X118793809Y-48074318D02*
X119096190Y-48074318D01*
X119096190Y-48074318D02*
X119217142Y-48134794D01*
X119217142Y-48134794D02*
X119277618Y-48195270D01*
X119277618Y-48195270D02*
X119338095Y-48316222D01*
X119338095Y-48316222D02*
X119338095Y-48437175D01*
X119338095Y-48437175D02*
X119277618Y-48618603D01*
X119277618Y-48618603D02*
X118551904Y-49344318D01*
X118551904Y-49344318D02*
X119338095Y-49344318D01*
D10*
X95083333Y-21604819D02*
X94607143Y-21604819D01*
X94607143Y-21604819D02*
X94607143Y-20604819D01*
X95369048Y-20700057D02*
X95416667Y-20652438D01*
X95416667Y-20652438D02*
X95511905Y-20604819D01*
X95511905Y-20604819D02*
X95750000Y-20604819D01*
X95750000Y-20604819D02*
X95845238Y-20652438D01*
X95845238Y-20652438D02*
X95892857Y-20700057D01*
X95892857Y-20700057D02*
X95940476Y-20795295D01*
X95940476Y-20795295D02*
X95940476Y-20890533D01*
X95940476Y-20890533D02*
X95892857Y-21033390D01*
X95892857Y-21033390D02*
X95321429Y-21604819D01*
X95321429Y-21604819D02*
X95940476Y-21604819D01*
D12*
X118189047Y-45885270D02*
X118068095Y-45824794D01*
X118068095Y-45824794D02*
X117947142Y-45703842D01*
X117947142Y-45703842D02*
X117765714Y-45522413D01*
X117765714Y-45522413D02*
X117644761Y-45461937D01*
X117644761Y-45461937D02*
X117523809Y-45461937D01*
X117584285Y-45764318D02*
X117463333Y-45703842D01*
X117463333Y-45703842D02*
X117342380Y-45582889D01*
X117342380Y-45582889D02*
X117281904Y-45340984D01*
X117281904Y-45340984D02*
X117281904Y-44917651D01*
X117281904Y-44917651D02*
X117342380Y-44675746D01*
X117342380Y-44675746D02*
X117463333Y-44554794D01*
X117463333Y-44554794D02*
X117584285Y-44494318D01*
X117584285Y-44494318D02*
X117826190Y-44494318D01*
X117826190Y-44494318D02*
X117947142Y-44554794D01*
X117947142Y-44554794D02*
X118068095Y-44675746D01*
X118068095Y-44675746D02*
X118128571Y-44917651D01*
X118128571Y-44917651D02*
X118128571Y-45340984D01*
X118128571Y-45340984D02*
X118068095Y-45582889D01*
X118068095Y-45582889D02*
X117947142Y-45703842D01*
X117947142Y-45703842D02*
X117826190Y-45764318D01*
X117826190Y-45764318D02*
X117584285Y-45764318D01*
X119338095Y-45764318D02*
X118612380Y-45764318D01*
X118975237Y-45764318D02*
X118975237Y-44494318D01*
X118975237Y-44494318D02*
X118854285Y-44675746D01*
X118854285Y-44675746D02*
X118733333Y-44796699D01*
X118733333Y-44796699D02*
X118612380Y-44857175D01*
D10*
X144351905Y-71149819D02*
X144351905Y-70149819D01*
X144351905Y-70149819D02*
X144590000Y-70149819D01*
X144590000Y-70149819D02*
X144732857Y-70197438D01*
X144732857Y-70197438D02*
X144828095Y-70292676D01*
X144828095Y-70292676D02*
X144875714Y-70387914D01*
X144875714Y-70387914D02*
X144923333Y-70578390D01*
X144923333Y-70578390D02*
X144923333Y-70721247D01*
X144923333Y-70721247D02*
X144875714Y-70911723D01*
X144875714Y-70911723D02*
X144828095Y-71006961D01*
X144828095Y-71006961D02*
X144732857Y-71102200D01*
X144732857Y-71102200D02*
X144590000Y-71149819D01*
X144590000Y-71149819D02*
X144351905Y-71149819D01*
X145256667Y-70149819D02*
X145875714Y-70149819D01*
X145875714Y-70149819D02*
X145542381Y-70530771D01*
X145542381Y-70530771D02*
X145685238Y-70530771D01*
X145685238Y-70530771D02*
X145780476Y-70578390D01*
X145780476Y-70578390D02*
X145828095Y-70626009D01*
X145828095Y-70626009D02*
X145875714Y-70721247D01*
X145875714Y-70721247D02*
X145875714Y-70959342D01*
X145875714Y-70959342D02*
X145828095Y-71054580D01*
X145828095Y-71054580D02*
X145780476Y-71102200D01*
X145780476Y-71102200D02*
X145685238Y-71149819D01*
X145685238Y-71149819D02*
X145399524Y-71149819D01*
X145399524Y-71149819D02*
X145304286Y-71102200D01*
X145304286Y-71102200D02*
X145256667Y-71054580D01*
X101507142Y-28509580D02*
X101459523Y-28557200D01*
X101459523Y-28557200D02*
X101316666Y-28604819D01*
X101316666Y-28604819D02*
X101221428Y-28604819D01*
X101221428Y-28604819D02*
X101078571Y-28557200D01*
X101078571Y-28557200D02*
X100983333Y-28461961D01*
X100983333Y-28461961D02*
X100935714Y-28366723D01*
X100935714Y-28366723D02*
X100888095Y-28176247D01*
X100888095Y-28176247D02*
X100888095Y-28033390D01*
X100888095Y-28033390D02*
X100935714Y-27842914D01*
X100935714Y-27842914D02*
X100983333Y-27747676D01*
X100983333Y-27747676D02*
X101078571Y-27652438D01*
X101078571Y-27652438D02*
X101221428Y-27604819D01*
X101221428Y-27604819D02*
X101316666Y-27604819D01*
X101316666Y-27604819D02*
X101459523Y-27652438D01*
X101459523Y-27652438D02*
X101507142Y-27700057D01*
X101888095Y-27700057D02*
X101935714Y-27652438D01*
X101935714Y-27652438D02*
X102030952Y-27604819D01*
X102030952Y-27604819D02*
X102269047Y-27604819D01*
X102269047Y-27604819D02*
X102364285Y-27652438D01*
X102364285Y-27652438D02*
X102411904Y-27700057D01*
X102411904Y-27700057D02*
X102459523Y-27795295D01*
X102459523Y-27795295D02*
X102459523Y-27890533D01*
X102459523Y-27890533D02*
X102411904Y-28033390D01*
X102411904Y-28033390D02*
X101840476Y-28604819D01*
X101840476Y-28604819D02*
X102459523Y-28604819D01*
X103411904Y-28604819D02*
X102840476Y-28604819D01*
X103126190Y-28604819D02*
X103126190Y-27604819D01*
X103126190Y-27604819D02*
X103030952Y-27747676D01*
X103030952Y-27747676D02*
X102935714Y-27842914D01*
X102935714Y-27842914D02*
X102840476Y-27890533D01*
X101507142Y-32009580D02*
X101459523Y-32057200D01*
X101459523Y-32057200D02*
X101316666Y-32104819D01*
X101316666Y-32104819D02*
X101221428Y-32104819D01*
X101221428Y-32104819D02*
X101078571Y-32057200D01*
X101078571Y-32057200D02*
X100983333Y-31961961D01*
X100983333Y-31961961D02*
X100935714Y-31866723D01*
X100935714Y-31866723D02*
X100888095Y-31676247D01*
X100888095Y-31676247D02*
X100888095Y-31533390D01*
X100888095Y-31533390D02*
X100935714Y-31342914D01*
X100935714Y-31342914D02*
X100983333Y-31247676D01*
X100983333Y-31247676D02*
X101078571Y-31152438D01*
X101078571Y-31152438D02*
X101221428Y-31104819D01*
X101221428Y-31104819D02*
X101316666Y-31104819D01*
X101316666Y-31104819D02*
X101459523Y-31152438D01*
X101459523Y-31152438D02*
X101507142Y-31200057D01*
X101888095Y-31200057D02*
X101935714Y-31152438D01*
X101935714Y-31152438D02*
X102030952Y-31104819D01*
X102030952Y-31104819D02*
X102269047Y-31104819D01*
X102269047Y-31104819D02*
X102364285Y-31152438D01*
X102364285Y-31152438D02*
X102411904Y-31200057D01*
X102411904Y-31200057D02*
X102459523Y-31295295D01*
X102459523Y-31295295D02*
X102459523Y-31390533D01*
X102459523Y-31390533D02*
X102411904Y-31533390D01*
X102411904Y-31533390D02*
X101840476Y-32104819D01*
X101840476Y-32104819D02*
X102459523Y-32104819D01*
X102792857Y-31104819D02*
X103411904Y-31104819D01*
X103411904Y-31104819D02*
X103078571Y-31485771D01*
X103078571Y-31485771D02*
X103221428Y-31485771D01*
X103221428Y-31485771D02*
X103316666Y-31533390D01*
X103316666Y-31533390D02*
X103364285Y-31581009D01*
X103364285Y-31581009D02*
X103411904Y-31676247D01*
X103411904Y-31676247D02*
X103411904Y-31914342D01*
X103411904Y-31914342D02*
X103364285Y-32009580D01*
X103364285Y-32009580D02*
X103316666Y-32057200D01*
X103316666Y-32057200D02*
X103221428Y-32104819D01*
X103221428Y-32104819D02*
X102935714Y-32104819D01*
X102935714Y-32104819D02*
X102840476Y-32057200D01*
X102840476Y-32057200D02*
X102792857Y-32009580D01*
X101662905Y-51355819D02*
X101662905Y-52165342D01*
X101662905Y-52165342D02*
X101710524Y-52260580D01*
X101710524Y-52260580D02*
X101758143Y-52308200D01*
X101758143Y-52308200D02*
X101853381Y-52355819D01*
X101853381Y-52355819D02*
X102043857Y-52355819D01*
X102043857Y-52355819D02*
X102139095Y-52308200D01*
X102139095Y-52308200D02*
X102186714Y-52260580D01*
X102186714Y-52260580D02*
X102234333Y-52165342D01*
X102234333Y-52165342D02*
X102234333Y-51355819D01*
X103234333Y-52355819D02*
X102662905Y-52355819D01*
X102948619Y-52355819D02*
X102948619Y-51355819D01*
X102948619Y-51355819D02*
X102853381Y-51498676D01*
X102853381Y-51498676D02*
X102758143Y-51593914D01*
X102758143Y-51593914D02*
X102662905Y-51641533D01*
X103567667Y-51355819D02*
X104186714Y-51355819D01*
X104186714Y-51355819D02*
X103853381Y-51736771D01*
X103853381Y-51736771D02*
X103996238Y-51736771D01*
X103996238Y-51736771D02*
X104091476Y-51784390D01*
X104091476Y-51784390D02*
X104139095Y-51832009D01*
X104139095Y-51832009D02*
X104186714Y-51927247D01*
X104186714Y-51927247D02*
X104186714Y-52165342D01*
X104186714Y-52165342D02*
X104139095Y-52260580D01*
X104139095Y-52260580D02*
X104091476Y-52308200D01*
X104091476Y-52308200D02*
X103996238Y-52355819D01*
X103996238Y-52355819D02*
X103710524Y-52355819D01*
X103710524Y-52355819D02*
X103615286Y-52308200D01*
X103615286Y-52308200D02*
X103567667Y-52260580D01*
X92157142Y-21509580D02*
X92109523Y-21557200D01*
X92109523Y-21557200D02*
X91966666Y-21604819D01*
X91966666Y-21604819D02*
X91871428Y-21604819D01*
X91871428Y-21604819D02*
X91728571Y-21557200D01*
X91728571Y-21557200D02*
X91633333Y-21461961D01*
X91633333Y-21461961D02*
X91585714Y-21366723D01*
X91585714Y-21366723D02*
X91538095Y-21176247D01*
X91538095Y-21176247D02*
X91538095Y-21033390D01*
X91538095Y-21033390D02*
X91585714Y-20842914D01*
X91585714Y-20842914D02*
X91633333Y-20747676D01*
X91633333Y-20747676D02*
X91728571Y-20652438D01*
X91728571Y-20652438D02*
X91871428Y-20604819D01*
X91871428Y-20604819D02*
X91966666Y-20604819D01*
X91966666Y-20604819D02*
X92109523Y-20652438D01*
X92109523Y-20652438D02*
X92157142Y-20700057D01*
X93109523Y-21604819D02*
X92538095Y-21604819D01*
X92823809Y-21604819D02*
X92823809Y-20604819D01*
X92823809Y-20604819D02*
X92728571Y-20747676D01*
X92728571Y-20747676D02*
X92633333Y-20842914D01*
X92633333Y-20842914D02*
X92538095Y-20890533D01*
X93442857Y-20604819D02*
X94061904Y-20604819D01*
X94061904Y-20604819D02*
X93728571Y-20985771D01*
X93728571Y-20985771D02*
X93871428Y-20985771D01*
X93871428Y-20985771D02*
X93966666Y-21033390D01*
X93966666Y-21033390D02*
X94014285Y-21081009D01*
X94014285Y-21081009D02*
X94061904Y-21176247D01*
X94061904Y-21176247D02*
X94061904Y-21414342D01*
X94061904Y-21414342D02*
X94014285Y-21509580D01*
X94014285Y-21509580D02*
X93966666Y-21557200D01*
X93966666Y-21557200D02*
X93871428Y-21604819D01*
X93871428Y-21604819D02*
X93585714Y-21604819D01*
X93585714Y-21604819D02*
X93490476Y-21557200D01*
X93490476Y-21557200D02*
X93442857Y-21509580D01*
X92157142Y-25009580D02*
X92109523Y-25057200D01*
X92109523Y-25057200D02*
X91966666Y-25104819D01*
X91966666Y-25104819D02*
X91871428Y-25104819D01*
X91871428Y-25104819D02*
X91728571Y-25057200D01*
X91728571Y-25057200D02*
X91633333Y-24961961D01*
X91633333Y-24961961D02*
X91585714Y-24866723D01*
X91585714Y-24866723D02*
X91538095Y-24676247D01*
X91538095Y-24676247D02*
X91538095Y-24533390D01*
X91538095Y-24533390D02*
X91585714Y-24342914D01*
X91585714Y-24342914D02*
X91633333Y-24247676D01*
X91633333Y-24247676D02*
X91728571Y-24152438D01*
X91728571Y-24152438D02*
X91871428Y-24104819D01*
X91871428Y-24104819D02*
X91966666Y-24104819D01*
X91966666Y-24104819D02*
X92109523Y-24152438D01*
X92109523Y-24152438D02*
X92157142Y-24200057D01*
X92538095Y-24200057D02*
X92585714Y-24152438D01*
X92585714Y-24152438D02*
X92680952Y-24104819D01*
X92680952Y-24104819D02*
X92919047Y-24104819D01*
X92919047Y-24104819D02*
X93014285Y-24152438D01*
X93014285Y-24152438D02*
X93061904Y-24200057D01*
X93061904Y-24200057D02*
X93109523Y-24295295D01*
X93109523Y-24295295D02*
X93109523Y-24390533D01*
X93109523Y-24390533D02*
X93061904Y-24533390D01*
X93061904Y-24533390D02*
X92490476Y-25104819D01*
X92490476Y-25104819D02*
X93109523Y-25104819D01*
X93966666Y-24438152D02*
X93966666Y-25104819D01*
X93728571Y-24057200D02*
X93490476Y-24771485D01*
X93490476Y-24771485D02*
X94109523Y-24771485D01*
X103861904Y-47867319D02*
X103861904Y-48676842D01*
X103861904Y-48676842D02*
X103909523Y-48772080D01*
X103909523Y-48772080D02*
X103957142Y-48819700D01*
X103957142Y-48819700D02*
X104052380Y-48867319D01*
X104052380Y-48867319D02*
X104242856Y-48867319D01*
X104242856Y-48867319D02*
X104338094Y-48819700D01*
X104338094Y-48819700D02*
X104385713Y-48772080D01*
X104385713Y-48772080D02*
X104433332Y-48676842D01*
X104433332Y-48676842D02*
X104433332Y-47867319D01*
X105433332Y-48867319D02*
X104861904Y-48867319D01*
X105147618Y-48867319D02*
X105147618Y-47867319D01*
X105147618Y-47867319D02*
X105052380Y-48010176D01*
X105052380Y-48010176D02*
X104957142Y-48105414D01*
X104957142Y-48105414D02*
X104861904Y-48153033D01*
X106290475Y-47867319D02*
X106099999Y-47867319D01*
X106099999Y-47867319D02*
X106004761Y-47914938D01*
X106004761Y-47914938D02*
X105957142Y-47962557D01*
X105957142Y-47962557D02*
X105861904Y-48105414D01*
X105861904Y-48105414D02*
X105814285Y-48295890D01*
X105814285Y-48295890D02*
X105814285Y-48676842D01*
X105814285Y-48676842D02*
X105861904Y-48772080D01*
X105861904Y-48772080D02*
X105909523Y-48819700D01*
X105909523Y-48819700D02*
X106004761Y-48867319D01*
X106004761Y-48867319D02*
X106195237Y-48867319D01*
X106195237Y-48867319D02*
X106290475Y-48819700D01*
X106290475Y-48819700D02*
X106338094Y-48772080D01*
X106338094Y-48772080D02*
X106385713Y-48676842D01*
X106385713Y-48676842D02*
X106385713Y-48438747D01*
X106385713Y-48438747D02*
X106338094Y-48343509D01*
X106338094Y-48343509D02*
X106290475Y-48295890D01*
X106290475Y-48295890D02*
X106195237Y-48248271D01*
X106195237Y-48248271D02*
X106004761Y-48248271D01*
X106004761Y-48248271D02*
X105909523Y-48295890D01*
X105909523Y-48295890D02*
X105861904Y-48343509D01*
X105861904Y-48343509D02*
X105814285Y-48438747D01*
X103017199Y-46867319D02*
X103017199Y-47105414D01*
X102779104Y-47010176D02*
X103017199Y-47105414D01*
X103017199Y-47105414D02*
X103255294Y-47010176D01*
X102874342Y-47295890D02*
X103017199Y-47105414D01*
X103017199Y-47105414D02*
X103160056Y-47295890D01*
X103017199Y-46867319D02*
X103017199Y-47105414D01*
X102779104Y-47010176D02*
X103017199Y-47105414D01*
X103017199Y-47105414D02*
X103255294Y-47010176D01*
X102874342Y-47295890D02*
X103017199Y-47105414D01*
X103017199Y-47105414D02*
X103160056Y-47295890D01*
X94160180Y-48996905D02*
X93350657Y-48996905D01*
X93350657Y-48996905D02*
X93255419Y-49044524D01*
X93255419Y-49044524D02*
X93207800Y-49092143D01*
X93207800Y-49092143D02*
X93160180Y-49187381D01*
X93160180Y-49187381D02*
X93160180Y-49377857D01*
X93160180Y-49377857D02*
X93207800Y-49473095D01*
X93207800Y-49473095D02*
X93255419Y-49520714D01*
X93255419Y-49520714D02*
X93350657Y-49568333D01*
X93350657Y-49568333D02*
X94160180Y-49568333D01*
X93160180Y-50568333D02*
X93160180Y-49996905D01*
X93160180Y-50282619D02*
X94160180Y-50282619D01*
X94160180Y-50282619D02*
X94017323Y-50187381D01*
X94017323Y-50187381D02*
X93922085Y-50092143D01*
X93922085Y-50092143D02*
X93874466Y-49996905D01*
X94160180Y-51473095D02*
X94160180Y-50996905D01*
X94160180Y-50996905D02*
X93683990Y-50949286D01*
X93683990Y-50949286D02*
X93731609Y-50996905D01*
X93731609Y-50996905D02*
X93779228Y-51092143D01*
X93779228Y-51092143D02*
X93779228Y-51330238D01*
X93779228Y-51330238D02*
X93731609Y-51425476D01*
X93731609Y-51425476D02*
X93683990Y-51473095D01*
X93683990Y-51473095D02*
X93588752Y-51520714D01*
X93588752Y-51520714D02*
X93350657Y-51520714D01*
X93350657Y-51520714D02*
X93255419Y-51473095D01*
X93255419Y-51473095D02*
X93207800Y-51425476D01*
X93207800Y-51425476D02*
X93160180Y-51330238D01*
X93160180Y-51330238D02*
X93160180Y-51092143D01*
X93160180Y-51092143D02*
X93207800Y-50996905D01*
X93207800Y-50996905D02*
X93255419Y-50949286D01*
X95369980Y-44522114D02*
X96369980Y-44522114D01*
X96369980Y-44522114D02*
X96369980Y-44760209D01*
X96369980Y-44760209D02*
X96322361Y-44903066D01*
X96322361Y-44903066D02*
X96227123Y-44998304D01*
X96227123Y-44998304D02*
X96131885Y-45045923D01*
X96131885Y-45045923D02*
X95941409Y-45093542D01*
X95941409Y-45093542D02*
X95798552Y-45093542D01*
X95798552Y-45093542D02*
X95608076Y-45045923D01*
X95608076Y-45045923D02*
X95512838Y-44998304D01*
X95512838Y-44998304D02*
X95417600Y-44903066D01*
X95417600Y-44903066D02*
X95369980Y-44760209D01*
X95369980Y-44760209D02*
X95369980Y-44522114D01*
X95417600Y-45903066D02*
X95369980Y-45807828D01*
X95369980Y-45807828D02*
X95369980Y-45617352D01*
X95369980Y-45617352D02*
X95417600Y-45522114D01*
X95417600Y-45522114D02*
X95512838Y-45474495D01*
X95512838Y-45474495D02*
X95893790Y-45474495D01*
X95893790Y-45474495D02*
X95989028Y-45522114D01*
X95989028Y-45522114D02*
X96036647Y-45617352D01*
X96036647Y-45617352D02*
X96036647Y-45807828D01*
X96036647Y-45807828D02*
X95989028Y-45903066D01*
X95989028Y-45903066D02*
X95893790Y-45950685D01*
X95893790Y-45950685D02*
X95798552Y-45950685D01*
X95798552Y-45950685D02*
X95703314Y-45474495D01*
X95417600Y-46331638D02*
X95369980Y-46426876D01*
X95369980Y-46426876D02*
X95369980Y-46617352D01*
X95369980Y-46617352D02*
X95417600Y-46712590D01*
X95417600Y-46712590D02*
X95512838Y-46760209D01*
X95512838Y-46760209D02*
X95560457Y-46760209D01*
X95560457Y-46760209D02*
X95655695Y-46712590D01*
X95655695Y-46712590D02*
X95703314Y-46617352D01*
X95703314Y-46617352D02*
X95703314Y-46474495D01*
X95703314Y-46474495D02*
X95750933Y-46379257D01*
X95750933Y-46379257D02*
X95846171Y-46331638D01*
X95846171Y-46331638D02*
X95893790Y-46331638D01*
X95893790Y-46331638D02*
X95989028Y-46379257D01*
X95989028Y-46379257D02*
X96036647Y-46474495D01*
X96036647Y-46474495D02*
X96036647Y-46617352D01*
X96036647Y-46617352D02*
X95989028Y-46712590D01*
X95369980Y-47188781D02*
X96036647Y-47188781D01*
X96369980Y-47188781D02*
X96322361Y-47141162D01*
X96322361Y-47141162D02*
X96274742Y-47188781D01*
X96274742Y-47188781D02*
X96322361Y-47236400D01*
X96322361Y-47236400D02*
X96369980Y-47188781D01*
X96369980Y-47188781D02*
X96274742Y-47188781D01*
X96036647Y-48093542D02*
X95227123Y-48093542D01*
X95227123Y-48093542D02*
X95131885Y-48045923D01*
X95131885Y-48045923D02*
X95084266Y-47998304D01*
X95084266Y-47998304D02*
X95036647Y-47903066D01*
X95036647Y-47903066D02*
X95036647Y-47760209D01*
X95036647Y-47760209D02*
X95084266Y-47664971D01*
X95417600Y-48093542D02*
X95369980Y-47998304D01*
X95369980Y-47998304D02*
X95369980Y-47807828D01*
X95369980Y-47807828D02*
X95417600Y-47712590D01*
X95417600Y-47712590D02*
X95465219Y-47664971D01*
X95465219Y-47664971D02*
X95560457Y-47617352D01*
X95560457Y-47617352D02*
X95846171Y-47617352D01*
X95846171Y-47617352D02*
X95941409Y-47664971D01*
X95941409Y-47664971D02*
X95989028Y-47712590D01*
X95989028Y-47712590D02*
X96036647Y-47807828D01*
X96036647Y-47807828D02*
X96036647Y-47998304D01*
X96036647Y-47998304D02*
X95989028Y-48093542D01*
X96036647Y-48569733D02*
X95369980Y-48569733D01*
X95941409Y-48569733D02*
X95989028Y-48617352D01*
X95989028Y-48617352D02*
X96036647Y-48712590D01*
X96036647Y-48712590D02*
X96036647Y-48855447D01*
X96036647Y-48855447D02*
X95989028Y-48950685D01*
X95989028Y-48950685D02*
X95893790Y-48998304D01*
X95893790Y-48998304D02*
X95369980Y-48998304D01*
X95369980Y-49903066D02*
X95893790Y-49903066D01*
X95893790Y-49903066D02*
X95989028Y-49855447D01*
X95989028Y-49855447D02*
X96036647Y-49760209D01*
X96036647Y-49760209D02*
X96036647Y-49569733D01*
X96036647Y-49569733D02*
X95989028Y-49474495D01*
X95417600Y-49903066D02*
X95369980Y-49807828D01*
X95369980Y-49807828D02*
X95369980Y-49569733D01*
X95369980Y-49569733D02*
X95417600Y-49474495D01*
X95417600Y-49474495D02*
X95512838Y-49426876D01*
X95512838Y-49426876D02*
X95608076Y-49426876D01*
X95608076Y-49426876D02*
X95703314Y-49474495D01*
X95703314Y-49474495D02*
X95750933Y-49569733D01*
X95750933Y-49569733D02*
X95750933Y-49807828D01*
X95750933Y-49807828D02*
X95798552Y-49903066D01*
X96036647Y-50236400D02*
X96036647Y-50617352D01*
X96369980Y-50379257D02*
X95512838Y-50379257D01*
X95512838Y-50379257D02*
X95417600Y-50426876D01*
X95417600Y-50426876D02*
X95369980Y-50522114D01*
X95369980Y-50522114D02*
X95369980Y-50617352D01*
X95369980Y-51093543D02*
X95417600Y-50998305D01*
X95417600Y-50998305D02*
X95465219Y-50950686D01*
X95465219Y-50950686D02*
X95560457Y-50903067D01*
X95560457Y-50903067D02*
X95846171Y-50903067D01*
X95846171Y-50903067D02*
X95941409Y-50950686D01*
X95941409Y-50950686D02*
X95989028Y-50998305D01*
X95989028Y-50998305D02*
X96036647Y-51093543D01*
X96036647Y-51093543D02*
X96036647Y-51236400D01*
X96036647Y-51236400D02*
X95989028Y-51331638D01*
X95989028Y-51331638D02*
X95941409Y-51379257D01*
X95941409Y-51379257D02*
X95846171Y-51426876D01*
X95846171Y-51426876D02*
X95560457Y-51426876D01*
X95560457Y-51426876D02*
X95465219Y-51379257D01*
X95465219Y-51379257D02*
X95417600Y-51331638D01*
X95417600Y-51331638D02*
X95369980Y-51236400D01*
X95369980Y-51236400D02*
X95369980Y-51093543D01*
X95369980Y-51855448D02*
X96036647Y-51855448D01*
X95846171Y-51855448D02*
X95941409Y-51903067D01*
X95941409Y-51903067D02*
X95989028Y-51950686D01*
X95989028Y-51950686D02*
X96036647Y-52045924D01*
X96036647Y-52045924D02*
X96036647Y-52141162D01*
X95369980Y-52522115D02*
X95369980Y-52712591D01*
X95369980Y-52712591D02*
X95417600Y-52807829D01*
X95417600Y-52807829D02*
X95465219Y-52855448D01*
X95465219Y-52855448D02*
X95608076Y-52950686D01*
X95608076Y-52950686D02*
X95798552Y-52998305D01*
X95798552Y-52998305D02*
X96179504Y-52998305D01*
X96179504Y-52998305D02*
X96274742Y-52950686D01*
X96274742Y-52950686D02*
X96322361Y-52903067D01*
X96322361Y-52903067D02*
X96369980Y-52807829D01*
X96369980Y-52807829D02*
X96369980Y-52617353D01*
X96369980Y-52617353D02*
X96322361Y-52522115D01*
X96322361Y-52522115D02*
X96274742Y-52474496D01*
X96274742Y-52474496D02*
X96179504Y-52426877D01*
X96179504Y-52426877D02*
X95941409Y-52426877D01*
X95941409Y-52426877D02*
X95846171Y-52474496D01*
X95846171Y-52474496D02*
X95798552Y-52522115D01*
X95798552Y-52522115D02*
X95750933Y-52617353D01*
X95750933Y-52617353D02*
X95750933Y-52807829D01*
X95750933Y-52807829D02*
X95798552Y-52903067D01*
X95798552Y-52903067D02*
X95846171Y-52950686D01*
X95846171Y-52950686D02*
X95941409Y-52998305D01*
X104079095Y-51345819D02*
X104079095Y-52155342D01*
X104079095Y-52155342D02*
X104126714Y-52250580D01*
X104126714Y-52250580D02*
X104174333Y-52298200D01*
X104174333Y-52298200D02*
X104269571Y-52345819D01*
X104269571Y-52345819D02*
X104460047Y-52345819D01*
X104460047Y-52345819D02*
X104555285Y-52298200D01*
X104555285Y-52298200D02*
X104602904Y-52250580D01*
X104602904Y-52250580D02*
X104650523Y-52155342D01*
X104650523Y-52155342D02*
X104650523Y-51345819D01*
X105650523Y-52345819D02*
X105079095Y-52345819D01*
X105364809Y-52345819D02*
X105364809Y-51345819D01*
X105364809Y-51345819D02*
X105269571Y-51488676D01*
X105269571Y-51488676D02*
X105174333Y-51583914D01*
X105174333Y-51583914D02*
X105079095Y-51631533D01*
D12*
X88397618Y-48039318D02*
X88397618Y-49067413D01*
X88397618Y-49067413D02*
X88458095Y-49188365D01*
X88458095Y-49188365D02*
X88518571Y-49248842D01*
X88518571Y-49248842D02*
X88639523Y-49309318D01*
X88639523Y-49309318D02*
X88881428Y-49309318D01*
X88881428Y-49309318D02*
X89002380Y-49248842D01*
X89002380Y-49248842D02*
X89062857Y-49188365D01*
X89062857Y-49188365D02*
X89123333Y-49067413D01*
X89123333Y-49067413D02*
X89123333Y-48039318D01*
X90393333Y-49309318D02*
X89667618Y-49309318D01*
X90030475Y-49309318D02*
X90030475Y-48039318D01*
X90030475Y-48039318D02*
X89909523Y-48220746D01*
X89909523Y-48220746D02*
X89788571Y-48341699D01*
X89788571Y-48341699D02*
X89667618Y-48402175D01*
X91602857Y-49309318D02*
X90877142Y-49309318D01*
X91239999Y-49309318D02*
X91239999Y-48039318D01*
X91239999Y-48039318D02*
X91119047Y-48220746D01*
X91119047Y-48220746D02*
X90998095Y-48341699D01*
X90998095Y-48341699D02*
X90877142Y-48402175D01*
D10*
X99533333Y-23259580D02*
X99485714Y-23307200D01*
X99485714Y-23307200D02*
X99342857Y-23354819D01*
X99342857Y-23354819D02*
X99247619Y-23354819D01*
X99247619Y-23354819D02*
X99104762Y-23307200D01*
X99104762Y-23307200D02*
X99009524Y-23211961D01*
X99009524Y-23211961D02*
X98961905Y-23116723D01*
X98961905Y-23116723D02*
X98914286Y-22926247D01*
X98914286Y-22926247D02*
X98914286Y-22783390D01*
X98914286Y-22783390D02*
X98961905Y-22592914D01*
X98961905Y-22592914D02*
X99009524Y-22497676D01*
X99009524Y-22497676D02*
X99104762Y-22402438D01*
X99104762Y-22402438D02*
X99247619Y-22354819D01*
X99247619Y-22354819D02*
X99342857Y-22354819D01*
X99342857Y-22354819D02*
X99485714Y-22402438D01*
X99485714Y-22402438D02*
X99533333Y-22450057D01*
X99914286Y-22450057D02*
X99961905Y-22402438D01*
X99961905Y-22402438D02*
X100057143Y-22354819D01*
X100057143Y-22354819D02*
X100295238Y-22354819D01*
X100295238Y-22354819D02*
X100390476Y-22402438D01*
X100390476Y-22402438D02*
X100438095Y-22450057D01*
X100438095Y-22450057D02*
X100485714Y-22545295D01*
X100485714Y-22545295D02*
X100485714Y-22640533D01*
X100485714Y-22640533D02*
X100438095Y-22783390D01*
X100438095Y-22783390D02*
X99866667Y-23354819D01*
X99866667Y-23354819D02*
X100485714Y-23354819D01*
X104433333Y-25104819D02*
X104100000Y-24628628D01*
X103861905Y-25104819D02*
X103861905Y-24104819D01*
X103861905Y-24104819D02*
X104242857Y-24104819D01*
X104242857Y-24104819D02*
X104338095Y-24152438D01*
X104338095Y-24152438D02*
X104385714Y-24200057D01*
X104385714Y-24200057D02*
X104433333Y-24295295D01*
X104433333Y-24295295D02*
X104433333Y-24438152D01*
X104433333Y-24438152D02*
X104385714Y-24533390D01*
X104385714Y-24533390D02*
X104338095Y-24581009D01*
X104338095Y-24581009D02*
X104242857Y-24628628D01*
X104242857Y-24628628D02*
X103861905Y-24628628D01*
X104814286Y-24200057D02*
X104861905Y-24152438D01*
X104861905Y-24152438D02*
X104957143Y-24104819D01*
X104957143Y-24104819D02*
X105195238Y-24104819D01*
X105195238Y-24104819D02*
X105290476Y-24152438D01*
X105290476Y-24152438D02*
X105338095Y-24200057D01*
X105338095Y-24200057D02*
X105385714Y-24295295D01*
X105385714Y-24295295D02*
X105385714Y-24390533D01*
X105385714Y-24390533D02*
X105338095Y-24533390D01*
X105338095Y-24533390D02*
X104766667Y-25104819D01*
X104766667Y-25104819D02*
X105385714Y-25104819D01*
X104433333Y-23354819D02*
X104100000Y-22878628D01*
X103861905Y-23354819D02*
X103861905Y-22354819D01*
X103861905Y-22354819D02*
X104242857Y-22354819D01*
X104242857Y-22354819D02*
X104338095Y-22402438D01*
X104338095Y-22402438D02*
X104385714Y-22450057D01*
X104385714Y-22450057D02*
X104433333Y-22545295D01*
X104433333Y-22545295D02*
X104433333Y-22688152D01*
X104433333Y-22688152D02*
X104385714Y-22783390D01*
X104385714Y-22783390D02*
X104338095Y-22831009D01*
X104338095Y-22831009D02*
X104242857Y-22878628D01*
X104242857Y-22878628D02*
X103861905Y-22878628D01*
X105385714Y-23354819D02*
X104814286Y-23354819D01*
X105100000Y-23354819D02*
X105100000Y-22354819D01*
X105100000Y-22354819D02*
X105004762Y-22497676D01*
X105004762Y-22497676D02*
X104909524Y-22592914D01*
X104909524Y-22592914D02*
X104814286Y-22640533D01*
X99533333Y-28509580D02*
X99485714Y-28557200D01*
X99485714Y-28557200D02*
X99342857Y-28604819D01*
X99342857Y-28604819D02*
X99247619Y-28604819D01*
X99247619Y-28604819D02*
X99104762Y-28557200D01*
X99104762Y-28557200D02*
X99009524Y-28461961D01*
X99009524Y-28461961D02*
X98961905Y-28366723D01*
X98961905Y-28366723D02*
X98914286Y-28176247D01*
X98914286Y-28176247D02*
X98914286Y-28033390D01*
X98914286Y-28033390D02*
X98961905Y-27842914D01*
X98961905Y-27842914D02*
X99009524Y-27747676D01*
X99009524Y-27747676D02*
X99104762Y-27652438D01*
X99104762Y-27652438D02*
X99247619Y-27604819D01*
X99247619Y-27604819D02*
X99342857Y-27604819D01*
X99342857Y-27604819D02*
X99485714Y-27652438D01*
X99485714Y-27652438D02*
X99533333Y-27700057D01*
X100390476Y-27604819D02*
X100200000Y-27604819D01*
X100200000Y-27604819D02*
X100104762Y-27652438D01*
X100104762Y-27652438D02*
X100057143Y-27700057D01*
X100057143Y-27700057D02*
X99961905Y-27842914D01*
X99961905Y-27842914D02*
X99914286Y-28033390D01*
X99914286Y-28033390D02*
X99914286Y-28414342D01*
X99914286Y-28414342D02*
X99961905Y-28509580D01*
X99961905Y-28509580D02*
X100009524Y-28557200D01*
X100009524Y-28557200D02*
X100104762Y-28604819D01*
X100104762Y-28604819D02*
X100295238Y-28604819D01*
X100295238Y-28604819D02*
X100390476Y-28557200D01*
X100390476Y-28557200D02*
X100438095Y-28509580D01*
X100438095Y-28509580D02*
X100485714Y-28414342D01*
X100485714Y-28414342D02*
X100485714Y-28176247D01*
X100485714Y-28176247D02*
X100438095Y-28081009D01*
X100438095Y-28081009D02*
X100390476Y-28033390D01*
X100390476Y-28033390D02*
X100295238Y-27985771D01*
X100295238Y-27985771D02*
X100104762Y-27985771D01*
X100104762Y-27985771D02*
X100009524Y-28033390D01*
X100009524Y-28033390D02*
X99961905Y-28081009D01*
X99961905Y-28081009D02*
X99914286Y-28176247D01*
X92157142Y-23259580D02*
X92109523Y-23307200D01*
X92109523Y-23307200D02*
X91966666Y-23354819D01*
X91966666Y-23354819D02*
X91871428Y-23354819D01*
X91871428Y-23354819D02*
X91728571Y-23307200D01*
X91728571Y-23307200D02*
X91633333Y-23211961D01*
X91633333Y-23211961D02*
X91585714Y-23116723D01*
X91585714Y-23116723D02*
X91538095Y-22926247D01*
X91538095Y-22926247D02*
X91538095Y-22783390D01*
X91538095Y-22783390D02*
X91585714Y-22592914D01*
X91585714Y-22592914D02*
X91633333Y-22497676D01*
X91633333Y-22497676D02*
X91728571Y-22402438D01*
X91728571Y-22402438D02*
X91871428Y-22354819D01*
X91871428Y-22354819D02*
X91966666Y-22354819D01*
X91966666Y-22354819D02*
X92109523Y-22402438D01*
X92109523Y-22402438D02*
X92157142Y-22450057D01*
X93109523Y-23354819D02*
X92538095Y-23354819D01*
X92823809Y-23354819D02*
X92823809Y-22354819D01*
X92823809Y-22354819D02*
X92728571Y-22497676D01*
X92728571Y-22497676D02*
X92633333Y-22592914D01*
X92633333Y-22592914D02*
X92538095Y-22640533D01*
X93966666Y-22688152D02*
X93966666Y-23354819D01*
X93728571Y-22307200D02*
X93490476Y-23021485D01*
X93490476Y-23021485D02*
X94109523Y-23021485D01*
X103957142Y-32104819D02*
X103623809Y-31628628D01*
X103385714Y-32104819D02*
X103385714Y-31104819D01*
X103385714Y-31104819D02*
X103766666Y-31104819D01*
X103766666Y-31104819D02*
X103861904Y-31152438D01*
X103861904Y-31152438D02*
X103909523Y-31200057D01*
X103909523Y-31200057D02*
X103957142Y-31295295D01*
X103957142Y-31295295D02*
X103957142Y-31438152D01*
X103957142Y-31438152D02*
X103909523Y-31533390D01*
X103909523Y-31533390D02*
X103861904Y-31581009D01*
X103861904Y-31581009D02*
X103766666Y-31628628D01*
X103766666Y-31628628D02*
X103385714Y-31628628D01*
X104909523Y-32104819D02*
X104338095Y-32104819D01*
X104623809Y-32104819D02*
X104623809Y-31104819D01*
X104623809Y-31104819D02*
X104528571Y-31247676D01*
X104528571Y-31247676D02*
X104433333Y-31342914D01*
X104433333Y-31342914D02*
X104338095Y-31390533D01*
X105814285Y-31104819D02*
X105338095Y-31104819D01*
X105338095Y-31104819D02*
X105290476Y-31581009D01*
X105290476Y-31581009D02*
X105338095Y-31533390D01*
X105338095Y-31533390D02*
X105433333Y-31485771D01*
X105433333Y-31485771D02*
X105671428Y-31485771D01*
X105671428Y-31485771D02*
X105766666Y-31533390D01*
X105766666Y-31533390D02*
X105814285Y-31581009D01*
X105814285Y-31581009D02*
X105861904Y-31676247D01*
X105861904Y-31676247D02*
X105861904Y-31914342D01*
X105861904Y-31914342D02*
X105814285Y-32009580D01*
X105814285Y-32009580D02*
X105766666Y-32057200D01*
X105766666Y-32057200D02*
X105671428Y-32104819D01*
X105671428Y-32104819D02*
X105433333Y-32104819D01*
X105433333Y-32104819D02*
X105338095Y-32057200D01*
X105338095Y-32057200D02*
X105290476Y-32009580D01*
X144351905Y-67649819D02*
X144351905Y-66649819D01*
X144351905Y-66649819D02*
X144590000Y-66649819D01*
X144590000Y-66649819D02*
X144732857Y-66697438D01*
X144732857Y-66697438D02*
X144828095Y-66792676D01*
X144828095Y-66792676D02*
X144875714Y-66887914D01*
X144875714Y-66887914D02*
X144923333Y-67078390D01*
X144923333Y-67078390D02*
X144923333Y-67221247D01*
X144923333Y-67221247D02*
X144875714Y-67411723D01*
X144875714Y-67411723D02*
X144828095Y-67506961D01*
X144828095Y-67506961D02*
X144732857Y-67602200D01*
X144732857Y-67602200D02*
X144590000Y-67649819D01*
X144590000Y-67649819D02*
X144351905Y-67649819D01*
X145875714Y-67649819D02*
X145304286Y-67649819D01*
X145590000Y-67649819D02*
X145590000Y-66649819D01*
X145590000Y-66649819D02*
X145494762Y-66792676D01*
X145494762Y-66792676D02*
X145399524Y-66887914D01*
X145399524Y-66887914D02*
X145304286Y-66935533D01*
X144351905Y-69399819D02*
X144351905Y-68399819D01*
X144351905Y-68399819D02*
X144590000Y-68399819D01*
X144590000Y-68399819D02*
X144732857Y-68447438D01*
X144732857Y-68447438D02*
X144828095Y-68542676D01*
X144828095Y-68542676D02*
X144875714Y-68637914D01*
X144875714Y-68637914D02*
X144923333Y-68828390D01*
X144923333Y-68828390D02*
X144923333Y-68971247D01*
X144923333Y-68971247D02*
X144875714Y-69161723D01*
X144875714Y-69161723D02*
X144828095Y-69256961D01*
X144828095Y-69256961D02*
X144732857Y-69352200D01*
X144732857Y-69352200D02*
X144590000Y-69399819D01*
X144590000Y-69399819D02*
X144351905Y-69399819D01*
X145304286Y-68495057D02*
X145351905Y-68447438D01*
X145351905Y-68447438D02*
X145447143Y-68399819D01*
X145447143Y-68399819D02*
X145685238Y-68399819D01*
X145685238Y-68399819D02*
X145780476Y-68447438D01*
X145780476Y-68447438D02*
X145828095Y-68495057D01*
X145828095Y-68495057D02*
X145875714Y-68590295D01*
X145875714Y-68590295D02*
X145875714Y-68685533D01*
X145875714Y-68685533D02*
X145828095Y-68828390D01*
X145828095Y-68828390D02*
X145256667Y-69399819D01*
X145256667Y-69399819D02*
X145875714Y-69399819D01*
D12*
X118189047Y-53045270D02*
X118068095Y-52984794D01*
X118068095Y-52984794D02*
X117947142Y-52863842D01*
X117947142Y-52863842D02*
X117765714Y-52682413D01*
X117765714Y-52682413D02*
X117644761Y-52621937D01*
X117644761Y-52621937D02*
X117523809Y-52621937D01*
X117584285Y-52924318D02*
X117463333Y-52863842D01*
X117463333Y-52863842D02*
X117342380Y-52742889D01*
X117342380Y-52742889D02*
X117281904Y-52500984D01*
X117281904Y-52500984D02*
X117281904Y-52077651D01*
X117281904Y-52077651D02*
X117342380Y-51835746D01*
X117342380Y-51835746D02*
X117463333Y-51714794D01*
X117463333Y-51714794D02*
X117584285Y-51654318D01*
X117584285Y-51654318D02*
X117826190Y-51654318D01*
X117826190Y-51654318D02*
X117947142Y-51714794D01*
X117947142Y-51714794D02*
X118068095Y-51835746D01*
X118068095Y-51835746D02*
X118128571Y-52077651D01*
X118128571Y-52077651D02*
X118128571Y-52500984D01*
X118128571Y-52500984D02*
X118068095Y-52742889D01*
X118068095Y-52742889D02*
X117947142Y-52863842D01*
X117947142Y-52863842D02*
X117826190Y-52924318D01*
X117826190Y-52924318D02*
X117584285Y-52924318D01*
X118551904Y-51654318D02*
X119338095Y-51654318D01*
X119338095Y-51654318D02*
X118914761Y-52138127D01*
X118914761Y-52138127D02*
X119096190Y-52138127D01*
X119096190Y-52138127D02*
X119217142Y-52198603D01*
X119217142Y-52198603D02*
X119277618Y-52259080D01*
X119277618Y-52259080D02*
X119338095Y-52380032D01*
X119338095Y-52380032D02*
X119338095Y-52682413D01*
X119338095Y-52682413D02*
X119277618Y-52803365D01*
X119277618Y-52803365D02*
X119217142Y-52863842D01*
X119217142Y-52863842D02*
X119096190Y-52924318D01*
X119096190Y-52924318D02*
X118733333Y-52924318D01*
X118733333Y-52924318D02*
X118612380Y-52863842D01*
X118612380Y-52863842D02*
X118551904Y-52803365D01*
D10*
X94607142Y-25104819D02*
X94273809Y-24628628D01*
X94035714Y-25104819D02*
X94035714Y-24104819D01*
X94035714Y-24104819D02*
X94416666Y-24104819D01*
X94416666Y-24104819D02*
X94511904Y-24152438D01*
X94511904Y-24152438D02*
X94559523Y-24200057D01*
X94559523Y-24200057D02*
X94607142Y-24295295D01*
X94607142Y-24295295D02*
X94607142Y-24438152D01*
X94607142Y-24438152D02*
X94559523Y-24533390D01*
X94559523Y-24533390D02*
X94511904Y-24581009D01*
X94511904Y-24581009D02*
X94416666Y-24628628D01*
X94416666Y-24628628D02*
X94035714Y-24628628D01*
X95559523Y-25104819D02*
X94988095Y-25104819D01*
X95273809Y-25104819D02*
X95273809Y-24104819D01*
X95273809Y-24104819D02*
X95178571Y-24247676D01*
X95178571Y-24247676D02*
X95083333Y-24342914D01*
X95083333Y-24342914D02*
X94988095Y-24390533D01*
X95892857Y-24104819D02*
X96511904Y-24104819D01*
X96511904Y-24104819D02*
X96178571Y-24485771D01*
X96178571Y-24485771D02*
X96321428Y-24485771D01*
X96321428Y-24485771D02*
X96416666Y-24533390D01*
X96416666Y-24533390D02*
X96464285Y-24581009D01*
X96464285Y-24581009D02*
X96511904Y-24676247D01*
X96511904Y-24676247D02*
X96511904Y-24914342D01*
X96511904Y-24914342D02*
X96464285Y-25009580D01*
X96464285Y-25009580D02*
X96416666Y-25057200D01*
X96416666Y-25057200D02*
X96321428Y-25104819D01*
X96321428Y-25104819D02*
X96035714Y-25104819D01*
X96035714Y-25104819D02*
X95940476Y-25057200D01*
X95940476Y-25057200D02*
X95892857Y-25009580D01*
X99338095Y-45803794D02*
X99338095Y-46613317D01*
X99338095Y-46613317D02*
X99385714Y-46708555D01*
X99385714Y-46708555D02*
X99433333Y-46756175D01*
X99433333Y-46756175D02*
X99528571Y-46803794D01*
X99528571Y-46803794D02*
X99719047Y-46803794D01*
X99719047Y-46803794D02*
X99814285Y-46756175D01*
X99814285Y-46756175D02*
X99861904Y-46708555D01*
X99861904Y-46708555D02*
X99909523Y-46613317D01*
X99909523Y-46613317D02*
X99909523Y-45803794D01*
X100814285Y-46137127D02*
X100814285Y-46803794D01*
X100576190Y-45756175D02*
X100338095Y-46470460D01*
X100338095Y-46470460D02*
X100957142Y-46470460D01*
X101507142Y-30259580D02*
X101459523Y-30307200D01*
X101459523Y-30307200D02*
X101316666Y-30354819D01*
X101316666Y-30354819D02*
X101221428Y-30354819D01*
X101221428Y-30354819D02*
X101078571Y-30307200D01*
X101078571Y-30307200D02*
X100983333Y-30211961D01*
X100983333Y-30211961D02*
X100935714Y-30116723D01*
X100935714Y-30116723D02*
X100888095Y-29926247D01*
X100888095Y-29926247D02*
X100888095Y-29783390D01*
X100888095Y-29783390D02*
X100935714Y-29592914D01*
X100935714Y-29592914D02*
X100983333Y-29497676D01*
X100983333Y-29497676D02*
X101078571Y-29402438D01*
X101078571Y-29402438D02*
X101221428Y-29354819D01*
X101221428Y-29354819D02*
X101316666Y-29354819D01*
X101316666Y-29354819D02*
X101459523Y-29402438D01*
X101459523Y-29402438D02*
X101507142Y-29450057D01*
X101888095Y-29450057D02*
X101935714Y-29402438D01*
X101935714Y-29402438D02*
X102030952Y-29354819D01*
X102030952Y-29354819D02*
X102269047Y-29354819D01*
X102269047Y-29354819D02*
X102364285Y-29402438D01*
X102364285Y-29402438D02*
X102411904Y-29450057D01*
X102411904Y-29450057D02*
X102459523Y-29545295D01*
X102459523Y-29545295D02*
X102459523Y-29640533D01*
X102459523Y-29640533D02*
X102411904Y-29783390D01*
X102411904Y-29783390D02*
X101840476Y-30354819D01*
X101840476Y-30354819D02*
X102459523Y-30354819D01*
X102840476Y-29450057D02*
X102888095Y-29402438D01*
X102888095Y-29402438D02*
X102983333Y-29354819D01*
X102983333Y-29354819D02*
X103221428Y-29354819D01*
X103221428Y-29354819D02*
X103316666Y-29402438D01*
X103316666Y-29402438D02*
X103364285Y-29450057D01*
X103364285Y-29450057D02*
X103411904Y-29545295D01*
X103411904Y-29545295D02*
X103411904Y-29640533D01*
X103411904Y-29640533D02*
X103364285Y-29783390D01*
X103364285Y-29783390D02*
X102792857Y-30354819D01*
X102792857Y-30354819D02*
X103411904Y-30354819D01*
X99057142Y-30259580D02*
X99009523Y-30307200D01*
X99009523Y-30307200D02*
X98866666Y-30354819D01*
X98866666Y-30354819D02*
X98771428Y-30354819D01*
X98771428Y-30354819D02*
X98628571Y-30307200D01*
X98628571Y-30307200D02*
X98533333Y-30211961D01*
X98533333Y-30211961D02*
X98485714Y-30116723D01*
X98485714Y-30116723D02*
X98438095Y-29926247D01*
X98438095Y-29926247D02*
X98438095Y-29783390D01*
X98438095Y-29783390D02*
X98485714Y-29592914D01*
X98485714Y-29592914D02*
X98533333Y-29497676D01*
X98533333Y-29497676D02*
X98628571Y-29402438D01*
X98628571Y-29402438D02*
X98771428Y-29354819D01*
X98771428Y-29354819D02*
X98866666Y-29354819D01*
X98866666Y-29354819D02*
X99009523Y-29402438D01*
X99009523Y-29402438D02*
X99057142Y-29450057D01*
X100009523Y-30354819D02*
X99438095Y-30354819D01*
X99723809Y-30354819D02*
X99723809Y-29354819D01*
X99723809Y-29354819D02*
X99628571Y-29497676D01*
X99628571Y-29497676D02*
X99533333Y-29592914D01*
X99533333Y-29592914D02*
X99438095Y-29640533D01*
X100628571Y-29354819D02*
X100723809Y-29354819D01*
X100723809Y-29354819D02*
X100819047Y-29402438D01*
X100819047Y-29402438D02*
X100866666Y-29450057D01*
X100866666Y-29450057D02*
X100914285Y-29545295D01*
X100914285Y-29545295D02*
X100961904Y-29735771D01*
X100961904Y-29735771D02*
X100961904Y-29973866D01*
X100961904Y-29973866D02*
X100914285Y-30164342D01*
X100914285Y-30164342D02*
X100866666Y-30259580D01*
X100866666Y-30259580D02*
X100819047Y-30307200D01*
X100819047Y-30307200D02*
X100723809Y-30354819D01*
X100723809Y-30354819D02*
X100628571Y-30354819D01*
X100628571Y-30354819D02*
X100533333Y-30307200D01*
X100533333Y-30307200D02*
X100485714Y-30259580D01*
X100485714Y-30259580D02*
X100438095Y-30164342D01*
X100438095Y-30164342D02*
X100390476Y-29973866D01*
X100390476Y-29973866D02*
X100390476Y-29735771D01*
X100390476Y-29735771D02*
X100438095Y-29545295D01*
X100438095Y-29545295D02*
X100485714Y-29450057D01*
X100485714Y-29450057D02*
X100533333Y-29402438D01*
X100533333Y-29402438D02*
X100628571Y-29354819D01*
X109157142Y-37509580D02*
X109109523Y-37557200D01*
X109109523Y-37557200D02*
X108966666Y-37604819D01*
X108966666Y-37604819D02*
X108871428Y-37604819D01*
X108871428Y-37604819D02*
X108728571Y-37557200D01*
X108728571Y-37557200D02*
X108633333Y-37461961D01*
X108633333Y-37461961D02*
X108585714Y-37366723D01*
X108585714Y-37366723D02*
X108538095Y-37176247D01*
X108538095Y-37176247D02*
X108538095Y-37033390D01*
X108538095Y-37033390D02*
X108585714Y-36842914D01*
X108585714Y-36842914D02*
X108633333Y-36747676D01*
X108633333Y-36747676D02*
X108728571Y-36652438D01*
X108728571Y-36652438D02*
X108871428Y-36604819D01*
X108871428Y-36604819D02*
X108966666Y-36604819D01*
X108966666Y-36604819D02*
X109109523Y-36652438D01*
X109109523Y-36652438D02*
X109157142Y-36700057D01*
X110109523Y-37604819D02*
X109538095Y-37604819D01*
X109823809Y-37604819D02*
X109823809Y-36604819D01*
X109823809Y-36604819D02*
X109728571Y-36747676D01*
X109728571Y-36747676D02*
X109633333Y-36842914D01*
X109633333Y-36842914D02*
X109538095Y-36890533D01*
X110585714Y-37604819D02*
X110776190Y-37604819D01*
X110776190Y-37604819D02*
X110871428Y-37557200D01*
X110871428Y-37557200D02*
X110919047Y-37509580D01*
X110919047Y-37509580D02*
X111014285Y-37366723D01*
X111014285Y-37366723D02*
X111061904Y-37176247D01*
X111061904Y-37176247D02*
X111061904Y-36795295D01*
X111061904Y-36795295D02*
X111014285Y-36700057D01*
X111014285Y-36700057D02*
X110966666Y-36652438D01*
X110966666Y-36652438D02*
X110871428Y-36604819D01*
X110871428Y-36604819D02*
X110680952Y-36604819D01*
X110680952Y-36604819D02*
X110585714Y-36652438D01*
X110585714Y-36652438D02*
X110538095Y-36700057D01*
X110538095Y-36700057D02*
X110490476Y-36795295D01*
X110490476Y-36795295D02*
X110490476Y-37033390D01*
X110490476Y-37033390D02*
X110538095Y-37128628D01*
X110538095Y-37128628D02*
X110585714Y-37176247D01*
X110585714Y-37176247D02*
X110680952Y-37223866D01*
X110680952Y-37223866D02*
X110871428Y-37223866D01*
X110871428Y-37223866D02*
X110966666Y-37176247D01*
X110966666Y-37176247D02*
X111014285Y-37128628D01*
X111014285Y-37128628D02*
X111061904Y-37033390D01*
X121248333Y-45429819D02*
X120915000Y-44953628D01*
X120676905Y-45429819D02*
X120676905Y-44429819D01*
X120676905Y-44429819D02*
X121057857Y-44429819D01*
X121057857Y-44429819D02*
X121153095Y-44477438D01*
X121153095Y-44477438D02*
X121200714Y-44525057D01*
X121200714Y-44525057D02*
X121248333Y-44620295D01*
X121248333Y-44620295D02*
X121248333Y-44763152D01*
X121248333Y-44763152D02*
X121200714Y-44858390D01*
X121200714Y-44858390D02*
X121153095Y-44906009D01*
X121153095Y-44906009D02*
X121057857Y-44953628D01*
X121057857Y-44953628D02*
X120676905Y-44953628D01*
X121819762Y-44858390D02*
X121724524Y-44810771D01*
X121724524Y-44810771D02*
X121676905Y-44763152D01*
X121676905Y-44763152D02*
X121629286Y-44667914D01*
X121629286Y-44667914D02*
X121629286Y-44620295D01*
X121629286Y-44620295D02*
X121676905Y-44525057D01*
X121676905Y-44525057D02*
X121724524Y-44477438D01*
X121724524Y-44477438D02*
X121819762Y-44429819D01*
X121819762Y-44429819D02*
X122010238Y-44429819D01*
X122010238Y-44429819D02*
X122105476Y-44477438D01*
X122105476Y-44477438D02*
X122153095Y-44525057D01*
X122153095Y-44525057D02*
X122200714Y-44620295D01*
X122200714Y-44620295D02*
X122200714Y-44667914D01*
X122200714Y-44667914D02*
X122153095Y-44763152D01*
X122153095Y-44763152D02*
X122105476Y-44810771D01*
X122105476Y-44810771D02*
X122010238Y-44858390D01*
X122010238Y-44858390D02*
X121819762Y-44858390D01*
X121819762Y-44858390D02*
X121724524Y-44906009D01*
X121724524Y-44906009D02*
X121676905Y-44953628D01*
X121676905Y-44953628D02*
X121629286Y-45048866D01*
X121629286Y-45048866D02*
X121629286Y-45239342D01*
X121629286Y-45239342D02*
X121676905Y-45334580D01*
X121676905Y-45334580D02*
X121724524Y-45382200D01*
X121724524Y-45382200D02*
X121819762Y-45429819D01*
X121819762Y-45429819D02*
X122010238Y-45429819D01*
X122010238Y-45429819D02*
X122105476Y-45382200D01*
X122105476Y-45382200D02*
X122153095Y-45334580D01*
X122153095Y-45334580D02*
X122200714Y-45239342D01*
X122200714Y-45239342D02*
X122200714Y-45048866D01*
X122200714Y-45048866D02*
X122153095Y-44953628D01*
X122153095Y-44953628D02*
X122105476Y-44906009D01*
X122105476Y-44906009D02*
X122010238Y-44858390D01*
X142238333Y-67649819D02*
X141905000Y-67173628D01*
X141666905Y-67649819D02*
X141666905Y-66649819D01*
X141666905Y-66649819D02*
X142047857Y-66649819D01*
X142047857Y-66649819D02*
X142143095Y-66697438D01*
X142143095Y-66697438D02*
X142190714Y-66745057D01*
X142190714Y-66745057D02*
X142238333Y-66840295D01*
X142238333Y-66840295D02*
X142238333Y-66983152D01*
X142238333Y-66983152D02*
X142190714Y-67078390D01*
X142190714Y-67078390D02*
X142143095Y-67126009D01*
X142143095Y-67126009D02*
X142047857Y-67173628D01*
X142047857Y-67173628D02*
X141666905Y-67173628D01*
X143095476Y-66649819D02*
X142905000Y-66649819D01*
X142905000Y-66649819D02*
X142809762Y-66697438D01*
X142809762Y-66697438D02*
X142762143Y-66745057D01*
X142762143Y-66745057D02*
X142666905Y-66887914D01*
X142666905Y-66887914D02*
X142619286Y-67078390D01*
X142619286Y-67078390D02*
X142619286Y-67459342D01*
X142619286Y-67459342D02*
X142666905Y-67554580D01*
X142666905Y-67554580D02*
X142714524Y-67602200D01*
X142714524Y-67602200D02*
X142809762Y-67649819D01*
X142809762Y-67649819D02*
X143000238Y-67649819D01*
X143000238Y-67649819D02*
X143095476Y-67602200D01*
X143095476Y-67602200D02*
X143143095Y-67554580D01*
X143143095Y-67554580D02*
X143190714Y-67459342D01*
X143190714Y-67459342D02*
X143190714Y-67221247D01*
X143190714Y-67221247D02*
X143143095Y-67126009D01*
X143143095Y-67126009D02*
X143095476Y-67078390D01*
X143095476Y-67078390D02*
X143000238Y-67030771D01*
X143000238Y-67030771D02*
X142809762Y-67030771D01*
X142809762Y-67030771D02*
X142714524Y-67078390D01*
X142714524Y-67078390D02*
X142666905Y-67126009D01*
X142666905Y-67126009D02*
X142619286Y-67221247D01*
X99533333Y-26759580D02*
X99485714Y-26807200D01*
X99485714Y-26807200D02*
X99342857Y-26854819D01*
X99342857Y-26854819D02*
X99247619Y-26854819D01*
X99247619Y-26854819D02*
X99104762Y-26807200D01*
X99104762Y-26807200D02*
X99009524Y-26711961D01*
X99009524Y-26711961D02*
X98961905Y-26616723D01*
X98961905Y-26616723D02*
X98914286Y-26426247D01*
X98914286Y-26426247D02*
X98914286Y-26283390D01*
X98914286Y-26283390D02*
X98961905Y-26092914D01*
X98961905Y-26092914D02*
X99009524Y-25997676D01*
X99009524Y-25997676D02*
X99104762Y-25902438D01*
X99104762Y-25902438D02*
X99247619Y-25854819D01*
X99247619Y-25854819D02*
X99342857Y-25854819D01*
X99342857Y-25854819D02*
X99485714Y-25902438D01*
X99485714Y-25902438D02*
X99533333Y-25950057D01*
X100438095Y-25854819D02*
X99961905Y-25854819D01*
X99961905Y-25854819D02*
X99914286Y-26331009D01*
X99914286Y-26331009D02*
X99961905Y-26283390D01*
X99961905Y-26283390D02*
X100057143Y-26235771D01*
X100057143Y-26235771D02*
X100295238Y-26235771D01*
X100295238Y-26235771D02*
X100390476Y-26283390D01*
X100390476Y-26283390D02*
X100438095Y-26331009D01*
X100438095Y-26331009D02*
X100485714Y-26426247D01*
X100485714Y-26426247D02*
X100485714Y-26664342D01*
X100485714Y-26664342D02*
X100438095Y-26759580D01*
X100438095Y-26759580D02*
X100390476Y-26807200D01*
X100390476Y-26807200D02*
X100295238Y-26854819D01*
X100295238Y-26854819D02*
X100057143Y-26854819D01*
X100057143Y-26854819D02*
X99961905Y-26807200D01*
X99961905Y-26807200D02*
X99914286Y-26759580D01*
X114603285Y-73289009D02*
X114746142Y-73336628D01*
X114746142Y-73336628D02*
X114793761Y-73384247D01*
X114793761Y-73384247D02*
X114841380Y-73479485D01*
X114841380Y-73479485D02*
X114841380Y-73622342D01*
X114841380Y-73622342D02*
X114793761Y-73717580D01*
X114793761Y-73717580D02*
X114746142Y-73765200D01*
X114746142Y-73765200D02*
X114650904Y-73812819D01*
X114650904Y-73812819D02*
X114269952Y-73812819D01*
X114269952Y-73812819D02*
X114269952Y-72812819D01*
X114269952Y-72812819D02*
X114603285Y-72812819D01*
X114603285Y-72812819D02*
X114698523Y-72860438D01*
X114698523Y-72860438D02*
X114746142Y-72908057D01*
X114746142Y-72908057D02*
X114793761Y-73003295D01*
X114793761Y-73003295D02*
X114793761Y-73098533D01*
X114793761Y-73098533D02*
X114746142Y-73193771D01*
X114746142Y-73193771D02*
X114698523Y-73241390D01*
X114698523Y-73241390D02*
X114603285Y-73289009D01*
X114603285Y-73289009D02*
X114269952Y-73289009D01*
X115127095Y-72812819D02*
X115698523Y-72812819D01*
X115412809Y-73812819D02*
X115412809Y-72812819D01*
X115936619Y-72812819D02*
X116555666Y-72812819D01*
X116555666Y-72812819D02*
X116222333Y-73193771D01*
X116222333Y-73193771D02*
X116365190Y-73193771D01*
X116365190Y-73193771D02*
X116460428Y-73241390D01*
X116460428Y-73241390D02*
X116508047Y-73289009D01*
X116508047Y-73289009D02*
X116555666Y-73384247D01*
X116555666Y-73384247D02*
X116555666Y-73622342D01*
X116555666Y-73622342D02*
X116508047Y-73717580D01*
X116508047Y-73717580D02*
X116460428Y-73765200D01*
X116460428Y-73765200D02*
X116365190Y-73812819D01*
X116365190Y-73812819D02*
X116079476Y-73812819D01*
X116079476Y-73812819D02*
X115984238Y-73765200D01*
X115984238Y-73765200D02*
X115936619Y-73717580D01*
X22854523Y-151509580D02*
X22806904Y-151557200D01*
X22806904Y-151557200D02*
X22664047Y-151604819D01*
X22664047Y-151604819D02*
X22568809Y-151604819D01*
X22568809Y-151604819D02*
X22425952Y-151557200D01*
X22425952Y-151557200D02*
X22330714Y-151461961D01*
X22330714Y-151461961D02*
X22283095Y-151366723D01*
X22283095Y-151366723D02*
X22235476Y-151176247D01*
X22235476Y-151176247D02*
X22235476Y-151033390D01*
X22235476Y-151033390D02*
X22283095Y-150842914D01*
X22283095Y-150842914D02*
X22330714Y-150747676D01*
X22330714Y-150747676D02*
X22425952Y-150652438D01*
X22425952Y-150652438D02*
X22568809Y-150604819D01*
X22568809Y-150604819D02*
X22664047Y-150604819D01*
X22664047Y-150604819D02*
X22806904Y-150652438D01*
X22806904Y-150652438D02*
X22854523Y-150700057D01*
X23283095Y-151604819D02*
X23283095Y-150604819D01*
X23283095Y-150604819D02*
X23854523Y-151604819D01*
X23854523Y-151604819D02*
X23854523Y-150604819D01*
X24283095Y-150700057D02*
X24330714Y-150652438D01*
X24330714Y-150652438D02*
X24425952Y-150604819D01*
X24425952Y-150604819D02*
X24664047Y-150604819D01*
X24664047Y-150604819D02*
X24759285Y-150652438D01*
X24759285Y-150652438D02*
X24806904Y-150700057D01*
X24806904Y-150700057D02*
X24854523Y-150795295D01*
X24854523Y-150795295D02*
X24854523Y-150890533D01*
X24854523Y-150890533D02*
X24806904Y-151033390D01*
X24806904Y-151033390D02*
X24235476Y-151604819D01*
X24235476Y-151604819D02*
X24854523Y-151604819D01*
X102076666Y-55212319D02*
X102076666Y-55926604D01*
X102076666Y-55926604D02*
X102029047Y-56069461D01*
X102029047Y-56069461D02*
X101933809Y-56164700D01*
X101933809Y-56164700D02*
X101790952Y-56212319D01*
X101790952Y-56212319D02*
X101695714Y-56212319D01*
X103029047Y-55212319D02*
X102552857Y-55212319D01*
X102552857Y-55212319D02*
X102505238Y-55688509D01*
X102505238Y-55688509D02*
X102552857Y-55640890D01*
X102552857Y-55640890D02*
X102648095Y-55593271D01*
X102648095Y-55593271D02*
X102886190Y-55593271D01*
X102886190Y-55593271D02*
X102981428Y-55640890D01*
X102981428Y-55640890D02*
X103029047Y-55688509D01*
X103029047Y-55688509D02*
X103076666Y-55783747D01*
X103076666Y-55783747D02*
X103076666Y-56021842D01*
X103076666Y-56021842D02*
X103029047Y-56117080D01*
X103029047Y-56117080D02*
X102981428Y-56164700D01*
X102981428Y-56164700D02*
X102886190Y-56212319D01*
X102886190Y-56212319D02*
X102648095Y-56212319D01*
X102648095Y-56212319D02*
X102552857Y-56164700D01*
X102552857Y-56164700D02*
X102505238Y-56117080D01*
X90183333Y-23259580D02*
X90135714Y-23307200D01*
X90135714Y-23307200D02*
X89992857Y-23354819D01*
X89992857Y-23354819D02*
X89897619Y-23354819D01*
X89897619Y-23354819D02*
X89754762Y-23307200D01*
X89754762Y-23307200D02*
X89659524Y-23211961D01*
X89659524Y-23211961D02*
X89611905Y-23116723D01*
X89611905Y-23116723D02*
X89564286Y-22926247D01*
X89564286Y-22926247D02*
X89564286Y-22783390D01*
X89564286Y-22783390D02*
X89611905Y-22592914D01*
X89611905Y-22592914D02*
X89659524Y-22497676D01*
X89659524Y-22497676D02*
X89754762Y-22402438D01*
X89754762Y-22402438D02*
X89897619Y-22354819D01*
X89897619Y-22354819D02*
X89992857Y-22354819D01*
X89992857Y-22354819D02*
X90135714Y-22402438D01*
X90135714Y-22402438D02*
X90183333Y-22450057D01*
X90659524Y-23354819D02*
X90850000Y-23354819D01*
X90850000Y-23354819D02*
X90945238Y-23307200D01*
X90945238Y-23307200D02*
X90992857Y-23259580D01*
X90992857Y-23259580D02*
X91088095Y-23116723D01*
X91088095Y-23116723D02*
X91135714Y-22926247D01*
X91135714Y-22926247D02*
X91135714Y-22545295D01*
X91135714Y-22545295D02*
X91088095Y-22450057D01*
X91088095Y-22450057D02*
X91040476Y-22402438D01*
X91040476Y-22402438D02*
X90945238Y-22354819D01*
X90945238Y-22354819D02*
X90754762Y-22354819D01*
X90754762Y-22354819D02*
X90659524Y-22402438D01*
X90659524Y-22402438D02*
X90611905Y-22450057D01*
X90611905Y-22450057D02*
X90564286Y-22545295D01*
X90564286Y-22545295D02*
X90564286Y-22783390D01*
X90564286Y-22783390D02*
X90611905Y-22878628D01*
X90611905Y-22878628D02*
X90659524Y-22926247D01*
X90659524Y-22926247D02*
X90754762Y-22973866D01*
X90754762Y-22973866D02*
X90945238Y-22973866D01*
X90945238Y-22973866D02*
X91040476Y-22926247D01*
X91040476Y-22926247D02*
X91088095Y-22878628D01*
X91088095Y-22878628D02*
X91135714Y-22783390D01*
X101507142Y-21509580D02*
X101459523Y-21557200D01*
X101459523Y-21557200D02*
X101316666Y-21604819D01*
X101316666Y-21604819D02*
X101221428Y-21604819D01*
X101221428Y-21604819D02*
X101078571Y-21557200D01*
X101078571Y-21557200D02*
X100983333Y-21461961D01*
X100983333Y-21461961D02*
X100935714Y-21366723D01*
X100935714Y-21366723D02*
X100888095Y-21176247D01*
X100888095Y-21176247D02*
X100888095Y-21033390D01*
X100888095Y-21033390D02*
X100935714Y-20842914D01*
X100935714Y-20842914D02*
X100983333Y-20747676D01*
X100983333Y-20747676D02*
X101078571Y-20652438D01*
X101078571Y-20652438D02*
X101221428Y-20604819D01*
X101221428Y-20604819D02*
X101316666Y-20604819D01*
X101316666Y-20604819D02*
X101459523Y-20652438D01*
X101459523Y-20652438D02*
X101507142Y-20700057D01*
X102459523Y-21604819D02*
X101888095Y-21604819D01*
X102173809Y-21604819D02*
X102173809Y-20604819D01*
X102173809Y-20604819D02*
X102078571Y-20747676D01*
X102078571Y-20747676D02*
X101983333Y-20842914D01*
X101983333Y-20842914D02*
X101888095Y-20890533D01*
X103316666Y-20604819D02*
X103126190Y-20604819D01*
X103126190Y-20604819D02*
X103030952Y-20652438D01*
X103030952Y-20652438D02*
X102983333Y-20700057D01*
X102983333Y-20700057D02*
X102888095Y-20842914D01*
X102888095Y-20842914D02*
X102840476Y-21033390D01*
X102840476Y-21033390D02*
X102840476Y-21414342D01*
X102840476Y-21414342D02*
X102888095Y-21509580D01*
X102888095Y-21509580D02*
X102935714Y-21557200D01*
X102935714Y-21557200D02*
X103030952Y-21604819D01*
X103030952Y-21604819D02*
X103221428Y-21604819D01*
X103221428Y-21604819D02*
X103316666Y-21557200D01*
X103316666Y-21557200D02*
X103364285Y-21509580D01*
X103364285Y-21509580D02*
X103411904Y-21414342D01*
X103411904Y-21414342D02*
X103411904Y-21176247D01*
X103411904Y-21176247D02*
X103364285Y-21081009D01*
X103364285Y-21081009D02*
X103316666Y-21033390D01*
X103316666Y-21033390D02*
X103221428Y-20985771D01*
X103221428Y-20985771D02*
X103030952Y-20985771D01*
X103030952Y-20985771D02*
X102935714Y-21033390D01*
X102935714Y-21033390D02*
X102888095Y-21081009D01*
X102888095Y-21081009D02*
X102840476Y-21176247D01*
X93458095Y-45594819D02*
X93458095Y-46404342D01*
X93458095Y-46404342D02*
X93505714Y-46499580D01*
X93505714Y-46499580D02*
X93553333Y-46547200D01*
X93553333Y-46547200D02*
X93648571Y-46594819D01*
X93648571Y-46594819D02*
X93839047Y-46594819D01*
X93839047Y-46594819D02*
X93934285Y-46547200D01*
X93934285Y-46547200D02*
X93981904Y-46499580D01*
X93981904Y-46499580D02*
X94029523Y-46404342D01*
X94029523Y-46404342D02*
X94029523Y-45594819D01*
X94410476Y-45594819D02*
X95077142Y-45594819D01*
X95077142Y-45594819D02*
X94648571Y-46594819D01*
D12*
X118189047Y-56625270D02*
X118068095Y-56564794D01*
X118068095Y-56564794D02*
X117947142Y-56443842D01*
X117947142Y-56443842D02*
X117765714Y-56262413D01*
X117765714Y-56262413D02*
X117644761Y-56201937D01*
X117644761Y-56201937D02*
X117523809Y-56201937D01*
X117584285Y-56504318D02*
X117463333Y-56443842D01*
X117463333Y-56443842D02*
X117342380Y-56322889D01*
X117342380Y-56322889D02*
X117281904Y-56080984D01*
X117281904Y-56080984D02*
X117281904Y-55657651D01*
X117281904Y-55657651D02*
X117342380Y-55415746D01*
X117342380Y-55415746D02*
X117463333Y-55294794D01*
X117463333Y-55294794D02*
X117584285Y-55234318D01*
X117584285Y-55234318D02*
X117826190Y-55234318D01*
X117826190Y-55234318D02*
X117947142Y-55294794D01*
X117947142Y-55294794D02*
X118068095Y-55415746D01*
X118068095Y-55415746D02*
X118128571Y-55657651D01*
X118128571Y-55657651D02*
X118128571Y-56080984D01*
X118128571Y-56080984D02*
X118068095Y-56322889D01*
X118068095Y-56322889D02*
X117947142Y-56443842D01*
X117947142Y-56443842D02*
X117826190Y-56504318D01*
X117826190Y-56504318D02*
X117584285Y-56504318D01*
X119217142Y-55657651D02*
X119217142Y-56504318D01*
X118914761Y-55173842D02*
X118612380Y-56080984D01*
X118612380Y-56080984D02*
X119398571Y-56080984D01*
D10*
X110209819Y-60583333D02*
X110924104Y-60583333D01*
X110924104Y-60583333D02*
X111066961Y-60630952D01*
X111066961Y-60630952D02*
X111162200Y-60726190D01*
X111162200Y-60726190D02*
X111209819Y-60869047D01*
X111209819Y-60869047D02*
X111209819Y-60964285D01*
X110305057Y-60154761D02*
X110257438Y-60107142D01*
X110257438Y-60107142D02*
X110209819Y-60011904D01*
X110209819Y-60011904D02*
X110209819Y-59773809D01*
X110209819Y-59773809D02*
X110257438Y-59678571D01*
X110257438Y-59678571D02*
X110305057Y-59630952D01*
X110305057Y-59630952D02*
X110400295Y-59583333D01*
X110400295Y-59583333D02*
X110495533Y-59583333D01*
X110495533Y-59583333D02*
X110638390Y-59630952D01*
X110638390Y-59630952D02*
X111209819Y-60202380D01*
X111209819Y-60202380D02*
X111209819Y-59583333D01*
X121248333Y-43679819D02*
X120915000Y-43203628D01*
X120676905Y-43679819D02*
X120676905Y-42679819D01*
X120676905Y-42679819D02*
X121057857Y-42679819D01*
X121057857Y-42679819D02*
X121153095Y-42727438D01*
X121153095Y-42727438D02*
X121200714Y-42775057D01*
X121200714Y-42775057D02*
X121248333Y-42870295D01*
X121248333Y-42870295D02*
X121248333Y-43013152D01*
X121248333Y-43013152D02*
X121200714Y-43108390D01*
X121200714Y-43108390D02*
X121153095Y-43156009D01*
X121153095Y-43156009D02*
X121057857Y-43203628D01*
X121057857Y-43203628D02*
X120676905Y-43203628D01*
X121581667Y-42679819D02*
X122248333Y-42679819D01*
X122248333Y-42679819D02*
X121819762Y-43679819D01*
X142238333Y-69399819D02*
X141905000Y-68923628D01*
X141666905Y-69399819D02*
X141666905Y-68399819D01*
X141666905Y-68399819D02*
X142047857Y-68399819D01*
X142047857Y-68399819D02*
X142143095Y-68447438D01*
X142143095Y-68447438D02*
X142190714Y-68495057D01*
X142190714Y-68495057D02*
X142238333Y-68590295D01*
X142238333Y-68590295D02*
X142238333Y-68733152D01*
X142238333Y-68733152D02*
X142190714Y-68828390D01*
X142190714Y-68828390D02*
X142143095Y-68876009D01*
X142143095Y-68876009D02*
X142047857Y-68923628D01*
X142047857Y-68923628D02*
X141666905Y-68923628D01*
X142714524Y-69399819D02*
X142905000Y-69399819D01*
X142905000Y-69399819D02*
X143000238Y-69352200D01*
X143000238Y-69352200D02*
X143047857Y-69304580D01*
X143047857Y-69304580D02*
X143143095Y-69161723D01*
X143143095Y-69161723D02*
X143190714Y-68971247D01*
X143190714Y-68971247D02*
X143190714Y-68590295D01*
X143190714Y-68590295D02*
X143143095Y-68495057D01*
X143143095Y-68495057D02*
X143095476Y-68447438D01*
X143095476Y-68447438D02*
X143000238Y-68399819D01*
X143000238Y-68399819D02*
X142809762Y-68399819D01*
X142809762Y-68399819D02*
X142714524Y-68447438D01*
X142714524Y-68447438D02*
X142666905Y-68495057D01*
X142666905Y-68495057D02*
X142619286Y-68590295D01*
X142619286Y-68590295D02*
X142619286Y-68828390D01*
X142619286Y-68828390D02*
X142666905Y-68923628D01*
X142666905Y-68923628D02*
X142714524Y-68971247D01*
X142714524Y-68971247D02*
X142809762Y-69018866D01*
X142809762Y-69018866D02*
X143000238Y-69018866D01*
X143000238Y-69018866D02*
X143095476Y-68971247D01*
X143095476Y-68971247D02*
X143143095Y-68923628D01*
X143143095Y-68923628D02*
X143190714Y-68828390D01*
X36666666Y-132954819D02*
X36666666Y-133669104D01*
X36666666Y-133669104D02*
X36619047Y-133811961D01*
X36619047Y-133811961D02*
X36523809Y-133907200D01*
X36523809Y-133907200D02*
X36380952Y-133954819D01*
X36380952Y-133954819D02*
X36285714Y-133954819D01*
X37571428Y-133288152D02*
X37571428Y-133954819D01*
X37333333Y-132907200D02*
X37095238Y-133621485D01*
X37095238Y-133621485D02*
X37714285Y-133621485D01*
%TO.C,U6*%
D11*
X103895000Y-50865000D02*
X107685000Y-50865000D01*
X103895000Y-55655000D02*
X103895000Y-50865000D01*
X108685000Y-51865000D02*
X108685000Y-55655000D01*
X108685000Y-55655000D02*
X103895000Y-55655000D01*
X108685000Y-50865000D02*
X108685000Y-50365000D01*
X109185000Y-50865000D01*
X108685000Y-50865000D01*
G36*
X109185000Y-50865000D02*
G01*
X108685000Y-50865000D01*
X108685000Y-50365000D01*
X109185000Y-50865000D01*
G37*
%TO.C,D3*%
D13*
X120840000Y-51275000D02*
G75*
G02*
X120740000Y-51275000I-50000J0D01*
G01*
X120740000Y-51275000D02*
G75*
G02*
X120840000Y-51275000I50000J0D01*
G01*
%TO.C,J1*%
D11*
X89540000Y-51440000D02*
X89540000Y-52960000D01*
X89540000Y-51440000D02*
X91040000Y-51440000D01*
X89540000Y-54460000D02*
X89540000Y-58700000D01*
X97540000Y-51440000D02*
X99040000Y-51440000D01*
X99040000Y-51440000D02*
X99040000Y-52960000D01*
X99040000Y-54460000D02*
X99040000Y-58700000D01*
%TO.C,SW1*%
X45100000Y-151350000D02*
X45400000Y-151350000D01*
X45100000Y-154650000D02*
X45100000Y-151350000D01*
X45400000Y-154650000D02*
X45100000Y-154650000D01*
X47600000Y-154650000D02*
X47900000Y-154650000D01*
X47900000Y-151350000D02*
X47600000Y-151350000D01*
X47900000Y-154650000D02*
X47900000Y-151350000D01*
%TO.C,U18*%
D14*
X31580000Y-159255000D02*
X31580000Y-159677500D01*
X31580000Y-159255000D02*
X31902500Y-159255000D01*
X31580000Y-160945000D02*
X31580000Y-160522500D01*
X31580000Y-160945000D02*
X31902500Y-160945000D01*
X32870000Y-159255000D02*
X32547500Y-159255000D01*
X32870000Y-159255000D02*
X32870000Y-159677500D01*
X32870000Y-160945000D02*
X32547500Y-160945000D01*
X32870000Y-160945000D02*
X32870000Y-160522500D01*
D15*
X31341000Y-159700000D02*
G75*
G02*
X31141000Y-159700000I-100000J0D01*
G01*
X31141000Y-159700000D02*
G75*
G02*
X31341000Y-159700000I100000J0D01*
G01*
%TO.C,U5*%
X94610001Y-49250001D02*
X94610001Y-51399999D01*
X94610001Y-49250001D02*
X96759999Y-49250001D01*
X94610001Y-51399999D02*
X96759999Y-51399999D01*
X96759999Y-49250001D02*
X96759999Y-51399999D01*
D16*
X96335001Y-48886001D02*
G75*
G02*
X96084999Y-48886001I-125001J0D01*
G01*
X96084999Y-48886001D02*
G75*
G02*
X96335001Y-48886001I125001J0D01*
G01*
%TO.C,D4*%
D13*
X120840000Y-53025000D02*
G75*
G02*
X120740000Y-53025000I-50000J0D01*
G01*
X120740000Y-53025000D02*
G75*
G02*
X120840000Y-53025000I50000J0D01*
G01*
%TO.C,D2*%
X120840000Y-49525000D02*
G75*
G02*
X120740000Y-49525000I-50000J0D01*
G01*
X120740000Y-49525000D02*
G75*
G02*
X120840000Y-49525000I50000J0D01*
G01*
%TO.C,U14*%
D14*
X113352500Y-56230000D02*
X115552500Y-56230000D01*
X113352500Y-58430000D02*
X113352500Y-56230000D01*
X115552500Y-56230000D02*
X115552500Y-58430000D01*
X115552500Y-58430000D02*
X113352500Y-58430000D01*
D17*
X115779753Y-56072000D02*
G75*
G02*
X115689247Y-56072000I-45253J0D01*
G01*
X115689247Y-56072000D02*
G75*
G02*
X115779753Y-56072000I45253J0D01*
G01*
%TO.C,BT1*%
D14*
X67595000Y-66155000D02*
X80805000Y-66155000D01*
X67595000Y-69590000D02*
X67595000Y-66155000D01*
X67595000Y-73410000D02*
X67595000Y-75070000D01*
X67595000Y-75070000D02*
X70630000Y-78225000D01*
X70630000Y-78225000D02*
X77770000Y-78225000D01*
X77770000Y-78225000D02*
X80805000Y-75070000D01*
X80805000Y-66155000D02*
X80805000Y-69590000D01*
X80805000Y-75070000D02*
X80805000Y-73410000D01*
%TO.C,BT2*%
X58895000Y-22655000D02*
X72105000Y-22655000D01*
X58895000Y-26090000D02*
X58895000Y-22655000D01*
X58895000Y-29910000D02*
X58895000Y-31570000D01*
X58895000Y-31570000D02*
X61930000Y-34725000D01*
X61930000Y-34725000D02*
X69070000Y-34725000D01*
X69070000Y-34725000D02*
X72105000Y-31570000D01*
X72105000Y-22655000D02*
X72105000Y-26090000D01*
X72105000Y-31570000D02*
X72105000Y-29910000D01*
%TO.C,J3*%
D11*
X28565000Y-168890000D02*
X28565000Y-165660000D01*
X28565000Y-173060000D02*
X28565000Y-171110000D01*
X29285000Y-163740000D02*
X30365000Y-163740000D01*
X30365000Y-163740000D02*
X30365000Y-163310000D01*
X34585000Y-163740000D02*
X35665000Y-163740000D01*
X36385000Y-168890000D02*
X36385000Y-165660000D01*
X36385000Y-173060000D02*
X28565000Y-173060000D01*
X36385000Y-173060000D02*
X36385000Y-171110000D01*
%TO.C,Q2*%
D13*
X117410000Y-48770000D02*
X117410000Y-48770000D01*
X117510000Y-48770000D02*
X117510000Y-48770000D01*
X117410000Y-48770000D02*
G75*
G02*
X117510000Y-48770000I50000J0D01*
G01*
X117510000Y-48770000D02*
G75*
G02*
X117410000Y-48770000I-50000J0D01*
G01*
%TO.C,Q1*%
X117410000Y-45190000D02*
X117410000Y-45190000D01*
X117510000Y-45190000D02*
X117510000Y-45190000D01*
X117410000Y-45190000D02*
G75*
G02*
X117510000Y-45190000I50000J0D01*
G01*
X117510000Y-45190000D02*
G75*
G02*
X117410000Y-45190000I-50000J0D01*
G01*
%TO.C,D3*%
X144280000Y-71745000D02*
G75*
G02*
X144180000Y-71745000I-50000J0D01*
G01*
X144180000Y-71745000D02*
G75*
G02*
X144280000Y-71745000I50000J0D01*
G01*
%TO.C,U13*%
D14*
X100565000Y-53425000D02*
X100565000Y-53847500D01*
X100565000Y-53425000D02*
X100887500Y-53425000D01*
X100565000Y-55115000D02*
X100565000Y-54692500D01*
X100565000Y-55115000D02*
X100887500Y-55115000D01*
X101855000Y-53425000D02*
X101532500Y-53425000D01*
X101855000Y-53425000D02*
X101855000Y-53847500D01*
X101855000Y-55115000D02*
X101532500Y-55115000D01*
X101855000Y-55115000D02*
X101855000Y-54692500D01*
D15*
X100326000Y-53870000D02*
G75*
G02*
X100126000Y-53870000I-100000J0D01*
G01*
X100126000Y-53870000D02*
G75*
G02*
X100326000Y-53870000I100000J0D01*
G01*
%TO.C,U16*%
D18*
X103448999Y-47015500D02*
X103448999Y-47272011D01*
X103448999Y-49552989D02*
X103448999Y-49809500D01*
X103448999Y-49809500D02*
X104209512Y-49809500D01*
X104209512Y-47015500D02*
X103448999Y-47015500D01*
X105990486Y-49809500D02*
X106750999Y-49809500D01*
X106750999Y-47015500D02*
X105990486Y-47015500D01*
X106750999Y-47272011D02*
X106750999Y-47015500D01*
X106750999Y-49809500D02*
X106750999Y-49552989D01*
D19*
G36*
X107055799Y-48353001D02*
G01*
X106801799Y-48353001D01*
X106801799Y-47972000D01*
X107055799Y-47972000D01*
X107055799Y-48353001D01*
G37*
%TO.C,U15*%
D15*
X92540001Y-49160001D02*
X92540001Y-51309999D01*
X92540001Y-49160001D02*
X94689999Y-49160001D01*
X92540001Y-51309999D02*
X94689999Y-51309999D01*
X94689999Y-49160001D02*
X94689999Y-51309999D01*
D16*
X94265001Y-48796001D02*
G75*
G02*
X94014999Y-48796001I-125001J0D01*
G01*
X94014999Y-48796001D02*
G75*
G02*
X94265001Y-48796001I125001J0D01*
G01*
%TO.C,U1*%
D14*
X102505000Y-53415000D02*
X102505000Y-53837500D01*
X102505000Y-53415000D02*
X102827500Y-53415000D01*
X102505000Y-55105000D02*
X102505000Y-54682500D01*
X102505000Y-55105000D02*
X102827500Y-55105000D01*
X103795000Y-53415000D02*
X103472500Y-53415000D01*
X103795000Y-53415000D02*
X103795000Y-53837500D01*
X103795000Y-55105000D02*
X103472500Y-55105000D01*
X103795000Y-55105000D02*
X103795000Y-54682500D01*
D15*
X102266000Y-53860000D02*
G75*
G02*
X102066000Y-53860000I-100000J0D01*
G01*
X102066000Y-53860000D02*
G75*
G02*
X102266000Y-53860000I100000J0D01*
G01*
%TO.C,U11*%
X89320000Y-48335000D02*
X89770000Y-47885000D01*
X89320000Y-49585000D02*
X89320000Y-48335000D01*
X89770000Y-47885000D02*
X90620000Y-47885000D01*
X90620000Y-47885000D02*
X90620000Y-49585000D01*
X90620000Y-49585000D02*
X89320000Y-49585000D01*
X89420000Y-47885000D02*
G75*
G02*
X89220000Y-47885000I-100000J0D01*
G01*
X89220000Y-47885000D02*
G75*
G02*
X89420000Y-47885000I100000J0D01*
G01*
%TO.C,D1*%
D13*
X144280000Y-68245000D02*
G75*
G02*
X144180000Y-68245000I-50000J0D01*
G01*
X144180000Y-68245000D02*
G75*
G02*
X144280000Y-68245000I50000J0D01*
G01*
%TO.C,D2*%
X144280000Y-69995000D02*
G75*
G02*
X144180000Y-69995000I-50000J0D01*
G01*
X144180000Y-69995000D02*
G75*
G02*
X144280000Y-69995000I50000J0D01*
G01*
%TO.C,Q3*%
X117410000Y-52350000D02*
X117410000Y-52350000D01*
X117510000Y-52350000D02*
X117510000Y-52350000D01*
X117410000Y-52350000D02*
G75*
G02*
X117510000Y-52350000I50000J0D01*
G01*
X117510000Y-52350000D02*
G75*
G02*
X117410000Y-52350000I-50000J0D01*
G01*
%TO.C,U4*%
D11*
X97890000Y-51408975D02*
X97890000Y-48226475D01*
X98877500Y-47238975D02*
X102310000Y-47238975D01*
X102310000Y-47238975D02*
X102310000Y-51408975D01*
X102310000Y-51408975D02*
X97890000Y-51408975D01*
X97890000Y-47238975D02*
X97390000Y-47238975D01*
X97890000Y-46738975D01*
X97890000Y-47238975D01*
G36*
X97890000Y-47238975D02*
G01*
X97390000Y-47238975D01*
X97890000Y-46738975D01*
X97890000Y-47238975D01*
G37*
%TO.C,BT3*%
D14*
X112195000Y-75155000D02*
X125405000Y-75155000D01*
X112195000Y-78590000D02*
X112195000Y-75155000D01*
X112195000Y-82410000D02*
X112195000Y-84070000D01*
X112195000Y-84070000D02*
X115230000Y-87225000D01*
X115230000Y-87225000D02*
X122370000Y-87225000D01*
X122370000Y-87225000D02*
X125405000Y-84070000D01*
X125405000Y-75155000D02*
X125405000Y-78590000D01*
X125405000Y-84070000D02*
X125405000Y-82410000D01*
%TO.C,CN2*%
D11*
X20945000Y-152590000D02*
X20945000Y-153160000D01*
X20945000Y-152590000D02*
X26145000Y-152590000D01*
X20945000Y-154680000D02*
X20945000Y-155700000D01*
X20945000Y-157220000D02*
X20945000Y-158240000D01*
X20945000Y-159760000D02*
X20945000Y-160330000D01*
X20945000Y-160330000D02*
X26145000Y-160330000D01*
X26145000Y-152590000D02*
X26145000Y-153160000D01*
X26145000Y-153160000D02*
X27505000Y-153160000D01*
X26145000Y-154680000D02*
X26145000Y-155700000D01*
X26145000Y-157220000D02*
X26145000Y-158240000D01*
X26145000Y-159760000D02*
X26145000Y-160330000D01*
%TO.C,J5*%
X100250000Y-56992500D02*
X101250000Y-56992500D01*
X100250000Y-60505000D02*
X100250000Y-56992500D01*
X101593494Y-56277500D02*
X101810000Y-56652500D01*
X101810000Y-56652500D02*
X102026506Y-56277500D01*
X102026506Y-56277500D02*
X101593494Y-56277500D01*
X102370000Y-56992500D02*
X102450000Y-56992500D01*
X103550000Y-61562500D02*
X101270000Y-61562500D01*
X103570000Y-56992500D02*
X104570000Y-56992500D01*
X104570000Y-56992500D02*
X104570000Y-60505000D01*
%TO.C,U7*%
X92610000Y-49200000D02*
X92610000Y-48975000D01*
X92853741Y-46980000D02*
X95830000Y-46980000D01*
X95830000Y-46980000D02*
X95830000Y-47205000D01*
X95830000Y-48975000D02*
X95830000Y-49200000D01*
X95830000Y-49200000D02*
X92610000Y-49200000D01*
X92460000Y-47200000D02*
X92320000Y-47010000D01*
X92600000Y-47010000D01*
X92460000Y-47200000D01*
G36*
X92460000Y-47200000D02*
G01*
X92320000Y-47010000D01*
X92600000Y-47010000D01*
X92460000Y-47200000D01*
G37*
%TO.C,Q4*%
D13*
X117410000Y-55930000D02*
X117410000Y-55930000D01*
X117510000Y-55930000D02*
X117510000Y-55930000D01*
X117410000Y-55930000D02*
G75*
G02*
X117510000Y-55930000I50000J0D01*
G01*
X117510000Y-55930000D02*
G75*
G02*
X117410000Y-55930000I-50000J0D01*
G01*
%TO.C,J2*%
D11*
X106155000Y-58890000D02*
X106795000Y-58890000D01*
X108315000Y-58890000D02*
X108315000Y-58260000D01*
X108905000Y-61610000D02*
X106205000Y-61610000D01*
X108955000Y-58890000D02*
X108315000Y-58890000D01*
%TO.C,J4*%
X24600000Y-136640000D02*
X24600000Y-137100000D01*
X24600000Y-136640000D02*
X26700000Y-136640000D01*
X25080000Y-145360000D02*
X26700000Y-145360000D01*
X26700000Y-135600000D02*
X26700000Y-136640000D01*
X26700000Y-145360000D02*
X26700000Y-146400000D01*
X30485000Y-134890000D02*
X30755000Y-134890000D01*
X30485000Y-147110000D02*
X30755000Y-147110000D01*
%TD*%
M02*
