%TF.GenerationSoftware,KiCad,Pcbnew,10.0.3*%
%TF.CreationDate,2026-07-30T22:23:19-04:00*%
%TF.ProjectId,Pangotag_PCB,50616e67-6f74-4616-975f-5043422e6b69,rev?*%
%TF.SameCoordinates,Original*%
%TF.FileFunction,Soldermask,Top*%
%TF.FilePolarity,Negative*%
%FSLAX46Y46*%
G04 Gerber Fmt 4.6, Leading zero omitted, Abs format (unit mm)*
G04 Created by KiCad (PCBNEW 10.0.3) date 2026-07-30 22:23:19*
%MOMM*%
%LPD*%
G01*
G04 APERTURE LIST*
G04 Aperture macros list*
%AMRoundRect*
0 Rectangle with rounded corners*
0 $1 Rounding radius*
0 $2 $3 $4 $5 $6 $7 $8 $9 X,Y pos of 4 corners*
0 Add a 4 corners polygon primitive as box body*
4,1,4,$2,$3,$4,$5,$6,$7,$8,$9,$2,$3,0*
0 Add four circle primitives for the rounded corners*
1,1,$1+$1,$2,$3*
1,1,$1+$1,$4,$5*
1,1,$1+$1,$6,$7*
1,1,$1+$1,$8,$9*
0 Add four rect primitives between the rounded corners*
20,1,$1+$1,$2,$3,$4,$5,0*
20,1,$1+$1,$4,$5,$6,$7,0*
20,1,$1+$1,$6,$7,$8,$9,0*
20,1,$1+$1,$8,$9,$2,$3,0*%
%AMRotRect*
0 Rectangle, with rotation*
0 The origin of the aperture is its center*
0 $1 length*
0 $2 width*
0 $3 Rotation angle, in degrees counterclockwise*
0 Add horizontal line*
21,1,$1,$2,0,0,$3*%
G04 Aperture macros list end*
%ADD10C,0.000000*%
%ADD11C,0.175000*%
%ADD12R,0.850000X0.300000*%
%ADD13RoundRect,0.218750X-0.381250X0.218750X-0.381250X-0.218750X0.381250X-0.218750X0.381250X0.218750X0*%
%ADD14RoundRect,0.218750X0.381250X-0.218750X0.381250X0.218750X-0.381250X0.218750X-0.381250X-0.218750X0*%
%ADD15RoundRect,0.147500X0.147500X0.172500X-0.147500X0.172500X-0.147500X-0.172500X0.147500X-0.172500X0*%
%ADD16RoundRect,0.135000X0.135000X0.185000X-0.135000X0.185000X-0.135000X-0.185000X0.135000X-0.185000X0*%
%ADD17RoundRect,0.140000X-0.170000X0.140000X-0.170000X-0.140000X0.170000X-0.140000X0.170000X0.140000X0*%
%ADD18O,3.000000X1.600000*%
%ADD19RoundRect,0.100000X0.100000X-0.130000X0.100000X0.130000X-0.100000X0.130000X-0.100000X-0.130000X0*%
%ADD20RoundRect,0.100000X-0.130000X-0.100000X0.130000X-0.100000X0.130000X0.100000X-0.130000X0.100000X0*%
%ADD21RoundRect,0.100000X0.130000X0.100000X-0.130000X0.100000X-0.130000X-0.100000X0.130000X-0.100000X0*%
%ADD22RoundRect,0.100000X-0.100000X0.130000X-0.100000X-0.130000X0.100000X-0.130000X0.100000X0.130000X0*%
%ADD23C,1.000000*%
%ADD24RoundRect,0.125000X-0.125000X-0.875000X0.125000X-0.875000X0.125000X0.875000X-0.125000X0.875000X0*%
%ADD25RoundRect,0.250000X-0.750000X-0.600000X0.750000X-0.600000X0.750000X0.600000X-0.750000X0.600000X0*%
%ADD26RoundRect,0.175000X-0.175000X-0.225000X0.175000X-0.225000X0.175000X0.225000X-0.175000X0.225000X0*%
%ADD27RoundRect,0.150000X-0.150000X-0.275000X0.150000X-0.275000X0.150000X0.275000X-0.150000X0.275000X0*%
%ADD28RoundRect,0.062500X0.062500X-0.350000X0.062500X0.350000X-0.062500X0.350000X-0.062500X-0.350000X0*%
%ADD29R,1.350000X1.650000*%
%ADD30RoundRect,0.218750X-0.256250X0.218750X-0.256250X-0.218750X0.256250X-0.218750X0.256250X0.218750X0*%
%ADD31RoundRect,0.140000X0.140000X0.170000X-0.140000X0.170000X-0.140000X-0.170000X0.140000X-0.170000X0*%
%ADD32R,1.700000X0.900000*%
%ADD33RoundRect,0.250000X-0.275000X0.850000X-0.275000X-0.850000X0.275000X-0.850000X0.275000X0.850000X0*%
%ADD34RoundRect,0.250000X-0.250000X0.275000X-0.250000X-0.275000X0.250000X-0.275000X0.250000X0.275000X0*%
%ADD35R,1.500000X1.500000*%
%ADD36RoundRect,0.175000X-0.175000X0.725000X-0.175000X-0.725000X0.175000X-0.725000X0.175000X0.725000X0*%
%ADD37RoundRect,0.200000X-0.200000X0.700000X-0.200000X-0.700000X0.200000X-0.700000X0.200000X0.700000X0*%
%ADD38R,0.170000X0.350000*%
%ADD39C,0.200000*%
%ADD40R,0.254000X0.482600*%
%ADD41R,0.482600X0.254000*%
%ADD42RoundRect,0.102000X1.590000X1.590000X-1.590000X1.590000X-1.590000X-1.590000X1.590000X-1.590000X0*%
%ADD43RoundRect,0.102000X1.980000X1.980000X-1.980000X1.980000X-1.980000X-1.980000X1.980000X-1.980000X0*%
%ADD44RoundRect,0.102000X-1.590000X-1.590000X1.590000X-1.590000X1.590000X1.590000X-1.590000X1.590000X0*%
%ADD45RoundRect,0.102000X-1.980000X-1.980000X1.980000X-1.980000X1.980000X1.980000X-1.980000X1.980000X0*%
%ADD46R,0.025400X0.025400*%
%ADD47RotRect,0.025400X0.025400X135.000000*%
%ADD48C,1.700000*%
%ADD49R,1.700000X1.700000*%
%ADD50RoundRect,0.102000X0.125000X-0.137500X0.125000X0.137500X-0.125000X0.137500X-0.125000X-0.137500X0*%
%ADD51RoundRect,0.102000X0.137500X-0.125000X0.137500X0.125000X-0.137500X0.125000X-0.137500X-0.125000X0*%
%ADD52RoundRect,0.140000X-0.140000X-0.170000X0.140000X-0.170000X0.140000X0.170000X-0.140000X0.170000X0*%
%ADD53C,1.400000*%
%ADD54RoundRect,0.075000X-0.075000X-0.275000X0.075000X-0.275000X0.075000X0.275000X-0.075000X0.275000X0*%
%ADD55C,0.950000*%
%ADD56C,0.650000*%
G04 APERTURE END LIST*
%TO.C,J2*%
G36*
X108330000Y-59040000D02*
G01*
X110210000Y-59040000D01*
X110210000Y-61130000D01*
X108330000Y-61130000D01*
X108330000Y-59040000D01*
G37*
D10*
%TO.C,U3*%
G36*
X94390400Y-47142200D02*
G01*
X94061700Y-47142300D01*
X94061700Y-46813300D01*
X94264600Y-46610400D01*
X94390400Y-46610400D01*
X94390400Y-47142200D01*
G37*
G36*
X94390400Y-45830400D02*
G01*
X94390400Y-46362200D01*
X94264600Y-46362200D01*
X94061700Y-46159300D01*
X94061700Y-45830300D01*
X94390400Y-45830400D01*
G37*
G36*
X93928300Y-46813300D02*
G01*
X93928300Y-47142300D01*
X93599700Y-47142300D01*
X93599600Y-46610400D01*
X93725400Y-46610400D01*
X93928300Y-46813300D01*
G37*
G36*
X93928300Y-46159300D02*
G01*
X93725400Y-46362200D01*
X93599600Y-46362200D01*
X93599600Y-45830400D01*
X93928300Y-45830300D01*
X93928300Y-46159300D01*
G37*
G36*
X94221777Y-46486300D02*
G01*
X93995000Y-46713077D01*
X93768223Y-46486300D01*
X93995000Y-46259523D01*
X94221777Y-46486300D01*
G37*
%TO.C,U18*%
D11*
X73437500Y-46180000D02*
G75*
G02*
X73262500Y-46180000I-87500J0D01*
G01*
X73262500Y-46180000D02*
G75*
G02*
X73437500Y-46180000I87500J0D01*
G01*
X73437500Y-45780000D02*
G75*
G02*
X73262500Y-45780000I-87500J0D01*
G01*
X73262500Y-45780000D02*
G75*
G02*
X73437500Y-45780000I87500J0D01*
G01*
X73437500Y-45380000D02*
G75*
G02*
X73262500Y-45380000I-87500J0D01*
G01*
X73262500Y-45380000D02*
G75*
G02*
X73437500Y-45380000I87500J0D01*
G01*
X73037500Y-46180000D02*
G75*
G02*
X72862500Y-46180000I-87500J0D01*
G01*
X72862500Y-46180000D02*
G75*
G02*
X73037500Y-46180000I87500J0D01*
G01*
X73037500Y-45780000D02*
G75*
G02*
X72862500Y-45780000I-87500J0D01*
G01*
X72862500Y-45780000D02*
G75*
G02*
X73037500Y-45780000I87500J0D01*
G01*
X73037500Y-45380000D02*
G75*
G02*
X72862500Y-45380000I-87500J0D01*
G01*
X72862500Y-45380000D02*
G75*
G02*
X73037500Y-45380000I87500J0D01*
G01*
%TD*%
D12*
%TO.C,IC3*%
X104270000Y-47440000D03*
X104270000Y-47940000D03*
X104270000Y-48440000D03*
X104270000Y-48940000D03*
X102870000Y-48940000D03*
X102870000Y-48440000D03*
X102870000Y-47940000D03*
X102870000Y-47440000D03*
%TD*%
D13*
%TO.C,L7*%
X102020000Y-49955000D03*
X102020000Y-52080000D03*
%TD*%
%TO.C,L5*%
X106220000Y-47705000D03*
X106220000Y-49830000D03*
%TD*%
D14*
%TO.C,L4*%
X76420000Y-45682500D03*
X76420000Y-43557500D03*
%TD*%
D15*
%TO.C,L1*%
X114765000Y-56850000D03*
X113795000Y-56850000D03*
%TD*%
D16*
%TO.C,R5*%
X116770000Y-59110000D03*
X115750000Y-59110000D03*
%TD*%
D17*
%TO.C,C4*%
X114340000Y-59050000D03*
X114340000Y-60010000D03*
%TD*%
D12*
%TO.C,J4*%
X58905000Y-49150000D03*
X58905000Y-49650000D03*
X58905000Y-50150000D03*
X58905000Y-50650000D03*
X58905000Y-51150000D03*
X58905000Y-51650000D03*
X58905000Y-52150000D03*
X58905000Y-52650000D03*
X58905000Y-53150000D03*
X58905000Y-53650000D03*
X58905000Y-54150000D03*
X58905000Y-54650000D03*
X56365000Y-54650000D03*
X56365000Y-54150000D03*
X56365000Y-53650000D03*
X56365000Y-53150000D03*
X56365000Y-52650000D03*
X56365000Y-52150000D03*
X56365000Y-51650000D03*
X56365000Y-51150000D03*
X56365000Y-50650000D03*
X56365000Y-50150000D03*
X56365000Y-49650000D03*
X56365000Y-49150000D03*
D18*
X57635000Y-48000000D03*
X57635000Y-55800000D03*
%TD*%
D19*
%TO.C,C1*%
X106420000Y-58045000D03*
X106420000Y-57405000D03*
%TD*%
%TO.C,C2*%
X106410000Y-56470000D03*
X106410000Y-55830000D03*
%TD*%
%TO.C,C7*%
X101570000Y-47790000D03*
X101570000Y-47150000D03*
%TD*%
%TO.C,C8*%
X97310000Y-48710000D03*
X97310000Y-48070000D03*
%TD*%
D20*
%TO.C,C10*%
X102749600Y-37083900D03*
X103389600Y-37083900D03*
%TD*%
D19*
%TO.C,C11*%
X70320000Y-45990000D03*
X70320000Y-45350000D03*
%TD*%
D20*
%TO.C,C13*%
X103190000Y-55775000D03*
X103830000Y-55775000D03*
%TD*%
%TO.C,C15*%
X102724600Y-36213900D03*
X103364600Y-36213900D03*
%TD*%
D21*
%TO.C,C18*%
X106134600Y-45003900D03*
X105494600Y-45003900D03*
%TD*%
%TO.C,C20*%
X104564600Y-45053900D03*
X103924600Y-45053900D03*
%TD*%
D20*
%TO.C,C21*%
X109525000Y-41990000D03*
X110165000Y-41990000D03*
%TD*%
D22*
%TO.C,C23*%
X99779600Y-42658900D03*
X99779600Y-43298900D03*
%TD*%
D21*
%TO.C,C26*%
X89575000Y-46380000D03*
X88935000Y-46380000D03*
%TD*%
D19*
%TO.C,C27*%
X93480000Y-44895000D03*
X93480000Y-44255000D03*
%TD*%
D12*
%TO.C,IC4*%
X98720000Y-48170000D03*
X98720000Y-48670000D03*
X98720000Y-49170000D03*
X98720000Y-49670000D03*
X100120000Y-49670000D03*
X100120000Y-49170000D03*
X100120000Y-48670000D03*
X100120000Y-48170000D03*
%TD*%
D23*
%TO.C,J3*%
X66600000Y-52450000D03*
X71000000Y-52450000D03*
D24*
X67200000Y-49750000D03*
X68000000Y-49750000D03*
X68800000Y-49750000D03*
X69600000Y-49750000D03*
X70400000Y-49750000D03*
D25*
X64350000Y-49850000D03*
X64350000Y-55300000D03*
X73250000Y-49850000D03*
X73250000Y-55300000D03*
%TD*%
D26*
%TO.C,J5*%
X102020000Y-60867500D03*
X105520000Y-60867500D03*
D27*
X103170000Y-57092500D03*
X104370000Y-57092500D03*
%TD*%
D26*
%TO.C,J6*%
X62355000Y-99657500D03*
X65855000Y-99657500D03*
D27*
X63505000Y-95882500D03*
X64705000Y-95882500D03*
%TD*%
D26*
%TO.C,J7*%
X68950000Y-99415000D03*
X72450000Y-99415000D03*
D27*
X70100000Y-95640000D03*
X71300000Y-95640000D03*
%TD*%
D19*
%TO.C,R1*%
X101570000Y-39220000D03*
X101570000Y-38580000D03*
%TD*%
D21*
%TO.C,R2*%
X100599600Y-40773900D03*
X99959600Y-40773900D03*
%TD*%
D19*
%TO.C,R3*%
X87750000Y-49550000D03*
X87750000Y-48910000D03*
%TD*%
D22*
%TO.C,R4*%
X99965000Y-55530000D03*
X99965000Y-56170000D03*
%TD*%
D19*
%TO.C,R10*%
X61030000Y-52580000D03*
X61030000Y-51940000D03*
%TD*%
D21*
%TO.C,R12*%
X64060000Y-44890000D03*
X63420000Y-44890000D03*
%TD*%
D20*
%TO.C,R13*%
X104100000Y-50040000D03*
X104740000Y-50040000D03*
%TD*%
D22*
%TO.C,R17*%
X54610000Y-50525000D03*
X54610000Y-51165000D03*
%TD*%
%TO.C,R21*%
X95700000Y-46060000D03*
X95700000Y-46700000D03*
%TD*%
%TO.C,R22*%
X96385000Y-48905000D03*
X96385000Y-49545000D03*
%TD*%
D28*
%TO.C,U7*%
X104140000Y-54417500D03*
X104640000Y-54417500D03*
X105140000Y-54417500D03*
X105140000Y-51542500D03*
X104640000Y-51542500D03*
X104140000Y-51542500D03*
D29*
X104640000Y-52980000D03*
%TD*%
D30*
%TO.C,D4*%
X117040000Y-38112500D03*
X117040000Y-39687500D03*
%TD*%
%TO.C,D3*%
X115450000Y-38112500D03*
X115450000Y-39687500D03*
%TD*%
%TO.C,D2*%
X113900000Y-38112500D03*
X113900000Y-39687500D03*
%TD*%
%TO.C,D1*%
X112300000Y-38112500D03*
X112300000Y-39687500D03*
%TD*%
D31*
%TO.C,C19*%
X75055000Y-44120000D03*
X74095000Y-44120000D03*
%TD*%
%TO.C,C25*%
X100020000Y-46730000D03*
X99060000Y-46730000D03*
%TD*%
%TO.C,C24*%
X104925000Y-46675000D03*
X103965000Y-46675000D03*
%TD*%
D32*
%TO.C,SW1*%
X75490000Y-42130000D03*
X75490000Y-38730000D03*
%TD*%
D33*
%TO.C,J2*%
X107795000Y-60030000D03*
X110745000Y-60030000D03*
D34*
X109270000Y-58505000D03*
%TD*%
D35*
%TO.C,GND1*%
X79550000Y-56530000D03*
%TD*%
%TO.C,ID1*%
X79550000Y-52160000D03*
%TD*%
D36*
%TO.C,U4*%
X116980000Y-54390000D03*
D37*
X115880000Y-54390000D03*
X114780000Y-54390000D03*
X113680000Y-54390000D03*
X112580000Y-54390000D03*
X111480000Y-54390000D03*
X110380000Y-54390000D03*
X109280000Y-54390000D03*
D36*
X108180000Y-54390000D03*
X108180000Y-44890000D03*
D37*
X109280000Y-44890000D03*
X110380000Y-44890000D03*
X111480000Y-44890000D03*
X112580000Y-44890000D03*
X113680000Y-44890000D03*
X114780000Y-44890000D03*
X115880000Y-44890000D03*
D36*
X116980000Y-44890000D03*
%TD*%
D38*
%TO.C,IC1*%
X91315000Y-47200000D03*
X91665000Y-47200000D03*
X92015000Y-47200000D03*
X92015000Y-48250000D03*
X91665000Y-48250000D03*
X91315000Y-48250000D03*
%TD*%
D39*
%TO.C,U11*%
X101419600Y-43323900D03*
X101019600Y-43323900D03*
X101419600Y-42923900D03*
X101019600Y-42923900D03*
X101419600Y-42523900D03*
X101019600Y-42523900D03*
%TD*%
D40*
%TO.C,U16*%
X104156101Y-42061401D03*
X104656100Y-42061401D03*
X105156099Y-42061401D03*
D41*
X105862600Y-42263900D03*
X105862600Y-42763901D03*
X105862600Y-43263901D03*
X105862600Y-43763902D03*
D40*
X105156099Y-43966401D03*
X104656100Y-43966401D03*
X104156101Y-43966401D03*
D41*
X103449600Y-43763902D03*
X103449600Y-43263901D03*
X103449600Y-42763901D03*
X103449600Y-42263900D03*
%TD*%
D35*
%TO.C,D-1*%
X79630000Y-44120000D03*
%TD*%
D42*
%TO.C,BT1*%
X46610000Y-85722500D03*
X61210000Y-85722500D03*
D43*
X53910000Y-85722500D03*
%TD*%
D44*
%TO.C,BT2*%
X71310000Y-71510000D03*
X56710000Y-71510000D03*
D45*
X64010000Y-71510000D03*
%TD*%
D46*
%TO.C,U3*%
X93755000Y-46092600D03*
X94235000Y-46092600D03*
D47*
X93995000Y-46486300D03*
D46*
X94235000Y-46880000D03*
X93755000Y-46880000D03*
%TD*%
D48*
%TO.C,CN2*%
X71730000Y-40260000D03*
X71730000Y-42800000D03*
X69190000Y-40260000D03*
X69190000Y-42800000D03*
X66650000Y-40260000D03*
D49*
X66650000Y-42800000D03*
%TD*%
D42*
%TO.C,BT3*%
X65470000Y-85722500D03*
X80070000Y-85722500D03*
D43*
X72770000Y-85722500D03*
%TD*%
D35*
%TO.C,D+1*%
X79630000Y-48140000D03*
%TD*%
D50*
%TO.C,U14*%
X102789600Y-38088900D03*
X103289600Y-38088900D03*
X103789600Y-38088900D03*
D51*
X104052100Y-38601400D03*
X104052100Y-39101400D03*
D50*
X103789600Y-39613900D03*
X103289600Y-39613900D03*
X102789600Y-39613900D03*
D51*
X102527100Y-39101400D03*
X102527100Y-38601400D03*
%TD*%
D35*
%TO.C,VBUS1*%
X79790000Y-40180000D03*
%TD*%
D52*
%TO.C,C22*%
X109385000Y-42860000D03*
X110345000Y-42860000D03*
%TD*%
D53*
%TO.C,J1*%
X98125000Y-58980000D03*
X97765000Y-53030000D03*
X89505000Y-53030000D03*
X89145000Y-58980000D03*
D54*
X90635000Y-52820000D03*
X91135000Y-52820000D03*
X91635000Y-52820000D03*
X92135000Y-52820000D03*
X92635000Y-52820000D03*
X93135000Y-52820000D03*
X93635000Y-52820000D03*
X94135000Y-52820000D03*
X94635000Y-52820000D03*
X95135000Y-52820000D03*
X95635000Y-52820000D03*
X96135000Y-52820000D03*
X96385000Y-51120000D03*
X95885000Y-51120000D03*
X95385000Y-51120000D03*
X94885000Y-51120000D03*
X94385000Y-51120000D03*
X93885000Y-51120000D03*
X93385000Y-51120000D03*
X92885000Y-51120000D03*
X92385000Y-51120000D03*
X91885000Y-51120000D03*
X91385000Y-51120000D03*
X90885000Y-51120000D03*
D55*
X97235000Y-51780000D03*
D56*
X90035000Y-51780000D03*
%TD*%
M02*
