%TF.GenerationSoftware,KiCad,Pcbnew,10.0.3*%
%TF.CreationDate,2026-07-17T23:31:58-04:00*%
%TF.ProjectId,Pangotag_PCB,50616e67-6f74-4616-975f-5043422e6b69,rev?*%
%TF.SameCoordinates,Original*%
%TF.FileFunction,Paste,Top*%
%TF.FilePolarity,Positive*%
%FSLAX46Y46*%
G04 Gerber Fmt 4.6, Leading zero omitted, Abs format (unit mm)*
G04 Created by KiCad (PCBNEW 10.0.3) date 2026-07-17 23:31:58*
%MOMM*%
%LPD*%
G01*
G04 APERTURE LIST*
G04 Aperture macros list*
%AMRoundRect*
0 Rectangle with rounded corners*
0 $1 Rounding radius*
0 $2 $3 $4 $5 $6 $7 $8 $9 X,Y pos of 4 corners*
0 Add a 4 corners polygon primitive as box body*
4,1,4,$2,$3,$4,$5,$6,$7,$8,$9,$2,$3,0*
0 Add four circle primitives for the rounded corners*
1,1,$1+$1,$2,$3*
1,1,$1+$1,$4,$5*
1,1,$1+$1,$6,$7*
1,1,$1+$1,$8,$9*
0 Add four rect primitives between the rounded corners*
20,1,$1+$1,$2,$3,$4,$5,0*
20,1,$1+$1,$4,$5,$6,$7,0*
20,1,$1+$1,$6,$7,$8,$9,0*
20,1,$1+$1,$8,$9,$2,$3,0*%
G04 Aperture macros list end*
%ADD10C,0.010000*%
%ADD11RoundRect,0.079500X-0.100500X0.079500X-0.100500X-0.079500X0.100500X-0.079500X0.100500X0.079500X0*%
%ADD12C,0.270000*%
%ADD13RoundRect,0.079500X-0.079500X-0.100500X0.079500X-0.100500X0.079500X0.100500X-0.079500X0.100500X0*%
%ADD14RoundRect,0.075000X-0.075000X-0.275000X0.075000X-0.275000X0.075000X0.275000X-0.075000X0.275000X0*%
%ADD15R,1.700000X0.900000*%
%ADD16C,0.250000*%
%ADD17C,0.148750*%
%ADD18R,0.600000X1.200000*%
%ADD19R,3.180000X3.180000*%
%ADD20RoundRect,0.125000X-0.125000X-0.875000X0.125000X-0.875000X0.125000X0.875000X-0.125000X0.875000X0*%
%ADD21RoundRect,0.250000X-0.750000X-0.600000X0.750000X-0.600000X0.750000X0.600000X-0.750000X0.600000X0*%
%ADD22RoundRect,0.095000X-0.095000X-0.405000X0.095000X-0.405000X0.095000X0.405000X-0.095000X0.405000X0*%
%ADD23RoundRect,0.175000X-0.175000X-0.400000X0.175000X-0.400000X0.175000X0.400000X-0.175000X0.400000X0*%
%ADD24R,0.145000X0.480000*%
%ADD25R,0.100000X0.480000*%
%ADD26R,0.482600X0.254000*%
%ADD27R,0.254000X0.482600*%
%ADD28C,0.200000*%
%ADD29R,3.000000X1.000000*%
%ADD30RoundRect,0.175000X-0.175000X-0.225000X0.175000X-0.225000X0.175000X0.225000X-0.175000X0.225000X0*%
%ADD31RoundRect,0.150000X-0.150000X-0.275000X0.150000X-0.275000X0.150000X0.275000X-0.150000X0.275000X0*%
%ADD32RoundRect,0.135000X-0.200000X-0.135000X0.200000X-0.135000X0.200000X0.135000X-0.200000X0.135000X0*%
%ADD33RoundRect,0.062500X-0.350000X-0.062500X0.350000X-0.062500X0.350000X0.062500X-0.350000X0.062500X0*%
%ADD34RoundRect,0.250000X-0.250000X0.275000X-0.250000X-0.275000X0.250000X-0.275000X0.250000X0.275000X0*%
%ADD35RoundRect,0.250000X-0.275000X0.850000X-0.275000X-0.850000X0.275000X-0.850000X0.275000X0.850000X0*%
%ADD36RoundRect,0.300000X-0.700000X-0.300000X0.700000X-0.300000X0.700000X0.300000X-0.700000X0.300000X0*%
G04 APERTURE END LIST*
D10*
%TO.C,U14*%
X113577500Y-56730000D02*
X113802500Y-56730000D01*
X113802500Y-56930000D01*
X113577500Y-56930000D01*
X113577500Y-56730000D01*
G36*
X113802500Y-56930000D02*
G01*
X113577500Y-56930000D01*
X113577500Y-56730000D01*
X113802500Y-56730000D01*
X113802500Y-56930000D01*
G37*
X113577500Y-57230000D02*
X113802500Y-57230000D01*
X113802500Y-57430000D01*
X113577500Y-57430000D01*
X113577500Y-57230000D01*
G36*
X113802500Y-57430000D02*
G01*
X113577500Y-57430000D01*
X113577500Y-57230000D01*
X113802500Y-57230000D01*
X113802500Y-57430000D01*
G37*
X113577500Y-57730000D02*
X113802500Y-57730000D01*
X113802500Y-57930000D01*
X113577500Y-57930000D01*
X113577500Y-57730000D01*
G36*
X113802500Y-57930000D02*
G01*
X113577500Y-57930000D01*
X113577500Y-57730000D01*
X113802500Y-57730000D01*
X113802500Y-57930000D01*
G37*
X114102500Y-56680000D02*
X114102500Y-56455000D01*
X114302500Y-56455000D01*
X114302500Y-56680000D01*
X114102500Y-56680000D01*
G36*
X114302500Y-56680000D02*
G01*
X114102500Y-56680000D01*
X114102500Y-56455000D01*
X114302500Y-56455000D01*
X114302500Y-56680000D01*
G37*
X114102500Y-58205000D02*
X114102500Y-57980000D01*
X114302500Y-57980000D01*
X114302500Y-58205000D01*
X114102500Y-58205000D01*
G36*
X114302500Y-58205000D02*
G01*
X114102500Y-58205000D01*
X114102500Y-57980000D01*
X114302500Y-57980000D01*
X114302500Y-58205000D01*
G37*
X114602500Y-56680000D02*
X114602500Y-56455000D01*
X114802500Y-56455000D01*
X114802500Y-56680000D01*
X114602500Y-56680000D01*
G36*
X114802500Y-56680000D02*
G01*
X114602500Y-56680000D01*
X114602500Y-56455000D01*
X114802500Y-56455000D01*
X114802500Y-56680000D01*
G37*
X114602500Y-58205000D02*
X114602500Y-57980000D01*
X114802500Y-57980000D01*
X114802500Y-58205000D01*
X114602500Y-58205000D01*
G36*
X114802500Y-58205000D02*
G01*
X114602500Y-58205000D01*
X114602500Y-57980000D01*
X114802500Y-57980000D01*
X114802500Y-58205000D01*
G37*
X115102500Y-56730000D02*
X115327500Y-56730000D01*
X115327500Y-56930000D01*
X115102500Y-56930000D01*
X115102500Y-56730000D01*
G36*
X115327500Y-56930000D02*
G01*
X115102500Y-56930000D01*
X115102500Y-56730000D01*
X115327500Y-56730000D01*
X115327500Y-56930000D01*
G37*
X115102500Y-57230000D02*
X115327500Y-57230000D01*
X115327500Y-57430000D01*
X115102500Y-57430000D01*
X115102500Y-57230000D01*
G36*
X115327500Y-57430000D02*
G01*
X115102500Y-57430000D01*
X115102500Y-57230000D01*
X115327500Y-57230000D01*
X115327500Y-57430000D01*
G37*
X115102500Y-57730000D02*
X115327500Y-57730000D01*
X115327500Y-57930000D01*
X115102500Y-57930000D01*
X115102500Y-57730000D01*
G36*
X115327500Y-57930000D02*
G01*
X115102500Y-57930000D01*
X115102500Y-57730000D01*
X115327500Y-57730000D01*
X115327500Y-57930000D01*
G37*
%TD*%
D11*
%TO.C,R22*%
X91530000Y-49920000D03*
X91530000Y-49230000D03*
%TD*%
D12*
%TO.C,U6*%
X108290000Y-51260000D03*
X108290000Y-51760000D03*
X108290000Y-52260000D03*
X108290000Y-52760000D03*
X108290000Y-53260000D03*
X108290000Y-53760000D03*
X108290000Y-54260000D03*
X108290000Y-54760000D03*
X108290000Y-55260000D03*
X107790000Y-51260000D03*
X107790000Y-51760000D03*
X107790000Y-54760000D03*
X107790000Y-55260000D03*
X107290000Y-51260000D03*
X107290000Y-52260000D03*
X107290000Y-52760000D03*
X107290000Y-53260000D03*
X107290000Y-53760000D03*
X107290000Y-54260000D03*
X107290000Y-55260000D03*
X106790000Y-51260000D03*
X106790000Y-51760000D03*
X106790000Y-55260000D03*
X106290000Y-51260000D03*
X106290000Y-51760000D03*
X106290000Y-52260000D03*
X106290000Y-52760000D03*
X106290000Y-54260000D03*
X106290000Y-55260000D03*
X105790000Y-51260000D03*
X105790000Y-52260000D03*
X105790000Y-52760000D03*
X105790000Y-54260000D03*
X105790000Y-55260000D03*
X105290000Y-51260000D03*
X105290000Y-52260000D03*
X105290000Y-52760000D03*
X105290000Y-53260000D03*
X105290000Y-53760000D03*
X105290000Y-54260000D03*
X105290000Y-55260000D03*
X104790000Y-51260000D03*
X104790000Y-54760000D03*
X104790000Y-55260000D03*
X104290000Y-51260000D03*
X104290000Y-51760000D03*
X104290000Y-52260000D03*
X104290000Y-52760000D03*
X104290000Y-53260000D03*
X104290000Y-53760000D03*
X104290000Y-54260000D03*
X104290000Y-54760000D03*
X104290000Y-55260000D03*
%TD*%
D13*
%TO.C,C7*%
X90005000Y-22200000D03*
X90695000Y-22200000D03*
%TD*%
%TO.C,R10*%
X142060000Y-71745000D03*
X142750000Y-71745000D03*
%TD*%
%TO.C,R16*%
X106705000Y-22200000D03*
X107395000Y-22200000D03*
%TD*%
%TO.C,R4*%
X104255000Y-29200000D03*
X104945000Y-29200000D03*
%TD*%
%TO.C,D3*%
X121305000Y-51275000D03*
X121995000Y-51275000D03*
%TD*%
D14*
%TO.C,J1*%
X91540000Y-51790000D03*
X92040000Y-51790000D03*
X92540000Y-51790000D03*
X93040000Y-51790000D03*
X93540000Y-51790000D03*
X94040000Y-51790000D03*
X94540000Y-51790000D03*
X95040000Y-51790000D03*
X95540000Y-51790000D03*
X96040000Y-51790000D03*
X96540000Y-51790000D03*
X97040000Y-51790000D03*
X96790000Y-53490000D03*
X96290000Y-53490000D03*
X95790000Y-53490000D03*
X95290000Y-53490000D03*
X94790000Y-53490000D03*
X94290000Y-53490000D03*
X93790000Y-53490000D03*
X93290000Y-53490000D03*
X92790000Y-53490000D03*
X92290000Y-53490000D03*
X91790000Y-53490000D03*
X91290000Y-53490000D03*
%TD*%
D13*
%TO.C,R9*%
X121070000Y-47775000D03*
X121760000Y-47775000D03*
%TD*%
D15*
%TO.C,SW1*%
X46500000Y-154700000D03*
X46500000Y-151300000D03*
%TD*%
D13*
%TO.C,C1*%
X99355000Y-22200000D03*
X100045000Y-22200000D03*
%TD*%
%TO.C,L3*%
X94905000Y-23950000D03*
X95595000Y-23950000D03*
%TD*%
D16*
%TO.C,U18*%
X32025000Y-159700000D03*
X32425000Y-159700000D03*
X32025000Y-160100000D03*
X32425000Y-160100000D03*
X32025000Y-160500000D03*
X32425000Y-160500000D03*
%TD*%
D13*
%TO.C,R14*%
X109455000Y-43450000D03*
X110145000Y-43450000D03*
%TD*%
D17*
%TO.C,U5*%
X96210000Y-49800000D03*
X96210000Y-50149999D03*
X96210000Y-50500001D03*
X96210000Y-50850000D03*
X95860001Y-49800000D03*
X95860001Y-50149999D03*
X95860001Y-50500001D03*
X95860001Y-50850000D03*
X95509999Y-49800000D03*
X95509999Y-50149999D03*
X95509999Y-50500001D03*
X95509999Y-50850000D03*
X95160000Y-49800000D03*
X95160000Y-50149999D03*
X95160000Y-50500001D03*
X95160000Y-50850000D03*
%TD*%
D13*
%TO.C,R3*%
X104255000Y-27450000D03*
X104945000Y-27450000D03*
%TD*%
%TO.C,C20*%
X101805000Y-27450000D03*
X102495000Y-27450000D03*
%TD*%
%TO.C,D4*%
X121305000Y-53025000D03*
X121995000Y-53025000D03*
%TD*%
%TO.C,C18*%
X101805000Y-25700000D03*
X102495000Y-25700000D03*
%TD*%
%TO.C,R12*%
X104255000Y-30950000D03*
X104945000Y-30950000D03*
%TD*%
%TO.C,D2*%
X121305000Y-49525000D03*
X121995000Y-49525000D03*
%TD*%
D18*
%TO.C,Y1*%
X125945000Y-48365000D03*
X127145000Y-48365000D03*
%TD*%
D19*
%TO.C,BT1*%
X66900000Y-71500000D03*
X81500000Y-71500000D03*
%TD*%
D11*
%TO.C,R21*%
X91510000Y-47840000D03*
X91510000Y-48530000D03*
%TD*%
D13*
%TO.C,C11*%
X109455000Y-36450000D03*
X110145000Y-36450000D03*
%TD*%
%TO.C,C3*%
X99355000Y-25700000D03*
X100045000Y-25700000D03*
%TD*%
%TO.C,L4*%
X109455000Y-39950000D03*
X110145000Y-39950000D03*
%TD*%
%TO.C,C15*%
X99355000Y-32700000D03*
X100045000Y-32700000D03*
%TD*%
D19*
%TO.C,BT2*%
X58200000Y-28000000D03*
X72800000Y-28000000D03*
%TD*%
D13*
%TO.C,C17*%
X101805000Y-23950000D03*
X102495000Y-23950000D03*
%TD*%
%TO.C,L1*%
X104255000Y-22200000D03*
X104945000Y-22200000D03*
%TD*%
D20*
%TO.C,J3*%
X30875000Y-164450000D03*
X31675000Y-164450000D03*
X32475000Y-164450000D03*
X33275000Y-164450000D03*
X34075000Y-164450000D03*
D21*
X28025000Y-164550000D03*
X28025000Y-170000000D03*
X36925000Y-164550000D03*
X36925000Y-170000000D03*
%TD*%
D22*
%TO.C,P1*%
X18695000Y-168660000D03*
X19195000Y-168660000D03*
X19695000Y-168660000D03*
X20195000Y-168660000D03*
X20695000Y-168660000D03*
X21195000Y-168660000D03*
X21695000Y-168660000D03*
X22195000Y-168660000D03*
X22695000Y-168660000D03*
X23195000Y-168660000D03*
X23695000Y-168660000D03*
X24195000Y-168660000D03*
D23*
X18025000Y-169500000D03*
%TD*%
D13*
%TO.C,R5*%
X109455000Y-41700000D03*
X110145000Y-41700000D03*
%TD*%
%TO.C,C12*%
X90005000Y-25700000D03*
X90695000Y-25700000D03*
%TD*%
D24*
%TO.C,Q2*%
X118053000Y-48770000D03*
D25*
X118310000Y-48770000D03*
D24*
X118568000Y-48770000D03*
%TD*%
D13*
%TO.C,L2*%
X94905000Y-22200000D03*
X95595000Y-22200000D03*
%TD*%
D24*
%TO.C,Q1*%
X118053000Y-45190000D03*
D25*
X118310000Y-45190000D03*
D24*
X118568000Y-45190000D03*
%TD*%
D13*
%TO.C,D3*%
X144745000Y-71745000D03*
X145435000Y-71745000D03*
%TD*%
%TO.C,C21*%
X101805000Y-29200000D03*
X102495000Y-29200000D03*
%TD*%
%TO.C,C23*%
X101805000Y-32700000D03*
X102495000Y-32700000D03*
%TD*%
D16*
%TO.C,U13*%
X101010000Y-53870000D03*
X101410000Y-53870000D03*
X101010000Y-54270000D03*
X101410000Y-54270000D03*
X101010000Y-54670000D03*
X101410000Y-54670000D03*
%TD*%
D13*
%TO.C,C13*%
X92455000Y-22200000D03*
X93145000Y-22200000D03*
%TD*%
%TO.C,C24*%
X92455000Y-25700000D03*
X93145000Y-25700000D03*
%TD*%
D26*
%TO.C,U16*%
X103893499Y-47662499D03*
X103893499Y-48162500D03*
X103893499Y-48662500D03*
X103893499Y-49162501D03*
D27*
X104600000Y-49365000D03*
X105099999Y-49365000D03*
X105599998Y-49365000D03*
D26*
X106306499Y-49162501D03*
X106306499Y-48662500D03*
X106306499Y-48162500D03*
X106306499Y-47662499D03*
D27*
X105599998Y-47460000D03*
X105099999Y-47460000D03*
X104600000Y-47460000D03*
%TD*%
D17*
%TO.C,U15*%
X94140000Y-49710000D03*
X94140000Y-50059999D03*
X94140000Y-50410001D03*
X94140000Y-50760000D03*
X93790001Y-49710000D03*
X93790001Y-50059999D03*
X93790001Y-50410001D03*
X93790001Y-50760000D03*
X93439999Y-49710000D03*
X93439999Y-50059999D03*
X93439999Y-50410001D03*
X93439999Y-50760000D03*
X93090000Y-49710000D03*
X93090000Y-50059999D03*
X93090000Y-50410001D03*
X93090000Y-50760000D03*
%TD*%
D16*
%TO.C,U1*%
X102950000Y-53860000D03*
X103350000Y-53860000D03*
X102950000Y-54260000D03*
X103350000Y-54260000D03*
X102950000Y-54660000D03*
X103350000Y-54660000D03*
%TD*%
D28*
%TO.C,U11*%
X89770000Y-48335000D03*
X90170000Y-48335000D03*
X89770000Y-48735000D03*
X90170000Y-48735000D03*
X89770000Y-49135000D03*
X90170000Y-49135000D03*
%TD*%
D13*
%TO.C,C2*%
X99355000Y-23950000D03*
X100045000Y-23950000D03*
%TD*%
%TO.C,R2*%
X104255000Y-25700000D03*
X104945000Y-25700000D03*
%TD*%
%TO.C,R1*%
X104255000Y-23950000D03*
X104945000Y-23950000D03*
%TD*%
%TO.C,C6*%
X99355000Y-29200000D03*
X100045000Y-29200000D03*
%TD*%
%TO.C,C14*%
X92455000Y-23950000D03*
X93145000Y-23950000D03*
%TD*%
%TO.C,R15*%
X104255000Y-32700000D03*
X104945000Y-32700000D03*
%TD*%
%TO.C,D1*%
X144745000Y-68245000D03*
X145435000Y-68245000D03*
%TD*%
%TO.C,D2*%
X144745000Y-69995000D03*
X145435000Y-69995000D03*
%TD*%
D24*
%TO.C,Q3*%
X118053000Y-52350000D03*
D25*
X118310000Y-52350000D03*
D24*
X118568000Y-52350000D03*
%TD*%
D13*
%TO.C,R13*%
X94905000Y-25700000D03*
X95595000Y-25700000D03*
%TD*%
D16*
%TO.C,U4*%
X98400000Y-47765129D03*
X98800000Y-47765129D03*
X99200000Y-47765129D03*
X99600000Y-47765129D03*
X100000000Y-47765129D03*
X100400000Y-47765129D03*
X100800000Y-47765129D03*
X101200000Y-47765129D03*
X101600000Y-47765129D03*
X98600000Y-48111539D03*
X99000000Y-48111539D03*
X99400000Y-48111539D03*
X99800000Y-48111539D03*
X100200000Y-48111539D03*
X100600000Y-48111539D03*
X101000000Y-48111539D03*
X101400000Y-48111539D03*
X101800000Y-48111539D03*
X98400000Y-48457950D03*
X98800000Y-48457950D03*
X99200000Y-48457950D03*
X99600000Y-48457950D03*
X100000000Y-48457950D03*
X100400000Y-48457950D03*
X100800000Y-48457950D03*
X101200000Y-48457950D03*
X101600000Y-48457950D03*
X98600000Y-48804360D03*
X99000000Y-48804360D03*
X99400000Y-48804360D03*
X99800000Y-48804360D03*
X100200000Y-48804360D03*
X100600000Y-48804360D03*
X101000000Y-48804360D03*
X101400000Y-48804360D03*
X101800000Y-48804360D03*
X98400000Y-49150770D03*
X98800000Y-49150770D03*
X99200000Y-49150770D03*
X99600000Y-49150770D03*
X100000000Y-49150770D03*
X100400000Y-49150770D03*
X100800000Y-49150770D03*
X101200000Y-49150770D03*
X101600000Y-49150770D03*
X98600000Y-49497180D03*
X99000000Y-49497180D03*
X99400000Y-49497180D03*
X99800000Y-49497180D03*
X100200000Y-49497180D03*
X100600000Y-49497180D03*
X101000000Y-49497180D03*
X101400000Y-49497180D03*
X101800000Y-49497180D03*
X98400000Y-49843590D03*
X98800000Y-49843590D03*
X99200000Y-49843590D03*
X99600000Y-49843590D03*
X100000000Y-49843590D03*
X100400000Y-49843590D03*
X100800000Y-49843590D03*
X101200000Y-49843590D03*
X101600000Y-49843590D03*
X98600000Y-50190000D03*
X99000000Y-50190000D03*
X99400000Y-50190000D03*
X99800000Y-50190000D03*
X100200000Y-50190000D03*
X100600000Y-50190000D03*
X101000000Y-50190000D03*
X101400000Y-50190000D03*
X101800000Y-50190000D03*
X98400000Y-50536411D03*
X98800000Y-50536411D03*
X99200000Y-50536411D03*
X99600000Y-50536411D03*
X100000000Y-50536411D03*
X100400000Y-50536411D03*
X100800000Y-50536411D03*
X101200000Y-50536411D03*
X101600000Y-50536411D03*
X98600000Y-50882821D03*
X99000000Y-50882821D03*
X99400000Y-50882821D03*
X99800000Y-50882821D03*
X100200000Y-50882821D03*
X100600000Y-50882821D03*
X101000000Y-50882821D03*
X101400000Y-50882821D03*
X101800000Y-50882821D03*
%TD*%
D13*
%TO.C,C22*%
X101805000Y-30950000D03*
X102495000Y-30950000D03*
%TD*%
%TO.C,C10*%
X99355000Y-30950000D03*
X100045000Y-30950000D03*
%TD*%
%TO.C,C19*%
X109455000Y-38200000D03*
X110145000Y-38200000D03*
%TD*%
%TO.C,R8*%
X121070000Y-46025000D03*
X121760000Y-46025000D03*
%TD*%
%TO.C,R6*%
X142060000Y-68245000D03*
X142750000Y-68245000D03*
%TD*%
%TO.C,C5*%
X99355000Y-27450000D03*
X100045000Y-27450000D03*
%TD*%
D19*
%TO.C,BT3*%
X111500000Y-80500000D03*
X126100000Y-80500000D03*
%TD*%
D29*
%TO.C,CN2*%
X26065000Y-153920000D03*
X21025000Y-153920000D03*
X26065000Y-156460000D03*
X21025000Y-156460000D03*
X26065000Y-159000000D03*
X21025000Y-159000000D03*
%TD*%
D30*
%TO.C,J5*%
X100660000Y-61165000D03*
X104160000Y-61165000D03*
D31*
X101810000Y-57390000D03*
X103010000Y-57390000D03*
%TD*%
D13*
%TO.C,C9*%
X90005000Y-23950000D03*
X90695000Y-23950000D03*
%TD*%
%TO.C,C16*%
X101805000Y-22200000D03*
X102495000Y-22200000D03*
%TD*%
D32*
%TO.C,U7*%
X93810000Y-47750000D03*
X93810000Y-48430000D03*
X94630000Y-47750000D03*
X94630000Y-48430000D03*
D33*
X92782500Y-47590000D03*
X92782500Y-48090000D03*
X92782500Y-48590000D03*
X95657500Y-48590000D03*
X95657500Y-48090000D03*
X95657500Y-47590000D03*
%TD*%
D24*
%TO.C,Q4*%
X118053000Y-55930000D03*
D25*
X118310000Y-55930000D03*
D24*
X118568000Y-55930000D03*
%TD*%
D34*
%TO.C,J2*%
X107555000Y-58725000D03*
D35*
X109030000Y-60250000D03*
X106080000Y-60250000D03*
%TD*%
D13*
%TO.C,R7*%
X121070000Y-44275000D03*
X121760000Y-44275000D03*
%TD*%
%TO.C,R9*%
X142060000Y-69995000D03*
X142750000Y-69995000D03*
%TD*%
D36*
%TO.C,J4*%
X26025000Y-137500000D03*
X26025000Y-140000000D03*
X26025000Y-142000000D03*
X26025000Y-144500000D03*
%TD*%
M02*
