%TF.GenerationSoftware,KiCad,Pcbnew,10.0.3*%
%TF.CreationDate,2026-07-30T22:23:18-04:00*%
%TF.ProjectId,Pangotag_PCB,50616e67-6f74-4616-975f-5043422e6b69,rev?*%
%TF.SameCoordinates,Original*%
%TF.FileFunction,Copper,L4,Inr*%
%TF.FilePolarity,Positive*%
%FSLAX46Y46*%
G04 Gerber Fmt 4.6, Leading zero omitted, Abs format (unit mm)*
G04 Created by KiCad (PCBNEW 10.0.3) date 2026-07-30 22:23:18*
%MOMM*%
%LPD*%
G01*
G04 APERTURE LIST*
%TA.AperFunction,ComponentPad*%
%ADD10O,3.000000X1.600000*%
%TD*%
%TA.AperFunction,ComponentPad*%
%ADD11C,1.700000*%
%TD*%
%TA.AperFunction,ComponentPad*%
%ADD12R,1.700000X1.700000*%
%TD*%
%TA.AperFunction,ComponentPad*%
%ADD13C,1.400000*%
%TD*%
%TA.AperFunction,ViaPad*%
%ADD14C,0.400000*%
%TD*%
%TA.AperFunction,ViaPad*%
%ADD15C,0.300000*%
%TD*%
%TA.AperFunction,ViaPad*%
%ADD16C,0.250000*%
%TD*%
%TA.AperFunction,ViaPad*%
%ADD17C,0.600000*%
%TD*%
%TA.AperFunction,ViaPad*%
%ADD18C,0.450000*%
%TD*%
G04 APERTURE END LIST*
D10*
%TO.N,GND2*%
%TO.C,J4*%
X57635000Y-48000000D03*
X57635000Y-55800000D03*
%TD*%
D11*
%TO.N,NRST_OUT*%
%TO.C,CN2*%
X71730000Y-40260000D03*
%TO.N,SWO_OUT*%
X71730000Y-42800000D03*
%TO.N,SWCLK_OUT*%
X69190000Y-40260000D03*
%TO.N,SWDIO_OUT*%
X69190000Y-42800000D03*
%TO.N,GND2*%
X66650000Y-40260000D03*
D12*
%TO.N,+1V8_2*%
X66650000Y-42800000D03*
%TD*%
D13*
%TO.N,GND*%
%TO.C,J1*%
X98125000Y-58980000D03*
X97765000Y-53030000D03*
X89505000Y-53030000D03*
X89145000Y-58980000D03*
%TD*%
D14*
%TO.N,NRST*%
X96070000Y-57820000D03*
%TO.N,SWO*%
X95830000Y-39340000D03*
D15*
%TO.N,SDMMC1_CMD*%
X95090000Y-35570000D03*
D14*
%TO.N,GND*%
X107960000Y-36200000D03*
%TO.N,VDDA*%
X101550000Y-36980000D03*
D15*
%TO.N,ACC_INT1*%
X102000000Y-45890000D03*
D14*
%TO.N,USB_OTG_FS_D+*%
X93580000Y-54680000D03*
%TO.N,VDDA*%
X109280000Y-47570000D03*
D16*
%TO.N,SDMMC1_D1*%
X108740000Y-57210000D03*
D14*
%TO.N,USB_OTG_FS_D+*%
X87360000Y-42540000D03*
%TO.N,+3V3*%
X116040000Y-57790000D03*
%TO.N,SWDIO*%
X88150000Y-40920000D03*
%TO.N,I2C1_SDA*%
X115220000Y-50090000D03*
%TO.N,Timepulse*%
X113680000Y-44890000D03*
%TO.N,Net-(IC6-COM4)*%
X95630000Y-52020000D03*
%TO.N,NRST*%
X98432277Y-45797678D03*
D15*
%TO.N,Net-(IC6-COM1)*%
X91143477Y-55843485D03*
D14*
%TO.N,SWCLK*%
X92760000Y-39820000D03*
%TO.N,PRS_INT*%
X105360000Y-39050000D03*
%TO.N,LED2*%
X96950000Y-46030000D03*
%TO.N,GND*%
X88562500Y-46877500D03*
X92520000Y-54710000D03*
D16*
%TO.N,SDMMC1_CMD*%
X109240000Y-51710000D03*
D17*
%TO.N,Net-(J3-ID)*%
X77240000Y-52340000D03*
D15*
%TO.N,SDMMC1_CK*%
X94570000Y-36030000D03*
D14*
%TO.N,VDDA*%
X108740000Y-51220000D03*
D16*
%TO.N,GND*%
X109740000Y-50710000D03*
D14*
%TO.N,PRS_INT*%
X105120000Y-42900000D03*
%TO.N,Net-(IC5-COM3)*%
X95315000Y-49900000D03*
D16*
%TO.N,SDMMC1_D0*%
X108240000Y-57210000D03*
D14*
%TO.N,LED1*%
X113090000Y-40800000D03*
%TO.N,GND*%
X89390000Y-49080000D03*
D16*
%TO.N,Net-(IC5-COM2)*%
X96115000Y-55590000D03*
D14*
%TO.N,Net-(D4-K)*%
X115790000Y-37172500D03*
%TO.N,USART1_TX*%
X97010000Y-39340000D03*
%TO.N,VDDA*%
X92710000Y-44880000D03*
%TO.N,SWCLK*%
X94725000Y-59810000D03*
%TO.N,ACC_INT2*%
X106320000Y-46410000D03*
D17*
%TO.N,VBUS_DONGLE*%
X66460000Y-53930000D03*
D16*
%TO.N,Net-(U2-VDDi)*%
X107740000Y-56210000D03*
D17*
%TO.N,SWDIO_OUT*%
X63590000Y-52830000D03*
D16*
%TO.N,VDDA*%
X96770000Y-59560000D03*
X111510000Y-55750000D03*
D14*
X101390000Y-35280000D03*
%TO.N,LED2*%
X113880000Y-40850000D03*
%TO.N,I2C1_SCL*%
X100570000Y-39380000D03*
D17*
%TO.N,NRST_OUT*%
X62370000Y-47420000D03*
D14*
%TO.N,VDDA*%
X107180000Y-57800000D03*
D17*
%TO.N,SWCLK_OUT*%
X60930000Y-54100000D03*
D14*
%TO.N,Net-(IC6-COM3)*%
X88670000Y-54770000D03*
%TO.N,USB_OTG_VBUS*%
X91850000Y-54000000D03*
D15*
%TO.N,SDMMC1_D2*%
X93575000Y-36070000D03*
D14*
%TO.N,LED4*%
X98270000Y-47070000D03*
D17*
%TO.N,NRST_OUT*%
X58570000Y-45340000D03*
D15*
%TO.N,Net-(IC2-OUT)*%
X95520000Y-44660000D03*
D14*
%TO.N,Net-(D1-K)*%
X112830000Y-37092500D03*
D16*
%TO.N,SDMMC1_D3*%
X107740000Y-56710000D03*
D14*
%TO.N,VDDA*%
X95130000Y-55030000D03*
%TO.N,Net-(U2-VDDi)*%
X102910000Y-58940000D03*
%TO.N,SWCLK*%
X96890000Y-61070000D03*
%TO.N,Net-(IC1-IN-)*%
X100360000Y-53150000D03*
%TO.N,USB_OTG_VBUS*%
X89390000Y-45070000D03*
%TO.N,VDD*%
X101870000Y-58060000D03*
%TO.N,LED1*%
X96350000Y-46530000D03*
%TO.N,USART1_TX*%
X114800000Y-43070000D03*
%TO.N,SWO*%
X89440000Y-54560000D03*
%TO.N,Net-(IC5-COM1)*%
X91380000Y-52070000D03*
%TO.N,VDDA*%
X100580000Y-60790000D03*
%TO.N,GND*%
X109660000Y-39200000D03*
%TO.N,VDDA*%
X99880000Y-58060000D03*
X102020000Y-49955000D03*
%TO.N,I2C1_SCL*%
X106340000Y-54170000D03*
D17*
%TO.N,Net-(J3-ID)*%
X69380000Y-57060000D03*
D14*
%TO.N,+3V3*%
X87910000Y-39280000D03*
%TO.N,USB_OTG_FS_D-*%
X88150000Y-42540000D03*
%TO.N,GND2*%
X65880000Y-45780000D03*
%TO.N,LED3*%
X97960000Y-46380000D03*
X114710000Y-40910000D03*
%TO.N,Net-(D3-K)*%
X114760000Y-37162500D03*
%TO.N,USB_OTG_FS_D-*%
X93040000Y-54070000D03*
D17*
%TO.N,VBUS_DONGLE*%
X54970000Y-48870000D03*
D14*
%TO.N,VDDA*%
X88760000Y-45750000D03*
%TO.N,I2C1_SCL*%
X115840000Y-52270000D03*
%TO.N,SWDIO*%
X92440000Y-56890000D03*
%TO.N,VDDA*%
X95790000Y-45390000D03*
%TO.N,Net-(IC2-OUT)*%
X100320000Y-52050000D03*
%TO.N,GND2*%
X75540000Y-42140000D03*
%TO.N,USBC_FUNCTION*%
X99250000Y-60890000D03*
%TO.N,LED4*%
X115560000Y-40940000D03*
%TO.N,+3V3*%
X110320000Y-37470000D03*
D16*
%TO.N,GND*%
X93995000Y-46486300D03*
%TO.N,SDMMC1_CK*%
X109740000Y-51710000D03*
D14*
%TO.N,USB_OTG_VBUS*%
X94650000Y-54270000D03*
%TO.N,USBC_FUNCTION*%
X93550000Y-55860000D03*
%TO.N,Net-(D2-K)*%
X113760000Y-37112500D03*
%TO.N,+3V3*%
X112120000Y-52270000D03*
%TO.N,GND*%
X110380000Y-54390000D03*
D18*
X107740000Y-51210000D03*
D14*
%TO.N,VDDA*%
X108160000Y-41100000D03*
D17*
%TO.N,SWO_OUT*%
X55290000Y-54040000D03*
D14*
%TO.N,GND*%
X95580000Y-42500000D03*
D16*
%TO.N,USBC_FUNCTION*%
X99064360Y-44284216D03*
D14*
%TO.N,USART1_RX*%
X92530000Y-42010000D03*
%TO.N,CC2*%
X98295000Y-56610000D03*
%TO.N,SDMMC1_D0*%
X92230000Y-44080000D03*
%TO.N,GND*%
X88351651Y-38231651D03*
X103370000Y-35400000D03*
%TO.N,GPS_EXTINT*%
X112580000Y-44890000D03*
D16*
%TO.N,GND*%
X105330000Y-56050000D03*
D14*
%TO.N,Net-(IC5-COM4)*%
X94605000Y-58170000D03*
D16*
%TO.N,Net-(IC6-COM2)*%
X94770000Y-55670000D03*
D14*
%TO.N,I2C1_SCL*%
X103430000Y-41410000D03*
%TO.N,VDDA*%
X105100000Y-39800000D03*
%TO.N,+3V3*%
X116720000Y-47610000D03*
%TO.N,I2C1_SCL*%
X105300000Y-40860000D03*
D15*
%TO.N,SDMMC1_D3*%
X94070000Y-35590000D03*
D17*
%TO.N,VBUS_DONGLE*%
X77570000Y-40250000D03*
D16*
%TO.N,USB_OTG_FS_D-*%
X93090000Y-52330000D03*
X93696934Y-51800435D03*
D14*
%TO.N,USART1_RX*%
X115900000Y-43090000D03*
%TO.N,SDMMC1_D1*%
X92680000Y-43120000D03*
%TO.N,I2C1_SDA*%
X99120000Y-39950000D03*
%TO.N,SDMMC1_D2*%
X106038539Y-59061441D03*
%TO.N,GND*%
X88420000Y-36060000D03*
%TD*%
%TA.AperFunction,Conductor*%
%TO.N,VDDA*%
G36*
X103096140Y-34930185D02*
G01*
X103141895Y-34982989D01*
X103151839Y-35052147D01*
X103122814Y-35115703D01*
X103116782Y-35122181D01*
X103069526Y-35169436D01*
X103020091Y-35255059D01*
X103020091Y-35255060D01*
X103020090Y-35255062D01*
X102994500Y-35350565D01*
X102994500Y-35449435D01*
X103020090Y-35544938D01*
X103020091Y-35544939D01*
X103020091Y-35544940D01*
X103033337Y-35567882D01*
X103069525Y-35630562D01*
X103139438Y-35700475D01*
X103225062Y-35749910D01*
X103320565Y-35775500D01*
X103320567Y-35775500D01*
X103419432Y-35775500D01*
X103419435Y-35775500D01*
X103514938Y-35749910D01*
X103600562Y-35700475D01*
X103670475Y-35630562D01*
X103719910Y-35544938D01*
X103745500Y-35449435D01*
X103745500Y-35350565D01*
X103719910Y-35255062D01*
X103670475Y-35169438D01*
X103623218Y-35122181D01*
X103589733Y-35060858D01*
X103594717Y-34991166D01*
X103636589Y-34935233D01*
X103702053Y-34910816D01*
X103710899Y-34910500D01*
X117805500Y-34910500D01*
X117872539Y-34930185D01*
X117918294Y-34982989D01*
X117929500Y-35034500D01*
X117929500Y-60965500D01*
X117909815Y-61032539D01*
X117857011Y-61078294D01*
X117805500Y-61089500D01*
X99746890Y-61089500D01*
X99679851Y-61069815D01*
X99634096Y-61017011D01*
X99624152Y-60947853D01*
X99624820Y-60944592D01*
X99625500Y-60939433D01*
X99625500Y-60840567D01*
X99625500Y-60840565D01*
X99599910Y-60745062D01*
X99550475Y-60659438D01*
X99480562Y-60589525D01*
X99394938Y-60540090D01*
X99299435Y-60514500D01*
X99200565Y-60514500D01*
X99105062Y-60540090D01*
X99105060Y-60540091D01*
X99105059Y-60540091D01*
X99019436Y-60589526D01*
X98949526Y-60659436D01*
X98900091Y-60745059D01*
X98900091Y-60745060D01*
X98900090Y-60745062D01*
X98874500Y-60840565D01*
X98874500Y-60840567D01*
X98874500Y-60939433D01*
X98875561Y-60947491D01*
X98872542Y-60947888D01*
X98871218Y-61003269D01*
X98832050Y-61061127D01*
X98767818Y-61088625D01*
X98753110Y-61089500D01*
X97379119Y-61089500D01*
X97312080Y-61069815D01*
X97266325Y-61017011D01*
X97259346Y-60997600D01*
X97239910Y-60925062D01*
X97190475Y-60839438D01*
X97120562Y-60769525D01*
X97034938Y-60720090D01*
X96939435Y-60694500D01*
X96840565Y-60694500D01*
X96745062Y-60720090D01*
X96745060Y-60720091D01*
X96745059Y-60720091D01*
X96659436Y-60769526D01*
X96589526Y-60839436D01*
X96540091Y-60925059D01*
X96540090Y-60925062D01*
X96520654Y-60997594D01*
X96484291Y-61057254D01*
X96421444Y-61087783D01*
X96400881Y-61089500D01*
X87114500Y-61089500D01*
X87047461Y-61069815D01*
X87001706Y-61017011D01*
X86990500Y-60965500D01*
X86990500Y-58898493D01*
X88317500Y-58898493D01*
X88317500Y-59061506D01*
X88349298Y-59221365D01*
X88349300Y-59221373D01*
X88411677Y-59371964D01*
X88411682Y-59371974D01*
X88502238Y-59507500D01*
X88502241Y-59507504D01*
X88617495Y-59622758D01*
X88617499Y-59622761D01*
X88753025Y-59713317D01*
X88753029Y-59713319D01*
X88753032Y-59713321D01*
X88903627Y-59775700D01*
X89063493Y-59807499D01*
X89063497Y-59807500D01*
X89063498Y-59807500D01*
X89226503Y-59807500D01*
X89226504Y-59807499D01*
X89386373Y-59775700D01*
X89422912Y-59760565D01*
X94349500Y-59760565D01*
X94349500Y-59859435D01*
X94375090Y-59954938D01*
X94424525Y-60040562D01*
X94494438Y-60110475D01*
X94580062Y-60159910D01*
X94675565Y-60185500D01*
X94675567Y-60185500D01*
X94774432Y-60185500D01*
X94774435Y-60185500D01*
X94869938Y-60159910D01*
X94955562Y-60110475D01*
X95025475Y-60040562D01*
X95074910Y-59954938D01*
X95100500Y-59859435D01*
X95100500Y-59760565D01*
X95074910Y-59665062D01*
X95025475Y-59579438D01*
X94955562Y-59509525D01*
X94869938Y-59460090D01*
X94774435Y-59434500D01*
X94675565Y-59434500D01*
X94580062Y-59460090D01*
X94580060Y-59460091D01*
X94580059Y-59460091D01*
X94494436Y-59509526D01*
X94424526Y-59579436D01*
X94375091Y-59665059D01*
X94375091Y-59665060D01*
X94375090Y-59665062D01*
X94349500Y-59760565D01*
X89422912Y-59760565D01*
X89536968Y-59713321D01*
X89609196Y-59665060D01*
X89632729Y-59649336D01*
X89672501Y-59622761D01*
X89787758Y-59507504D01*
X89787761Y-59507501D01*
X89878321Y-59371968D01*
X89940700Y-59221373D01*
X89972500Y-59061502D01*
X89972500Y-58898498D01*
X89972499Y-58898493D01*
X97297500Y-58898493D01*
X97297500Y-59061506D01*
X97329298Y-59221365D01*
X97329300Y-59221373D01*
X97391677Y-59371964D01*
X97391682Y-59371974D01*
X97482238Y-59507500D01*
X97482241Y-59507504D01*
X97597495Y-59622758D01*
X97597499Y-59622761D01*
X97733025Y-59713317D01*
X97733029Y-59713319D01*
X97733032Y-59713321D01*
X97883627Y-59775700D01*
X98043493Y-59807499D01*
X98043497Y-59807500D01*
X98043498Y-59807500D01*
X98206503Y-59807500D01*
X98206504Y-59807499D01*
X98366373Y-59775700D01*
X98516968Y-59713321D01*
X98652501Y-59622761D01*
X98767761Y-59507501D01*
X98858321Y-59371968D01*
X98920700Y-59221373D01*
X98952500Y-59061502D01*
X98952500Y-58898498D01*
X98950922Y-58890567D01*
X98950922Y-58890565D01*
X102534500Y-58890565D01*
X102534500Y-58989435D01*
X102560090Y-59084938D01*
X102609525Y-59170562D01*
X102679438Y-59240475D01*
X102765062Y-59289910D01*
X102860565Y-59315500D01*
X102860567Y-59315500D01*
X102959432Y-59315500D01*
X102959435Y-59315500D01*
X103054938Y-59289910D01*
X103140562Y-59240475D01*
X103210475Y-59170562D01*
X103259910Y-59084938D01*
X103279452Y-59012006D01*
X105663039Y-59012006D01*
X105663039Y-59110876D01*
X105688629Y-59206379D01*
X105738064Y-59292003D01*
X105807977Y-59361916D01*
X105893601Y-59411351D01*
X105989104Y-59436941D01*
X105989106Y-59436941D01*
X106087971Y-59436941D01*
X106087974Y-59436941D01*
X106183477Y-59411351D01*
X106269101Y-59361916D01*
X106339014Y-59292003D01*
X106388449Y-59206379D01*
X106414039Y-59110876D01*
X106414039Y-59012006D01*
X106388449Y-58916503D01*
X106339014Y-58830879D01*
X106269101Y-58760966D01*
X106183477Y-58711531D01*
X106087974Y-58685941D01*
X105989104Y-58685941D01*
X105893601Y-58711531D01*
X105893599Y-58711532D01*
X105893598Y-58711532D01*
X105807975Y-58760967D01*
X105738065Y-58830877D01*
X105688630Y-58916500D01*
X105688630Y-58916501D01*
X105688629Y-58916503D01*
X105663039Y-59012006D01*
X103279452Y-59012006D01*
X103285500Y-58989435D01*
X103285500Y-58890565D01*
X103259910Y-58795062D01*
X103210475Y-58709438D01*
X103140562Y-58639525D01*
X103054938Y-58590090D01*
X102959435Y-58564500D01*
X102860565Y-58564500D01*
X102765062Y-58590090D01*
X102765060Y-58590091D01*
X102765059Y-58590091D01*
X102679436Y-58639526D01*
X102609526Y-58709436D01*
X102560091Y-58795059D01*
X102560091Y-58795060D01*
X102560090Y-58795062D01*
X102534500Y-58890565D01*
X98950922Y-58890565D01*
X98939049Y-58830877D01*
X98920700Y-58738627D01*
X98858321Y-58588032D01*
X98858319Y-58588029D01*
X98858317Y-58588025D01*
X98767761Y-58452499D01*
X98767758Y-58452495D01*
X98652504Y-58337241D01*
X98652500Y-58337238D01*
X98516974Y-58246682D01*
X98516964Y-58246677D01*
X98366373Y-58184300D01*
X98366365Y-58184298D01*
X98206506Y-58152500D01*
X98206502Y-58152500D01*
X98043498Y-58152500D01*
X98043493Y-58152500D01*
X97883634Y-58184298D01*
X97883626Y-58184300D01*
X97733035Y-58246677D01*
X97733025Y-58246682D01*
X97597499Y-58337238D01*
X97597495Y-58337241D01*
X97482241Y-58452495D01*
X97482238Y-58452499D01*
X97391682Y-58588025D01*
X97391677Y-58588035D01*
X97329300Y-58738626D01*
X97329298Y-58738634D01*
X97297500Y-58898493D01*
X89972499Y-58898493D01*
X89940700Y-58738627D01*
X89878321Y-58588032D01*
X89878319Y-58588029D01*
X89878317Y-58588025D01*
X89787761Y-58452499D01*
X89787758Y-58452495D01*
X89672504Y-58337241D01*
X89672500Y-58337238D01*
X89536974Y-58246682D01*
X89536964Y-58246677D01*
X89489457Y-58226999D01*
X89386373Y-58184300D01*
X89386365Y-58184298D01*
X89226506Y-58152500D01*
X89226502Y-58152500D01*
X89063498Y-58152500D01*
X89063493Y-58152500D01*
X88903634Y-58184298D01*
X88903626Y-58184300D01*
X88753035Y-58246677D01*
X88753025Y-58246682D01*
X88617499Y-58337238D01*
X88617495Y-58337241D01*
X88502241Y-58452495D01*
X88502238Y-58452499D01*
X88411682Y-58588025D01*
X88411677Y-58588035D01*
X88349300Y-58738626D01*
X88349298Y-58738634D01*
X88317500Y-58898493D01*
X86990500Y-58898493D01*
X86990500Y-58120565D01*
X94229500Y-58120565D01*
X94229500Y-58219435D01*
X94255090Y-58314938D01*
X94304525Y-58400562D01*
X94374438Y-58470475D01*
X94460062Y-58519910D01*
X94555565Y-58545500D01*
X94555567Y-58545500D01*
X94654432Y-58545500D01*
X94654435Y-58545500D01*
X94749938Y-58519910D01*
X94835562Y-58470475D01*
X94905475Y-58400562D01*
X94954910Y-58314938D01*
X94980500Y-58219435D01*
X94980500Y-58120565D01*
X94954910Y-58025062D01*
X94905475Y-57939438D01*
X94835562Y-57869525D01*
X94749938Y-57820090D01*
X94654435Y-57794500D01*
X94555565Y-57794500D01*
X94460062Y-57820090D01*
X94460060Y-57820091D01*
X94460059Y-57820091D01*
X94374436Y-57869526D01*
X94304526Y-57939436D01*
X94255091Y-58025059D01*
X94255091Y-58025060D01*
X94255090Y-58025062D01*
X94229500Y-58120565D01*
X86990500Y-58120565D01*
X86990500Y-57770565D01*
X95694500Y-57770565D01*
X95694500Y-57869435D01*
X95720090Y-57964938D01*
X95769525Y-58050562D01*
X95839438Y-58120475D01*
X95925062Y-58169910D01*
X96020565Y-58195500D01*
X96020567Y-58195500D01*
X96119432Y-58195500D01*
X96119435Y-58195500D01*
X96214938Y-58169910D01*
X96300562Y-58120475D01*
X96370475Y-58050562D01*
X96393567Y-58010565D01*
X101494500Y-58010565D01*
X101494500Y-58109435D01*
X101520090Y-58204938D01*
X101569525Y-58290562D01*
X101639438Y-58360475D01*
X101725062Y-58409910D01*
X101820565Y-58435500D01*
X101820567Y-58435500D01*
X101919432Y-58435500D01*
X101919435Y-58435500D01*
X102014938Y-58409910D01*
X102100562Y-58360475D01*
X102170475Y-58290562D01*
X102219910Y-58204938D01*
X102245500Y-58109435D01*
X102245500Y-58010565D01*
X102219910Y-57915062D01*
X102170475Y-57829438D01*
X102100562Y-57759525D01*
X102067722Y-57740565D01*
X115664500Y-57740565D01*
X115664500Y-57839435D01*
X115690090Y-57934938D01*
X115739525Y-58020562D01*
X115809438Y-58090475D01*
X115895062Y-58139910D01*
X115990565Y-58165500D01*
X115990567Y-58165500D01*
X116089432Y-58165500D01*
X116089435Y-58165500D01*
X116184938Y-58139910D01*
X116270562Y-58090475D01*
X116340475Y-58020562D01*
X116389910Y-57934938D01*
X116415500Y-57839435D01*
X116415500Y-57740565D01*
X116389910Y-57645062D01*
X116340475Y-57559438D01*
X116270562Y-57489525D01*
X116184938Y-57440090D01*
X116089435Y-57414500D01*
X115990565Y-57414500D01*
X115895062Y-57440090D01*
X115895060Y-57440091D01*
X115895059Y-57440091D01*
X115809436Y-57489526D01*
X115739526Y-57559436D01*
X115690091Y-57645059D01*
X115690091Y-57645060D01*
X115690090Y-57645062D01*
X115664500Y-57740565D01*
X102067722Y-57740565D01*
X102014938Y-57710090D01*
X101919435Y-57684500D01*
X101820565Y-57684500D01*
X101725062Y-57710090D01*
X101725060Y-57710091D01*
X101725059Y-57710091D01*
X101639436Y-57759526D01*
X101569526Y-57829436D01*
X101520091Y-57915059D01*
X101520091Y-57915060D01*
X101520090Y-57915062D01*
X101494500Y-58010565D01*
X96393567Y-58010565D01*
X96419910Y-57964938D01*
X96445500Y-57869435D01*
X96445500Y-57770565D01*
X96419910Y-57675062D01*
X96370475Y-57589438D01*
X96300562Y-57519525D01*
X96214938Y-57470090D01*
X96119435Y-57444500D01*
X96020565Y-57444500D01*
X95925062Y-57470090D01*
X95925060Y-57470091D01*
X95925059Y-57470091D01*
X95839436Y-57519526D01*
X95769526Y-57589436D01*
X95720091Y-57675059D01*
X95720091Y-57675060D01*
X95720090Y-57675062D01*
X95694500Y-57770565D01*
X86990500Y-57770565D01*
X86990500Y-56840565D01*
X92064500Y-56840565D01*
X92064500Y-56939435D01*
X92090090Y-57034938D01*
X92139525Y-57120562D01*
X92209438Y-57190475D01*
X92295062Y-57239910D01*
X92390565Y-57265500D01*
X92390567Y-57265500D01*
X92489432Y-57265500D01*
X92489435Y-57265500D01*
X92584938Y-57239910D01*
X92670562Y-57190475D01*
X92740475Y-57120562D01*
X92789910Y-57034938D01*
X92815500Y-56939435D01*
X92815500Y-56840565D01*
X92789910Y-56745062D01*
X92740475Y-56659438D01*
X92670562Y-56589525D01*
X92620402Y-56560565D01*
X97919500Y-56560565D01*
X97919500Y-56659435D01*
X97945090Y-56754938D01*
X97994525Y-56840562D01*
X98064438Y-56910475D01*
X98150062Y-56959910D01*
X98245565Y-56985500D01*
X98245567Y-56985500D01*
X98344432Y-56985500D01*
X98344435Y-56985500D01*
X98439938Y-56959910D01*
X98525562Y-56910475D01*
X98595475Y-56840562D01*
X98644910Y-56754938D01*
X98670500Y-56659435D01*
X98670500Y-56560565D01*
X98644910Y-56465062D01*
X98595475Y-56379438D01*
X98525562Y-56309525D01*
X98439938Y-56260090D01*
X98344435Y-56234500D01*
X98245565Y-56234500D01*
X98150062Y-56260090D01*
X98150060Y-56260091D01*
X98150059Y-56260091D01*
X98064436Y-56309526D01*
X97994526Y-56379436D01*
X97945091Y-56465059D01*
X97945091Y-56465060D01*
X97945090Y-56465062D01*
X97919500Y-56560565D01*
X92620402Y-56560565D01*
X92584938Y-56540090D01*
X92489435Y-56514500D01*
X92390565Y-56514500D01*
X92295062Y-56540090D01*
X92295060Y-56540091D01*
X92295059Y-56540091D01*
X92209436Y-56589526D01*
X92139526Y-56659436D01*
X92090091Y-56745059D01*
X92090091Y-56745060D01*
X92090090Y-56745062D01*
X92064500Y-56840565D01*
X86990500Y-56840565D01*
X86990500Y-55797341D01*
X90792977Y-55797341D01*
X90792977Y-55889629D01*
X90815401Y-55973318D01*
X90816864Y-55978775D01*
X90816865Y-55978778D01*
X90863003Y-56058690D01*
X90863006Y-56058694D01*
X90863008Y-56058697D01*
X90928265Y-56123954D01*
X90928268Y-56123955D01*
X90928271Y-56123958D01*
X91008183Y-56170096D01*
X91008184Y-56170096D01*
X91008189Y-56170099D01*
X91097333Y-56193985D01*
X91097335Y-56193985D01*
X91189619Y-56193985D01*
X91189621Y-56193985D01*
X91278765Y-56170099D01*
X91358689Y-56123954D01*
X91423946Y-56058697D01*
X91470091Y-55978773D01*
X91493977Y-55889629D01*
X91493977Y-55810565D01*
X93174500Y-55810565D01*
X93174500Y-55909435D01*
X93200090Y-56004938D01*
X93200091Y-56004939D01*
X93200091Y-56004940D01*
X93203091Y-56010136D01*
X93249525Y-56090562D01*
X93319438Y-56160475D01*
X93405062Y-56209910D01*
X93500565Y-56235500D01*
X93500567Y-56235500D01*
X93599432Y-56235500D01*
X93599435Y-56235500D01*
X93694938Y-56209910D01*
X93780562Y-56160475D01*
X93850475Y-56090562D01*
X93898635Y-56007147D01*
X105004500Y-56007147D01*
X105004500Y-56092853D01*
X105025198Y-56170097D01*
X105026682Y-56175637D01*
X105026685Y-56175644D01*
X105069530Y-56249855D01*
X105069534Y-56249860D01*
X105069535Y-56249862D01*
X105130138Y-56310465D01*
X105130140Y-56310466D01*
X105130144Y-56310469D01*
X105204355Y-56353314D01*
X105204362Y-56353318D01*
X105287147Y-56375500D01*
X105287149Y-56375500D01*
X105372851Y-56375500D01*
X105372853Y-56375500D01*
X105455638Y-56353318D01*
X105529862Y-56310465D01*
X105590465Y-56249862D01*
X105633318Y-56175638D01*
X105635593Y-56167147D01*
X107414500Y-56167147D01*
X107414500Y-56252853D01*
X107429937Y-56310463D01*
X107436682Y-56335637D01*
X107436682Y-56335638D01*
X107472687Y-56398001D01*
X107489159Y-56465901D01*
X107472687Y-56521999D01*
X107436682Y-56584361D01*
X107436682Y-56584362D01*
X107414500Y-56667147D01*
X107414500Y-56752852D01*
X107436682Y-56835637D01*
X107436685Y-56835644D01*
X107479530Y-56909855D01*
X107479534Y-56909860D01*
X107479535Y-56909862D01*
X107540138Y-56970465D01*
X107540140Y-56970466D01*
X107540144Y-56970469D01*
X107608854Y-57010138D01*
X107614362Y-57013318D01*
X107697147Y-57035500D01*
X107697149Y-57035500D01*
X107790500Y-57035500D01*
X107857539Y-57055185D01*
X107903294Y-57107989D01*
X107914500Y-57159500D01*
X107914500Y-57252852D01*
X107936682Y-57335637D01*
X107936685Y-57335644D01*
X107979530Y-57409855D01*
X107979534Y-57409860D01*
X107979535Y-57409862D01*
X108040138Y-57470465D01*
X108040140Y-57470466D01*
X108040144Y-57470469D01*
X108114355Y-57513314D01*
X108114362Y-57513318D01*
X108197147Y-57535500D01*
X108197149Y-57535500D01*
X108282851Y-57535500D01*
X108282853Y-57535500D01*
X108365638Y-57513318D01*
X108428001Y-57477312D01*
X108495900Y-57460840D01*
X108551998Y-57477312D01*
X108614362Y-57513318D01*
X108697147Y-57535500D01*
X108697149Y-57535500D01*
X108782851Y-57535500D01*
X108782853Y-57535500D01*
X108865638Y-57513318D01*
X108939862Y-57470465D01*
X109000465Y-57409862D01*
X109043318Y-57335638D01*
X109065500Y-57252853D01*
X109065500Y-57167147D01*
X109043318Y-57084362D01*
X109015107Y-57035499D01*
X109000469Y-57010144D01*
X109000463Y-57010136D01*
X108939863Y-56949536D01*
X108939855Y-56949530D01*
X108865644Y-56906685D01*
X108865640Y-56906683D01*
X108865638Y-56906682D01*
X108782853Y-56884500D01*
X108697147Y-56884500D01*
X108614362Y-56906682D01*
X108614361Y-56906682D01*
X108551999Y-56942687D01*
X108484099Y-56959159D01*
X108428001Y-56942687D01*
X108365638Y-56906682D01*
X108282853Y-56884500D01*
X108197147Y-56884500D01*
X108189500Y-56884500D01*
X108122461Y-56864815D01*
X108076706Y-56812011D01*
X108065500Y-56760500D01*
X108065500Y-56667149D01*
X108065500Y-56667147D01*
X108043318Y-56584362D01*
X108007312Y-56521998D01*
X107990840Y-56454100D01*
X108007313Y-56398000D01*
X108018031Y-56379436D01*
X108043318Y-56335638D01*
X108065500Y-56252853D01*
X108065500Y-56167147D01*
X108043318Y-56084362D01*
X108028502Y-56058699D01*
X108000469Y-56010144D01*
X108000463Y-56010136D01*
X107939863Y-55949536D01*
X107939855Y-55949530D01*
X107865644Y-55906685D01*
X107865640Y-55906683D01*
X107865638Y-55906682D01*
X107782853Y-55884500D01*
X107697147Y-55884500D01*
X107614362Y-55906682D01*
X107614355Y-55906685D01*
X107540144Y-55949530D01*
X107540136Y-55949536D01*
X107479536Y-56010136D01*
X107479530Y-56010144D01*
X107436685Y-56084355D01*
X107436682Y-56084362D01*
X107414500Y-56167147D01*
X105635593Y-56167147D01*
X105655500Y-56092853D01*
X105655500Y-56007147D01*
X105633318Y-55924362D01*
X105615395Y-55893318D01*
X105590469Y-55850144D01*
X105590463Y-55850136D01*
X105529863Y-55789536D01*
X105529855Y-55789530D01*
X105455644Y-55746685D01*
X105455640Y-55746683D01*
X105455638Y-55746682D01*
X105372853Y-55724500D01*
X105287147Y-55724500D01*
X105204362Y-55746682D01*
X105204355Y-55746685D01*
X105130144Y-55789530D01*
X105130136Y-55789536D01*
X105069536Y-55850136D01*
X105069530Y-55850144D01*
X105026685Y-55924355D01*
X105026682Y-55924362D01*
X105004500Y-56007147D01*
X93898635Y-56007147D01*
X93899910Y-56004938D01*
X93925500Y-55909435D01*
X93925500Y-55810565D01*
X93899910Y-55715062D01*
X93850475Y-55629438D01*
X93848184Y-55627147D01*
X94444500Y-55627147D01*
X94444500Y-55712853D01*
X94465135Y-55789862D01*
X94466682Y-55795637D01*
X94466685Y-55795644D01*
X94509530Y-55869855D01*
X94509534Y-55869860D01*
X94509535Y-55869862D01*
X94570138Y-55930465D01*
X94570140Y-55930466D01*
X94570144Y-55930469D01*
X94603168Y-55949535D01*
X94644362Y-55973318D01*
X94727147Y-55995500D01*
X94727149Y-55995500D01*
X94812851Y-55995500D01*
X94812853Y-55995500D01*
X94895638Y-55973318D01*
X94969862Y-55930465D01*
X95030465Y-55869862D01*
X95073318Y-55795638D01*
X95095500Y-55712853D01*
X95095500Y-55627147D01*
X95074064Y-55547147D01*
X95789500Y-55547147D01*
X95789500Y-55632853D01*
X95810936Y-55712852D01*
X95811682Y-55715637D01*
X95811685Y-55715644D01*
X95854530Y-55789855D01*
X95854534Y-55789860D01*
X95854535Y-55789862D01*
X95915138Y-55850465D01*
X95915140Y-55850466D01*
X95915144Y-55850469D01*
X95982969Y-55889627D01*
X95989362Y-55893318D01*
X96072147Y-55915500D01*
X96072149Y-55915500D01*
X96157851Y-55915500D01*
X96157853Y-55915500D01*
X96240638Y-55893318D01*
X96242438Y-55892278D01*
X96243559Y-55891632D01*
X96314855Y-55850469D01*
X96314862Y-55850465D01*
X96375465Y-55789862D01*
X96418318Y-55715638D01*
X96440500Y-55632853D01*
X96440500Y-55547147D01*
X96418318Y-55464362D01*
X96418314Y-55464355D01*
X96375469Y-55390144D01*
X96375463Y-55390136D01*
X96314863Y-55329536D01*
X96314855Y-55329530D01*
X96240644Y-55286685D01*
X96240640Y-55286683D01*
X96240638Y-55286682D01*
X96157853Y-55264500D01*
X96072147Y-55264500D01*
X95989362Y-55286682D01*
X95989355Y-55286685D01*
X95915144Y-55329530D01*
X95915136Y-55329536D01*
X95854536Y-55390136D01*
X95854530Y-55390144D01*
X95811685Y-55464355D01*
X95811682Y-55464362D01*
X95789500Y-55547147D01*
X95074064Y-55547147D01*
X95073318Y-55544362D01*
X95073314Y-55544355D01*
X95030469Y-55470144D01*
X95030463Y-55470136D01*
X94969863Y-55409536D01*
X94969855Y-55409530D01*
X94895644Y-55366685D01*
X94895640Y-55366683D01*
X94895638Y-55366682D01*
X94812853Y-55344500D01*
X94727147Y-55344500D01*
X94644362Y-55366682D01*
X94644355Y-55366685D01*
X94570144Y-55409530D01*
X94570136Y-55409536D01*
X94509536Y-55470136D01*
X94509530Y-55470144D01*
X94466685Y-55544355D01*
X94466682Y-55544362D01*
X94444500Y-55627147D01*
X93848184Y-55627147D01*
X93780562Y-55559525D01*
X93694938Y-55510090D01*
X93599435Y-55484500D01*
X93500565Y-55484500D01*
X93405062Y-55510090D01*
X93405060Y-55510091D01*
X93405059Y-55510091D01*
X93319436Y-55559526D01*
X93249526Y-55629436D01*
X93200091Y-55715059D01*
X93200091Y-55715060D01*
X93200090Y-55715062D01*
X93174500Y-55810565D01*
X91493977Y-55810565D01*
X91493977Y-55797341D01*
X91470091Y-55708197D01*
X91470088Y-55708191D01*
X91423950Y-55628279D01*
X91423947Y-55628276D01*
X91423946Y-55628273D01*
X91358689Y-55563016D01*
X91358686Y-55563014D01*
X91358682Y-55563011D01*
X91278770Y-55516873D01*
X91278767Y-55516872D01*
X91278766Y-55516871D01*
X91278765Y-55516871D01*
X91189621Y-55492985D01*
X91097333Y-55492985D01*
X91008189Y-55516871D01*
X91008188Y-55516871D01*
X91008186Y-55516872D01*
X91008183Y-55516873D01*
X90928271Y-55563011D01*
X90928262Y-55563018D01*
X90863010Y-55628270D01*
X90863003Y-55628279D01*
X90816865Y-55708191D01*
X90816864Y-55708194D01*
X90816863Y-55708196D01*
X90816863Y-55708197D01*
X90792977Y-55797341D01*
X86990500Y-55797341D01*
X86990500Y-54720565D01*
X88294500Y-54720565D01*
X88294500Y-54819435D01*
X88320090Y-54914938D01*
X88369525Y-55000562D01*
X88439438Y-55070475D01*
X88525062Y-55119910D01*
X88620565Y-55145500D01*
X88620567Y-55145500D01*
X88719432Y-55145500D01*
X88719435Y-55145500D01*
X88814938Y-55119910D01*
X88900562Y-55070475D01*
X88970475Y-55000562D01*
X89019910Y-54914938D01*
X89019912Y-54914930D01*
X89020894Y-54912561D01*
X89022264Y-54910860D01*
X89023974Y-54907899D01*
X89024435Y-54908165D01*
X89064731Y-54858155D01*
X89131023Y-54836085D01*
X89198724Y-54853360D01*
X89208068Y-54859683D01*
X89209435Y-54860472D01*
X89209438Y-54860475D01*
X89295062Y-54909910D01*
X89390565Y-54935500D01*
X89390567Y-54935500D01*
X89489432Y-54935500D01*
X89489435Y-54935500D01*
X89584938Y-54909910D01*
X89670562Y-54860475D01*
X89740475Y-54790562D01*
X89789910Y-54704938D01*
X89801800Y-54660565D01*
X92144500Y-54660565D01*
X92144500Y-54759435D01*
X92170090Y-54854938D01*
X92170091Y-54854939D01*
X92170091Y-54854940D01*
X92173286Y-54860473D01*
X92219525Y-54940562D01*
X92289438Y-55010475D01*
X92375062Y-55059910D01*
X92470565Y-55085500D01*
X92470567Y-55085500D01*
X92569432Y-55085500D01*
X92569435Y-55085500D01*
X92664938Y-55059910D01*
X92750562Y-55010475D01*
X92820475Y-54940562D01*
X92869910Y-54854938D01*
X92895500Y-54759435D01*
X92895500Y-54660565D01*
X92879698Y-54601591D01*
X92880293Y-54576598D01*
X92876735Y-54551853D01*
X92881110Y-54542272D01*
X92881361Y-54531744D01*
X92895373Y-54511039D01*
X92905760Y-54488297D01*
X92914619Y-54482603D01*
X92920523Y-54473881D01*
X92943506Y-54464039D01*
X92964538Y-54450523D01*
X92980393Y-54448243D01*
X92984752Y-54446377D01*
X92999473Y-54445500D01*
X93092488Y-54445500D01*
X93159527Y-54465185D01*
X93205282Y-54517989D01*
X93215226Y-54587147D01*
X93212263Y-54601592D01*
X93204500Y-54630563D01*
X93204500Y-54630565D01*
X93204500Y-54729435D01*
X93230090Y-54824938D01*
X93279525Y-54910562D01*
X93349438Y-54980475D01*
X93435062Y-55029910D01*
X93530565Y-55055500D01*
X93530567Y-55055500D01*
X93629432Y-55055500D01*
X93629435Y-55055500D01*
X93724938Y-55029910D01*
X93810562Y-54980475D01*
X93880475Y-54910562D01*
X93929910Y-54824938D01*
X93955500Y-54729435D01*
X93955500Y-54630565D01*
X93929910Y-54535062D01*
X93880475Y-54449438D01*
X93810562Y-54379525D01*
X93776900Y-54360090D01*
X93729647Y-54332808D01*
X93729645Y-54332807D01*
X93724938Y-54330090D01*
X93629435Y-54304500D01*
X93530565Y-54304500D01*
X93526769Y-54305516D01*
X93510980Y-54303393D01*
X93486346Y-54292412D01*
X93460473Y-54284815D01*
X93454916Y-54278402D01*
X93447163Y-54274946D01*
X93432374Y-54252387D01*
X93414718Y-54232011D01*
X93413510Y-54223612D01*
X93411513Y-54220565D01*
X94274500Y-54220565D01*
X94274500Y-54319435D01*
X94300090Y-54414938D01*
X94300091Y-54414939D01*
X94300091Y-54414940D01*
X94313337Y-54437882D01*
X94349525Y-54500562D01*
X94419438Y-54570475D01*
X94505062Y-54619910D01*
X94600565Y-54645500D01*
X94600567Y-54645500D01*
X94699432Y-54645500D01*
X94699435Y-54645500D01*
X94794938Y-54619910D01*
X94880562Y-54570475D01*
X94950475Y-54500562D01*
X94999910Y-54414938D01*
X95025500Y-54319435D01*
X95025500Y-54220565D01*
X94999910Y-54125062D01*
X94997314Y-54120565D01*
X105964500Y-54120565D01*
X105964500Y-54219435D01*
X105990090Y-54314938D01*
X105990091Y-54314939D01*
X105990091Y-54314940D01*
X105992686Y-54319435D01*
X106039525Y-54400562D01*
X106109438Y-54470475D01*
X106195062Y-54519910D01*
X106290565Y-54545500D01*
X106290567Y-54545500D01*
X106389432Y-54545500D01*
X106389435Y-54545500D01*
X106484938Y-54519910D01*
X106570562Y-54470475D01*
X106640475Y-54400562D01*
X106675114Y-54340565D01*
X110004500Y-54340565D01*
X110004500Y-54439435D01*
X110030090Y-54534938D01*
X110030091Y-54534939D01*
X110030091Y-54534940D01*
X110032687Y-54539436D01*
X110079525Y-54620562D01*
X110149438Y-54690475D01*
X110235062Y-54739910D01*
X110330565Y-54765500D01*
X110330567Y-54765500D01*
X110429432Y-54765500D01*
X110429435Y-54765500D01*
X110524938Y-54739910D01*
X110610562Y-54690475D01*
X110680475Y-54620562D01*
X110729910Y-54534938D01*
X110755500Y-54439435D01*
X110755500Y-54340565D01*
X110729910Y-54245062D01*
X110680475Y-54159438D01*
X110610562Y-54089525D01*
X110524938Y-54040090D01*
X110429435Y-54014500D01*
X110330565Y-54014500D01*
X110235062Y-54040090D01*
X110235060Y-54040091D01*
X110235059Y-54040091D01*
X110149436Y-54089526D01*
X110079526Y-54159436D01*
X110030091Y-54245059D01*
X110030091Y-54245060D01*
X110030090Y-54245062D01*
X110004500Y-54340565D01*
X106675114Y-54340565D01*
X106689910Y-54314938D01*
X106715500Y-54219435D01*
X106715500Y-54120565D01*
X106689910Y-54025062D01*
X106640475Y-53939438D01*
X106570562Y-53869525D01*
X106484938Y-53820090D01*
X106389435Y-53794500D01*
X106290565Y-53794500D01*
X106195062Y-53820090D01*
X106195060Y-53820091D01*
X106195059Y-53820091D01*
X106109436Y-53869526D01*
X106039526Y-53939436D01*
X105990091Y-54025059D01*
X105990091Y-54025060D01*
X105990090Y-54025062D01*
X105964500Y-54120565D01*
X94997314Y-54120565D01*
X94950475Y-54039438D01*
X94880562Y-53969525D01*
X94794938Y-53920090D01*
X94699435Y-53894500D01*
X94600565Y-53894500D01*
X94505062Y-53920090D01*
X94505060Y-53920091D01*
X94505059Y-53920091D01*
X94419436Y-53969526D01*
X94349526Y-54039436D01*
X94300091Y-54125059D01*
X94300091Y-54125060D01*
X94300090Y-54125062D01*
X94274500Y-54220565D01*
X93411513Y-54220565D01*
X93408857Y-54216514D01*
X93408612Y-54189547D01*
X93404774Y-54162853D01*
X93407737Y-54148408D01*
X93410028Y-54139855D01*
X93415500Y-54119435D01*
X93415500Y-54020565D01*
X93389910Y-53925062D01*
X93340475Y-53839438D01*
X93270562Y-53769525D01*
X93184938Y-53720090D01*
X93089435Y-53694500D01*
X92990565Y-53694500D01*
X92895062Y-53720090D01*
X92895060Y-53720091D01*
X92895059Y-53720091D01*
X92809436Y-53769526D01*
X92739526Y-53839436D01*
X92690091Y-53925059D01*
X92690091Y-53925060D01*
X92690090Y-53925062D01*
X92664500Y-54020565D01*
X92664500Y-54119435D01*
X92680301Y-54178408D01*
X92678639Y-54248256D01*
X92639477Y-54306119D01*
X92575248Y-54333623D01*
X92560527Y-54334500D01*
X92470565Y-54334500D01*
X92375062Y-54360090D01*
X92375060Y-54360090D01*
X92375060Y-54360091D01*
X92375057Y-54360092D01*
X92339024Y-54380895D01*
X92339019Y-54380899D01*
X92289438Y-54409525D01*
X92219525Y-54479438D01*
X92203347Y-54507459D01*
X92203345Y-54507461D01*
X92170091Y-54565059D01*
X92170091Y-54565060D01*
X92170090Y-54565062D01*
X92144500Y-54660565D01*
X89801800Y-54660565D01*
X89815500Y-54609435D01*
X89815500Y-54510565D01*
X89789910Y-54415062D01*
X89740475Y-54329438D01*
X89670562Y-54259525D01*
X89584938Y-54210090D01*
X89489435Y-54184500D01*
X89390565Y-54184500D01*
X89295062Y-54210090D01*
X89295060Y-54210091D01*
X89295059Y-54210091D01*
X89209436Y-54259526D01*
X89139526Y-54329436D01*
X89090090Y-54415061D01*
X89089100Y-54417452D01*
X89087725Y-54419157D01*
X89086026Y-54422101D01*
X89085566Y-54421835D01*
X89045256Y-54471853D01*
X88978960Y-54493914D01*
X88911262Y-54476631D01*
X88901932Y-54470317D01*
X88900564Y-54469527D01*
X88900562Y-54469525D01*
X88814938Y-54420090D01*
X88719435Y-54394500D01*
X88620565Y-54394500D01*
X88525062Y-54420090D01*
X88525060Y-54420091D01*
X88525059Y-54420091D01*
X88439436Y-54469526D01*
X88369526Y-54539436D01*
X88320091Y-54625059D01*
X88320091Y-54625060D01*
X88320090Y-54625062D01*
X88294500Y-54720565D01*
X86990500Y-54720565D01*
X86990500Y-53950565D01*
X91474500Y-53950565D01*
X91474500Y-54049435D01*
X91500090Y-54144938D01*
X91549525Y-54230562D01*
X91619438Y-54300475D01*
X91705062Y-54349910D01*
X91800565Y-54375500D01*
X91800567Y-54375500D01*
X91899432Y-54375500D01*
X91899435Y-54375500D01*
X91994938Y-54349910D01*
X92080562Y-54300475D01*
X92150475Y-54230562D01*
X92199910Y-54144938D01*
X92225500Y-54049435D01*
X92225500Y-53950565D01*
X92199910Y-53855062D01*
X92150475Y-53769438D01*
X92080562Y-53699525D01*
X91994938Y-53650090D01*
X91899435Y-53624500D01*
X91800565Y-53624500D01*
X91705062Y-53650090D01*
X91705060Y-53650091D01*
X91705059Y-53650091D01*
X91619436Y-53699526D01*
X91549526Y-53769436D01*
X91500091Y-53855059D01*
X91500091Y-53855060D01*
X91500090Y-53855062D01*
X91474500Y-53950565D01*
X86990500Y-53950565D01*
X86990500Y-52948493D01*
X88677500Y-52948493D01*
X88677500Y-53111506D01*
X88709298Y-53271365D01*
X88709300Y-53271373D01*
X88771677Y-53421964D01*
X88771682Y-53421974D01*
X88862238Y-53557500D01*
X88862241Y-53557504D01*
X88977495Y-53672758D01*
X88977499Y-53672761D01*
X89113025Y-53763317D01*
X89113029Y-53763319D01*
X89113032Y-53763321D01*
X89263627Y-53825700D01*
X89411226Y-53855059D01*
X89423493Y-53857499D01*
X89423497Y-53857500D01*
X89423498Y-53857500D01*
X89586503Y-53857500D01*
X89586504Y-53857499D01*
X89746373Y-53825700D01*
X89896968Y-53763321D01*
X90032501Y-53672761D01*
X90147761Y-53557501D01*
X90238321Y-53421968D01*
X90300700Y-53271373D01*
X90332500Y-53111502D01*
X90332500Y-52948498D01*
X90300700Y-52788627D01*
X90238321Y-52638032D01*
X90238319Y-52638029D01*
X90238317Y-52638025D01*
X90154974Y-52513293D01*
X90134096Y-52446615D01*
X90152581Y-52379235D01*
X90204560Y-52332545D01*
X90225979Y-52324628D01*
X90257135Y-52316281D01*
X90388365Y-52240515D01*
X90495515Y-52133365D01*
X90560640Y-52020565D01*
X91004500Y-52020565D01*
X91004500Y-52119435D01*
X91030090Y-52214938D01*
X91079525Y-52300562D01*
X91149438Y-52370475D01*
X91235062Y-52419910D01*
X91330565Y-52445500D01*
X91330567Y-52445500D01*
X91429432Y-52445500D01*
X91429435Y-52445500D01*
X91524938Y-52419910D01*
X91610562Y-52370475D01*
X91680475Y-52300562D01*
X91688220Y-52287147D01*
X92764500Y-52287147D01*
X92764500Y-52372853D01*
X92784265Y-52446615D01*
X92786682Y-52455637D01*
X92786685Y-52455644D01*
X92829530Y-52529855D01*
X92829534Y-52529860D01*
X92829535Y-52529862D01*
X92890138Y-52590465D01*
X92890140Y-52590466D01*
X92890144Y-52590469D01*
X92962805Y-52632419D01*
X92964362Y-52633318D01*
X93047147Y-52655500D01*
X93047149Y-52655500D01*
X93132851Y-52655500D01*
X93132853Y-52655500D01*
X93215638Y-52633318D01*
X93289862Y-52590465D01*
X93350465Y-52529862D01*
X93393318Y-52455638D01*
X93415500Y-52372853D01*
X93415500Y-52287147D01*
X93405853Y-52251143D01*
X93407516Y-52181297D01*
X93446678Y-52123434D01*
X93510906Y-52095930D01*
X93563053Y-52103111D01*
X93563445Y-52101649D01*
X93571294Y-52103752D01*
X93571296Y-52103753D01*
X93654081Y-52125935D01*
X93654083Y-52125935D01*
X93739785Y-52125935D01*
X93739787Y-52125935D01*
X93822572Y-52103753D01*
X93896796Y-52060900D01*
X93957399Y-52000297D01*
X93974565Y-51970565D01*
X95254500Y-51970565D01*
X95254500Y-52069435D01*
X95280090Y-52164938D01*
X95329525Y-52250562D01*
X95399438Y-52320475D01*
X95485062Y-52369910D01*
X95580565Y-52395500D01*
X95580567Y-52395500D01*
X95679432Y-52395500D01*
X95679435Y-52395500D01*
X95774938Y-52369910D01*
X95860562Y-52320475D01*
X95930475Y-52250562D01*
X95979910Y-52164938D01*
X96005500Y-52069435D01*
X96005500Y-51970565D01*
X95979910Y-51875062D01*
X95966282Y-51851457D01*
X96509499Y-51851457D01*
X96537379Y-51991614D01*
X96537381Y-51991620D01*
X96592069Y-52123650D01*
X96592074Y-52123659D01*
X96671467Y-52242478D01*
X96671470Y-52242482D01*
X96772517Y-52343529D01*
X96772521Y-52343532D01*
X96891340Y-52422925D01*
X96891344Y-52422927D01*
X96891347Y-52422929D01*
X96897554Y-52425500D01*
X96974236Y-52457263D01*
X97028639Y-52501104D01*
X97050704Y-52567398D01*
X97034108Y-52632419D01*
X97034552Y-52632657D01*
X97033587Y-52634461D01*
X97033425Y-52635098D01*
X97032254Y-52636955D01*
X97031677Y-52638035D01*
X96969300Y-52788626D01*
X96969298Y-52788634D01*
X96937500Y-52948493D01*
X96937500Y-53111506D01*
X96969298Y-53271365D01*
X96969300Y-53271373D01*
X97031677Y-53421964D01*
X97031682Y-53421974D01*
X97122238Y-53557500D01*
X97122241Y-53557504D01*
X97237495Y-53672758D01*
X97237499Y-53672761D01*
X97373025Y-53763317D01*
X97373029Y-53763319D01*
X97373032Y-53763321D01*
X97523627Y-53825700D01*
X97671226Y-53855059D01*
X97683493Y-53857499D01*
X97683497Y-53857500D01*
X97683498Y-53857500D01*
X97846503Y-53857500D01*
X97846504Y-53857499D01*
X98006373Y-53825700D01*
X98156968Y-53763321D01*
X98292501Y-53672761D01*
X98407761Y-53557501D01*
X98498321Y-53421968D01*
X98560700Y-53271373D01*
X98592500Y-53111502D01*
X98592500Y-53100565D01*
X99984500Y-53100565D01*
X99984500Y-53199435D01*
X100010090Y-53294938D01*
X100059525Y-53380562D01*
X100129438Y-53450475D01*
X100215062Y-53499910D01*
X100310565Y-53525500D01*
X100310567Y-53525500D01*
X100409432Y-53525500D01*
X100409435Y-53525500D01*
X100504938Y-53499910D01*
X100590562Y-53450475D01*
X100660475Y-53380562D01*
X100709910Y-53294938D01*
X100735500Y-53199435D01*
X100735500Y-53100565D01*
X100709910Y-53005062D01*
X100660475Y-52919438D01*
X100590562Y-52849525D01*
X100504938Y-52800090D01*
X100409435Y-52774500D01*
X100310565Y-52774500D01*
X100215062Y-52800090D01*
X100215060Y-52800091D01*
X100215059Y-52800091D01*
X100129436Y-52849526D01*
X100059526Y-52919436D01*
X100010091Y-53005059D01*
X100010091Y-53005060D01*
X100010090Y-53005062D01*
X99984500Y-53100565D01*
X98592500Y-53100565D01*
X98592500Y-52948498D01*
X98560700Y-52788627D01*
X98498321Y-52638032D01*
X98498319Y-52638029D01*
X98498317Y-52638025D01*
X98407761Y-52502499D01*
X98407758Y-52502495D01*
X98292504Y-52387241D01*
X98292500Y-52387238D01*
X98156974Y-52296682D01*
X98156964Y-52296677D01*
X98006373Y-52234300D01*
X98006371Y-52234299D01*
X97993550Y-52231749D01*
X97977908Y-52223566D01*
X97960585Y-52220172D01*
X97947591Y-52207705D01*
X97931640Y-52199361D01*
X97922906Y-52184023D01*
X97910167Y-52171801D01*
X97905975Y-52154289D01*
X97897068Y-52138645D01*
X97897992Y-52120931D01*
X97893904Y-52103850D01*
X97900382Y-52075110D01*
X97900690Y-52069215D01*
X97901835Y-52065936D01*
X97928914Y-52000565D01*
X99944500Y-52000565D01*
X99944500Y-52099435D01*
X99970090Y-52194938D01*
X99970091Y-52194939D01*
X99970091Y-52194940D01*
X99974281Y-52202197D01*
X100019525Y-52280562D01*
X100089438Y-52350475D01*
X100175062Y-52399910D01*
X100270565Y-52425500D01*
X100270567Y-52425500D01*
X100369432Y-52425500D01*
X100369435Y-52425500D01*
X100464938Y-52399910D01*
X100550562Y-52350475D01*
X100620475Y-52280562D01*
X100655114Y-52220565D01*
X111744500Y-52220565D01*
X111744500Y-52319435D01*
X111770090Y-52414938D01*
X111770091Y-52414939D01*
X111770091Y-52414940D01*
X111774701Y-52422925D01*
X111819525Y-52500562D01*
X111889438Y-52570475D01*
X111975062Y-52619910D01*
X112070565Y-52645500D01*
X112070567Y-52645500D01*
X112169432Y-52645500D01*
X112169435Y-52645500D01*
X112264938Y-52619910D01*
X112350562Y-52570475D01*
X112420475Y-52500562D01*
X112469910Y-52414938D01*
X112495500Y-52319435D01*
X112495500Y-52220565D01*
X115464500Y-52220565D01*
X115464500Y-52319435D01*
X115490090Y-52414938D01*
X115490091Y-52414939D01*
X115490091Y-52414940D01*
X115494701Y-52422925D01*
X115539525Y-52500562D01*
X115609438Y-52570475D01*
X115695062Y-52619910D01*
X115790565Y-52645500D01*
X115790567Y-52645500D01*
X115889432Y-52645500D01*
X115889435Y-52645500D01*
X115984938Y-52619910D01*
X116070562Y-52570475D01*
X116140475Y-52500562D01*
X116189910Y-52414938D01*
X116215500Y-52319435D01*
X116215500Y-52220565D01*
X116189910Y-52125062D01*
X116140475Y-52039438D01*
X116070562Y-51969525D01*
X115984938Y-51920090D01*
X115889435Y-51894500D01*
X115790565Y-51894500D01*
X115695062Y-51920090D01*
X115695060Y-51920091D01*
X115695059Y-51920091D01*
X115609436Y-51969526D01*
X115539526Y-52039436D01*
X115490091Y-52125059D01*
X115490091Y-52125060D01*
X115490090Y-52125062D01*
X115464500Y-52220565D01*
X112495500Y-52220565D01*
X112469910Y-52125062D01*
X112420475Y-52039438D01*
X112350562Y-51969525D01*
X112264938Y-51920090D01*
X112169435Y-51894500D01*
X112070565Y-51894500D01*
X111975062Y-51920090D01*
X111975060Y-51920091D01*
X111975059Y-51920091D01*
X111889436Y-51969526D01*
X111819526Y-52039436D01*
X111770091Y-52125059D01*
X111770091Y-52125060D01*
X111770090Y-52125062D01*
X111744500Y-52220565D01*
X100655114Y-52220565D01*
X100669910Y-52194938D01*
X100695500Y-52099435D01*
X100695500Y-52000565D01*
X100669910Y-51905062D01*
X100620475Y-51819438D01*
X100550562Y-51749525D01*
X100464938Y-51700090D01*
X100369435Y-51674500D01*
X100270565Y-51674500D01*
X100175062Y-51700090D01*
X100175060Y-51700091D01*
X100175059Y-51700091D01*
X100089436Y-51749526D01*
X100019526Y-51819436D01*
X99970091Y-51905059D01*
X99970091Y-51905060D01*
X99970090Y-51905062D01*
X99944500Y-52000565D01*
X97928914Y-52000565D01*
X97932619Y-51991620D01*
X97951938Y-51894500D01*
X97960500Y-51851457D01*
X97960500Y-51708542D01*
X97952266Y-51667147D01*
X108914500Y-51667147D01*
X108914500Y-51752853D01*
X108932342Y-51819438D01*
X108936682Y-51835637D01*
X108936685Y-51835644D01*
X108979530Y-51909855D01*
X108979534Y-51909860D01*
X108979535Y-51909862D01*
X109040138Y-51970465D01*
X109040140Y-51970466D01*
X109040144Y-51970469D01*
X109114355Y-52013314D01*
X109114362Y-52013318D01*
X109197147Y-52035500D01*
X109197149Y-52035500D01*
X109282851Y-52035500D01*
X109282853Y-52035500D01*
X109365638Y-52013318D01*
X109428001Y-51977312D01*
X109495900Y-51960840D01*
X109551998Y-51977312D01*
X109614362Y-52013318D01*
X109697147Y-52035500D01*
X109697149Y-52035500D01*
X109782851Y-52035500D01*
X109782853Y-52035500D01*
X109865638Y-52013318D01*
X109939862Y-51970465D01*
X110000465Y-51909862D01*
X110043318Y-51835638D01*
X110065500Y-51752853D01*
X110065500Y-51667147D01*
X110043318Y-51584362D01*
X110024422Y-51551633D01*
X110000469Y-51510144D01*
X110000463Y-51510136D01*
X109939863Y-51449536D01*
X109939855Y-51449530D01*
X109865644Y-51406685D01*
X109865640Y-51406683D01*
X109865638Y-51406682D01*
X109782853Y-51384500D01*
X109697147Y-51384500D01*
X109614362Y-51406682D01*
X109614361Y-51406682D01*
X109551999Y-51442687D01*
X109484099Y-51459159D01*
X109428001Y-51442687D01*
X109365638Y-51406682D01*
X109282853Y-51384500D01*
X109197147Y-51384500D01*
X109114362Y-51406682D01*
X109114355Y-51406685D01*
X109040144Y-51449530D01*
X109040136Y-51449536D01*
X108979536Y-51510136D01*
X108979530Y-51510144D01*
X108936685Y-51584355D01*
X108936682Y-51584362D01*
X108914500Y-51667147D01*
X97952266Y-51667147D01*
X97932620Y-51568385D01*
X97932619Y-51568384D01*
X97932619Y-51568380D01*
X97877929Y-51436347D01*
X97877928Y-51436346D01*
X97877925Y-51436340D01*
X97798532Y-51317521D01*
X97798529Y-51317517D01*
X97697482Y-51216470D01*
X97697478Y-51216467D01*
X97613815Y-51160565D01*
X107364500Y-51160565D01*
X107364500Y-51259435D01*
X107390090Y-51354938D01*
X107439525Y-51440562D01*
X107509438Y-51510475D01*
X107595062Y-51559910D01*
X107690565Y-51585500D01*
X107690567Y-51585500D01*
X107789432Y-51585500D01*
X107789435Y-51585500D01*
X107884938Y-51559910D01*
X107970562Y-51510475D01*
X108040475Y-51440562D01*
X108089910Y-51354938D01*
X108115500Y-51259435D01*
X108115500Y-51160565D01*
X108089910Y-51065062D01*
X108040475Y-50979438D01*
X107970562Y-50909525D01*
X107884938Y-50860090D01*
X107789435Y-50834500D01*
X107690565Y-50834500D01*
X107595062Y-50860090D01*
X107595060Y-50860091D01*
X107595059Y-50860091D01*
X107509436Y-50909526D01*
X107439526Y-50979436D01*
X107390091Y-51065059D01*
X107390091Y-51065060D01*
X107390090Y-51065062D01*
X107364500Y-51160565D01*
X97613815Y-51160565D01*
X97578659Y-51137074D01*
X97578650Y-51137069D01*
X97446620Y-51082381D01*
X97446614Y-51082379D01*
X97306457Y-51054500D01*
X97306455Y-51054500D01*
X97163545Y-51054500D01*
X97163543Y-51054500D01*
X97023385Y-51082379D01*
X97023379Y-51082381D01*
X96891349Y-51137069D01*
X96891340Y-51137074D01*
X96772521Y-51216467D01*
X96772517Y-51216470D01*
X96671470Y-51317517D01*
X96671467Y-51317521D01*
X96592074Y-51436340D01*
X96592069Y-51436349D01*
X96537381Y-51568379D01*
X96537379Y-51568385D01*
X96509500Y-51708542D01*
X96509500Y-51708545D01*
X96509500Y-51851455D01*
X96509500Y-51851457D01*
X96509499Y-51851457D01*
X95966282Y-51851457D01*
X95930475Y-51789438D01*
X95860562Y-51719525D01*
X95774938Y-51670090D01*
X95679435Y-51644500D01*
X95580565Y-51644500D01*
X95485062Y-51670090D01*
X95485060Y-51670091D01*
X95485059Y-51670091D01*
X95399436Y-51719526D01*
X95329526Y-51789436D01*
X95280091Y-51875059D01*
X95280091Y-51875060D01*
X95280090Y-51875062D01*
X95254500Y-51970565D01*
X93974565Y-51970565D01*
X94000252Y-51926073D01*
X94022434Y-51843288D01*
X94022434Y-51757582D01*
X94000252Y-51674797D01*
X93997535Y-51670091D01*
X93957403Y-51600579D01*
X93957397Y-51600571D01*
X93896797Y-51539971D01*
X93896789Y-51539965D01*
X93822578Y-51497120D01*
X93822574Y-51497118D01*
X93822572Y-51497117D01*
X93739787Y-51474935D01*
X93654081Y-51474935D01*
X93571296Y-51497117D01*
X93571289Y-51497120D01*
X93497078Y-51539965D01*
X93497070Y-51539971D01*
X93436470Y-51600571D01*
X93436464Y-51600579D01*
X93393619Y-51674790D01*
X93393616Y-51674797D01*
X93371434Y-51757582D01*
X93371434Y-51843289D01*
X93381080Y-51879289D01*
X93379417Y-51949139D01*
X93340253Y-52007001D01*
X93276025Y-52034504D01*
X93223880Y-52027325D01*
X93223489Y-52028786D01*
X93215639Y-52026682D01*
X93215638Y-52026682D01*
X93132853Y-52004500D01*
X93047147Y-52004500D01*
X92964362Y-52026682D01*
X92964355Y-52026685D01*
X92890144Y-52069530D01*
X92890136Y-52069536D01*
X92829536Y-52130136D01*
X92829530Y-52130144D01*
X92786685Y-52204355D01*
X92786682Y-52204362D01*
X92764500Y-52287147D01*
X91688220Y-52287147D01*
X91729910Y-52214938D01*
X91755500Y-52119435D01*
X91755500Y-52020565D01*
X91729910Y-51925062D01*
X91680475Y-51839438D01*
X91610562Y-51769525D01*
X91524938Y-51720090D01*
X91429435Y-51694500D01*
X91330565Y-51694500D01*
X91235062Y-51720090D01*
X91235060Y-51720091D01*
X91235059Y-51720091D01*
X91149436Y-51769526D01*
X91079526Y-51839436D01*
X91030091Y-51925059D01*
X91030091Y-51925060D01*
X91030090Y-51925062D01*
X91004500Y-52020565D01*
X90560640Y-52020565D01*
X90571281Y-52002135D01*
X90610500Y-51855766D01*
X90610500Y-51704234D01*
X90571281Y-51557865D01*
X90495515Y-51426635D01*
X90388365Y-51319485D01*
X90284351Y-51259432D01*
X90257136Y-51243719D01*
X90155439Y-51216470D01*
X90110766Y-51204500D01*
X89959234Y-51204500D01*
X89812863Y-51243719D01*
X89681635Y-51319485D01*
X89681632Y-51319487D01*
X89574487Y-51426632D01*
X89574485Y-51426635D01*
X89498719Y-51557863D01*
X89462108Y-51694500D01*
X89459500Y-51704234D01*
X89459500Y-51855766D01*
X89498298Y-52000565D01*
X89498720Y-52002137D01*
X89498720Y-52002138D01*
X89508213Y-52018580D01*
X89524686Y-52086480D01*
X89501834Y-52152507D01*
X89446912Y-52195698D01*
X89425017Y-52202197D01*
X89263634Y-52234298D01*
X89263626Y-52234300D01*
X89113035Y-52296677D01*
X89113025Y-52296682D01*
X88977499Y-52387238D01*
X88977495Y-52387241D01*
X88862241Y-52502495D01*
X88862238Y-52502499D01*
X88771682Y-52638025D01*
X88771677Y-52638035D01*
X88709300Y-52788626D01*
X88709298Y-52788634D01*
X88677500Y-52948493D01*
X86990500Y-52948493D01*
X86990500Y-50667147D01*
X109414500Y-50667147D01*
X109414500Y-50752852D01*
X109436682Y-50835637D01*
X109436685Y-50835644D01*
X109479530Y-50909855D01*
X109479534Y-50909860D01*
X109479535Y-50909862D01*
X109540138Y-50970465D01*
X109540140Y-50970466D01*
X109540144Y-50970469D01*
X109614355Y-51013314D01*
X109614362Y-51013318D01*
X109697147Y-51035500D01*
X109697149Y-51035500D01*
X109782851Y-51035500D01*
X109782853Y-51035500D01*
X109865638Y-51013318D01*
X109939862Y-50970465D01*
X110000465Y-50909862D01*
X110043318Y-50835638D01*
X110065500Y-50752853D01*
X110065500Y-50667147D01*
X110043318Y-50584362D01*
X110043314Y-50584355D01*
X110000469Y-50510144D01*
X110000463Y-50510136D01*
X109939863Y-50449536D01*
X109939855Y-50449530D01*
X109865644Y-50406685D01*
X109865640Y-50406683D01*
X109865638Y-50406682D01*
X109782853Y-50384500D01*
X109697147Y-50384500D01*
X109614362Y-50406682D01*
X109614355Y-50406685D01*
X109540144Y-50449530D01*
X109540136Y-50449536D01*
X109479536Y-50510136D01*
X109479530Y-50510144D01*
X109436685Y-50584355D01*
X109436682Y-50584362D01*
X109414500Y-50667147D01*
X86990500Y-50667147D01*
X86990500Y-49850565D01*
X94939500Y-49850565D01*
X94939500Y-49949435D01*
X94965090Y-50044938D01*
X95014525Y-50130562D01*
X95084438Y-50200475D01*
X95170062Y-50249910D01*
X95265565Y-50275500D01*
X95265567Y-50275500D01*
X95364432Y-50275500D01*
X95364435Y-50275500D01*
X95459938Y-50249910D01*
X95545562Y-50200475D01*
X95615475Y-50130562D01*
X95664910Y-50044938D01*
X95666082Y-50040565D01*
X114844500Y-50040565D01*
X114844500Y-50139435D01*
X114870090Y-50234938D01*
X114919525Y-50320562D01*
X114989438Y-50390475D01*
X115075062Y-50439910D01*
X115170565Y-50465500D01*
X115170567Y-50465500D01*
X115269432Y-50465500D01*
X115269435Y-50465500D01*
X115364938Y-50439910D01*
X115450562Y-50390475D01*
X115520475Y-50320562D01*
X115569910Y-50234938D01*
X115595500Y-50139435D01*
X115595500Y-50040565D01*
X115569910Y-49945062D01*
X115520475Y-49859438D01*
X115450562Y-49789525D01*
X115364938Y-49740090D01*
X115269435Y-49714500D01*
X115170565Y-49714500D01*
X115075062Y-49740090D01*
X115075060Y-49740091D01*
X115075059Y-49740091D01*
X114989436Y-49789526D01*
X114919526Y-49859436D01*
X114870091Y-49945059D01*
X114870091Y-49945060D01*
X114870090Y-49945062D01*
X114844500Y-50040565D01*
X95666082Y-50040565D01*
X95690500Y-49949435D01*
X95690500Y-49850565D01*
X95664910Y-49755062D01*
X95615475Y-49669438D01*
X95545562Y-49599525D01*
X95459938Y-49550090D01*
X95364435Y-49524500D01*
X95265565Y-49524500D01*
X95170062Y-49550090D01*
X95170060Y-49550091D01*
X95170059Y-49550091D01*
X95084436Y-49599526D01*
X95014526Y-49669436D01*
X94965091Y-49755059D01*
X94965091Y-49755060D01*
X94965090Y-49755062D01*
X94939500Y-49850565D01*
X86990500Y-49850565D01*
X86990500Y-49030565D01*
X89014500Y-49030565D01*
X89014500Y-49129435D01*
X89040090Y-49224938D01*
X89089525Y-49310562D01*
X89159438Y-49380475D01*
X89245062Y-49429910D01*
X89340565Y-49455500D01*
X89340567Y-49455500D01*
X89439432Y-49455500D01*
X89439435Y-49455500D01*
X89534938Y-49429910D01*
X89620562Y-49380475D01*
X89690475Y-49310562D01*
X89739910Y-49224938D01*
X89765500Y-49129435D01*
X89765500Y-49030565D01*
X89739910Y-48935062D01*
X89690475Y-48849438D01*
X89620562Y-48779525D01*
X89534938Y-48730090D01*
X89439435Y-48704500D01*
X89340565Y-48704500D01*
X89245062Y-48730090D01*
X89245060Y-48730091D01*
X89245059Y-48730091D01*
X89159436Y-48779526D01*
X89089526Y-48849436D01*
X89040091Y-48935059D01*
X89040091Y-48935060D01*
X89040090Y-48935062D01*
X89014500Y-49030565D01*
X86990500Y-49030565D01*
X86990500Y-47560565D01*
X116344500Y-47560565D01*
X116344500Y-47659435D01*
X116370090Y-47754938D01*
X116419525Y-47840562D01*
X116489438Y-47910475D01*
X116575062Y-47959910D01*
X116670565Y-47985500D01*
X116670567Y-47985500D01*
X116769432Y-47985500D01*
X116769435Y-47985500D01*
X116864938Y-47959910D01*
X116950562Y-47910475D01*
X117020475Y-47840562D01*
X117069910Y-47754938D01*
X117095500Y-47659435D01*
X117095500Y-47560565D01*
X117069910Y-47465062D01*
X117020475Y-47379438D01*
X116950562Y-47309525D01*
X116864938Y-47260090D01*
X116769435Y-47234500D01*
X116670565Y-47234500D01*
X116575062Y-47260090D01*
X116575060Y-47260091D01*
X116575059Y-47260091D01*
X116489436Y-47309526D01*
X116419526Y-47379436D01*
X116370091Y-47465059D01*
X116370091Y-47465060D01*
X116370090Y-47465062D01*
X116344500Y-47560565D01*
X86990500Y-47560565D01*
X86990500Y-46828065D01*
X88187000Y-46828065D01*
X88187000Y-46926935D01*
X88212590Y-47022438D01*
X88262025Y-47108062D01*
X88331938Y-47177975D01*
X88417562Y-47227410D01*
X88513065Y-47253000D01*
X88513067Y-47253000D01*
X88611932Y-47253000D01*
X88611935Y-47253000D01*
X88707438Y-47227410D01*
X88793062Y-47177975D01*
X88862975Y-47108062D01*
X88912410Y-47022438D01*
X88938000Y-46926935D01*
X88938000Y-46828065D01*
X88912410Y-46732562D01*
X88862975Y-46646938D01*
X88793062Y-46577025D01*
X88707438Y-46527590D01*
X88611935Y-46502000D01*
X88513065Y-46502000D01*
X88417562Y-46527590D01*
X88417560Y-46527591D01*
X88417559Y-46527591D01*
X88331936Y-46577026D01*
X88262026Y-46646936D01*
X88212591Y-46732559D01*
X88212591Y-46732560D01*
X88212590Y-46732562D01*
X88187000Y-46828065D01*
X86990500Y-46828065D01*
X86990500Y-46443447D01*
X93669500Y-46443447D01*
X93669500Y-46529153D01*
X93691314Y-46610562D01*
X93691682Y-46611937D01*
X93691685Y-46611944D01*
X93734530Y-46686155D01*
X93734534Y-46686160D01*
X93734535Y-46686162D01*
X93795138Y-46746765D01*
X93795140Y-46746766D01*
X93795144Y-46746769D01*
X93834561Y-46769526D01*
X93869362Y-46789618D01*
X93952147Y-46811800D01*
X93952149Y-46811800D01*
X94037851Y-46811800D01*
X94037853Y-46811800D01*
X94120638Y-46789618D01*
X94194862Y-46746765D01*
X94255465Y-46686162D01*
X94298318Y-46611938D01*
X94320500Y-46529153D01*
X94320500Y-46480565D01*
X95974500Y-46480565D01*
X95974500Y-46579435D01*
X96000090Y-46674938D01*
X96049525Y-46760562D01*
X96119438Y-46830475D01*
X96205062Y-46879910D01*
X96300565Y-46905500D01*
X96300567Y-46905500D01*
X96399432Y-46905500D01*
X96399435Y-46905500D01*
X96494938Y-46879910D01*
X96580562Y-46830475D01*
X96650475Y-46760562D01*
X96699910Y-46674938D01*
X96725500Y-46579435D01*
X96725500Y-46520191D01*
X96745185Y-46453152D01*
X96797989Y-46407397D01*
X96867147Y-46397453D01*
X96881582Y-46400413D01*
X96900565Y-46405500D01*
X96900568Y-46405500D01*
X96999432Y-46405500D01*
X96999435Y-46405500D01*
X97094938Y-46379910D01*
X97180406Y-46330565D01*
X97584500Y-46330565D01*
X97584500Y-46429435D01*
X97610090Y-46524938D01*
X97610091Y-46524939D01*
X97610091Y-46524940D01*
X97612790Y-46529615D01*
X97659525Y-46610562D01*
X97729438Y-46680475D01*
X97815062Y-46729910D01*
X97847502Y-46738602D01*
X97907161Y-46774965D01*
X97937691Y-46837811D01*
X97929397Y-46907187D01*
X97922797Y-46920373D01*
X97920091Y-46925059D01*
X97920091Y-46925060D01*
X97920090Y-46925062D01*
X97894500Y-47020565D01*
X97894500Y-47119435D01*
X97920090Y-47214938D01*
X97920091Y-47214939D01*
X97920091Y-47214940D01*
X97927291Y-47227410D01*
X97969525Y-47300562D01*
X98039438Y-47370475D01*
X98125062Y-47419910D01*
X98220565Y-47445500D01*
X98220567Y-47445500D01*
X98319433Y-47445500D01*
X98319435Y-47445500D01*
X98414938Y-47419910D01*
X98500562Y-47370475D01*
X98570475Y-47300562D01*
X98619910Y-47214938D01*
X98645500Y-47119435D01*
X98645500Y-47020565D01*
X98619910Y-46925062D01*
X98570475Y-46839438D01*
X98500562Y-46769525D01*
X98414940Y-46720091D01*
X98414939Y-46720090D01*
X98404390Y-46717263D01*
X98382495Y-46711397D01*
X98322837Y-46675033D01*
X98292308Y-46612186D01*
X98300603Y-46542810D01*
X98307196Y-46529637D01*
X98309910Y-46524938D01*
X98335500Y-46429435D01*
X98335500Y-46360565D01*
X105944500Y-46360565D01*
X105944500Y-46459435D01*
X105970090Y-46554938D01*
X105970091Y-46554939D01*
X105970091Y-46554940D01*
X105983337Y-46577882D01*
X106019525Y-46640562D01*
X106089438Y-46710475D01*
X106175062Y-46759910D01*
X106270565Y-46785500D01*
X106270567Y-46785500D01*
X106369432Y-46785500D01*
X106369435Y-46785500D01*
X106464938Y-46759910D01*
X106550562Y-46710475D01*
X106620475Y-46640562D01*
X106669910Y-46554938D01*
X106695500Y-46459435D01*
X106695500Y-46360565D01*
X106669910Y-46265062D01*
X106620475Y-46179438D01*
X106550562Y-46109525D01*
X106464938Y-46060090D01*
X106369435Y-46034500D01*
X106270565Y-46034500D01*
X106175062Y-46060090D01*
X106175060Y-46060091D01*
X106175059Y-46060091D01*
X106089436Y-46109526D01*
X106019526Y-46179436D01*
X105970091Y-46265059D01*
X105970091Y-46265060D01*
X105970090Y-46265062D01*
X105944500Y-46360565D01*
X98335500Y-46360565D01*
X98335500Y-46330565D01*
X98335153Y-46329269D01*
X98335179Y-46328136D01*
X98334439Y-46322509D01*
X98335316Y-46322393D01*
X98336816Y-46259420D01*
X98375980Y-46201558D01*
X98440208Y-46174055D01*
X98454928Y-46173178D01*
X98481709Y-46173178D01*
X98481712Y-46173178D01*
X98577215Y-46147588D01*
X98662839Y-46098153D01*
X98732752Y-46028240D01*
X98782187Y-45942616D01*
X98807777Y-45847113D01*
X98807777Y-45843856D01*
X101649500Y-45843856D01*
X101649500Y-45936144D01*
X101651234Y-45942617D01*
X101673387Y-46025290D01*
X101673388Y-46025293D01*
X101719526Y-46105205D01*
X101719529Y-46105209D01*
X101719531Y-46105212D01*
X101784788Y-46170469D01*
X101784791Y-46170470D01*
X101784794Y-46170473D01*
X101864706Y-46216611D01*
X101864707Y-46216611D01*
X101864712Y-46216614D01*
X101953856Y-46240500D01*
X101953858Y-46240500D01*
X102046142Y-46240500D01*
X102046144Y-46240500D01*
X102135288Y-46216614D01*
X102135290Y-46216612D01*
X102135292Y-46216612D01*
X102135293Y-46216611D01*
X102198547Y-46180091D01*
X102215212Y-46170469D01*
X102280469Y-46105212D01*
X102326614Y-46025288D01*
X102350500Y-45936144D01*
X102350500Y-45843856D01*
X102326614Y-45754712D01*
X102326611Y-45754706D01*
X102280473Y-45674794D01*
X102280470Y-45674791D01*
X102280469Y-45674788D01*
X102215212Y-45609531D01*
X102215209Y-45609529D01*
X102215205Y-45609526D01*
X102135293Y-45563388D01*
X102135290Y-45563387D01*
X102135289Y-45563386D01*
X102135288Y-45563386D01*
X102046144Y-45539500D01*
X101953856Y-45539500D01*
X101864712Y-45563386D01*
X101864711Y-45563386D01*
X101864709Y-45563387D01*
X101864706Y-45563388D01*
X101784794Y-45609526D01*
X101784785Y-45609533D01*
X101719533Y-45674785D01*
X101719526Y-45674794D01*
X101673388Y-45754706D01*
X101673387Y-45754709D01*
X101673386Y-45754711D01*
X101673386Y-45754712D01*
X101649500Y-45843856D01*
X98807777Y-45843856D01*
X98807777Y-45748243D01*
X98782187Y-45652740D01*
X98732752Y-45567116D01*
X98662839Y-45497203D01*
X98577215Y-45447768D01*
X98481712Y-45422178D01*
X98382842Y-45422178D01*
X98287339Y-45447768D01*
X98287337Y-45447769D01*
X98287336Y-45447769D01*
X98201713Y-45497204D01*
X98131803Y-45567114D01*
X98082368Y-45652737D01*
X98082368Y-45652738D01*
X98082367Y-45652740D01*
X98056777Y-45748243D01*
X98056777Y-45748245D01*
X98056777Y-45847114D01*
X98057124Y-45848408D01*
X98057097Y-45849541D01*
X98057838Y-45855169D01*
X98056960Y-45855284D01*
X98055461Y-45918258D01*
X98016297Y-45976120D01*
X97952069Y-46003623D01*
X97937349Y-46004500D01*
X97910565Y-46004500D01*
X97815062Y-46030090D01*
X97815060Y-46030091D01*
X97815059Y-46030091D01*
X97729436Y-46079526D01*
X97659526Y-46149436D01*
X97610091Y-46235059D01*
X97610091Y-46235060D01*
X97610090Y-46235062D01*
X97584500Y-46330565D01*
X97180406Y-46330565D01*
X97180562Y-46330475D01*
X97250475Y-46260562D01*
X97299910Y-46174938D01*
X97325500Y-46079435D01*
X97325500Y-45980565D01*
X97299910Y-45885062D01*
X97250475Y-45799438D01*
X97180562Y-45729525D01*
X97094938Y-45680090D01*
X96999435Y-45654500D01*
X96900565Y-45654500D01*
X96805062Y-45680090D01*
X96805060Y-45680091D01*
X96805059Y-45680091D01*
X96719436Y-45729526D01*
X96649526Y-45799436D01*
X96600091Y-45885059D01*
X96600091Y-45885060D01*
X96600090Y-45885062D01*
X96574500Y-45980565D01*
X96574500Y-45980567D01*
X96574500Y-46039808D01*
X96554815Y-46106847D01*
X96502011Y-46152602D01*
X96432853Y-46162546D01*
X96418410Y-46159584D01*
X96407722Y-46156720D01*
X96399435Y-46154500D01*
X96300565Y-46154500D01*
X96205062Y-46180090D01*
X96205060Y-46180091D01*
X96205059Y-46180091D01*
X96119436Y-46229526D01*
X96049526Y-46299436D01*
X96000091Y-46385059D01*
X96000091Y-46385060D01*
X96000090Y-46385062D01*
X95974500Y-46480565D01*
X94320500Y-46480565D01*
X94320500Y-46443447D01*
X94298318Y-46360662D01*
X94280942Y-46330565D01*
X94255469Y-46286444D01*
X94255463Y-46286436D01*
X94194863Y-46225836D01*
X94194855Y-46225830D01*
X94120644Y-46182985D01*
X94120640Y-46182983D01*
X94120638Y-46182982D01*
X94037853Y-46160800D01*
X93952147Y-46160800D01*
X93869362Y-46182982D01*
X93869355Y-46182985D01*
X93795144Y-46225830D01*
X93795136Y-46225836D01*
X93734536Y-46286436D01*
X93734530Y-46286444D01*
X93691685Y-46360655D01*
X93691682Y-46360662D01*
X93669500Y-46443447D01*
X86990500Y-46443447D01*
X86990500Y-45020565D01*
X89014500Y-45020565D01*
X89014500Y-45119435D01*
X89040090Y-45214938D01*
X89089525Y-45300562D01*
X89159438Y-45370475D01*
X89245062Y-45419910D01*
X89340565Y-45445500D01*
X89340567Y-45445500D01*
X89439432Y-45445500D01*
X89439435Y-45445500D01*
X89534938Y-45419910D01*
X89620562Y-45370475D01*
X89690475Y-45300562D01*
X89739910Y-45214938D01*
X89765500Y-45119435D01*
X89765500Y-45020565D01*
X89739910Y-44925062D01*
X89690475Y-44839438D01*
X89620562Y-44769525D01*
X89534938Y-44720090D01*
X89439435Y-44694500D01*
X89340565Y-44694500D01*
X89245062Y-44720090D01*
X89245060Y-44720091D01*
X89245059Y-44720091D01*
X89159436Y-44769526D01*
X89089526Y-44839436D01*
X89040091Y-44925059D01*
X89040091Y-44925060D01*
X89040090Y-44925062D01*
X89014500Y-45020565D01*
X86990500Y-45020565D01*
X86990500Y-44613856D01*
X95169500Y-44613856D01*
X95169500Y-44706144D01*
X95186483Y-44769526D01*
X95193387Y-44795290D01*
X95193388Y-44795293D01*
X95239526Y-44875205D01*
X95239529Y-44875209D01*
X95239531Y-44875212D01*
X95304788Y-44940469D01*
X95304791Y-44940470D01*
X95304794Y-44940473D01*
X95384706Y-44986611D01*
X95384707Y-44986611D01*
X95384712Y-44986614D01*
X95473856Y-45010500D01*
X95473858Y-45010500D01*
X95566142Y-45010500D01*
X95566144Y-45010500D01*
X95655288Y-44986614D01*
X95735212Y-44940469D01*
X95800469Y-44875212D01*
X95820473Y-44840565D01*
X112204500Y-44840565D01*
X112204500Y-44939435D01*
X112230090Y-45034938D01*
X112279525Y-45120562D01*
X112349438Y-45190475D01*
X112435062Y-45239910D01*
X112530565Y-45265500D01*
X112530567Y-45265500D01*
X112629432Y-45265500D01*
X112629435Y-45265500D01*
X112724938Y-45239910D01*
X112810562Y-45190475D01*
X112880475Y-45120562D01*
X112929910Y-45034938D01*
X112955500Y-44939435D01*
X112955500Y-44840565D01*
X113304500Y-44840565D01*
X113304500Y-44939435D01*
X113330090Y-45034938D01*
X113379525Y-45120562D01*
X113449438Y-45190475D01*
X113535062Y-45239910D01*
X113630565Y-45265500D01*
X113630567Y-45265500D01*
X113729432Y-45265500D01*
X113729435Y-45265500D01*
X113824938Y-45239910D01*
X113910562Y-45190475D01*
X113980475Y-45120562D01*
X114029910Y-45034938D01*
X114055500Y-44939435D01*
X114055500Y-44840565D01*
X114029910Y-44745062D01*
X113980475Y-44659438D01*
X113910562Y-44589525D01*
X113824938Y-44540090D01*
X113729435Y-44514500D01*
X113630565Y-44514500D01*
X113535062Y-44540090D01*
X113535060Y-44540091D01*
X113535059Y-44540091D01*
X113449436Y-44589526D01*
X113379526Y-44659436D01*
X113330091Y-44745059D01*
X113330091Y-44745060D01*
X113330090Y-44745062D01*
X113304500Y-44840565D01*
X112955500Y-44840565D01*
X112929910Y-44745062D01*
X112880475Y-44659438D01*
X112810562Y-44589525D01*
X112724938Y-44540090D01*
X112629435Y-44514500D01*
X112530565Y-44514500D01*
X112435062Y-44540090D01*
X112435060Y-44540091D01*
X112435059Y-44540091D01*
X112349436Y-44589526D01*
X112279526Y-44659436D01*
X112230091Y-44745059D01*
X112230091Y-44745060D01*
X112230090Y-44745062D01*
X112204500Y-44840565D01*
X95820473Y-44840565D01*
X95846614Y-44795288D01*
X95870500Y-44706144D01*
X95870500Y-44613856D01*
X95846614Y-44524712D01*
X95840718Y-44514500D01*
X95800473Y-44444794D01*
X95800470Y-44444791D01*
X95800469Y-44444788D01*
X95735212Y-44379531D01*
X95667821Y-44340622D01*
X95655289Y-44333386D01*
X95610716Y-44321443D01*
X95566144Y-44309500D01*
X95473856Y-44309500D01*
X95384712Y-44333386D01*
X95384711Y-44333386D01*
X95384709Y-44333387D01*
X95384706Y-44333388D01*
X95304794Y-44379526D01*
X95304785Y-44379533D01*
X95239533Y-44444785D01*
X95239526Y-44444794D01*
X95193388Y-44524706D01*
X95193387Y-44524709D01*
X95193386Y-44524711D01*
X95193386Y-44524712D01*
X95169500Y-44613856D01*
X86990500Y-44613856D01*
X86990500Y-44030565D01*
X91854500Y-44030565D01*
X91854500Y-44129435D01*
X91880090Y-44224938D01*
X91929525Y-44310562D01*
X91999438Y-44380475D01*
X92085062Y-44429910D01*
X92180565Y-44455500D01*
X92180567Y-44455500D01*
X92279432Y-44455500D01*
X92279435Y-44455500D01*
X92374938Y-44429910D01*
X92460562Y-44380475D01*
X92530475Y-44310562D01*
X92570427Y-44241363D01*
X98738860Y-44241363D01*
X98738860Y-44327069D01*
X98753170Y-44380473D01*
X98761042Y-44409853D01*
X98761045Y-44409860D01*
X98803890Y-44484071D01*
X98803894Y-44484076D01*
X98803895Y-44484078D01*
X98864498Y-44544681D01*
X98864500Y-44544682D01*
X98864504Y-44544685D01*
X98938715Y-44587530D01*
X98938722Y-44587534D01*
X99021507Y-44609716D01*
X99021509Y-44609716D01*
X99107211Y-44609716D01*
X99107213Y-44609716D01*
X99189998Y-44587534D01*
X99264222Y-44544681D01*
X99324825Y-44484078D01*
X99367678Y-44409854D01*
X99389860Y-44327069D01*
X99389860Y-44241363D01*
X99367678Y-44158578D01*
X99367674Y-44158571D01*
X99324829Y-44084360D01*
X99324823Y-44084352D01*
X99264223Y-44023752D01*
X99264215Y-44023746D01*
X99190004Y-43980901D01*
X99190000Y-43980899D01*
X99189998Y-43980898D01*
X99107213Y-43958716D01*
X99021507Y-43958716D01*
X98938722Y-43980898D01*
X98938715Y-43980901D01*
X98864504Y-44023746D01*
X98864496Y-44023752D01*
X98803896Y-44084352D01*
X98803890Y-44084360D01*
X98761045Y-44158571D01*
X98761042Y-44158578D01*
X98738860Y-44241363D01*
X92570427Y-44241363D01*
X92579910Y-44224938D01*
X92605500Y-44129435D01*
X92605500Y-44030565D01*
X92579910Y-43935062D01*
X92530475Y-43849438D01*
X92460562Y-43779525D01*
X92374938Y-43730090D01*
X92279435Y-43704500D01*
X92180565Y-43704500D01*
X92085062Y-43730090D01*
X92085060Y-43730091D01*
X92085059Y-43730091D01*
X91999436Y-43779526D01*
X91929526Y-43849436D01*
X91880091Y-43935059D01*
X91880091Y-43935060D01*
X91880090Y-43935062D01*
X91854500Y-44030565D01*
X86990500Y-44030565D01*
X86990500Y-43070565D01*
X92304500Y-43070565D01*
X92304500Y-43169435D01*
X92330090Y-43264938D01*
X92379525Y-43350562D01*
X92449438Y-43420475D01*
X92535062Y-43469910D01*
X92630565Y-43495500D01*
X92630567Y-43495500D01*
X92729432Y-43495500D01*
X92729435Y-43495500D01*
X92824938Y-43469910D01*
X92910562Y-43420475D01*
X92980475Y-43350562D01*
X93029910Y-43264938D01*
X93055500Y-43169435D01*
X93055500Y-43070565D01*
X93029910Y-42975062D01*
X92980475Y-42889438D01*
X92910562Y-42819525D01*
X92824938Y-42770090D01*
X92729435Y-42744500D01*
X92630565Y-42744500D01*
X92535062Y-42770090D01*
X92535060Y-42770091D01*
X92535059Y-42770091D01*
X92449436Y-42819526D01*
X92379526Y-42889436D01*
X92330091Y-42975059D01*
X92330091Y-42975060D01*
X92330090Y-42975062D01*
X92304500Y-43070565D01*
X86990500Y-43070565D01*
X86990500Y-42975032D01*
X87010185Y-42907993D01*
X87062989Y-42862238D01*
X87132147Y-42852294D01*
X87176495Y-42867643D01*
X87215062Y-42889910D01*
X87310565Y-42915500D01*
X87310567Y-42915500D01*
X87409432Y-42915500D01*
X87409435Y-42915500D01*
X87504938Y-42889910D01*
X87590562Y-42840475D01*
X87660475Y-42770562D01*
X87660475Y-42770561D01*
X87666222Y-42764815D01*
X87668395Y-42766988D01*
X87713038Y-42734382D01*
X87782783Y-42730219D01*
X87843708Y-42764424D01*
X87845791Y-42766828D01*
X87849525Y-42770562D01*
X87919438Y-42840475D01*
X88005062Y-42889910D01*
X88100565Y-42915500D01*
X88100567Y-42915500D01*
X88199432Y-42915500D01*
X88199435Y-42915500D01*
X88294938Y-42889910D01*
X88380562Y-42840475D01*
X88450475Y-42770562D01*
X88499910Y-42684938D01*
X88525500Y-42589435D01*
X88525500Y-42490565D01*
X88514782Y-42450565D01*
X95204500Y-42450565D01*
X95204500Y-42549435D01*
X95230090Y-42644938D01*
X95279525Y-42730562D01*
X95349438Y-42800475D01*
X95435062Y-42849910D01*
X95530565Y-42875500D01*
X95530567Y-42875500D01*
X95629432Y-42875500D01*
X95629435Y-42875500D01*
X95722494Y-42850565D01*
X104744500Y-42850565D01*
X104744500Y-42949435D01*
X104770090Y-43044938D01*
X104819525Y-43130562D01*
X104889438Y-43200475D01*
X104975062Y-43249910D01*
X105070565Y-43275500D01*
X105070567Y-43275500D01*
X105169432Y-43275500D01*
X105169435Y-43275500D01*
X105264938Y-43249910D01*
X105350562Y-43200475D01*
X105420475Y-43130562D01*
X105469910Y-43044938D01*
X105476441Y-43020565D01*
X114424500Y-43020565D01*
X114424500Y-43119435D01*
X114450090Y-43214938D01*
X114499525Y-43300562D01*
X114569438Y-43370475D01*
X114655062Y-43419910D01*
X114750565Y-43445500D01*
X114750567Y-43445500D01*
X114849432Y-43445500D01*
X114849435Y-43445500D01*
X114944938Y-43419910D01*
X115030562Y-43370475D01*
X115100475Y-43300562D01*
X115149910Y-43214938D01*
X115175500Y-43119435D01*
X115175500Y-43040565D01*
X115524500Y-43040565D01*
X115524500Y-43139435D01*
X115550090Y-43234938D01*
X115599525Y-43320562D01*
X115669438Y-43390475D01*
X115755062Y-43439910D01*
X115850565Y-43465500D01*
X115850567Y-43465500D01*
X115949432Y-43465500D01*
X115949435Y-43465500D01*
X116044938Y-43439910D01*
X116130562Y-43390475D01*
X116200475Y-43320562D01*
X116249910Y-43234938D01*
X116275500Y-43139435D01*
X116275500Y-43040565D01*
X116249910Y-42945062D01*
X116200475Y-42859438D01*
X116130562Y-42789525D01*
X116044938Y-42740090D01*
X115949435Y-42714500D01*
X115850565Y-42714500D01*
X115755062Y-42740090D01*
X115755060Y-42740091D01*
X115755059Y-42740091D01*
X115669436Y-42789526D01*
X115599526Y-42859436D01*
X115550091Y-42945059D01*
X115550091Y-42945060D01*
X115550090Y-42945062D01*
X115524500Y-43040565D01*
X115175500Y-43040565D01*
X115175500Y-43020565D01*
X115149910Y-42925062D01*
X115100475Y-42839438D01*
X115030562Y-42769525D01*
X114944938Y-42720090D01*
X114849435Y-42694500D01*
X114750565Y-42694500D01*
X114655062Y-42720090D01*
X114655060Y-42720091D01*
X114655059Y-42720091D01*
X114569436Y-42769526D01*
X114499526Y-42839436D01*
X114450091Y-42925059D01*
X114450091Y-42925060D01*
X114450090Y-42925062D01*
X114424500Y-43020565D01*
X105476441Y-43020565D01*
X105495500Y-42949435D01*
X105495500Y-42850565D01*
X105469910Y-42755062D01*
X105420475Y-42669438D01*
X105350562Y-42599525D01*
X105264938Y-42550090D01*
X105169435Y-42524500D01*
X105070565Y-42524500D01*
X104975062Y-42550090D01*
X104975060Y-42550091D01*
X104975059Y-42550091D01*
X104889436Y-42599526D01*
X104819526Y-42669436D01*
X104770091Y-42755059D01*
X104770091Y-42755060D01*
X104770090Y-42755062D01*
X104744500Y-42850565D01*
X95722494Y-42850565D01*
X95724938Y-42849910D01*
X95810562Y-42800475D01*
X95880475Y-42730562D01*
X95929910Y-42644938D01*
X95955500Y-42549435D01*
X95955500Y-42450565D01*
X95929910Y-42355062D01*
X95880475Y-42269438D01*
X95810562Y-42199525D01*
X95724938Y-42150090D01*
X95629435Y-42124500D01*
X95530565Y-42124500D01*
X95435062Y-42150090D01*
X95435060Y-42150091D01*
X95435059Y-42150091D01*
X95349436Y-42199526D01*
X95279526Y-42269436D01*
X95230091Y-42355059D01*
X95230091Y-42355060D01*
X95230090Y-42355062D01*
X95204500Y-42450565D01*
X88514782Y-42450565D01*
X88499910Y-42395062D01*
X88450475Y-42309438D01*
X88380562Y-42239525D01*
X88294938Y-42190090D01*
X88199435Y-42164500D01*
X88100565Y-42164500D01*
X88005062Y-42190090D01*
X88005060Y-42190091D01*
X88005059Y-42190091D01*
X87919436Y-42239526D01*
X87843778Y-42315185D01*
X87841609Y-42313016D01*
X87796923Y-42345631D01*
X87727176Y-42349771D01*
X87666263Y-42315546D01*
X87664185Y-42313148D01*
X87590563Y-42239526D01*
X87590562Y-42239525D01*
X87504938Y-42190090D01*
X87409435Y-42164500D01*
X87310565Y-42164500D01*
X87215062Y-42190090D01*
X87215060Y-42190091D01*
X87215059Y-42190091D01*
X87176500Y-42212354D01*
X87108600Y-42228827D01*
X87042573Y-42205975D01*
X86999383Y-42151054D01*
X86990500Y-42104967D01*
X86990500Y-41960565D01*
X92154500Y-41960565D01*
X92154500Y-42059435D01*
X92180090Y-42154938D01*
X92229525Y-42240562D01*
X92299438Y-42310475D01*
X92385062Y-42359910D01*
X92480565Y-42385500D01*
X92480567Y-42385500D01*
X92579432Y-42385500D01*
X92579435Y-42385500D01*
X92674938Y-42359910D01*
X92760562Y-42310475D01*
X92830475Y-42240562D01*
X92879910Y-42154938D01*
X92905500Y-42059435D01*
X92905500Y-41960565D01*
X92879910Y-41865062D01*
X92830475Y-41779438D01*
X92760562Y-41709525D01*
X92674938Y-41660090D01*
X92579435Y-41634500D01*
X92480565Y-41634500D01*
X92385062Y-41660090D01*
X92385060Y-41660091D01*
X92385059Y-41660091D01*
X92299436Y-41709526D01*
X92229526Y-41779436D01*
X92180091Y-41865059D01*
X92180091Y-41865060D01*
X92180090Y-41865062D01*
X92154500Y-41960565D01*
X86990500Y-41960565D01*
X86990500Y-41360565D01*
X103054500Y-41360565D01*
X103054500Y-41459435D01*
X103080090Y-41554938D01*
X103129525Y-41640562D01*
X103199438Y-41710475D01*
X103285062Y-41759910D01*
X103380565Y-41785500D01*
X103380567Y-41785500D01*
X103479432Y-41785500D01*
X103479435Y-41785500D01*
X103574938Y-41759910D01*
X103660562Y-41710475D01*
X103730475Y-41640562D01*
X103779910Y-41554938D01*
X103805500Y-41459435D01*
X103805500Y-41360565D01*
X103779910Y-41265062D01*
X103730475Y-41179438D01*
X103660562Y-41109525D01*
X103574938Y-41060090D01*
X103479435Y-41034500D01*
X103380565Y-41034500D01*
X103285062Y-41060090D01*
X103285060Y-41060091D01*
X103285059Y-41060091D01*
X103199436Y-41109526D01*
X103129526Y-41179436D01*
X103080091Y-41265059D01*
X103080091Y-41265060D01*
X103080090Y-41265062D01*
X103054500Y-41360565D01*
X86990500Y-41360565D01*
X86990500Y-40870565D01*
X87774500Y-40870565D01*
X87774500Y-40969435D01*
X87800090Y-41064938D01*
X87800091Y-41064939D01*
X87800091Y-41064940D01*
X87809112Y-41080564D01*
X87849525Y-41150562D01*
X87919438Y-41220475D01*
X88005062Y-41269910D01*
X88100565Y-41295500D01*
X88100567Y-41295500D01*
X88199432Y-41295500D01*
X88199435Y-41295500D01*
X88294938Y-41269910D01*
X88380562Y-41220475D01*
X88450475Y-41150562D01*
X88499910Y-41064938D01*
X88525500Y-40969435D01*
X88525500Y-40870565D01*
X88509423Y-40810565D01*
X104924500Y-40810565D01*
X104924500Y-40909435D01*
X104950090Y-41004938D01*
X104950091Y-41004939D01*
X104950091Y-41004940D01*
X104963337Y-41027882D01*
X104999525Y-41090562D01*
X105069438Y-41160475D01*
X105155062Y-41209910D01*
X105250565Y-41235500D01*
X105250567Y-41235500D01*
X105349432Y-41235500D01*
X105349435Y-41235500D01*
X105444938Y-41209910D01*
X105530562Y-41160475D01*
X105600475Y-41090562D01*
X105649910Y-41004938D01*
X105675500Y-40909435D01*
X105675500Y-40810565D01*
X105659423Y-40750565D01*
X112714500Y-40750565D01*
X112714500Y-40849435D01*
X112740090Y-40944938D01*
X112789525Y-41030562D01*
X112859438Y-41100475D01*
X112945062Y-41149910D01*
X113040565Y-41175500D01*
X113040567Y-41175500D01*
X113139432Y-41175500D01*
X113139435Y-41175500D01*
X113234938Y-41149910D01*
X113320562Y-41100475D01*
X113377761Y-41043275D01*
X113439080Y-41009793D01*
X113508772Y-41014777D01*
X113564706Y-41056648D01*
X113572819Y-41068947D01*
X113579525Y-41080562D01*
X113649438Y-41150475D01*
X113735062Y-41199910D01*
X113830565Y-41225500D01*
X113830567Y-41225500D01*
X113929432Y-41225500D01*
X113929435Y-41225500D01*
X114024938Y-41199910D01*
X114110562Y-41150475D01*
X114180475Y-41080562D01*
X114180475Y-41080561D01*
X114186222Y-41074815D01*
X114187793Y-41076386D01*
X114234852Y-41042016D01*
X114304598Y-41037852D01*
X114365522Y-41072057D01*
X114384198Y-41096696D01*
X114409525Y-41140562D01*
X114479438Y-41210475D01*
X114565062Y-41259910D01*
X114660565Y-41285500D01*
X114660567Y-41285500D01*
X114759432Y-41285500D01*
X114759435Y-41285500D01*
X114854938Y-41259910D01*
X114940562Y-41210475D01*
X115010475Y-41140562D01*
X115018953Y-41125876D01*
X115069516Y-41077663D01*
X115138123Y-41064438D01*
X115202988Y-41090404D01*
X115233724Y-41125874D01*
X115259525Y-41170562D01*
X115329438Y-41240475D01*
X115415062Y-41289910D01*
X115510565Y-41315500D01*
X115510567Y-41315500D01*
X115609432Y-41315500D01*
X115609435Y-41315500D01*
X115704938Y-41289910D01*
X115790562Y-41240475D01*
X115860475Y-41170562D01*
X115909910Y-41084938D01*
X115935500Y-40989435D01*
X115935500Y-40890565D01*
X115909910Y-40795062D01*
X115860475Y-40709438D01*
X115790562Y-40639525D01*
X115704938Y-40590090D01*
X115609435Y-40564500D01*
X115510565Y-40564500D01*
X115415062Y-40590090D01*
X115415060Y-40590091D01*
X115415059Y-40590091D01*
X115329436Y-40639526D01*
X115259525Y-40709437D01*
X115251045Y-40724125D01*
X115200477Y-40772339D01*
X115131870Y-40785560D01*
X115067006Y-40759590D01*
X115036273Y-40724122D01*
X115032736Y-40717995D01*
X115010475Y-40679438D01*
X114940562Y-40609525D01*
X114854938Y-40560090D01*
X114759435Y-40534500D01*
X114660565Y-40534500D01*
X114565062Y-40560090D01*
X114565060Y-40560091D01*
X114565059Y-40560091D01*
X114479436Y-40609526D01*
X114403778Y-40685185D01*
X114402210Y-40683617D01*
X114355113Y-40717995D01*
X114285366Y-40722138D01*
X114224451Y-40687916D01*
X114205802Y-40663306D01*
X114180475Y-40619438D01*
X114110562Y-40549525D01*
X114024938Y-40500090D01*
X113929435Y-40474500D01*
X113830565Y-40474500D01*
X113735062Y-40500090D01*
X113735060Y-40500091D01*
X113735059Y-40500091D01*
X113649438Y-40549525D01*
X113592241Y-40606722D01*
X113530917Y-40640206D01*
X113461226Y-40635221D01*
X113405292Y-40593350D01*
X113397180Y-40581053D01*
X113390475Y-40569438D01*
X113320562Y-40499525D01*
X113234938Y-40450090D01*
X113139435Y-40424500D01*
X113040565Y-40424500D01*
X112945062Y-40450090D01*
X112945060Y-40450091D01*
X112945059Y-40450091D01*
X112859436Y-40499526D01*
X112789526Y-40569436D01*
X112740091Y-40655059D01*
X112740091Y-40655060D01*
X112740090Y-40655062D01*
X112714500Y-40750565D01*
X105659423Y-40750565D01*
X105649910Y-40715062D01*
X105600475Y-40629438D01*
X105530562Y-40559525D01*
X105444938Y-40510090D01*
X105349435Y-40484500D01*
X105250565Y-40484500D01*
X105155062Y-40510090D01*
X105155060Y-40510091D01*
X105155059Y-40510091D01*
X105069436Y-40559526D01*
X104999526Y-40629436D01*
X104950091Y-40715059D01*
X104950091Y-40715060D01*
X104950090Y-40715062D01*
X104924500Y-40810565D01*
X88509423Y-40810565D01*
X88499910Y-40775062D01*
X88450475Y-40689438D01*
X88380562Y-40619525D01*
X88294938Y-40570090D01*
X88199435Y-40544500D01*
X88100565Y-40544500D01*
X88005062Y-40570090D01*
X88005060Y-40570091D01*
X88005059Y-40570091D01*
X87919436Y-40619526D01*
X87849526Y-40689436D01*
X87800091Y-40775059D01*
X87800091Y-40775060D01*
X87800090Y-40775062D01*
X87774500Y-40870565D01*
X86990500Y-40870565D01*
X86990500Y-39770565D01*
X92384500Y-39770565D01*
X92384500Y-39869435D01*
X92410090Y-39964938D01*
X92459525Y-40050562D01*
X92529438Y-40120475D01*
X92615062Y-40169910D01*
X92710565Y-40195500D01*
X92710567Y-40195500D01*
X92809432Y-40195500D01*
X92809435Y-40195500D01*
X92904938Y-40169910D01*
X92990562Y-40120475D01*
X93060475Y-40050562D01*
X93109910Y-39964938D01*
X93127159Y-39900565D01*
X98744500Y-39900565D01*
X98744500Y-39999435D01*
X98770090Y-40094938D01*
X98819525Y-40180562D01*
X98889438Y-40250475D01*
X98975062Y-40299910D01*
X99070565Y-40325500D01*
X99070567Y-40325500D01*
X99169432Y-40325500D01*
X99169435Y-40325500D01*
X99264938Y-40299910D01*
X99350562Y-40250475D01*
X99420475Y-40180562D01*
X99469910Y-40094938D01*
X99495500Y-39999435D01*
X99495500Y-39900565D01*
X99469910Y-39805062D01*
X99420475Y-39719438D01*
X99350562Y-39649525D01*
X99264938Y-39600090D01*
X99169435Y-39574500D01*
X99070565Y-39574500D01*
X98975062Y-39600090D01*
X98975060Y-39600091D01*
X98975059Y-39600091D01*
X98889436Y-39649526D01*
X98819526Y-39719436D01*
X98770091Y-39805059D01*
X98770091Y-39805060D01*
X98770090Y-39805062D01*
X98744500Y-39900565D01*
X93127159Y-39900565D01*
X93135500Y-39869435D01*
X93135500Y-39770565D01*
X93109910Y-39675062D01*
X93060475Y-39589438D01*
X92990562Y-39519525D01*
X92904938Y-39470090D01*
X92809435Y-39444500D01*
X92710565Y-39444500D01*
X92615062Y-39470090D01*
X92615060Y-39470091D01*
X92615059Y-39470091D01*
X92529436Y-39519526D01*
X92459526Y-39589436D01*
X92410091Y-39675059D01*
X92410091Y-39675060D01*
X92410090Y-39675062D01*
X92384500Y-39770565D01*
X86990500Y-39770565D01*
X86990500Y-39230565D01*
X87534500Y-39230565D01*
X87534500Y-39329435D01*
X87560090Y-39424938D01*
X87560091Y-39424939D01*
X87560091Y-39424940D01*
X87571384Y-39444500D01*
X87609525Y-39510562D01*
X87679438Y-39580475D01*
X87765062Y-39629910D01*
X87860565Y-39655500D01*
X87860567Y-39655500D01*
X87959433Y-39655500D01*
X87959435Y-39655500D01*
X88054938Y-39629910D01*
X88140562Y-39580475D01*
X88210475Y-39510562D01*
X88259910Y-39424938D01*
X88285500Y-39329435D01*
X88285500Y-39290565D01*
X95454500Y-39290565D01*
X95454500Y-39389435D01*
X95480090Y-39484938D01*
X95529525Y-39570562D01*
X95599438Y-39640475D01*
X95685062Y-39689910D01*
X95780565Y-39715500D01*
X95780567Y-39715500D01*
X95879432Y-39715500D01*
X95879435Y-39715500D01*
X95974938Y-39689910D01*
X96060562Y-39640475D01*
X96130475Y-39570562D01*
X96179910Y-39484938D01*
X96205500Y-39389435D01*
X96205500Y-39290565D01*
X96634500Y-39290565D01*
X96634500Y-39389435D01*
X96660090Y-39484938D01*
X96709525Y-39570562D01*
X96779438Y-39640475D01*
X96865062Y-39689910D01*
X96960565Y-39715500D01*
X96960567Y-39715500D01*
X97059432Y-39715500D01*
X97059435Y-39715500D01*
X97154938Y-39689910D01*
X97240562Y-39640475D01*
X97310475Y-39570562D01*
X97359910Y-39484938D01*
X97385500Y-39389435D01*
X97385500Y-39330565D01*
X100194500Y-39330565D01*
X100194500Y-39429435D01*
X100220090Y-39524938D01*
X100269525Y-39610562D01*
X100339438Y-39680475D01*
X100425062Y-39729910D01*
X100520565Y-39755500D01*
X100520567Y-39755500D01*
X100619432Y-39755500D01*
X100619435Y-39755500D01*
X100714938Y-39729910D01*
X100800562Y-39680475D01*
X100870475Y-39610562D01*
X100919910Y-39524938D01*
X100945500Y-39429435D01*
X100945500Y-39330565D01*
X100919910Y-39235062D01*
X100870475Y-39149438D01*
X100800562Y-39079525D01*
X100714938Y-39030090D01*
X100619435Y-39004500D01*
X100520565Y-39004500D01*
X100425062Y-39030090D01*
X100425060Y-39030091D01*
X100425059Y-39030091D01*
X100339436Y-39079526D01*
X100269526Y-39149436D01*
X100220091Y-39235059D01*
X100220091Y-39235060D01*
X100220090Y-39235062D01*
X100194500Y-39330565D01*
X97385500Y-39330565D01*
X97385500Y-39290565D01*
X97359910Y-39195062D01*
X97310475Y-39109438D01*
X97240562Y-39039525D01*
X97173081Y-39000565D01*
X104984500Y-39000565D01*
X104984500Y-39099435D01*
X105010090Y-39194938D01*
X105010091Y-39194939D01*
X105010091Y-39194940D01*
X105023337Y-39217882D01*
X105059525Y-39280562D01*
X105129438Y-39350475D01*
X105215062Y-39399910D01*
X105310565Y-39425500D01*
X105310567Y-39425500D01*
X105409432Y-39425500D01*
X105409435Y-39425500D01*
X105504938Y-39399910D01*
X105590562Y-39350475D01*
X105660475Y-39280562D01*
X105709910Y-39194938D01*
X105721800Y-39150565D01*
X109284500Y-39150565D01*
X109284500Y-39249435D01*
X109310090Y-39344938D01*
X109359525Y-39430562D01*
X109429438Y-39500475D01*
X109515062Y-39549910D01*
X109610565Y-39575500D01*
X109610567Y-39575500D01*
X109709432Y-39575500D01*
X109709435Y-39575500D01*
X109804938Y-39549910D01*
X109890562Y-39500475D01*
X109960475Y-39430562D01*
X110009910Y-39344938D01*
X110035500Y-39249435D01*
X110035500Y-39150565D01*
X110009910Y-39055062D01*
X109960475Y-38969438D01*
X109890562Y-38899525D01*
X109804938Y-38850090D01*
X109709435Y-38824500D01*
X109610565Y-38824500D01*
X109515062Y-38850090D01*
X109515060Y-38850091D01*
X109515059Y-38850091D01*
X109429436Y-38899526D01*
X109359526Y-38969436D01*
X109310091Y-39055059D01*
X109310091Y-39055060D01*
X109310090Y-39055062D01*
X109284500Y-39150565D01*
X105721800Y-39150565D01*
X105735500Y-39099435D01*
X105735500Y-39000565D01*
X105709910Y-38905062D01*
X105660475Y-38819438D01*
X105590562Y-38749525D01*
X105504938Y-38700090D01*
X105409435Y-38674500D01*
X105310565Y-38674500D01*
X105215062Y-38700090D01*
X105215060Y-38700091D01*
X105215059Y-38700091D01*
X105129436Y-38749526D01*
X105059526Y-38819436D01*
X105010091Y-38905059D01*
X105010091Y-38905060D01*
X105010090Y-38905062D01*
X104984500Y-39000565D01*
X97173081Y-39000565D01*
X97154938Y-38990090D01*
X97059435Y-38964500D01*
X96960565Y-38964500D01*
X96865062Y-38990090D01*
X96865060Y-38990091D01*
X96865059Y-38990091D01*
X96779436Y-39039526D01*
X96709526Y-39109436D01*
X96660091Y-39195059D01*
X96660091Y-39195060D01*
X96660090Y-39195062D01*
X96634500Y-39290565D01*
X96205500Y-39290565D01*
X96179910Y-39195062D01*
X96130475Y-39109438D01*
X96060562Y-39039525D01*
X95974938Y-38990090D01*
X95879435Y-38964500D01*
X95780565Y-38964500D01*
X95685062Y-38990090D01*
X95685060Y-38990091D01*
X95685059Y-38990091D01*
X95599436Y-39039526D01*
X95529526Y-39109436D01*
X95480091Y-39195059D01*
X95480091Y-39195060D01*
X95480090Y-39195062D01*
X95454500Y-39290565D01*
X88285500Y-39290565D01*
X88285500Y-39230565D01*
X88259910Y-39135062D01*
X88210475Y-39049438D01*
X88140562Y-38979525D01*
X88054938Y-38930090D01*
X87959435Y-38904500D01*
X87860565Y-38904500D01*
X87765062Y-38930090D01*
X87765060Y-38930091D01*
X87765059Y-38930091D01*
X87679436Y-38979526D01*
X87609526Y-39049436D01*
X87560091Y-39135059D01*
X87560091Y-39135060D01*
X87560090Y-39135062D01*
X87534500Y-39230565D01*
X86990500Y-39230565D01*
X86990500Y-38182216D01*
X87976151Y-38182216D01*
X87976151Y-38281086D01*
X88001741Y-38376589D01*
X88051176Y-38462213D01*
X88121089Y-38532126D01*
X88206713Y-38581561D01*
X88302216Y-38607151D01*
X88302218Y-38607151D01*
X88401083Y-38607151D01*
X88401086Y-38607151D01*
X88496589Y-38581561D01*
X88582213Y-38532126D01*
X88652126Y-38462213D01*
X88701561Y-38376589D01*
X88727151Y-38281086D01*
X88727151Y-38182216D01*
X88701561Y-38086713D01*
X88652126Y-38001089D01*
X88582213Y-37931176D01*
X88496589Y-37881741D01*
X88401086Y-37856151D01*
X88302216Y-37856151D01*
X88206713Y-37881741D01*
X88206711Y-37881742D01*
X88206710Y-37881742D01*
X88121087Y-37931177D01*
X88051177Y-38001087D01*
X88001742Y-38086710D01*
X88001742Y-38086711D01*
X88001741Y-38086713D01*
X87976151Y-38182216D01*
X86990500Y-38182216D01*
X86990500Y-37420565D01*
X109944500Y-37420565D01*
X109944500Y-37519435D01*
X109970090Y-37614938D01*
X110019525Y-37700562D01*
X110089438Y-37770475D01*
X110175062Y-37819910D01*
X110270565Y-37845500D01*
X110270567Y-37845500D01*
X110369432Y-37845500D01*
X110369435Y-37845500D01*
X110464938Y-37819910D01*
X110550562Y-37770475D01*
X110620475Y-37700562D01*
X110669910Y-37614938D01*
X110695500Y-37519435D01*
X110695500Y-37420565D01*
X110669910Y-37325062D01*
X110620475Y-37239438D01*
X110550562Y-37169525D01*
X110502769Y-37141932D01*
X110470094Y-37123067D01*
X110464938Y-37120090D01*
X110369435Y-37094500D01*
X110270565Y-37094500D01*
X110175062Y-37120090D01*
X110175060Y-37120091D01*
X110175059Y-37120091D01*
X110089436Y-37169526D01*
X110019526Y-37239436D01*
X109970091Y-37325059D01*
X109970091Y-37325060D01*
X109970090Y-37325062D01*
X109944500Y-37420565D01*
X86990500Y-37420565D01*
X86990500Y-37043065D01*
X112454500Y-37043065D01*
X112454500Y-37141935D01*
X112480090Y-37237438D01*
X112480091Y-37237439D01*
X112480091Y-37237440D01*
X112481245Y-37239438D01*
X112529525Y-37323062D01*
X112599438Y-37392975D01*
X112685062Y-37442410D01*
X112780565Y-37468000D01*
X112780567Y-37468000D01*
X112879432Y-37468000D01*
X112879435Y-37468000D01*
X112974938Y-37442410D01*
X113060562Y-37392975D01*
X113130475Y-37323062D01*
X113179910Y-37237438D01*
X113179911Y-37237434D01*
X113183784Y-37230726D01*
X113234350Y-37182511D01*
X113302957Y-37169287D01*
X113367822Y-37195255D01*
X113406808Y-37250002D01*
X113406981Y-37249931D01*
X113407292Y-37250681D01*
X113408351Y-37252169D01*
X113409613Y-37256287D01*
X113410089Y-37257436D01*
X113410090Y-37257438D01*
X113459525Y-37343062D01*
X113529438Y-37412975D01*
X113615062Y-37462410D01*
X113710565Y-37488000D01*
X113710567Y-37488000D01*
X113809432Y-37488000D01*
X113809435Y-37488000D01*
X113904938Y-37462410D01*
X113990562Y-37412975D01*
X114060475Y-37343062D01*
X114109910Y-37257438D01*
X114135500Y-37161935D01*
X114135500Y-37113065D01*
X114384500Y-37113065D01*
X114384500Y-37211935D01*
X114410090Y-37307438D01*
X114410091Y-37307439D01*
X114410091Y-37307440D01*
X114419111Y-37323063D01*
X114459525Y-37393062D01*
X114529438Y-37462975D01*
X114615062Y-37512410D01*
X114710565Y-37538000D01*
X114710567Y-37538000D01*
X114809432Y-37538000D01*
X114809435Y-37538000D01*
X114904938Y-37512410D01*
X114990562Y-37462975D01*
X115060475Y-37393062D01*
X115109910Y-37307438D01*
X115135500Y-37211935D01*
X115135500Y-37123065D01*
X115414500Y-37123065D01*
X115414500Y-37221935D01*
X115440090Y-37317438D01*
X115440091Y-37317439D01*
X115440091Y-37317440D01*
X115444492Y-37325062D01*
X115489525Y-37403062D01*
X115559438Y-37472975D01*
X115645062Y-37522410D01*
X115740565Y-37548000D01*
X115740567Y-37548000D01*
X115839432Y-37548000D01*
X115839435Y-37548000D01*
X115934938Y-37522410D01*
X116020562Y-37472975D01*
X116090475Y-37403062D01*
X116139910Y-37317438D01*
X116165500Y-37221935D01*
X116165500Y-37123065D01*
X116139910Y-37027562D01*
X116090475Y-36941938D01*
X116020562Y-36872025D01*
X115934938Y-36822590D01*
X115839435Y-36797000D01*
X115740565Y-36797000D01*
X115645062Y-36822590D01*
X115645060Y-36822591D01*
X115645059Y-36822591D01*
X115559436Y-36872026D01*
X115489526Y-36941936D01*
X115440091Y-37027559D01*
X115440091Y-37027560D01*
X115440090Y-37027562D01*
X115414500Y-37123065D01*
X115135500Y-37123065D01*
X115135500Y-37113065D01*
X115109910Y-37017562D01*
X115060475Y-36931938D01*
X114990562Y-36862025D01*
X114904938Y-36812590D01*
X114809435Y-36787000D01*
X114710565Y-36787000D01*
X114615062Y-36812590D01*
X114615060Y-36812591D01*
X114615059Y-36812591D01*
X114529436Y-36862026D01*
X114459526Y-36931936D01*
X114410091Y-37017559D01*
X114410091Y-37017560D01*
X114410090Y-37017562D01*
X114384500Y-37113065D01*
X114135500Y-37113065D01*
X114135500Y-37063065D01*
X114109910Y-36967562D01*
X114060475Y-36881938D01*
X113990562Y-36812025D01*
X113904938Y-36762590D01*
X113809435Y-36737000D01*
X113710565Y-36737000D01*
X113615062Y-36762590D01*
X113615060Y-36762591D01*
X113615059Y-36762591D01*
X113529436Y-36812026D01*
X113459527Y-36881935D01*
X113459525Y-36881937D01*
X113459525Y-36881938D01*
X113417303Y-36955069D01*
X113406215Y-36974274D01*
X113355647Y-37022489D01*
X113287040Y-37035711D01*
X113222176Y-37009743D01*
X113183192Y-36954997D01*
X113183019Y-36955069D01*
X113182707Y-36954316D01*
X113181648Y-36952829D01*
X113180384Y-36948709D01*
X113179911Y-36947567D01*
X113179910Y-36947562D01*
X113130475Y-36861938D01*
X113060562Y-36792025D01*
X112974938Y-36742590D01*
X112879435Y-36717000D01*
X112780565Y-36717000D01*
X112685062Y-36742590D01*
X112685060Y-36742591D01*
X112685059Y-36742591D01*
X112599436Y-36792026D01*
X112529526Y-36861936D01*
X112480091Y-36947559D01*
X112480091Y-36947560D01*
X112480090Y-36947562D01*
X112454500Y-37043065D01*
X86990500Y-37043065D01*
X86990500Y-36010565D01*
X88044500Y-36010565D01*
X88044500Y-36109435D01*
X88070090Y-36204938D01*
X88119525Y-36290562D01*
X88189438Y-36360475D01*
X88275062Y-36409910D01*
X88370565Y-36435500D01*
X88370567Y-36435500D01*
X88469432Y-36435500D01*
X88469435Y-36435500D01*
X88564938Y-36409910D01*
X88650562Y-36360475D01*
X88720475Y-36290562D01*
X88769910Y-36204938D01*
X88795500Y-36109435D01*
X88795500Y-36027147D01*
X93249500Y-36027147D01*
X93249500Y-36112853D01*
X93260965Y-36155639D01*
X93271682Y-36195637D01*
X93271685Y-36195644D01*
X93314530Y-36269855D01*
X93314534Y-36269860D01*
X93314535Y-36269862D01*
X93375138Y-36330465D01*
X93375140Y-36330466D01*
X93375144Y-36330469D01*
X93427117Y-36360475D01*
X93449362Y-36373318D01*
X93532147Y-36395500D01*
X93532149Y-36395500D01*
X93617851Y-36395500D01*
X93617853Y-36395500D01*
X93700638Y-36373318D01*
X93774862Y-36330465D01*
X93835465Y-36269862D01*
X93878318Y-36195638D01*
X93900500Y-36112853D01*
X93900500Y-36039500D01*
X93903050Y-36030814D01*
X93901762Y-36021853D01*
X93912740Y-35997812D01*
X93920185Y-35972461D01*
X93927025Y-35966533D01*
X93930787Y-35958297D01*
X93953021Y-35944007D01*
X93972989Y-35926706D01*
X93983503Y-35924418D01*
X93989565Y-35920523D01*
X94024500Y-35915500D01*
X94120500Y-35915500D01*
X94187539Y-35935185D01*
X94233294Y-35987989D01*
X94244500Y-36039500D01*
X94244500Y-36072853D01*
X94265324Y-36150567D01*
X94266682Y-36155637D01*
X94266685Y-36155644D01*
X94309530Y-36229855D01*
X94309534Y-36229860D01*
X94309535Y-36229862D01*
X94370138Y-36290465D01*
X94370140Y-36290466D01*
X94370144Y-36290469D01*
X94439417Y-36330463D01*
X94444362Y-36333318D01*
X94527147Y-36355500D01*
X94527149Y-36355500D01*
X94612851Y-36355500D01*
X94612853Y-36355500D01*
X94695638Y-36333318D01*
X94769862Y-36290465D01*
X94830465Y-36229862D01*
X94873318Y-36155638D01*
X94874677Y-36150565D01*
X107584500Y-36150565D01*
X107584500Y-36249435D01*
X107610090Y-36344938D01*
X107659525Y-36430562D01*
X107729438Y-36500475D01*
X107815062Y-36549910D01*
X107910565Y-36575500D01*
X107910567Y-36575500D01*
X108009432Y-36575500D01*
X108009435Y-36575500D01*
X108104938Y-36549910D01*
X108190562Y-36500475D01*
X108260475Y-36430562D01*
X108309910Y-36344938D01*
X108335500Y-36249435D01*
X108335500Y-36150565D01*
X108309910Y-36055062D01*
X108260475Y-35969438D01*
X108190562Y-35899525D01*
X108104938Y-35850090D01*
X108009435Y-35824500D01*
X107910565Y-35824500D01*
X107815062Y-35850090D01*
X107815060Y-35850091D01*
X107815059Y-35850091D01*
X107729436Y-35899526D01*
X107659526Y-35969436D01*
X107610091Y-36055059D01*
X107610091Y-36055060D01*
X107610090Y-36055062D01*
X107584500Y-36150565D01*
X94874677Y-36150565D01*
X94895500Y-36072853D01*
X94895500Y-36009462D01*
X94896288Y-36002507D01*
X94907236Y-35976496D01*
X94915185Y-35949426D01*
X94920608Y-35944726D01*
X94923394Y-35938109D01*
X94946668Y-35922145D01*
X94967989Y-35903671D01*
X94975092Y-35902649D01*
X94981013Y-35898589D01*
X95009217Y-35897742D01*
X95037147Y-35893727D01*
X95043345Y-35894999D01*
X95047145Y-35895499D01*
X95047147Y-35895500D01*
X95047149Y-35895500D01*
X95132851Y-35895500D01*
X95132853Y-35895500D01*
X95215638Y-35873318D01*
X95289862Y-35830465D01*
X95350465Y-35769862D01*
X95393318Y-35695638D01*
X95415500Y-35612853D01*
X95415500Y-35527147D01*
X95393318Y-35444362D01*
X95393314Y-35444355D01*
X95350469Y-35370144D01*
X95350463Y-35370136D01*
X95289863Y-35309536D01*
X95289855Y-35309530D01*
X95215644Y-35266685D01*
X95215640Y-35266683D01*
X95215638Y-35266682D01*
X95132853Y-35244500D01*
X95047147Y-35244500D01*
X94964362Y-35266682D01*
X94964355Y-35266685D01*
X94890144Y-35309530D01*
X94890136Y-35309536D01*
X94829536Y-35370136D01*
X94829530Y-35370144D01*
X94786685Y-35444355D01*
X94786682Y-35444362D01*
X94764500Y-35527147D01*
X94764500Y-35583534D01*
X94744815Y-35650573D01*
X94692011Y-35696328D01*
X94637392Y-35707495D01*
X94622651Y-35707125D01*
X94612853Y-35704500D01*
X94527147Y-35704500D01*
X94526359Y-35704710D01*
X94516392Y-35704461D01*
X94484545Y-35694236D01*
X94452461Y-35684815D01*
X94451404Y-35683595D01*
X94449867Y-35683102D01*
X94428595Y-35657273D01*
X94406706Y-35632011D01*
X94406316Y-35630220D01*
X94405450Y-35629168D01*
X94404690Y-35622745D01*
X94395500Y-35580500D01*
X94395500Y-35547149D01*
X94395500Y-35547147D01*
X94373318Y-35464362D01*
X94361767Y-35444355D01*
X94330469Y-35390144D01*
X94330463Y-35390136D01*
X94269863Y-35329536D01*
X94269855Y-35329530D01*
X94195644Y-35286685D01*
X94195640Y-35286683D01*
X94195638Y-35286682D01*
X94112853Y-35264500D01*
X94027147Y-35264500D01*
X93944362Y-35286682D01*
X93944355Y-35286685D01*
X93870144Y-35329530D01*
X93870136Y-35329536D01*
X93809536Y-35390136D01*
X93809530Y-35390144D01*
X93766685Y-35464355D01*
X93766682Y-35464362D01*
X93744500Y-35547147D01*
X93744500Y-35620500D01*
X93724815Y-35687539D01*
X93672011Y-35733294D01*
X93620500Y-35744500D01*
X93532147Y-35744500D01*
X93449362Y-35766682D01*
X93449355Y-35766685D01*
X93375144Y-35809530D01*
X93375136Y-35809536D01*
X93314536Y-35870136D01*
X93314530Y-35870144D01*
X93271685Y-35944355D01*
X93271682Y-35944362D01*
X93249500Y-36027147D01*
X88795500Y-36027147D01*
X88795500Y-36010565D01*
X88769910Y-35915062D01*
X88720475Y-35829438D01*
X88650562Y-35759525D01*
X88564938Y-35710090D01*
X88469435Y-35684500D01*
X88370565Y-35684500D01*
X88275062Y-35710090D01*
X88275060Y-35710091D01*
X88275059Y-35710091D01*
X88189436Y-35759526D01*
X88119526Y-35829436D01*
X88070091Y-35915059D01*
X88070091Y-35915060D01*
X88070090Y-35915062D01*
X88044500Y-36010565D01*
X86990500Y-36010565D01*
X86990500Y-35034500D01*
X87010185Y-34967461D01*
X87062989Y-34921706D01*
X87114500Y-34910500D01*
X103029101Y-34910500D01*
X103096140Y-34930185D01*
G37*
%TD.AperFunction*%
%TD*%
M02*
