%TF.GenerationSoftware,KiCad,Pcbnew,10.0.3*%
%TF.CreationDate,2026-07-30T22:23:18-04:00*%
%TF.ProjectId,Pangotag_PCB,50616e67-6f74-4616-975f-5043422e6b69,rev?*%
%TF.SameCoordinates,Original*%
%TF.FileFunction,Copper,L2,Inr*%
%TF.FilePolarity,Positive*%
%FSLAX46Y46*%
G04 Gerber Fmt 4.6, Leading zero omitted, Abs format (unit mm)*
G04 Created by KiCad (PCBNEW 10.0.3) date 2026-07-30 22:23:18*
%MOMM*%
%LPD*%
G01*
G04 APERTURE LIST*
%TA.AperFunction,ComponentPad*%
%ADD10O,3.000000X1.600000*%
%TD*%
%TA.AperFunction,ComponentPad*%
%ADD11C,1.700000*%
%TD*%
%TA.AperFunction,ComponentPad*%
%ADD12R,1.700000X1.700000*%
%TD*%
%TA.AperFunction,ComponentPad*%
%ADD13C,1.400000*%
%TD*%
%TA.AperFunction,ViaPad*%
%ADD14C,0.400000*%
%TD*%
%TA.AperFunction,ViaPad*%
%ADD15C,0.300000*%
%TD*%
%TA.AperFunction,ViaPad*%
%ADD16C,0.250000*%
%TD*%
%TA.AperFunction,ViaPad*%
%ADD17C,0.600000*%
%TD*%
%TA.AperFunction,ViaPad*%
%ADD18C,0.450000*%
%TD*%
%TA.AperFunction,Conductor*%
%ADD19C,0.120000*%
%TD*%
%TA.AperFunction,Conductor*%
%ADD20C,0.100000*%
%TD*%
G04 APERTURE END LIST*
D10*
%TO.N,GND2*%
%TO.C,J4*%
X57635000Y-48000000D03*
X57635000Y-55800000D03*
%TD*%
D11*
%TO.N,NRST_OUT*%
%TO.C,CN2*%
X71730000Y-40260000D03*
%TO.N,SWO_OUT*%
X71730000Y-42800000D03*
%TO.N,SWCLK_OUT*%
X69190000Y-40260000D03*
%TO.N,SWDIO_OUT*%
X69190000Y-42800000D03*
%TO.N,GND2*%
X66650000Y-40260000D03*
D12*
%TO.N,+1V8_2*%
X66650000Y-42800000D03*
%TD*%
D13*
%TO.N,GND*%
%TO.C,J1*%
X98125000Y-58980000D03*
X97765000Y-53030000D03*
X89505000Y-53030000D03*
X89145000Y-58980000D03*
%TD*%
D14*
%TO.N,NRST*%
X96070000Y-57820000D03*
%TO.N,SWO*%
X95830000Y-39340000D03*
D15*
%TO.N,SDMMC1_CMD*%
X95090000Y-35570000D03*
D14*
%TO.N,GND*%
X107960000Y-36200000D03*
%TO.N,VDDA*%
X101550000Y-36980000D03*
D15*
%TO.N,ACC_INT1*%
X102000000Y-45890000D03*
D14*
%TO.N,USB_OTG_FS_D+*%
X93580000Y-54680000D03*
%TO.N,VDDA*%
X109280000Y-47570000D03*
D16*
%TO.N,SDMMC1_D1*%
X108740000Y-57210000D03*
D14*
%TO.N,USB_OTG_FS_D+*%
X87360000Y-42540000D03*
%TO.N,+3V3*%
X116040000Y-57790000D03*
%TO.N,SWDIO*%
X88150000Y-40920000D03*
%TO.N,I2C1_SDA*%
X115220000Y-50090000D03*
%TO.N,Timepulse*%
X113680000Y-44890000D03*
%TO.N,Net-(IC6-COM4)*%
X95630000Y-52020000D03*
%TO.N,NRST*%
X98432277Y-45797678D03*
D15*
%TO.N,Net-(IC6-COM1)*%
X91143477Y-55843485D03*
D14*
%TO.N,SWCLK*%
X92760000Y-39820000D03*
%TO.N,PRS_INT*%
X105360000Y-39050000D03*
%TO.N,LED2*%
X96950000Y-46030000D03*
%TO.N,GND*%
X88562500Y-46877500D03*
X92520000Y-54710000D03*
D16*
%TO.N,SDMMC1_CMD*%
X109240000Y-51710000D03*
D17*
%TO.N,Net-(J3-ID)*%
X77240000Y-52340000D03*
D15*
%TO.N,SDMMC1_CK*%
X94570000Y-36030000D03*
D14*
%TO.N,VDDA*%
X108740000Y-51220000D03*
D16*
%TO.N,GND*%
X109740000Y-50710000D03*
D14*
%TO.N,PRS_INT*%
X105120000Y-42900000D03*
%TO.N,Net-(IC5-COM3)*%
X95315000Y-49900000D03*
D16*
%TO.N,SDMMC1_D0*%
X108240000Y-57210000D03*
D14*
%TO.N,LED1*%
X113090000Y-40800000D03*
%TO.N,GND*%
X89390000Y-49080000D03*
D16*
%TO.N,Net-(IC5-COM2)*%
X96115000Y-55590000D03*
D14*
%TO.N,Net-(D4-K)*%
X115790000Y-37172500D03*
%TO.N,USART1_TX*%
X97010000Y-39340000D03*
%TO.N,VDDA*%
X92710000Y-44880000D03*
%TO.N,SWCLK*%
X94725000Y-59810000D03*
%TO.N,ACC_INT2*%
X106320000Y-46410000D03*
D17*
%TO.N,VBUS_DONGLE*%
X66460000Y-53930000D03*
D16*
%TO.N,Net-(U2-VDDi)*%
X107740000Y-56210000D03*
D17*
%TO.N,SWDIO_OUT*%
X63590000Y-52830000D03*
D16*
%TO.N,VDDA*%
X96770000Y-59560000D03*
X111510000Y-55750000D03*
D14*
X101390000Y-35280000D03*
%TO.N,LED2*%
X113880000Y-40850000D03*
%TO.N,I2C1_SCL*%
X100570000Y-39380000D03*
D17*
%TO.N,NRST_OUT*%
X62370000Y-47420000D03*
D14*
%TO.N,VDDA*%
X107180000Y-57800000D03*
D17*
%TO.N,SWCLK_OUT*%
X60930000Y-54100000D03*
D14*
%TO.N,Net-(IC6-COM3)*%
X88670000Y-54770000D03*
%TO.N,USB_OTG_VBUS*%
X91850000Y-54000000D03*
D15*
%TO.N,SDMMC1_D2*%
X93575000Y-36070000D03*
D14*
%TO.N,LED4*%
X98270000Y-47070000D03*
D17*
%TO.N,NRST_OUT*%
X58570000Y-45340000D03*
D15*
%TO.N,Net-(IC2-OUT)*%
X95520000Y-44660000D03*
D14*
%TO.N,Net-(D1-K)*%
X112830000Y-37092500D03*
D16*
%TO.N,SDMMC1_D3*%
X107740000Y-56710000D03*
D14*
%TO.N,VDDA*%
X95130000Y-55030000D03*
%TO.N,Net-(U2-VDDi)*%
X102910000Y-58940000D03*
%TO.N,SWCLK*%
X96890000Y-61070000D03*
%TO.N,Net-(IC1-IN-)*%
X100360000Y-53150000D03*
%TO.N,USB_OTG_VBUS*%
X89390000Y-45070000D03*
%TO.N,VDD*%
X101870000Y-58060000D03*
%TO.N,LED1*%
X96350000Y-46530000D03*
%TO.N,USART1_TX*%
X114800000Y-43070000D03*
%TO.N,SWO*%
X89440000Y-54560000D03*
%TO.N,Net-(IC5-COM1)*%
X91380000Y-52070000D03*
%TO.N,VDDA*%
X100580000Y-60790000D03*
%TO.N,GND*%
X109660000Y-39200000D03*
%TO.N,VDDA*%
X99880000Y-58060000D03*
X102020000Y-49955000D03*
%TO.N,I2C1_SCL*%
X106340000Y-54170000D03*
D17*
%TO.N,Net-(J3-ID)*%
X69380000Y-57060000D03*
D14*
%TO.N,+3V3*%
X87910000Y-39280000D03*
%TO.N,USB_OTG_FS_D-*%
X88150000Y-42540000D03*
%TO.N,GND2*%
X65880000Y-45780000D03*
%TO.N,LED3*%
X97960000Y-46380000D03*
X114710000Y-40910000D03*
%TO.N,Net-(D3-K)*%
X114760000Y-37162500D03*
%TO.N,USB_OTG_FS_D-*%
X93040000Y-54070000D03*
D17*
%TO.N,VBUS_DONGLE*%
X54970000Y-48870000D03*
D14*
%TO.N,VDDA*%
X88760000Y-45750000D03*
%TO.N,I2C1_SCL*%
X115840000Y-52270000D03*
%TO.N,SWDIO*%
X92440000Y-56890000D03*
%TO.N,VDDA*%
X95790000Y-45390000D03*
%TO.N,Net-(IC2-OUT)*%
X100320000Y-52050000D03*
%TO.N,GND2*%
X75540000Y-42140000D03*
%TO.N,USBC_FUNCTION*%
X99250000Y-60890000D03*
%TO.N,LED4*%
X115560000Y-40940000D03*
%TO.N,+3V3*%
X110320000Y-37470000D03*
D16*
%TO.N,GND*%
X93995000Y-46486300D03*
%TO.N,SDMMC1_CK*%
X109740000Y-51710000D03*
D14*
%TO.N,USB_OTG_VBUS*%
X94650000Y-54270000D03*
%TO.N,USBC_FUNCTION*%
X93550000Y-55860000D03*
%TO.N,Net-(D2-K)*%
X113760000Y-37112500D03*
%TO.N,+3V3*%
X112120000Y-52270000D03*
%TO.N,GND*%
X110380000Y-54390000D03*
D18*
X107740000Y-51210000D03*
D14*
%TO.N,VDDA*%
X108160000Y-41100000D03*
D17*
%TO.N,SWO_OUT*%
X55290000Y-54040000D03*
D14*
%TO.N,GND*%
X95580000Y-42500000D03*
D16*
%TO.N,USBC_FUNCTION*%
X99064360Y-44284216D03*
D14*
%TO.N,USART1_RX*%
X92530000Y-42010000D03*
%TO.N,CC2*%
X98295000Y-56610000D03*
%TO.N,SDMMC1_D0*%
X92230000Y-44080000D03*
%TO.N,GND*%
X88351651Y-38231651D03*
X103370000Y-35400000D03*
%TO.N,GPS_EXTINT*%
X112580000Y-44890000D03*
D16*
%TO.N,GND*%
X105330000Y-56050000D03*
D14*
%TO.N,Net-(IC5-COM4)*%
X94605000Y-58170000D03*
D16*
%TO.N,Net-(IC6-COM2)*%
X94770000Y-55670000D03*
D14*
%TO.N,I2C1_SCL*%
X103430000Y-41410000D03*
%TO.N,VDDA*%
X105100000Y-39800000D03*
%TO.N,+3V3*%
X116720000Y-47610000D03*
%TO.N,I2C1_SCL*%
X105300000Y-40860000D03*
D15*
%TO.N,SDMMC1_D3*%
X94070000Y-35590000D03*
D17*
%TO.N,VBUS_DONGLE*%
X77570000Y-40250000D03*
D16*
%TO.N,USB_OTG_FS_D-*%
X93090000Y-52330000D03*
X93696934Y-51800435D03*
D14*
%TO.N,USART1_RX*%
X115900000Y-43090000D03*
%TO.N,SDMMC1_D1*%
X92680000Y-43120000D03*
%TO.N,I2C1_SDA*%
X99120000Y-39950000D03*
%TO.N,SDMMC1_D2*%
X106038539Y-59061441D03*
%TO.N,GND*%
X88420000Y-36060000D03*
%TD*%
%TO.N,USB_OTG_FS_D-*%
D19*
X93537369Y-51960000D02*
X93394934Y-51960000D01*
X93696934Y-51800435D02*
X93537369Y-51960000D01*
X93394934Y-51960000D02*
X93090000Y-52264934D01*
X93090000Y-52264934D02*
X93090000Y-52330000D01*
%TO.N,VDDA*%
D20*
X106860000Y-49990000D02*
X108740000Y-48110000D01*
X102055000Y-49990000D02*
X106860000Y-49990000D01*
X102020000Y-49955000D02*
X102055000Y-49990000D01*
%TO.N,SWO*%
X94921000Y-40249000D02*
X92284302Y-40249000D01*
%TO.N,SWDIO*%
X87130000Y-44166698D02*
X87130000Y-56050000D01*
%TO.N,+3V3*%
X87600000Y-37470000D02*
X87140000Y-37930000D01*
X87140000Y-38790000D02*
X87630000Y-39280000D01*
%TO.N,GND*%
X92280000Y-41050000D02*
X95660000Y-41050000D01*
%TO.N,VDDA*%
X89212302Y-44641000D02*
X90011000Y-44641000D01*
%TO.N,USART1_TX*%
X113009000Y-45067698D02*
X112757698Y-45319000D01*
%TO.N,Net-(IC2-OUT)*%
X100320000Y-52050000D02*
X100320000Y-46210000D01*
%TO.N,USART1_RX*%
X113857698Y-45319000D02*
X113671000Y-45319000D01*
%TO.N,I2C1_SCL*%
X103930000Y-40910000D02*
X103430000Y-41410000D01*
%TO.N,NRST*%
X93560000Y-56950000D02*
X95180000Y-56950000D01*
%TO.N,USART1_RX*%
X114109000Y-44881000D02*
X114109000Y-45067698D01*
X102380000Y-46950000D02*
X97440000Y-42010000D01*
%TO.N,I2C1_SDA*%
X115220000Y-50090000D02*
X117290000Y-48020000D01*
%TO.N,VDDA*%
X107910000Y-59620000D02*
X110260000Y-59620000D01*
%TO.N,PRS_INT*%
X106050000Y-41970000D02*
X106050000Y-39740000D01*
%TO.N,NRST*%
X98432277Y-45797678D02*
X97922322Y-45797678D01*
%TO.N,I2C1_SCL*%
X102400000Y-39380000D02*
X103930000Y-40910000D01*
X106340000Y-54170000D02*
X107811000Y-52699000D01*
X106710000Y-44610000D02*
X104170000Y-44610000D01*
%TO.N,USB_OTG_VBUS*%
X91850000Y-54000000D02*
X92209000Y-53641000D01*
%TO.N,I2C1_SDA*%
X110140000Y-41810000D02*
X106570000Y-38240000D01*
%TO.N,Net-(IC2-OUT)*%
X100320000Y-46210000D02*
X99060000Y-44950000D01*
%TO.N,USB_OTG_VBUS*%
X94650000Y-50330000D02*
X94650000Y-54270000D01*
%TO.N,USBC_FUNCTION*%
X100789000Y-46008856D02*
X99064360Y-44284216D01*
%TO.N,PRS_INT*%
X105120000Y-42900000D02*
X106050000Y-41970000D01*
%TO.N,USBC_FUNCTION*%
X99250000Y-60890000D02*
X99890000Y-60890000D01*
%TO.N,USART1_TX*%
X112551000Y-45319000D02*
X111948000Y-45922000D01*
%TO.N,I2C1_SCL*%
X116329000Y-42912302D02*
X116057698Y-42641000D01*
%TO.N,SWDIO*%
X88579000Y-42717698D02*
X87130000Y-44166698D01*
%TO.N,USB_OTG_VBUS*%
X89390000Y-45070000D02*
X94650000Y-50330000D01*
%TO.N,I2C1_SDA*%
X117290000Y-48020000D02*
X117290000Y-42560000D01*
%TO.N,I2C1_SCL*%
X107811000Y-52699000D02*
X115411000Y-52699000D01*
%TO.N,VDDA*%
X107180000Y-58890000D02*
X107910000Y-59620000D01*
%TO.N,I2C1_SCL*%
X107811000Y-52699000D02*
X109471000Y-52699000D01*
%TO.N,NRST*%
X97922322Y-45797678D02*
X96456000Y-47264000D01*
%TO.N,Net-(IC2-OUT)*%
X99060000Y-44950000D02*
X95810000Y-44950000D01*
%TO.N,NRST*%
X95180000Y-56950000D02*
X96050000Y-57820000D01*
%TO.N,I2C1_SDA*%
X117290000Y-42560000D02*
X116540000Y-41810000D01*
%TO.N,NRST*%
X94246698Y-55280000D02*
X93220000Y-55280000D01*
%TO.N,I2C1_SCL*%
X108679000Y-42641000D02*
X106710000Y-44610000D01*
%TO.N,SWO*%
X87916000Y-44617302D02*
X87916000Y-53036000D01*
%TO.N,VDDA*%
X107180000Y-57800000D02*
X107180000Y-58890000D01*
%TO.N,GND*%
X90480000Y-42850000D02*
X92280000Y-41050000D01*
%TO.N,NRST*%
X96050000Y-57820000D02*
X96070000Y-57820000D01*
%TO.N,VDDA*%
X108740000Y-48110000D02*
X109280000Y-47570000D01*
%TO.N,GND*%
X90480000Y-43950000D02*
X90480000Y-42850000D01*
%TO.N,USBC_FUNCTION*%
X93550000Y-55860000D02*
X93750000Y-56060000D01*
X100789000Y-59991000D02*
X100789000Y-46008856D01*
%TO.N,GND*%
X95660000Y-41050000D02*
X96390000Y-40320000D01*
X97765000Y-53030000D02*
X98275000Y-52520000D01*
%TO.N,I2C1_SDA*%
X116540000Y-41810000D02*
X110140000Y-41810000D01*
%TO.N,PRS_INT*%
X106050000Y-39740000D02*
X105360000Y-39050000D01*
%TO.N,NRST*%
X96456000Y-47264000D02*
X96456000Y-53070698D01*
%TO.N,+3V3*%
X116720000Y-47610000D02*
X112120000Y-52210000D01*
%TO.N,USART1_RX*%
X112040000Y-46950000D02*
X102380000Y-46950000D01*
%TO.N,NRST*%
X92780000Y-56170000D02*
X93560000Y-56950000D01*
%TO.N,Net-(IC2-OUT)*%
X95810000Y-44950000D02*
X95520000Y-44660000D01*
%TO.N,USBC_FUNCTION*%
X99890000Y-60890000D02*
X100789000Y-59991000D01*
%TO.N,VDDA*%
X94940000Y-45450000D02*
X95730000Y-45450000D01*
%TO.N,USART1_TX*%
X103592000Y-45922000D02*
X97010000Y-39340000D01*
%TO.N,NRST*%
X93220000Y-55280000D02*
X92780000Y-55720000D01*
%TO.N,I2C1_SCL*%
X104170000Y-44610000D02*
X103430000Y-43870000D01*
%TO.N,VDDA*%
X108740000Y-51220000D02*
X108740000Y-48110000D01*
%TO.N,USART1_TX*%
X112757698Y-45319000D02*
X112551000Y-45319000D01*
%TO.N,I2C1_SCL*%
X100570000Y-39380000D02*
X102400000Y-39380000D01*
%TO.N,Net-(U2-VDDi)*%
X105010000Y-58940000D02*
X107740000Y-56210000D01*
%TO.N,SWDIO*%
X87130000Y-56050000D02*
X87970000Y-56890000D01*
%TO.N,VDDA*%
X92560000Y-47190000D02*
X94470000Y-47190000D01*
%TO.N,SWO*%
X87916000Y-53036000D02*
X89440000Y-54560000D01*
%TO.N,GND*%
X88370000Y-38250000D02*
X88351651Y-38231651D01*
%TO.N,USBC_FUNCTION*%
X99272500Y-60867500D02*
X99250000Y-60890000D01*
%TO.N,USB_OTG_VBUS*%
X94021000Y-53641000D02*
X94650000Y-54270000D01*
%TO.N,GND*%
X93016300Y-46486300D02*
X90480000Y-43950000D01*
%TO.N,VDDA*%
X110790000Y-59090000D02*
X110790000Y-57250000D01*
%TO.N,SWO*%
X95830000Y-39340000D02*
X94921000Y-40249000D01*
%TO.N,USART1_RX*%
X97440000Y-42010000D02*
X92530000Y-42010000D01*
%TO.N,USBC_FUNCTION*%
X93750000Y-56060000D02*
X98380000Y-56060000D01*
%TO.N,I2C1_SDA*%
X106570000Y-38240000D02*
X100830000Y-38240000D01*
%TO.N,+3V3*%
X110320000Y-37470000D02*
X87600000Y-37470000D01*
%TO.N,VDDA*%
X94720000Y-45670000D02*
X94940000Y-45450000D01*
X88760000Y-45750000D02*
X88760000Y-45093302D01*
%TO.N,GND*%
X96380000Y-38800000D02*
X95830000Y-38250000D01*
X96390000Y-40320000D02*
X96390000Y-38800000D01*
%TO.N,Net-(U2-VDDi)*%
X102910000Y-58940000D02*
X105010000Y-58940000D01*
%TO.N,NRST*%
X92780000Y-55720000D02*
X92780000Y-56170000D01*
%TO.N,VDDA*%
X110790000Y-57250000D02*
X111510000Y-56530000D01*
%TO.N,USB_OTG_VBUS*%
X92209000Y-53641000D02*
X94021000Y-53641000D01*
%TO.N,USBC_FUNCTION*%
X99272500Y-57337500D02*
X99272500Y-60867500D01*
%TO.N,USART1_RX*%
X113671000Y-45319000D02*
X112040000Y-46950000D01*
%TO.N,I2C1_SCL*%
X116329000Y-45841000D02*
X116329000Y-42912302D01*
X115411000Y-52699000D02*
X115840000Y-52270000D01*
%TO.N,I2C1_SDA*%
X100830000Y-38240000D02*
X99120000Y-39950000D01*
%TO.N,VDDA*%
X94470000Y-47190000D02*
X94720000Y-46940000D01*
%TO.N,USART1_RX*%
X115900000Y-43090000D02*
X114109000Y-44881000D01*
%TO.N,GND*%
X95830000Y-38250000D02*
X88370000Y-38250000D01*
%TO.N,+3V3*%
X112120000Y-52210000D02*
X112120000Y-52270000D01*
%TO.N,GND*%
X96390000Y-38800000D02*
X96380000Y-38800000D01*
%TO.N,VDDA*%
X111510000Y-56530000D02*
X111510000Y-55750000D01*
%TO.N,USART1_TX*%
X114800000Y-43070000D02*
X113009000Y-44861000D01*
%TO.N,+3V3*%
X87630000Y-39280000D02*
X87910000Y-39280000D01*
%TO.N,USART1_TX*%
X113009000Y-44861000D02*
X113009000Y-45067698D01*
%TO.N,VDDA*%
X94720000Y-46940000D02*
X94720000Y-45670000D01*
X95730000Y-45450000D02*
X95790000Y-45390000D01*
%TO.N,SWDIO*%
X87970000Y-56890000D02*
X92440000Y-56890000D01*
X88579000Y-41349000D02*
X88579000Y-42717698D01*
%TO.N,USART1_TX*%
X111948000Y-45922000D02*
X103592000Y-45922000D01*
%TO.N,VDDA*%
X88760000Y-45093302D02*
X89212302Y-44641000D01*
%TO.N,NRST*%
X96456000Y-53070698D02*
X94246698Y-55280000D01*
%TO.N,SWDIO*%
X88150000Y-40920000D02*
X88579000Y-41349000D01*
%TO.N,I2C1_SCL*%
X103430000Y-43870000D02*
X103430000Y-41410000D01*
%TO.N,USART1_RX*%
X114109000Y-45067698D02*
X113857698Y-45319000D01*
%TO.N,+3V3*%
X87140000Y-37930000D02*
X87140000Y-38790000D01*
%TO.N,USBC_FUNCTION*%
X98380000Y-56060000D02*
X99330000Y-57010000D01*
%TO.N,I2C1_SCL*%
X105286100Y-40873900D02*
X103966100Y-40873900D01*
%TO.N,SWO*%
X92284302Y-40249000D02*
X87916000Y-44617302D01*
%TO.N,VDDA*%
X90011000Y-44641000D02*
X92560000Y-47190000D01*
%TO.N,GND*%
X93995000Y-46486300D02*
X93016300Y-46486300D01*
%TO.N,USBC_FUNCTION*%
X99330000Y-57010000D02*
X99330000Y-57280000D01*
%TO.N,I2C1_SCL*%
X116057698Y-42641000D02*
X108679000Y-42641000D01*
%TO.N,VDDA*%
X110260000Y-59620000D02*
X110790000Y-59090000D01*
%TO.N,I2C1_SCL*%
X109471000Y-52699000D02*
X116329000Y-45841000D01*
%TD*%
%TA.AperFunction,Conductor*%
%TO.N,GND2*%
G36*
X67765270Y-41021717D02*
G01*
X67765270Y-41021716D01*
X67804622Y-40967555D01*
X67809232Y-40958507D01*
X67857205Y-40907709D01*
X67925025Y-40890912D01*
X67991161Y-40913447D01*
X68030204Y-40958504D01*
X68034949Y-40967817D01*
X68159890Y-41139786D01*
X68310213Y-41290109D01*
X68482182Y-41415050D01*
X68490946Y-41419516D01*
X68541742Y-41467491D01*
X68558536Y-41535312D01*
X68535998Y-41601447D01*
X68490946Y-41640484D01*
X68482182Y-41644949D01*
X68310215Y-41769889D01*
X68196673Y-41883431D01*
X68135350Y-41916915D01*
X68065658Y-41911931D01*
X68009725Y-41870059D01*
X67992810Y-41839082D01*
X67943797Y-41707671D01*
X67943793Y-41707664D01*
X67857547Y-41592455D01*
X67857544Y-41592452D01*
X67742335Y-41506206D01*
X67742328Y-41506202D01*
X67607482Y-41455908D01*
X67607483Y-41455908D01*
X67547883Y-41449501D01*
X67547881Y-41449500D01*
X67547873Y-41449500D01*
X67547865Y-41449500D01*
X67537309Y-41449500D01*
X67470270Y-41429815D01*
X67449628Y-41413181D01*
X66779408Y-40742962D01*
X66842993Y-40725925D01*
X66957007Y-40660099D01*
X67050099Y-40567007D01*
X67115925Y-40452993D01*
X67132962Y-40389408D01*
X67765270Y-41021717D01*
G37*
%TD.AperFunction*%
%TA.AperFunction,Conductor*%
G36*
X81390039Y-38100881D02*
G01*
X81435794Y-38153685D01*
X81447000Y-38205196D01*
X81447000Y-58108000D01*
X81427315Y-58175039D01*
X81374511Y-58220794D01*
X81323000Y-58232000D01*
X52892041Y-58232000D01*
X52825002Y-58212315D01*
X52779247Y-58159511D01*
X52768041Y-58108000D01*
X52768041Y-55550000D01*
X55658391Y-55550000D01*
X56436520Y-55550000D01*
X56425891Y-55568409D01*
X56385002Y-55721009D01*
X56385002Y-55878991D01*
X56425891Y-56031591D01*
X56436520Y-56050000D01*
X55658391Y-56050000D01*
X55667009Y-56104413D01*
X55730244Y-56299029D01*
X55823140Y-56481349D01*
X55943417Y-56646894D01*
X55943417Y-56646895D01*
X56088104Y-56791582D01*
X56253650Y-56911859D01*
X56435968Y-57004755D01*
X56630582Y-57067990D01*
X56832683Y-57100000D01*
X57385000Y-57100000D01*
X57385000Y-56399999D01*
X57885000Y-56399999D01*
X57885000Y-57100000D01*
X58437317Y-57100000D01*
X58639417Y-57067990D01*
X58834031Y-57004755D01*
X58880352Y-56981153D01*
X68579500Y-56981153D01*
X68579500Y-57138846D01*
X68610261Y-57293489D01*
X68610264Y-57293501D01*
X68670602Y-57439172D01*
X68670609Y-57439185D01*
X68758210Y-57570288D01*
X68758213Y-57570292D01*
X68869707Y-57681786D01*
X68869711Y-57681789D01*
X69000814Y-57769390D01*
X69000827Y-57769397D01*
X69146498Y-57829735D01*
X69146503Y-57829737D01*
X69301153Y-57860499D01*
X69301156Y-57860500D01*
X69301158Y-57860500D01*
X69458844Y-57860500D01*
X69458845Y-57860499D01*
X69613497Y-57829737D01*
X69759179Y-57769394D01*
X69890289Y-57681789D01*
X70001789Y-57570289D01*
X70089394Y-57439179D01*
X70149737Y-57293497D01*
X70180500Y-57138842D01*
X70180500Y-56981158D01*
X70180500Y-56981155D01*
X70180499Y-56981153D01*
X70166715Y-56911859D01*
X70149737Y-56826503D01*
X70149735Y-56826498D01*
X70089397Y-56680827D01*
X70089390Y-56680814D01*
X70001789Y-56549711D01*
X70001786Y-56549707D01*
X69890292Y-56438213D01*
X69890288Y-56438210D01*
X69759185Y-56350609D01*
X69759172Y-56350602D01*
X69613501Y-56290264D01*
X69613489Y-56290261D01*
X69458845Y-56259500D01*
X69458842Y-56259500D01*
X69301158Y-56259500D01*
X69301155Y-56259500D01*
X69146510Y-56290261D01*
X69146498Y-56290264D01*
X69000827Y-56350602D01*
X69000814Y-56350609D01*
X68869711Y-56438210D01*
X68869707Y-56438213D01*
X68758213Y-56549707D01*
X68758210Y-56549711D01*
X68670609Y-56680814D01*
X68670602Y-56680827D01*
X68610264Y-56826498D01*
X68610261Y-56826510D01*
X68579500Y-56981153D01*
X58880352Y-56981153D01*
X59016349Y-56911859D01*
X59067429Y-56874748D01*
X59181894Y-56791582D01*
X59181895Y-56791582D01*
X59326582Y-56646895D01*
X59326582Y-56646894D01*
X59446859Y-56481349D01*
X59539755Y-56299029D01*
X59602990Y-56104413D01*
X59611609Y-56050000D01*
X58833480Y-56050000D01*
X58844109Y-56031591D01*
X58884998Y-55878991D01*
X58884998Y-55721009D01*
X58844109Y-55568409D01*
X58833480Y-55550000D01*
X59611609Y-55550000D01*
X59602990Y-55495586D01*
X59539755Y-55300970D01*
X59446859Y-55118650D01*
X59326582Y-54953105D01*
X59326582Y-54953104D01*
X59181895Y-54808417D01*
X59016349Y-54688140D01*
X58834031Y-54595244D01*
X58639417Y-54532009D01*
X58437317Y-54500000D01*
X57885000Y-54500000D01*
X57885000Y-55200001D01*
X57385000Y-55200001D01*
X57385000Y-54500000D01*
X56832683Y-54500000D01*
X56630582Y-54532009D01*
X56435968Y-54595244D01*
X56253650Y-54688140D01*
X56088105Y-54808417D01*
X56088104Y-54808417D01*
X55943417Y-54953104D01*
X55943417Y-54953105D01*
X55823140Y-55118650D01*
X55730244Y-55300970D01*
X55667009Y-55495586D01*
X55658391Y-55550000D01*
X52768041Y-55550000D01*
X52768041Y-53961153D01*
X54489500Y-53961153D01*
X54489500Y-54118846D01*
X54520261Y-54273489D01*
X54520264Y-54273501D01*
X54580602Y-54419172D01*
X54580609Y-54419185D01*
X54668210Y-54550288D01*
X54668213Y-54550292D01*
X54779707Y-54661786D01*
X54779711Y-54661789D01*
X54910814Y-54749390D01*
X54910827Y-54749397D01*
X55053316Y-54808417D01*
X55056503Y-54809737D01*
X55211153Y-54840499D01*
X55211156Y-54840500D01*
X55211158Y-54840500D01*
X55368844Y-54840500D01*
X55368845Y-54840499D01*
X55523497Y-54809737D01*
X55669179Y-54749394D01*
X55800289Y-54661789D01*
X55911789Y-54550289D01*
X55999394Y-54419179D01*
X56059737Y-54273497D01*
X56090500Y-54118842D01*
X56090500Y-54021153D01*
X60129500Y-54021153D01*
X60129500Y-54178846D01*
X60160261Y-54333489D01*
X60160264Y-54333501D01*
X60220602Y-54479172D01*
X60220609Y-54479185D01*
X60308210Y-54610288D01*
X60308213Y-54610292D01*
X60419707Y-54721786D01*
X60419711Y-54721789D01*
X60550814Y-54809390D01*
X60550827Y-54809397D01*
X60696498Y-54869735D01*
X60696503Y-54869737D01*
X60851153Y-54900499D01*
X60851156Y-54900500D01*
X60851158Y-54900500D01*
X61008844Y-54900500D01*
X61008845Y-54900499D01*
X61163497Y-54869737D01*
X61309179Y-54809394D01*
X61440289Y-54721789D01*
X61551789Y-54610289D01*
X61639394Y-54479179D01*
X61699737Y-54333497D01*
X61730500Y-54178842D01*
X61730500Y-54021158D01*
X61730500Y-54021155D01*
X61700285Y-53869258D01*
X61700285Y-53869256D01*
X61700284Y-53869253D01*
X61699738Y-53866510D01*
X61699737Y-53866503D01*
X61693379Y-53851153D01*
X65659500Y-53851153D01*
X65659500Y-54008846D01*
X65690261Y-54163489D01*
X65690264Y-54163501D01*
X65750602Y-54309172D01*
X65750609Y-54309185D01*
X65838210Y-54440288D01*
X65838213Y-54440292D01*
X65949707Y-54551786D01*
X65949711Y-54551789D01*
X66080814Y-54639390D01*
X66080827Y-54639397D01*
X66198505Y-54688140D01*
X66226503Y-54699737D01*
X66381153Y-54730499D01*
X66381156Y-54730500D01*
X66381158Y-54730500D01*
X66538844Y-54730500D01*
X66538845Y-54730499D01*
X66693497Y-54699737D01*
X66839179Y-54639394D01*
X66970289Y-54551789D01*
X67081789Y-54440289D01*
X67169394Y-54309179D01*
X67229737Y-54163497D01*
X67260500Y-54008842D01*
X67260500Y-53851158D01*
X67260500Y-53851155D01*
X67260499Y-53851153D01*
X67251619Y-53806510D01*
X67229737Y-53696503D01*
X67202398Y-53630500D01*
X67169397Y-53550827D01*
X67169390Y-53550814D01*
X67081789Y-53419711D01*
X67081786Y-53419707D01*
X66970292Y-53308213D01*
X66965581Y-53304347D01*
X66966836Y-53302816D01*
X66927874Y-53256196D01*
X66919165Y-53186871D01*
X66949319Y-53123844D01*
X66972678Y-53103603D01*
X67078416Y-53032951D01*
X67182948Y-52928419D01*
X67182951Y-52928416D01*
X67265084Y-52805495D01*
X67321658Y-52668913D01*
X67340638Y-52573497D01*
X67350500Y-52523920D01*
X70249499Y-52523920D01*
X70278340Y-52668907D01*
X70278343Y-52668917D01*
X70334912Y-52805488D01*
X70334919Y-52805501D01*
X70417048Y-52928415D01*
X70417051Y-52928419D01*
X70521580Y-53032948D01*
X70521584Y-53032951D01*
X70644498Y-53115080D01*
X70644511Y-53115087D01*
X70712349Y-53143186D01*
X70781087Y-53171658D01*
X70781091Y-53171658D01*
X70781092Y-53171659D01*
X70926079Y-53200500D01*
X70926082Y-53200500D01*
X71073920Y-53200500D01*
X71171462Y-53181096D01*
X71218913Y-53171658D01*
X71324547Y-53127902D01*
X71355488Y-53115087D01*
X71355488Y-53115086D01*
X71355495Y-53115084D01*
X71478416Y-53032951D01*
X71582951Y-52928416D01*
X71665084Y-52805495D01*
X71721658Y-52668913D01*
X71740638Y-52573497D01*
X71750500Y-52523920D01*
X71750500Y-52376079D01*
X71731240Y-52279258D01*
X71731240Y-52279257D01*
X71727639Y-52261153D01*
X76439500Y-52261153D01*
X76439500Y-52418846D01*
X76470261Y-52573489D01*
X76470264Y-52573501D01*
X76530602Y-52719172D01*
X76530609Y-52719185D01*
X76618210Y-52850288D01*
X76618213Y-52850292D01*
X76729707Y-52961786D01*
X76729711Y-52961789D01*
X76860814Y-53049390D01*
X76860827Y-53049397D01*
X76991694Y-53103603D01*
X77006503Y-53109737D01*
X77161153Y-53140499D01*
X77161156Y-53140500D01*
X77161158Y-53140500D01*
X77318844Y-53140500D01*
X77318845Y-53140499D01*
X77473497Y-53109737D01*
X77619179Y-53049394D01*
X77750289Y-52961789D01*
X77861789Y-52850289D01*
X77949394Y-52719179D01*
X78009737Y-52573497D01*
X78040500Y-52418842D01*
X78040500Y-52261158D01*
X78040500Y-52261155D01*
X78040499Y-52261153D01*
X78034517Y-52231082D01*
X78009737Y-52106503D01*
X78004767Y-52094505D01*
X77949397Y-51960827D01*
X77949390Y-51960814D01*
X77861789Y-51829711D01*
X77861786Y-51829707D01*
X77750292Y-51718213D01*
X77750288Y-51718210D01*
X77619185Y-51630609D01*
X77619172Y-51630602D01*
X77473501Y-51570264D01*
X77473489Y-51570261D01*
X77318845Y-51539500D01*
X77318842Y-51539500D01*
X77161158Y-51539500D01*
X77161155Y-51539500D01*
X77006510Y-51570261D01*
X77006498Y-51570264D01*
X76860827Y-51630602D01*
X76860814Y-51630609D01*
X76729711Y-51718210D01*
X76729707Y-51718213D01*
X76618213Y-51829707D01*
X76618210Y-51829711D01*
X76530609Y-51960814D01*
X76530602Y-51960827D01*
X76470264Y-52106498D01*
X76470261Y-52106510D01*
X76439500Y-52261153D01*
X71727639Y-52261153D01*
X71721659Y-52231094D01*
X71721659Y-52231092D01*
X71721658Y-52231087D01*
X71712183Y-52208213D01*
X71665087Y-52094511D01*
X71665080Y-52094498D01*
X71582951Y-51971584D01*
X71582948Y-51971580D01*
X71478419Y-51867051D01*
X71478415Y-51867048D01*
X71355501Y-51784919D01*
X71355488Y-51784912D01*
X71218917Y-51728343D01*
X71218907Y-51728340D01*
X71073920Y-51699500D01*
X71073918Y-51699500D01*
X70926082Y-51699500D01*
X70926080Y-51699500D01*
X70781092Y-51728340D01*
X70781082Y-51728343D01*
X70644511Y-51784912D01*
X70644498Y-51784919D01*
X70521584Y-51867048D01*
X70521580Y-51867051D01*
X70417051Y-51971580D01*
X70417048Y-51971584D01*
X70334919Y-52094498D01*
X70334912Y-52094511D01*
X70278343Y-52231082D01*
X70278340Y-52231092D01*
X70249500Y-52376079D01*
X70249500Y-52376082D01*
X70249500Y-52523918D01*
X70249500Y-52523920D01*
X70249499Y-52523920D01*
X67350500Y-52523920D01*
X67350500Y-52376079D01*
X67321659Y-52231092D01*
X67321658Y-52231091D01*
X67321658Y-52231087D01*
X67312183Y-52208213D01*
X67265087Y-52094511D01*
X67265080Y-52094498D01*
X67182951Y-51971584D01*
X67182948Y-51971580D01*
X67078419Y-51867051D01*
X67078415Y-51867048D01*
X66955501Y-51784919D01*
X66955488Y-51784912D01*
X66818917Y-51728343D01*
X66818907Y-51728340D01*
X66673920Y-51699500D01*
X66673918Y-51699500D01*
X66526082Y-51699500D01*
X66526080Y-51699500D01*
X66381092Y-51728340D01*
X66381082Y-51728343D01*
X66244511Y-51784912D01*
X66244498Y-51784919D01*
X66121584Y-51867048D01*
X66121580Y-51867051D01*
X66017051Y-51971580D01*
X66017048Y-51971584D01*
X65934919Y-52094498D01*
X65934912Y-52094511D01*
X65878343Y-52231082D01*
X65878340Y-52231092D01*
X65849500Y-52376079D01*
X65849500Y-52376082D01*
X65849500Y-52523918D01*
X65849500Y-52523920D01*
X65849499Y-52523920D01*
X65878340Y-52668907D01*
X65878343Y-52668917D01*
X65934912Y-52805488D01*
X65934919Y-52805501D01*
X66017048Y-52928415D01*
X66017051Y-52928419D01*
X66111449Y-53022817D01*
X66144934Y-53084140D01*
X66139950Y-53153832D01*
X66098078Y-53209765D01*
X66082231Y-53219851D01*
X66080824Y-53220602D01*
X65949711Y-53308210D01*
X65949707Y-53308213D01*
X65838213Y-53419707D01*
X65838210Y-53419711D01*
X65750609Y-53550814D01*
X65750602Y-53550827D01*
X65690264Y-53696498D01*
X65690261Y-53696510D01*
X65659500Y-53851153D01*
X61693379Y-53851153D01*
X61639397Y-53720827D01*
X61639390Y-53720814D01*
X61551789Y-53589711D01*
X61551786Y-53589707D01*
X61440292Y-53478213D01*
X61440288Y-53478210D01*
X61309185Y-53390609D01*
X61309172Y-53390602D01*
X61163501Y-53330264D01*
X61163489Y-53330261D01*
X61008845Y-53299500D01*
X61008842Y-53299500D01*
X60851158Y-53299500D01*
X60851155Y-53299500D01*
X60696510Y-53330261D01*
X60696498Y-53330264D01*
X60550827Y-53390602D01*
X60550814Y-53390609D01*
X60419711Y-53478210D01*
X60419707Y-53478213D01*
X60308213Y-53589707D01*
X60308210Y-53589711D01*
X60220609Y-53720814D01*
X60220602Y-53720827D01*
X60160264Y-53866498D01*
X60160261Y-53866510D01*
X60129500Y-54021153D01*
X56090500Y-54021153D01*
X56090500Y-53961158D01*
X56090500Y-53961155D01*
X56090499Y-53961153D01*
X56059738Y-53806510D01*
X56059737Y-53806503D01*
X56014172Y-53696498D01*
X55999397Y-53660827D01*
X55999390Y-53660814D01*
X55911789Y-53529711D01*
X55911786Y-53529707D01*
X55800292Y-53418213D01*
X55800288Y-53418210D01*
X55669185Y-53330609D01*
X55669172Y-53330602D01*
X55523501Y-53270264D01*
X55523489Y-53270261D01*
X55368845Y-53239500D01*
X55368842Y-53239500D01*
X55211158Y-53239500D01*
X55211155Y-53239500D01*
X55056510Y-53270261D01*
X55056498Y-53270264D01*
X54910827Y-53330602D01*
X54910814Y-53330609D01*
X54779711Y-53418210D01*
X54779707Y-53418213D01*
X54668213Y-53529707D01*
X54668210Y-53529711D01*
X54580609Y-53660814D01*
X54580602Y-53660827D01*
X54520264Y-53806498D01*
X54520261Y-53806510D01*
X54489500Y-53961153D01*
X52768041Y-53961153D01*
X52768041Y-52751153D01*
X62789500Y-52751153D01*
X62789500Y-52908846D01*
X62820261Y-53063489D01*
X62820264Y-53063501D01*
X62880602Y-53209172D01*
X62880609Y-53209185D01*
X62968210Y-53340288D01*
X62968213Y-53340292D01*
X63079707Y-53451786D01*
X63079711Y-53451789D01*
X63210814Y-53539390D01*
X63210827Y-53539397D01*
X63332288Y-53589707D01*
X63356503Y-53599737D01*
X63511153Y-53630499D01*
X63511156Y-53630500D01*
X63511158Y-53630500D01*
X63668844Y-53630500D01*
X63668845Y-53630499D01*
X63823497Y-53599737D01*
X63941592Y-53550821D01*
X63969172Y-53539397D01*
X63969172Y-53539396D01*
X63969179Y-53539394D01*
X64100289Y-53451789D01*
X64211789Y-53340289D01*
X64299394Y-53209179D01*
X64359737Y-53063497D01*
X64390500Y-52908842D01*
X64390500Y-52751158D01*
X64390500Y-52751155D01*
X64390499Y-52751153D01*
X64384139Y-52719179D01*
X64359737Y-52596503D01*
X64350208Y-52573497D01*
X64299397Y-52450827D01*
X64299390Y-52450814D01*
X64211789Y-52319711D01*
X64211786Y-52319707D01*
X64100292Y-52208213D01*
X64100288Y-52208210D01*
X63969185Y-52120609D01*
X63969172Y-52120602D01*
X63823501Y-52060264D01*
X63823489Y-52060261D01*
X63668845Y-52029500D01*
X63668842Y-52029500D01*
X63511158Y-52029500D01*
X63511155Y-52029500D01*
X63356510Y-52060261D01*
X63356498Y-52060264D01*
X63210827Y-52120602D01*
X63210814Y-52120609D01*
X63079711Y-52208210D01*
X63079707Y-52208213D01*
X62968213Y-52319707D01*
X62968210Y-52319711D01*
X62880609Y-52450814D01*
X62880602Y-52450827D01*
X62820264Y-52596498D01*
X62820261Y-52596510D01*
X62789500Y-52751153D01*
X52768041Y-52751153D01*
X52768041Y-48791153D01*
X54169500Y-48791153D01*
X54169500Y-48948846D01*
X54200261Y-49103489D01*
X54200264Y-49103501D01*
X54260602Y-49249172D01*
X54260609Y-49249185D01*
X54348210Y-49380288D01*
X54348213Y-49380292D01*
X54459707Y-49491786D01*
X54459711Y-49491789D01*
X54590814Y-49579390D01*
X54590827Y-49579397D01*
X54736498Y-49639735D01*
X54736503Y-49639737D01*
X54891153Y-49670499D01*
X54891156Y-49670500D01*
X54891158Y-49670500D01*
X55048844Y-49670500D01*
X55048845Y-49670499D01*
X55203497Y-49639737D01*
X55349179Y-49579394D01*
X55480289Y-49491789D01*
X55591789Y-49380289D01*
X55679394Y-49249179D01*
X55739737Y-49103497D01*
X55754202Y-49030775D01*
X55770845Y-48947111D01*
X55803230Y-48885200D01*
X55863946Y-48850625D01*
X55933715Y-48854365D01*
X55980143Y-48883621D01*
X56088104Y-48991582D01*
X56253650Y-49111859D01*
X56435968Y-49204755D01*
X56630582Y-49267990D01*
X56832683Y-49300000D01*
X57385000Y-49300000D01*
X57385000Y-48599999D01*
X57885000Y-48599999D01*
X57885000Y-49300000D01*
X58437317Y-49300000D01*
X58639417Y-49267990D01*
X58834031Y-49204755D01*
X59016349Y-49111859D01*
X59181894Y-48991582D01*
X59181895Y-48991582D01*
X59326582Y-48846895D01*
X59326582Y-48846894D01*
X59446859Y-48681349D01*
X59539755Y-48499029D01*
X59602990Y-48304413D01*
X59611609Y-48250000D01*
X58833480Y-48250000D01*
X58844109Y-48231591D01*
X58884998Y-48078991D01*
X58884998Y-47921009D01*
X58844109Y-47768409D01*
X58833480Y-47750000D01*
X59611609Y-47750000D01*
X59602990Y-47695586D01*
X59539755Y-47500970D01*
X59483907Y-47391361D01*
X59483906Y-47391359D01*
X59458326Y-47341153D01*
X61569500Y-47341153D01*
X61569500Y-47498846D01*
X61600261Y-47653489D01*
X61600264Y-47653501D01*
X61660602Y-47799172D01*
X61660609Y-47799185D01*
X61748210Y-47930288D01*
X61748213Y-47930292D01*
X61859707Y-48041786D01*
X61859711Y-48041789D01*
X61990814Y-48129390D01*
X61990827Y-48129397D01*
X62066181Y-48160609D01*
X62136503Y-48189737D01*
X62291153Y-48220499D01*
X62291156Y-48220500D01*
X62291158Y-48220500D01*
X62448844Y-48220500D01*
X62448845Y-48220499D01*
X62603497Y-48189737D01*
X62749179Y-48129394D01*
X62880289Y-48041789D01*
X62991789Y-47930289D01*
X63079394Y-47799179D01*
X63139737Y-47653497D01*
X63170500Y-47498842D01*
X63170500Y-47341158D01*
X63170500Y-47341155D01*
X63170499Y-47341153D01*
X63139738Y-47186510D01*
X63139737Y-47186503D01*
X63125903Y-47153104D01*
X63079397Y-47040827D01*
X63079390Y-47040814D01*
X62991789Y-46909711D01*
X62991786Y-46909707D01*
X62880292Y-46798213D01*
X62880288Y-46798210D01*
X62749185Y-46710609D01*
X62749172Y-46710602D01*
X62603501Y-46650264D01*
X62603489Y-46650261D01*
X62448845Y-46619500D01*
X62448842Y-46619500D01*
X62291158Y-46619500D01*
X62291155Y-46619500D01*
X62136510Y-46650261D01*
X62136498Y-46650264D01*
X61990827Y-46710602D01*
X61990814Y-46710609D01*
X61859711Y-46798210D01*
X61859707Y-46798213D01*
X61748213Y-46909707D01*
X61748210Y-46909711D01*
X61660609Y-47040814D01*
X61660602Y-47040827D01*
X61600264Y-47186498D01*
X61600261Y-47186510D01*
X61569500Y-47341153D01*
X59458326Y-47341153D01*
X59446861Y-47318652D01*
X59326582Y-47153105D01*
X59326582Y-47153104D01*
X59181895Y-47008417D01*
X59016349Y-46888140D01*
X58834031Y-46795244D01*
X58639417Y-46732009D01*
X58437317Y-46700000D01*
X57885000Y-46700000D01*
X57885000Y-47400001D01*
X57385000Y-47400001D01*
X57385000Y-46700000D01*
X56832683Y-46700000D01*
X56630582Y-46732009D01*
X56435968Y-46795244D01*
X56253650Y-46888140D01*
X56088105Y-47008417D01*
X56088104Y-47008417D01*
X55943417Y-47153104D01*
X55943417Y-47153105D01*
X55823140Y-47318650D01*
X55730244Y-47500970D01*
X55667009Y-47695586D01*
X55658391Y-47750000D01*
X56436520Y-47750000D01*
X56425891Y-47768409D01*
X56385002Y-47921009D01*
X56385002Y-48078991D01*
X56425891Y-48231591D01*
X56436520Y-48250000D01*
X55653707Y-48250000D01*
X55605780Y-48281285D01*
X55535912Y-48281782D01*
X55485142Y-48251901D01*
X55484999Y-48252076D01*
X55483884Y-48251161D01*
X55482319Y-48250240D01*
X55480292Y-48248213D01*
X55480288Y-48248210D01*
X55349185Y-48160609D01*
X55349172Y-48160602D01*
X55203501Y-48100264D01*
X55203489Y-48100261D01*
X55048845Y-48069500D01*
X55048842Y-48069500D01*
X54891158Y-48069500D01*
X54891155Y-48069500D01*
X54736510Y-48100261D01*
X54736498Y-48100264D01*
X54590827Y-48160602D01*
X54590814Y-48160609D01*
X54459711Y-48248210D01*
X54459707Y-48248213D01*
X54348213Y-48359707D01*
X54348210Y-48359711D01*
X54260609Y-48490814D01*
X54260602Y-48490827D01*
X54200264Y-48636498D01*
X54200261Y-48636510D01*
X54169500Y-48791153D01*
X52768041Y-48791153D01*
X52768041Y-45261153D01*
X57769500Y-45261153D01*
X57769500Y-45418846D01*
X57800261Y-45573489D01*
X57800264Y-45573501D01*
X57860602Y-45719172D01*
X57860609Y-45719185D01*
X57948210Y-45850288D01*
X57948213Y-45850292D01*
X58059707Y-45961786D01*
X58059711Y-45961789D01*
X58190814Y-46049390D01*
X58190827Y-46049397D01*
X58336498Y-46109735D01*
X58336503Y-46109737D01*
X58491153Y-46140499D01*
X58491156Y-46140500D01*
X58491158Y-46140500D01*
X58648844Y-46140500D01*
X58648845Y-46140499D01*
X58803497Y-46109737D01*
X58949179Y-46049394D01*
X59080289Y-45961789D01*
X59191789Y-45850289D01*
X59279394Y-45719179D01*
X59339737Y-45573497D01*
X59370500Y-45418842D01*
X59370500Y-45261158D01*
X59370500Y-45261155D01*
X59370499Y-45261153D01*
X59339738Y-45106510D01*
X59339737Y-45106503D01*
X59339735Y-45106498D01*
X59279397Y-44960827D01*
X59279390Y-44960814D01*
X59191789Y-44829711D01*
X59191786Y-44829707D01*
X59080292Y-44718213D01*
X59080288Y-44718210D01*
X58949185Y-44630609D01*
X58949172Y-44630602D01*
X58803501Y-44570264D01*
X58803489Y-44570261D01*
X58648845Y-44539500D01*
X58648842Y-44539500D01*
X58491158Y-44539500D01*
X58491155Y-44539500D01*
X58336510Y-44570261D01*
X58336498Y-44570264D01*
X58190827Y-44630602D01*
X58190814Y-44630609D01*
X58059711Y-44718210D01*
X58059707Y-44718213D01*
X57948213Y-44829707D01*
X57948210Y-44829711D01*
X57860609Y-44960814D01*
X57860602Y-44960827D01*
X57800264Y-45106498D01*
X57800261Y-45106510D01*
X57769500Y-45261153D01*
X52768041Y-45261153D01*
X52768041Y-41902135D01*
X65299500Y-41902135D01*
X65299500Y-43697870D01*
X65299501Y-43697876D01*
X65305908Y-43757483D01*
X65356202Y-43892328D01*
X65356206Y-43892335D01*
X65442452Y-44007544D01*
X65442455Y-44007547D01*
X65557664Y-44093793D01*
X65557671Y-44093797D01*
X65692517Y-44144091D01*
X65692516Y-44144091D01*
X65699444Y-44144835D01*
X65752127Y-44150500D01*
X67547872Y-44150499D01*
X67607483Y-44144091D01*
X67742331Y-44093796D01*
X67857546Y-44007546D01*
X67943796Y-43892331D01*
X67992810Y-43760916D01*
X68034681Y-43704984D01*
X68100145Y-43680566D01*
X68168418Y-43695417D01*
X68196673Y-43716569D01*
X68310213Y-43830109D01*
X68482179Y-43955048D01*
X68482181Y-43955049D01*
X68482184Y-43955051D01*
X68671588Y-44051557D01*
X68873757Y-44117246D01*
X69083713Y-44150500D01*
X69083714Y-44150500D01*
X69296286Y-44150500D01*
X69296287Y-44150500D01*
X69506243Y-44117246D01*
X69708412Y-44051557D01*
X69897816Y-43955051D01*
X69984138Y-43892335D01*
X70069786Y-43830109D01*
X70069788Y-43830106D01*
X70069792Y-43830104D01*
X70220104Y-43679792D01*
X70220106Y-43679788D01*
X70220109Y-43679786D01*
X70345048Y-43507820D01*
X70345047Y-43507820D01*
X70345051Y-43507816D01*
X70349514Y-43499054D01*
X70397488Y-43448259D01*
X70465308Y-43431463D01*
X70531444Y-43453999D01*
X70570486Y-43499056D01*
X70574951Y-43507820D01*
X70699890Y-43679786D01*
X70850213Y-43830109D01*
X71022179Y-43955048D01*
X71022181Y-43955049D01*
X71022184Y-43955051D01*
X71211588Y-44051557D01*
X71413757Y-44117246D01*
X71623713Y-44150500D01*
X71623714Y-44150500D01*
X71836286Y-44150500D01*
X71836287Y-44150500D01*
X72046243Y-44117246D01*
X72248412Y-44051557D01*
X72437816Y-43955051D01*
X72524138Y-43892335D01*
X72609786Y-43830109D01*
X72609788Y-43830106D01*
X72609792Y-43830104D01*
X72760104Y-43679792D01*
X72760106Y-43679788D01*
X72760109Y-43679786D01*
X72885048Y-43507820D01*
X72885047Y-43507820D01*
X72885051Y-43507816D01*
X72981557Y-43318412D01*
X73047246Y-43116243D01*
X73080500Y-42906287D01*
X73080500Y-42693713D01*
X73047246Y-42483757D01*
X72981557Y-42281588D01*
X72885051Y-42092184D01*
X72885049Y-42092181D01*
X72885048Y-42092179D01*
X72760109Y-41920213D01*
X72609786Y-41769890D01*
X72437820Y-41644951D01*
X72437115Y-41644591D01*
X72429054Y-41640485D01*
X72378259Y-41592512D01*
X72361463Y-41524692D01*
X72383999Y-41458556D01*
X72429054Y-41419515D01*
X72437816Y-41415051D01*
X72459789Y-41399086D01*
X72609786Y-41290109D01*
X72609788Y-41290106D01*
X72609792Y-41290104D01*
X72760104Y-41139792D01*
X72760106Y-41139788D01*
X72760109Y-41139786D01*
X72885048Y-40967820D01*
X72885050Y-40967817D01*
X72885051Y-40967816D01*
X72981557Y-40778412D01*
X73047246Y-40576243D01*
X73080500Y-40366287D01*
X73080500Y-40171153D01*
X76769500Y-40171153D01*
X76769500Y-40328846D01*
X76800261Y-40483489D01*
X76800264Y-40483501D01*
X76860602Y-40629172D01*
X76860609Y-40629185D01*
X76948210Y-40760288D01*
X76948213Y-40760292D01*
X77059707Y-40871786D01*
X77059711Y-40871789D01*
X77190814Y-40959390D01*
X77190827Y-40959397D01*
X77336498Y-41019735D01*
X77336503Y-41019737D01*
X77491153Y-41050499D01*
X77491156Y-41050500D01*
X77491158Y-41050500D01*
X77648844Y-41050500D01*
X77648845Y-41050499D01*
X77803497Y-41019737D01*
X77928846Y-40967816D01*
X77949172Y-40959397D01*
X77949172Y-40959396D01*
X77949179Y-40959394D01*
X78080289Y-40871789D01*
X78191789Y-40760289D01*
X78279394Y-40629179D01*
X78339737Y-40483497D01*
X78370500Y-40328842D01*
X78370500Y-40171158D01*
X78370500Y-40171155D01*
X78370499Y-40171153D01*
X78339738Y-40016510D01*
X78339737Y-40016503D01*
X78339735Y-40016498D01*
X78279397Y-39870827D01*
X78279390Y-39870814D01*
X78191789Y-39739711D01*
X78191786Y-39739707D01*
X78080292Y-39628213D01*
X78080288Y-39628210D01*
X77949185Y-39540609D01*
X77949172Y-39540602D01*
X77803501Y-39480264D01*
X77803489Y-39480261D01*
X77648845Y-39449500D01*
X77648842Y-39449500D01*
X77491158Y-39449500D01*
X77491155Y-39449500D01*
X77336510Y-39480261D01*
X77336498Y-39480264D01*
X77190827Y-39540602D01*
X77190814Y-39540609D01*
X77059711Y-39628210D01*
X77059707Y-39628213D01*
X76948213Y-39739707D01*
X76948210Y-39739711D01*
X76860609Y-39870814D01*
X76860602Y-39870827D01*
X76800264Y-40016498D01*
X76800261Y-40016510D01*
X76769500Y-40171153D01*
X73080500Y-40171153D01*
X73080500Y-40153713D01*
X73047246Y-39943757D01*
X72981557Y-39741588D01*
X72885051Y-39552184D01*
X72885049Y-39552181D01*
X72885048Y-39552179D01*
X72760109Y-39380213D01*
X72609786Y-39229890D01*
X72437820Y-39104951D01*
X72248414Y-39008444D01*
X72248413Y-39008443D01*
X72248412Y-39008443D01*
X72046243Y-38942754D01*
X72046241Y-38942753D01*
X72046240Y-38942753D01*
X71884957Y-38917208D01*
X71836287Y-38909500D01*
X71623713Y-38909500D01*
X71575042Y-38917208D01*
X71413760Y-38942753D01*
X71211585Y-39008444D01*
X71022179Y-39104951D01*
X70850213Y-39229890D01*
X70699890Y-39380213D01*
X70574949Y-39552182D01*
X70570484Y-39560946D01*
X70522509Y-39611742D01*
X70454688Y-39628536D01*
X70388553Y-39605998D01*
X70349516Y-39560946D01*
X70345050Y-39552182D01*
X70220109Y-39380213D01*
X70069786Y-39229890D01*
X69897820Y-39104951D01*
X69708414Y-39008444D01*
X69708413Y-39008443D01*
X69708412Y-39008443D01*
X69506243Y-38942754D01*
X69506241Y-38942753D01*
X69506240Y-38942753D01*
X69344957Y-38917208D01*
X69296287Y-38909500D01*
X69083713Y-38909500D01*
X69035042Y-38917208D01*
X68873760Y-38942753D01*
X68671585Y-39008444D01*
X68482179Y-39104951D01*
X68310213Y-39229890D01*
X68159890Y-39380213D01*
X68034949Y-39552182D01*
X68030202Y-39561499D01*
X67982227Y-39612293D01*
X67914405Y-39629087D01*
X67848271Y-39606548D01*
X67809234Y-39561495D01*
X67804626Y-39552452D01*
X67765270Y-39498282D01*
X67765269Y-39498282D01*
X67132962Y-40130590D01*
X67115925Y-40067007D01*
X67050099Y-39952993D01*
X66957007Y-39859901D01*
X66842993Y-39794075D01*
X66779409Y-39777037D01*
X67411716Y-39144728D01*
X67357550Y-39105375D01*
X67168217Y-39008904D01*
X66966129Y-38943242D01*
X66756246Y-38910000D01*
X66543754Y-38910000D01*
X66333872Y-38943242D01*
X66333869Y-38943242D01*
X66131782Y-39008904D01*
X65942439Y-39105380D01*
X65888282Y-39144727D01*
X65888282Y-39144728D01*
X66520591Y-39777037D01*
X66457007Y-39794075D01*
X66342993Y-39859901D01*
X66249901Y-39952993D01*
X66184075Y-40067007D01*
X66167037Y-40130591D01*
X65534728Y-39498282D01*
X65534727Y-39498282D01*
X65495380Y-39552439D01*
X65398904Y-39741782D01*
X65333242Y-39943869D01*
X65333242Y-39943872D01*
X65300000Y-40153753D01*
X65300000Y-40366246D01*
X65333242Y-40576127D01*
X65333242Y-40576130D01*
X65398904Y-40778217D01*
X65495375Y-40967550D01*
X65534728Y-41021716D01*
X66167037Y-40389408D01*
X66184075Y-40452993D01*
X66249901Y-40567007D01*
X66342993Y-40660099D01*
X66457007Y-40725925D01*
X66520590Y-40742962D01*
X65850370Y-41413181D01*
X65789047Y-41446666D01*
X65762698Y-41449500D01*
X65752134Y-41449500D01*
X65752123Y-41449501D01*
X65692516Y-41455908D01*
X65557671Y-41506202D01*
X65557664Y-41506206D01*
X65442455Y-41592452D01*
X65442452Y-41592455D01*
X65356206Y-41707664D01*
X65356202Y-41707671D01*
X65305908Y-41842517D01*
X65299501Y-41902116D01*
X65299500Y-41902135D01*
X52768041Y-41902135D01*
X52768041Y-38205196D01*
X52787726Y-38138157D01*
X52840530Y-38092402D01*
X52892041Y-38081196D01*
X81323000Y-38081196D01*
X81390039Y-38100881D01*
G37*
%TD.AperFunction*%
%TD*%
M02*
