%TF.GenerationSoftware,KiCad,Pcbnew,10.0.3*%
%TF.CreationDate,2026-07-30T22:23:18-04:00*%
%TF.ProjectId,Pangotag_PCB,50616e67-6f74-4616-975f-5043422e6b69,rev?*%
%TF.SameCoordinates,Original*%
%TF.FileFunction,Copper,L3,Inr*%
%TF.FilePolarity,Positive*%
%FSLAX46Y46*%
G04 Gerber Fmt 4.6, Leading zero omitted, Abs format (unit mm)*
G04 Created by KiCad (PCBNEW 10.0.3) date 2026-07-30 22:23:18*
%MOMM*%
%LPD*%
G01*
G04 APERTURE LIST*
%TA.AperFunction,ComponentPad*%
%ADD10O,3.000000X1.600000*%
%TD*%
%TA.AperFunction,ComponentPad*%
%ADD11C,1.700000*%
%TD*%
%TA.AperFunction,ComponentPad*%
%ADD12R,1.700000X1.700000*%
%TD*%
%TA.AperFunction,ComponentPad*%
%ADD13C,1.400000*%
%TD*%
%TA.AperFunction,ViaPad*%
%ADD14C,0.400000*%
%TD*%
%TA.AperFunction,ViaPad*%
%ADD15C,0.300000*%
%TD*%
%TA.AperFunction,ViaPad*%
%ADD16C,0.250000*%
%TD*%
%TA.AperFunction,ViaPad*%
%ADD17C,0.600000*%
%TD*%
%TA.AperFunction,ViaPad*%
%ADD18C,0.450000*%
%TD*%
%TA.AperFunction,Conductor*%
%ADD19C,0.120000*%
%TD*%
%TA.AperFunction,Conductor*%
%ADD20C,0.100000*%
%TD*%
G04 APERTURE END LIST*
D10*
%TO.N,GND2*%
%TO.C,J4*%
X57635000Y-48000000D03*
X57635000Y-55800000D03*
%TD*%
D11*
%TO.N,NRST_OUT*%
%TO.C,CN2*%
X71730000Y-40260000D03*
%TO.N,SWO_OUT*%
X71730000Y-42800000D03*
%TO.N,SWCLK_OUT*%
X69190000Y-40260000D03*
%TO.N,SWDIO_OUT*%
X69190000Y-42800000D03*
%TO.N,GND2*%
X66650000Y-40260000D03*
D12*
%TO.N,+1V8_2*%
X66650000Y-42800000D03*
%TD*%
D13*
%TO.N,GND*%
%TO.C,J1*%
X98125000Y-58980000D03*
X97765000Y-53030000D03*
X89505000Y-53030000D03*
X89145000Y-58980000D03*
%TD*%
D14*
%TO.N,NRST*%
X96070000Y-57820000D03*
%TO.N,SWO*%
X95830000Y-39340000D03*
D15*
%TO.N,SDMMC1_CMD*%
X95090000Y-35570000D03*
D14*
%TO.N,GND*%
X107960000Y-36200000D03*
%TO.N,VDDA*%
X101550000Y-36980000D03*
D15*
%TO.N,ACC_INT1*%
X102000000Y-45890000D03*
D14*
%TO.N,USB_OTG_FS_D+*%
X93580000Y-54680000D03*
%TO.N,VDDA*%
X109280000Y-47570000D03*
D16*
%TO.N,SDMMC1_D1*%
X108740000Y-57210000D03*
D14*
%TO.N,USB_OTG_FS_D+*%
X87360000Y-42540000D03*
%TO.N,+3V3*%
X116040000Y-57790000D03*
%TO.N,SWDIO*%
X88150000Y-40920000D03*
%TO.N,I2C1_SDA*%
X115220000Y-50090000D03*
%TO.N,Timepulse*%
X113680000Y-44890000D03*
%TO.N,Net-(IC6-COM4)*%
X95630000Y-52020000D03*
%TO.N,NRST*%
X98432277Y-45797678D03*
D15*
%TO.N,Net-(IC6-COM1)*%
X91143477Y-55843485D03*
D14*
%TO.N,SWCLK*%
X92760000Y-39820000D03*
%TO.N,PRS_INT*%
X105360000Y-39050000D03*
%TO.N,LED2*%
X96950000Y-46030000D03*
%TO.N,GND*%
X88562500Y-46877500D03*
X92520000Y-54710000D03*
D16*
%TO.N,SDMMC1_CMD*%
X109240000Y-51710000D03*
D17*
%TO.N,Net-(J3-ID)*%
X77240000Y-52340000D03*
D15*
%TO.N,SDMMC1_CK*%
X94570000Y-36030000D03*
D14*
%TO.N,VDDA*%
X108740000Y-51220000D03*
D16*
%TO.N,GND*%
X109740000Y-50710000D03*
D14*
%TO.N,PRS_INT*%
X105120000Y-42900000D03*
%TO.N,Net-(IC5-COM3)*%
X95315000Y-49900000D03*
D16*
%TO.N,SDMMC1_D0*%
X108240000Y-57210000D03*
D14*
%TO.N,LED1*%
X113090000Y-40800000D03*
%TO.N,GND*%
X89390000Y-49080000D03*
D16*
%TO.N,Net-(IC5-COM2)*%
X96115000Y-55590000D03*
D14*
%TO.N,Net-(D4-K)*%
X115790000Y-37172500D03*
%TO.N,USART1_TX*%
X97010000Y-39340000D03*
%TO.N,VDDA*%
X92710000Y-44880000D03*
%TO.N,SWCLK*%
X94725000Y-59810000D03*
%TO.N,ACC_INT2*%
X106320000Y-46410000D03*
D17*
%TO.N,VBUS_DONGLE*%
X66460000Y-53930000D03*
D16*
%TO.N,Net-(U2-VDDi)*%
X107740000Y-56210000D03*
D17*
%TO.N,SWDIO_OUT*%
X63590000Y-52830000D03*
D16*
%TO.N,VDDA*%
X96770000Y-59560000D03*
X111510000Y-55750000D03*
D14*
X101390000Y-35280000D03*
%TO.N,LED2*%
X113880000Y-40850000D03*
%TO.N,I2C1_SCL*%
X100570000Y-39380000D03*
D17*
%TO.N,NRST_OUT*%
X62370000Y-47420000D03*
D14*
%TO.N,VDDA*%
X107180000Y-57800000D03*
D17*
%TO.N,SWCLK_OUT*%
X60930000Y-54100000D03*
D14*
%TO.N,Net-(IC6-COM3)*%
X88670000Y-54770000D03*
%TO.N,USB_OTG_VBUS*%
X91850000Y-54000000D03*
D15*
%TO.N,SDMMC1_D2*%
X93575000Y-36070000D03*
D14*
%TO.N,LED4*%
X98270000Y-47070000D03*
D17*
%TO.N,NRST_OUT*%
X58570000Y-45340000D03*
D15*
%TO.N,Net-(IC2-OUT)*%
X95520000Y-44660000D03*
D14*
%TO.N,Net-(D1-K)*%
X112830000Y-37092500D03*
D16*
%TO.N,SDMMC1_D3*%
X107740000Y-56710000D03*
D14*
%TO.N,VDDA*%
X95130000Y-55030000D03*
%TO.N,Net-(U2-VDDi)*%
X102910000Y-58940000D03*
%TO.N,SWCLK*%
X96890000Y-61070000D03*
%TO.N,Net-(IC1-IN-)*%
X100360000Y-53150000D03*
%TO.N,USB_OTG_VBUS*%
X89390000Y-45070000D03*
%TO.N,VDD*%
X101870000Y-58060000D03*
%TO.N,LED1*%
X96350000Y-46530000D03*
%TO.N,USART1_TX*%
X114800000Y-43070000D03*
%TO.N,SWO*%
X89440000Y-54560000D03*
%TO.N,Net-(IC5-COM1)*%
X91380000Y-52070000D03*
%TO.N,VDDA*%
X100580000Y-60790000D03*
%TO.N,GND*%
X109660000Y-39200000D03*
%TO.N,VDDA*%
X99880000Y-58060000D03*
X102020000Y-49955000D03*
%TO.N,I2C1_SCL*%
X106340000Y-54170000D03*
D17*
%TO.N,Net-(J3-ID)*%
X69380000Y-57060000D03*
D14*
%TO.N,+3V3*%
X87910000Y-39280000D03*
%TO.N,USB_OTG_FS_D-*%
X88150000Y-42540000D03*
%TO.N,GND2*%
X65880000Y-45780000D03*
%TO.N,LED3*%
X97960000Y-46380000D03*
X114710000Y-40910000D03*
%TO.N,Net-(D3-K)*%
X114760000Y-37162500D03*
%TO.N,USB_OTG_FS_D-*%
X93040000Y-54070000D03*
D17*
%TO.N,VBUS_DONGLE*%
X54970000Y-48870000D03*
D14*
%TO.N,VDDA*%
X88760000Y-45750000D03*
%TO.N,I2C1_SCL*%
X115840000Y-52270000D03*
%TO.N,SWDIO*%
X92440000Y-56890000D03*
%TO.N,VDDA*%
X95790000Y-45390000D03*
%TO.N,Net-(IC2-OUT)*%
X100320000Y-52050000D03*
%TO.N,GND2*%
X75540000Y-42140000D03*
%TO.N,USBC_FUNCTION*%
X99250000Y-60890000D03*
%TO.N,LED4*%
X115560000Y-40940000D03*
%TO.N,+3V3*%
X110320000Y-37470000D03*
D16*
%TO.N,GND*%
X93995000Y-46486300D03*
%TO.N,SDMMC1_CK*%
X109740000Y-51710000D03*
D14*
%TO.N,USB_OTG_VBUS*%
X94650000Y-54270000D03*
%TO.N,USBC_FUNCTION*%
X93550000Y-55860000D03*
%TO.N,Net-(D2-K)*%
X113760000Y-37112500D03*
%TO.N,+3V3*%
X112120000Y-52270000D03*
%TO.N,GND*%
X110380000Y-54390000D03*
D18*
X107740000Y-51210000D03*
D14*
%TO.N,VDDA*%
X108160000Y-41100000D03*
D17*
%TO.N,SWO_OUT*%
X55290000Y-54040000D03*
D14*
%TO.N,GND*%
X95580000Y-42500000D03*
D16*
%TO.N,USBC_FUNCTION*%
X99064360Y-44284216D03*
D14*
%TO.N,USART1_RX*%
X92530000Y-42010000D03*
%TO.N,CC2*%
X98295000Y-56610000D03*
%TO.N,SDMMC1_D0*%
X92230000Y-44080000D03*
%TO.N,GND*%
X88351651Y-38231651D03*
X103370000Y-35400000D03*
%TO.N,GPS_EXTINT*%
X112580000Y-44890000D03*
D16*
%TO.N,GND*%
X105330000Y-56050000D03*
D14*
%TO.N,Net-(IC5-COM4)*%
X94605000Y-58170000D03*
D16*
%TO.N,Net-(IC6-COM2)*%
X94770000Y-55670000D03*
D14*
%TO.N,I2C1_SCL*%
X103430000Y-41410000D03*
%TO.N,VDDA*%
X105100000Y-39800000D03*
%TO.N,+3V3*%
X116720000Y-47610000D03*
%TO.N,I2C1_SCL*%
X105300000Y-40860000D03*
D15*
%TO.N,SDMMC1_D3*%
X94070000Y-35590000D03*
D17*
%TO.N,VBUS_DONGLE*%
X77570000Y-40250000D03*
D16*
%TO.N,USB_OTG_FS_D-*%
X93090000Y-52330000D03*
X93696934Y-51800435D03*
D14*
%TO.N,USART1_RX*%
X115900000Y-43090000D03*
%TO.N,SDMMC1_D1*%
X92680000Y-43120000D03*
%TO.N,I2C1_SDA*%
X99120000Y-39950000D03*
%TO.N,SDMMC1_D2*%
X106038539Y-59061441D03*
%TO.N,GND*%
X88420000Y-36060000D03*
%TD*%
%TO.N,USB_OTG_FS_D-*%
D19*
X91911239Y-57330000D02*
G75*
G02*
X91671200Y-57090000I-39J240000D01*
G01*
X91671239Y-56722846D02*
G75*
G03*
X91431239Y-56482761I-240039J46D01*
G01*
X91311239Y-56482846D02*
G75*
G03*
X91071246Y-56722846I-39J-239954D01*
G01*
X91071239Y-57090000D02*
G75*
G02*
X90831239Y-57330039I-240039J0D01*
G01*
X89441934Y-56812228D02*
X87690000Y-55060294D01*
X93040000Y-54070000D02*
X93040000Y-54850000D01*
X92871020Y-55578758D02*
X92871020Y-56141242D01*
X93040000Y-54850000D02*
X93105000Y-54915000D01*
X92871020Y-56141242D02*
X93105000Y-56375222D01*
X93105000Y-56375222D02*
X93105000Y-56895294D01*
X93105000Y-55344778D02*
X92871020Y-55578758D01*
X93105000Y-54915000D02*
X93105000Y-55344778D01*
X91431239Y-56482846D02*
X91311239Y-56482846D01*
X93105000Y-56895294D02*
X92670294Y-57330000D01*
X92670294Y-57330000D02*
X91911239Y-57330000D01*
X91671239Y-57090000D02*
X91671239Y-56722846D01*
X91071239Y-56722846D02*
X91071239Y-57090000D01*
X90831239Y-57330000D02*
X90711239Y-57330000D01*
X90711239Y-57330000D02*
X89959706Y-57330000D01*
X88184853Y-55555147D02*
X87560000Y-54930294D01*
X89959706Y-57330000D02*
X89441934Y-56812228D01*
X87690000Y-55060294D02*
X88184853Y-55555147D01*
X87560000Y-54930294D02*
X87560000Y-51669706D01*
%TO.N,SDMMC1_D1*%
D20*
X92680000Y-43120000D02*
X92583302Y-43120000D01*
X92583302Y-43120000D02*
X91801000Y-43902302D01*
X91801000Y-43902302D02*
X91801000Y-50471000D01*
X91801000Y-50471000D02*
X96730000Y-55400000D01*
X96730000Y-55400000D02*
X96730000Y-55730000D01*
X96730000Y-55730000D02*
X98440000Y-57440000D01*
X98440000Y-57440000D02*
X100390000Y-57440000D01*
X100390000Y-57440000D02*
X100970000Y-58020000D01*
X100970000Y-58020000D02*
X100970000Y-59838701D01*
X100970000Y-59838701D02*
X102271299Y-61140000D01*
X102271299Y-61140000D02*
X110400000Y-61140000D01*
X110400000Y-61140000D02*
X111280000Y-60260000D01*
X111280000Y-60260000D02*
X111280000Y-59881300D01*
X111280000Y-59881300D02*
X110748700Y-59350000D01*
X110748700Y-59350000D02*
X108970000Y-59350000D01*
X108970000Y-59350000D02*
X108100000Y-58480000D01*
X108100000Y-58480000D02*
X108100000Y-57850000D01*
X108100000Y-57850000D02*
X108361000Y-57589000D01*
X108361000Y-57589000D02*
X108396987Y-57589000D01*
X108396987Y-57589000D02*
X108619000Y-57366987D01*
X108619000Y-57366987D02*
X108619000Y-57331000D01*
X108619000Y-57331000D02*
X108740000Y-57210000D01*
%TO.N,LED4*%
X98580000Y-46760000D02*
X98580000Y-46610000D01*
X98270000Y-47070000D02*
X98580000Y-46760000D01*
X98580000Y-46610000D02*
X99720000Y-45470000D01*
X115560000Y-40960000D02*
X115560000Y-40940000D01*
X99720000Y-45470000D02*
X111050000Y-45470000D01*
X111050000Y-45470000D02*
X115560000Y-40960000D01*
%TO.N,LED3*%
X98520300Y-44979700D02*
X110640300Y-44979700D01*
X110640300Y-44979700D02*
X114710000Y-40910000D01*
X97960000Y-46380000D02*
X97870000Y-46290000D01*
X97870000Y-45630000D02*
X98520300Y-44979700D01*
X97870000Y-46290000D02*
X97870000Y-45630000D01*
%TO.N,SDMMC1_D2*%
X105490000Y-59061441D02*
X105490000Y-59050000D01*
%TO.N,USB_OTG_FS_D+*%
D19*
X92406880Y-57738646D02*
G75*
G02*
X92286880Y-57858580I-119980J46D01*
G01*
%TO.N,SDMMC1_D0*%
D20*
X107700000Y-57750000D02*
X108240000Y-57210000D01*
%TO.N,SWCLK*%
X91300000Y-41280000D02*
X91300000Y-51340000D01*
%TO.N,LED2*%
X97689000Y-45041000D02*
X96950000Y-45780000D01*
%TO.N,SDMMC1_CMD*%
X108630000Y-52850000D02*
X109240000Y-52240000D01*
%TO.N,GND*%
X115880000Y-39970000D02*
X116760000Y-40850000D01*
%TO.N,SDMMC1_CMD*%
X95090000Y-35570000D02*
X95090000Y-45944602D01*
%TO.N,LED2*%
X96950000Y-45780000D02*
X96950000Y-46030000D01*
%TO.N,VDDA*%
X96770000Y-58991497D02*
X96770000Y-59560000D01*
%TO.N,SWCLK*%
X91300000Y-51340000D02*
X94090000Y-54130000D01*
%TO.N,USB_OTG_FS_D+*%
D19*
X92406880Y-57690000D02*
X92406880Y-57738646D01*
X92106880Y-57738646D02*
X92106880Y-57690000D01*
%TO.N,SDMMC1_D2*%
D20*
X103240000Y-56800000D02*
X103134601Y-56800000D01*
%TO.N,USB_OTG_FS_D-*%
D19*
X88755147Y-48787868D02*
X88750000Y-48782721D01*
%TO.N,USB_OTG_FS_D+*%
X93111000Y-56041840D02*
X93345000Y-56275840D01*
%TO.N,SDMMC1_D2*%
D20*
X98895000Y-52455000D02*
X98715000Y-52455000D01*
%TO.N,SDMMC1_D3*%
X94070000Y-46025313D02*
X99891000Y-51846313D01*
%TO.N,SDMMC1_D0*%
X101360000Y-57830000D02*
X101360000Y-59080000D01*
%TO.N,LED1*%
X96500000Y-46380000D02*
X96350000Y-46530000D01*
%TO.N,VDDA*%
X106400000Y-41100000D02*
X105100000Y-39800000D01*
%TO.N,SDMMC1_D0*%
X101360000Y-59080000D02*
X102980000Y-60700000D01*
%TO.N,USB_OTG_FS_D-*%
D19*
X88750000Y-50479706D02*
X88750000Y-50437279D01*
%TO.N,GND*%
D20*
X91185000Y-54710000D02*
X89505000Y-53030000D01*
%TO.N,SDMMC1_D2*%
X98715000Y-52455000D02*
X98340000Y-52080000D01*
%TO.N,+3V3*%
X116040000Y-57790000D02*
X113550000Y-55300000D01*
%TO.N,SDMMC1_D2*%
X105490000Y-59050000D02*
X103240000Y-56800000D01*
%TO.N,SDMMC1_D0*%
X92230000Y-44080000D02*
X92230000Y-49311698D01*
%TO.N,LED1*%
X96500000Y-45480000D02*
X96500000Y-46380000D01*
%TO.N,SDMMC1_D3*%
X103213302Y-56610000D02*
X106700000Y-56610000D01*
%TO.N,VDDA*%
X108160000Y-41100000D02*
X106400000Y-41100000D01*
%TO.N,SDMMC1_D0*%
X99232302Y-56314000D02*
X99232302Y-56432302D01*
%TO.N,+3V3*%
X112680000Y-52270000D02*
X112120000Y-52270000D01*
%TO.N,SDMMC1_CK*%
X109740000Y-52800000D02*
X109740000Y-51710000D01*
%TO.N,GND*%
X103370000Y-35400000D02*
X105860000Y-35400000D01*
%TO.N,LED2*%
X98820000Y-43770000D02*
X97689000Y-44901000D01*
%TO.N,USB_OTG_FS_D+*%
D19*
X91986880Y-57570000D02*
X91926880Y-57570000D01*
%TO.N,GND*%
D20*
X116760000Y-43690000D02*
X109740000Y-50710000D01*
%TO.N,SWCLK*%
X96890000Y-61070000D02*
X95985000Y-61070000D01*
%TO.N,SDMMC1_D3*%
X106700000Y-56610000D02*
X106800000Y-56710000D01*
%TO.N,SDMMC1_D0*%
X92230000Y-49311698D02*
X99232302Y-56314000D01*
%TO.N,SDMMC1_D3*%
X106800000Y-56710000D02*
X107740000Y-56710000D01*
%TO.N,GND*%
X116760000Y-40850000D02*
X116760000Y-43690000D01*
%TO.N,USB_OTG_FS_D+*%
D19*
X87635000Y-45038140D02*
X87635000Y-44645370D01*
%TO.N,I2C1_SCL*%
D20*
X105300000Y-40860000D02*
X105286100Y-40873900D01*
%TO.N,USB_OTG_FS_D+*%
D19*
X92226880Y-57858646D02*
G75*
G02*
X92106854Y-57738646I20J120046D01*
G01*
%TO.N,SDMMC1_D0*%
D20*
X110700000Y-59880000D02*
X108560000Y-59880000D01*
%TO.N,USB_OTG_FS_D+*%
D19*
X87450000Y-42630000D02*
X87360000Y-42540000D01*
%TO.N,SWCLK*%
D20*
X95985000Y-61070000D02*
X94725000Y-59810000D01*
%TO.N,USB_OTG_FS_D+*%
D19*
X92286880Y-57858646D02*
X92226880Y-57858646D01*
%TO.N,SDMMC1_CMD*%
D20*
X101995398Y-52850000D02*
X108630000Y-52850000D01*
%TO.N,VDDA*%
X99880000Y-58060000D02*
X99850000Y-58030000D01*
X95130000Y-55030000D02*
X95130000Y-55428503D01*
%TO.N,USB_OTG_FS_D-*%
D19*
X87875000Y-44645370D02*
X87875000Y-42815000D01*
%TO.N,SDMMC1_D0*%
D20*
X107700000Y-59020000D02*
X107700000Y-57750000D01*
X100580000Y-57050000D02*
X101360000Y-57830000D01*
%TO.N,USB_OTG_FS_D+*%
D19*
X92106880Y-57690000D02*
G75*
G03*
X91986880Y-57570020I-119980J0D01*
G01*
X88545147Y-50345147D02*
X88545147Y-48874853D01*
%TO.N,SDMMC1_D2*%
D20*
X99701000Y-53261000D02*
X98895000Y-52455000D01*
%TO.N,GND*%
X97067698Y-61499000D02*
X98125000Y-60441698D01*
%TO.N,LED2*%
X110960000Y-43770000D02*
X98820000Y-43770000D01*
%TO.N,SDMMC1_D2*%
X98340000Y-52080000D02*
X98340000Y-51570000D01*
%TO.N,SDMMC1_CK*%
X109320000Y-53220000D02*
X109740000Y-52800000D01*
%TO.N,+3V3*%
X113550000Y-55300000D02*
X113550000Y-53140000D01*
%TO.N,SDMMC1_D0*%
X99232302Y-56432302D02*
X99230000Y-56434604D01*
%TO.N,VDDA*%
X95790000Y-45390000D02*
X101380000Y-39800000D01*
%TO.N,USB_OTG_FS_D+*%
D19*
X87320000Y-51670000D02*
X87320000Y-51570294D01*
%TO.N,SDMMC1_D2*%
D20*
X98340000Y-51570000D02*
X93575000Y-46805000D01*
X99701000Y-53366398D02*
X99701000Y-53261000D01*
%TO.N,LED1*%
X113090000Y-40800000D02*
X110550000Y-43340000D01*
%TO.N,SDMMC1_D3*%
X94070000Y-35590000D02*
X94070000Y-46025313D01*
%TO.N,USB_OTG_FS_D+*%
D19*
X93345000Y-56994706D02*
X92769706Y-57570000D01*
X87320000Y-51570294D02*
X88545147Y-50345147D01*
%TO.N,USB_OTG_FS_D-*%
X87875000Y-47865000D02*
X87875000Y-45038140D01*
%TO.N,VDDA*%
D20*
X97731497Y-58030000D02*
X96770000Y-58991497D01*
%TO.N,USB_OTG_FS_D+*%
D19*
X92769706Y-57570000D02*
X92526880Y-57570000D01*
X88545147Y-48874853D02*
X87635000Y-47964706D01*
%TO.N,SDMMC1_D0*%
D20*
X110820000Y-60200000D02*
X110820000Y-60000000D01*
%TO.N,GND*%
X91664000Y-61499000D02*
X97067698Y-61499000D01*
%TO.N,SDMMC1_D0*%
X99810000Y-57050000D02*
X100580000Y-57050000D01*
%TO.N,SDMMC1_CMD*%
X109240000Y-52240000D02*
X109240000Y-51710000D01*
%TO.N,USB_OTG_FS_D+*%
D19*
X87635000Y-42815000D02*
X87360000Y-42540000D01*
%TO.N,USB_OTG_FS_D-*%
X88750000Y-50437279D02*
X88755147Y-50432131D01*
X87560000Y-51670000D02*
X87560000Y-51669706D01*
%TO.N,SDMMC1_D2*%
D20*
X93575000Y-46805000D02*
X93575000Y-36070000D01*
%TO.N,USB_OTG_FS_D-*%
D19*
X88755147Y-50432131D02*
X88755147Y-48787868D01*
%TO.N,USB_OTG_FS_D+*%
X93111000Y-55678160D02*
X93111000Y-56041840D01*
%TO.N,SDMMC1_D0*%
D20*
X110320000Y-60700000D02*
X110820000Y-60200000D01*
X99230000Y-56434604D02*
X99230000Y-56470000D01*
%TO.N,USB_OTG_FS_D+*%
D19*
X87320000Y-55029706D02*
X87320000Y-51570294D01*
%TO.N,USB_OTG_FS_D-*%
X87875000Y-45038140D02*
X87875000Y-44645370D01*
%TO.N,SDMMC1_CK*%
D20*
X102096698Y-53220000D02*
X109320000Y-53220000D01*
%TO.N,I2C1_SCL*%
X103966100Y-40873900D02*
X103930000Y-40910000D01*
%TO.N,SDMMC1_D2*%
X103134601Y-56800000D02*
X99701000Y-53366398D01*
%TO.N,LED1*%
X98640000Y-43340000D02*
X96500000Y-45480000D01*
%TO.N,USB_OTG_FS_D+*%
D19*
X92526880Y-57570000D02*
G75*
G03*
X92406900Y-57690000I20J-120000D01*
G01*
X88015147Y-55724853D02*
X87320000Y-55029706D01*
%TO.N,USB_OTG_FS_D-*%
X88740000Y-48730000D02*
X87875000Y-47865000D01*
%TO.N,SDMMC1_D2*%
D20*
X106038539Y-59061441D02*
X105490000Y-59061441D01*
%TO.N,USB_OTG_FS_D+*%
D19*
X87450000Y-55159706D02*
X88015147Y-55724853D01*
%TO.N,SDMMC1_D0*%
D20*
X99230000Y-56470000D02*
X99810000Y-57050000D01*
%TO.N,GND*%
X108240000Y-50710000D02*
X109740000Y-50710000D01*
X105860000Y-35400000D02*
X109660000Y-39200000D01*
X107740000Y-51210000D02*
X108240000Y-50710000D01*
%TO.N,USB_OTG_FS_D-*%
D19*
X88750000Y-48782721D02*
X88750000Y-48730000D01*
%TO.N,USB_OTG_FS_D+*%
X93345000Y-56275840D02*
X93345000Y-56994706D01*
%TO.N,SDMMC1_D3*%
D20*
X99891000Y-53287698D02*
X103213302Y-56610000D01*
%TO.N,USB_OTG_FS_D+*%
D19*
X87635000Y-44645370D02*
X87635000Y-42815000D01*
%TO.N,SDMMC1_D3*%
D20*
X99891000Y-51846313D02*
X99891000Y-53287698D01*
%TO.N,VDDA*%
X111510000Y-52944013D02*
X109785987Y-51220000D01*
%TO.N,SDMMC1_D0*%
X102980000Y-60700000D02*
X110320000Y-60700000D01*
%TO.N,GND*%
X89145000Y-58980000D02*
X91664000Y-61499000D01*
%TO.N,LED2*%
X113880000Y-40850000D02*
X110960000Y-43770000D01*
%TO.N,USB_OTG_FS_D-*%
D19*
X87560000Y-51669706D02*
X88750000Y-50479706D01*
%TO.N,VDDA*%
D20*
X95130000Y-55428503D02*
X97731497Y-58030000D01*
%TO.N,SWCLK*%
X94090000Y-59175000D02*
X94725000Y-59810000D01*
%TO.N,USB_OTG_FS_D+*%
D19*
X87635000Y-47964706D02*
X87635000Y-45038140D01*
%TO.N,USB_OTG_FS_D-*%
X88750000Y-48730000D02*
X88740000Y-48730000D01*
%TO.N,VDDA*%
D20*
X99850000Y-58030000D02*
X97731497Y-58030000D01*
%TO.N,SWCLK*%
X92760000Y-39820000D02*
X91300000Y-41280000D01*
%TO.N,USB_OTG_FS_D+*%
D19*
X90406915Y-57570000D02*
X89860294Y-57570000D01*
%TO.N,VDDA*%
D20*
X101380000Y-39800000D02*
X105100000Y-39800000D01*
%TO.N,SDMMC1_CK*%
X94570000Y-45693302D02*
X102096698Y-53220000D01*
%TO.N,+3V3*%
X113550000Y-53140000D02*
X112680000Y-52270000D01*
%TO.N,USB_OTG_FS_D-*%
D19*
X87875000Y-42815000D02*
X88150000Y-42540000D01*
%TO.N,SDMMC1_CMD*%
D20*
X95090000Y-45944602D02*
X101995398Y-52850000D01*
%TO.N,GND*%
X92520000Y-54710000D02*
X91185000Y-54710000D01*
%TO.N,LED2*%
X97689000Y-44901000D02*
X97689000Y-45041000D01*
%TO.N,GND*%
X109660000Y-39200000D02*
X110430000Y-39970000D01*
%TO.N,USB_OTG_FS_D+*%
D19*
X93345000Y-55444160D02*
X93111000Y-55678160D01*
%TO.N,SDMMC1_D0*%
D20*
X110820000Y-60000000D02*
X110700000Y-59880000D01*
%TO.N,SDMMC1_CK*%
X94570000Y-36030000D02*
X94570000Y-45693302D01*
%TO.N,GND*%
X110430000Y-39970000D02*
X115880000Y-39970000D01*
%TO.N,LED1*%
X110550000Y-43340000D02*
X98640000Y-43340000D01*
%TO.N,SDMMC1_D0*%
X108560000Y-59880000D02*
X107700000Y-59020000D01*
%TO.N,USB_OTG_FS_D+*%
D19*
X93580000Y-54680000D02*
X93345000Y-54915000D01*
X91926880Y-57570000D02*
X90406915Y-57570000D01*
X93345000Y-54915000D02*
X93345000Y-55444160D01*
%TO.N,VDDA*%
D20*
X109785987Y-51220000D02*
X108740000Y-51220000D01*
%TO.N,GND*%
X98125000Y-60441698D02*
X98125000Y-58980000D01*
%TO.N,SWCLK*%
X94090000Y-54130000D02*
X94090000Y-59175000D01*
%TO.N,USB_OTG_FS_D+*%
D19*
X89860294Y-57570000D02*
X87450000Y-55159706D01*
%TO.N,VDDA*%
D20*
X111510000Y-55750000D02*
X111510000Y-52944013D01*
%TD*%
M02*
