%TF.GenerationSoftware,KiCad,Pcbnew,10.0.3*%
%TF.CreationDate,2026-07-17T23:31:58-04:00*%
%TF.ProjectId,Pangotag_PCB,50616e67-6f74-4616-975f-5043422e6b69,rev?*%
%TF.SameCoordinates,Original*%
%TF.FileFunction,Soldermask,Top*%
%TF.FilePolarity,Negative*%
%FSLAX46Y46*%
G04 Gerber Fmt 4.6, Leading zero omitted, Abs format (unit mm)*
G04 Created by KiCad (PCBNEW 10.0.3) date 2026-07-17 23:31:58*
%MOMM*%
%LPD*%
G01*
G04 APERTURE LIST*
G04 Aperture macros list*
%AMRoundRect*
0 Rectangle with rounded corners*
0 $1 Rounding radius*
0 $2 $3 $4 $5 $6 $7 $8 $9 X,Y pos of 4 corners*
0 Add a 4 corners polygon primitive as box body*
4,1,4,$2,$3,$4,$5,$6,$7,$8,$9,$2,$3,0*
0 Add four circle primitives for the rounded corners*
1,1,$1+$1,$2,$3*
1,1,$1+$1,$4,$5*
1,1,$1+$1,$6,$7*
1,1,$1+$1,$8,$9*
0 Add four rect primitives between the rounded corners*
20,1,$1+$1,$2,$3,$4,$5,0*
20,1,$1+$1,$4,$5,$6,$7,0*
20,1,$1+$1,$6,$7,$8,$9,0*
20,1,$1+$1,$8,$9,$2,$3,0*%
G04 Aperture macros list end*
%ADD10C,0.175000*%
%ADD11RoundRect,0.100000X-0.100000X0.130000X-0.100000X-0.130000X0.100000X-0.130000X0.100000X0.130000X0*%
%ADD12C,0.370000*%
%ADD13RoundRect,0.100000X-0.130000X-0.100000X0.130000X-0.100000X0.130000X0.100000X-0.130000X0.100000X0*%
%ADD14C,0.650000*%
%ADD15C,0.950000*%
%ADD16RoundRect,0.075000X-0.075000X-0.275000X0.075000X-0.275000X0.075000X0.275000X-0.075000X0.275000X0*%
%ADD17C,1.400000*%
%ADD18R,1.700000X0.900000*%
%ADD19C,0.148750*%
%ADD20RoundRect,0.102000X-0.300000X-0.600000X0.300000X-0.600000X0.300000X0.600000X-0.300000X0.600000X0*%
%ADD21RoundRect,0.102000X-0.125000X-0.137500X0.125000X-0.137500X0.125000X0.137500X-0.125000X0.137500X0*%
%ADD22RoundRect,0.102000X-0.137500X-0.125000X0.137500X-0.125000X0.137500X0.125000X-0.137500X0.125000X0*%
%ADD23RoundRect,0.102000X-1.980000X-1.980000X1.980000X-1.980000X1.980000X1.980000X-1.980000X1.980000X0*%
%ADD24RoundRect,0.102000X-1.590000X-1.590000X1.590000X-1.590000X1.590000X1.590000X-1.590000X1.590000X0*%
%ADD25C,1.000000*%
%ADD26RoundRect,0.125000X-0.125000X-0.875000X0.125000X-0.875000X0.125000X0.875000X-0.125000X0.875000X0*%
%ADD27RoundRect,0.250000X-0.750000X-0.600000X0.750000X-0.600000X0.750000X0.600000X-0.750000X0.600000X0*%
%ADD28RoundRect,0.095000X-0.095000X-0.405000X0.095000X-0.405000X0.095000X0.405000X-0.095000X0.405000X0*%
%ADD29RoundRect,0.175000X-0.175000X-0.400000X0.175000X-0.400000X0.175000X0.400000X-0.175000X0.400000X0*%
%ADD30R,0.145000X0.480000*%
%ADD31R,0.100000X0.480000*%
%ADD32R,0.482600X0.254000*%
%ADD33R,0.254000X0.482600*%
%ADD34C,0.200000*%
%ADD35C,0.290000*%
%ADD36R,3.000000X1.000000*%
%ADD37RoundRect,0.175000X-0.175000X-0.225000X0.175000X-0.225000X0.175000X0.225000X-0.175000X0.225000X0*%
%ADD38RoundRect,0.150000X-0.150000X-0.275000X0.150000X-0.275000X0.150000X0.275000X-0.150000X0.275000X0*%
%ADD39RoundRect,0.062500X-0.350000X-0.062500X0.350000X-0.062500X0.350000X0.062500X-0.350000X0.062500X0*%
%ADD40R,1.650000X1.350000*%
%ADD41RoundRect,0.250000X-0.250000X0.275000X-0.250000X-0.275000X0.250000X-0.275000X0.250000X0.275000X0*%
%ADD42RoundRect,0.250000X-0.275000X0.850000X-0.275000X-0.850000X0.275000X-0.850000X0.275000X0.850000X0*%
%ADD43C,1.100000*%
%ADD44RoundRect,0.300000X-0.700000X-0.300000X0.700000X-0.300000X0.700000X0.300000X-0.700000X0.300000X0*%
%ADD45O,3.200000X1.300000*%
G04 APERTURE END LIST*
%TO.C,U18*%
D10*
X32112500Y-159700000D02*
G75*
G02*
X31937500Y-159700000I-87500J0D01*
G01*
X31937500Y-159700000D02*
G75*
G02*
X32112500Y-159700000I87500J0D01*
G01*
X32112500Y-160100000D02*
G75*
G02*
X31937500Y-160100000I-87500J0D01*
G01*
X31937500Y-160100000D02*
G75*
G02*
X32112500Y-160100000I87500J0D01*
G01*
X32112500Y-160500000D02*
G75*
G02*
X31937500Y-160500000I-87500J0D01*
G01*
X31937500Y-160500000D02*
G75*
G02*
X32112500Y-160500000I87500J0D01*
G01*
X32512500Y-159700000D02*
G75*
G02*
X32337500Y-159700000I-87500J0D01*
G01*
X32337500Y-159700000D02*
G75*
G02*
X32512500Y-159700000I87500J0D01*
G01*
X32512500Y-160100000D02*
G75*
G02*
X32337500Y-160100000I-87500J0D01*
G01*
X32337500Y-160100000D02*
G75*
G02*
X32512500Y-160100000I87500J0D01*
G01*
X32512500Y-160500000D02*
G75*
G02*
X32337500Y-160500000I-87500J0D01*
G01*
X32337500Y-160500000D02*
G75*
G02*
X32512500Y-160500000I87500J0D01*
G01*
%TO.C,U13*%
X101097500Y-53870000D02*
G75*
G02*
X100922500Y-53870000I-87500J0D01*
G01*
X100922500Y-53870000D02*
G75*
G02*
X101097500Y-53870000I87500J0D01*
G01*
X101097500Y-54270000D02*
G75*
G02*
X100922500Y-54270000I-87500J0D01*
G01*
X100922500Y-54270000D02*
G75*
G02*
X101097500Y-54270000I87500J0D01*
G01*
X101097500Y-54670000D02*
G75*
G02*
X100922500Y-54670000I-87500J0D01*
G01*
X100922500Y-54670000D02*
G75*
G02*
X101097500Y-54670000I87500J0D01*
G01*
X101497500Y-53870000D02*
G75*
G02*
X101322500Y-53870000I-87500J0D01*
G01*
X101322500Y-53870000D02*
G75*
G02*
X101497500Y-53870000I87500J0D01*
G01*
X101497500Y-54270000D02*
G75*
G02*
X101322500Y-54270000I-87500J0D01*
G01*
X101322500Y-54270000D02*
G75*
G02*
X101497500Y-54270000I87500J0D01*
G01*
X101497500Y-54670000D02*
G75*
G02*
X101322500Y-54670000I-87500J0D01*
G01*
X101322500Y-54670000D02*
G75*
G02*
X101497500Y-54670000I87500J0D01*
G01*
%TO.C,U1*%
X103037500Y-53860000D02*
G75*
G02*
X102862500Y-53860000I-87500J0D01*
G01*
X102862500Y-53860000D02*
G75*
G02*
X103037500Y-53860000I87500J0D01*
G01*
X103037500Y-54260000D02*
G75*
G02*
X102862500Y-54260000I-87500J0D01*
G01*
X102862500Y-54260000D02*
G75*
G02*
X103037500Y-54260000I87500J0D01*
G01*
X103037500Y-54660000D02*
G75*
G02*
X102862500Y-54660000I-87500J0D01*
G01*
X102862500Y-54660000D02*
G75*
G02*
X103037500Y-54660000I87500J0D01*
G01*
X103437500Y-53860000D02*
G75*
G02*
X103262500Y-53860000I-87500J0D01*
G01*
X103262500Y-53860000D02*
G75*
G02*
X103437500Y-53860000I87500J0D01*
G01*
X103437500Y-54260000D02*
G75*
G02*
X103262500Y-54260000I-87500J0D01*
G01*
X103262500Y-54260000D02*
G75*
G02*
X103437500Y-54260000I87500J0D01*
G01*
X103437500Y-54660000D02*
G75*
G02*
X103262500Y-54660000I-87500J0D01*
G01*
X103262500Y-54660000D02*
G75*
G02*
X103437500Y-54660000I87500J0D01*
G01*
%TO.C,J2*%
G36*
X106615000Y-59260000D02*
G01*
X108495000Y-59260000D01*
X108495000Y-61350000D01*
X106615000Y-61350000D01*
X106615000Y-59260000D01*
G37*
%TD*%
D11*
%TO.C,R22*%
X91530000Y-49895000D03*
X91530000Y-49255000D03*
%TD*%
D12*
%TO.C,U6*%
X108290000Y-51260000D03*
X108290000Y-51760000D03*
X108290000Y-52260000D03*
X108290000Y-52760000D03*
X108290000Y-53260000D03*
X108290000Y-53760000D03*
X108290000Y-54260000D03*
X108290000Y-54760000D03*
X108290000Y-55260000D03*
X107790000Y-51260000D03*
X107790000Y-51760000D03*
X107790000Y-54760000D03*
X107790000Y-55260000D03*
X107290000Y-51260000D03*
X107290000Y-52260000D03*
X107290000Y-52760000D03*
X107290000Y-53260000D03*
X107290000Y-53760000D03*
X107290000Y-54260000D03*
X107290000Y-55260000D03*
X106790000Y-51260000D03*
X106790000Y-51760000D03*
X106790000Y-55260000D03*
X106290000Y-51260000D03*
X106290000Y-51760000D03*
X106290000Y-52260000D03*
X106290000Y-52760000D03*
X106290000Y-54260000D03*
X106290000Y-55260000D03*
X105790000Y-51260000D03*
X105790000Y-52260000D03*
X105790000Y-52760000D03*
X105790000Y-54260000D03*
X105790000Y-55260000D03*
X105290000Y-51260000D03*
X105290000Y-52260000D03*
X105290000Y-52760000D03*
X105290000Y-53260000D03*
X105290000Y-53760000D03*
X105290000Y-54260000D03*
X105290000Y-55260000D03*
X104790000Y-51260000D03*
X104790000Y-54760000D03*
X104790000Y-55260000D03*
X104290000Y-51260000D03*
X104290000Y-51760000D03*
X104290000Y-52260000D03*
X104290000Y-52760000D03*
X104290000Y-53260000D03*
X104290000Y-53760000D03*
X104290000Y-54260000D03*
X104290000Y-54760000D03*
X104290000Y-55260000D03*
%TD*%
D13*
%TO.C,C7*%
X90030000Y-22200000D03*
X90670000Y-22200000D03*
%TD*%
%TO.C,R10*%
X142085000Y-71745000D03*
X142725000Y-71745000D03*
%TD*%
%TO.C,R16*%
X106730000Y-22200000D03*
X107370000Y-22200000D03*
%TD*%
%TO.C,R4*%
X104280000Y-29200000D03*
X104920000Y-29200000D03*
%TD*%
%TO.C,D3*%
X121330000Y-51275000D03*
X121970000Y-51275000D03*
%TD*%
D14*
%TO.C,J1*%
X90690000Y-52450000D03*
D15*
X97890000Y-52450000D03*
D16*
X91540000Y-51790000D03*
X92040000Y-51790000D03*
X92540000Y-51790000D03*
X93040000Y-51790000D03*
X93540000Y-51790000D03*
X94040000Y-51790000D03*
X94540000Y-51790000D03*
X95040000Y-51790000D03*
X95540000Y-51790000D03*
X96040000Y-51790000D03*
X96540000Y-51790000D03*
X97040000Y-51790000D03*
X96790000Y-53490000D03*
X96290000Y-53490000D03*
X95790000Y-53490000D03*
X95290000Y-53490000D03*
X94790000Y-53490000D03*
X94290000Y-53490000D03*
X93790000Y-53490000D03*
X93290000Y-53490000D03*
X92790000Y-53490000D03*
X92290000Y-53490000D03*
X91790000Y-53490000D03*
X91290000Y-53490000D03*
D17*
X89800000Y-59650000D03*
X90160000Y-53700000D03*
X98420000Y-53700000D03*
X98780000Y-59650000D03*
%TD*%
D13*
%TO.C,R9*%
X121095000Y-47775000D03*
X121735000Y-47775000D03*
%TD*%
D18*
%TO.C,SW1*%
X46500000Y-154700000D03*
X46500000Y-151300000D03*
%TD*%
D13*
%TO.C,C1*%
X99380000Y-22200000D03*
X100020000Y-22200000D03*
%TD*%
%TO.C,L3*%
X94930000Y-23950000D03*
X95570000Y-23950000D03*
%TD*%
%TO.C,R14*%
X109480000Y-43450000D03*
X110120000Y-43450000D03*
%TD*%
D19*
%TO.C,U5*%
X96210000Y-49800000D03*
X96210000Y-50149999D03*
X96210000Y-50500001D03*
X96210000Y-50850000D03*
X95860001Y-49800000D03*
X95860001Y-50149999D03*
X95860001Y-50500001D03*
X95860001Y-50850000D03*
X95509999Y-49800000D03*
X95509999Y-50149999D03*
X95509999Y-50500001D03*
X95509999Y-50850000D03*
X95160000Y-49800000D03*
X95160000Y-50149999D03*
X95160000Y-50500001D03*
X95160000Y-50850000D03*
%TD*%
D13*
%TO.C,R3*%
X104280000Y-27450000D03*
X104920000Y-27450000D03*
%TD*%
%TO.C,C20*%
X101830000Y-27450000D03*
X102470000Y-27450000D03*
%TD*%
%TO.C,D4*%
X121330000Y-53025000D03*
X121970000Y-53025000D03*
%TD*%
%TO.C,C18*%
X101830000Y-25700000D03*
X102470000Y-25700000D03*
%TD*%
%TO.C,R12*%
X104280000Y-30950000D03*
X104920000Y-30950000D03*
%TD*%
%TO.C,D2*%
X121330000Y-49525000D03*
X121970000Y-49525000D03*
%TD*%
D20*
%TO.C,Y1*%
X125945000Y-48365000D03*
X127145000Y-48365000D03*
%TD*%
D21*
%TO.C,U14*%
X114702500Y-56567500D03*
X114202500Y-56567500D03*
D22*
X113690000Y-56830000D03*
X113690000Y-57330000D03*
X113690000Y-57830000D03*
D21*
X114202500Y-58092500D03*
X114702500Y-58092500D03*
D22*
X115215000Y-57830000D03*
X115215000Y-57330000D03*
X115215000Y-56830000D03*
%TD*%
D23*
%TO.C,BT1*%
X74200000Y-71500000D03*
D24*
X66900000Y-71500000D03*
X81500000Y-71500000D03*
%TD*%
D11*
%TO.C,R21*%
X91510000Y-47865000D03*
X91510000Y-48505000D03*
%TD*%
D13*
%TO.C,C11*%
X109480000Y-36450000D03*
X110120000Y-36450000D03*
%TD*%
%TO.C,C3*%
X99380000Y-25700000D03*
X100020000Y-25700000D03*
%TD*%
%TO.C,L4*%
X109480000Y-39950000D03*
X110120000Y-39950000D03*
%TD*%
%TO.C,C15*%
X99380000Y-32700000D03*
X100020000Y-32700000D03*
%TD*%
D23*
%TO.C,BT2*%
X65500000Y-28000000D03*
D24*
X58200000Y-28000000D03*
X72800000Y-28000000D03*
%TD*%
D13*
%TO.C,C17*%
X101830000Y-23950000D03*
X102470000Y-23950000D03*
%TD*%
%TO.C,L1*%
X104280000Y-22200000D03*
X104920000Y-22200000D03*
%TD*%
D25*
%TO.C,J3*%
X30275000Y-167150000D03*
X34675000Y-167150000D03*
D26*
X30875000Y-164450000D03*
X31675000Y-164450000D03*
X32475000Y-164450000D03*
X33275000Y-164450000D03*
X34075000Y-164450000D03*
D27*
X28025000Y-164550000D03*
X28025000Y-170000000D03*
X36925000Y-164550000D03*
X36925000Y-170000000D03*
%TD*%
D28*
%TO.C,P1*%
X18695000Y-168660000D03*
X19195000Y-168660000D03*
X19695000Y-168660000D03*
X20195000Y-168660000D03*
X20695000Y-168660000D03*
X21195000Y-168660000D03*
X21695000Y-168660000D03*
X22195000Y-168660000D03*
X22695000Y-168660000D03*
X23195000Y-168660000D03*
X23695000Y-168660000D03*
X24195000Y-168660000D03*
D29*
X18025000Y-169500000D03*
%TD*%
D13*
%TO.C,R5*%
X109480000Y-41700000D03*
X110120000Y-41700000D03*
%TD*%
%TO.C,C12*%
X90030000Y-25700000D03*
X90670000Y-25700000D03*
%TD*%
D30*
%TO.C,Q2*%
X118053000Y-48770000D03*
D31*
X118310000Y-48770000D03*
D30*
X118568000Y-48770000D03*
%TD*%
D13*
%TO.C,L2*%
X94930000Y-22200000D03*
X95570000Y-22200000D03*
%TD*%
D30*
%TO.C,Q1*%
X118053000Y-45190000D03*
D31*
X118310000Y-45190000D03*
D30*
X118568000Y-45190000D03*
%TD*%
D13*
%TO.C,D3*%
X144770000Y-71745000D03*
X145410000Y-71745000D03*
%TD*%
%TO.C,C21*%
X101830000Y-29200000D03*
X102470000Y-29200000D03*
%TD*%
%TO.C,C23*%
X101830000Y-32700000D03*
X102470000Y-32700000D03*
%TD*%
%TO.C,C13*%
X92480000Y-22200000D03*
X93120000Y-22200000D03*
%TD*%
%TO.C,C24*%
X92480000Y-25700000D03*
X93120000Y-25700000D03*
%TD*%
D32*
%TO.C,U16*%
X103893499Y-47662499D03*
X103893499Y-48162500D03*
X103893499Y-48662500D03*
X103893499Y-49162501D03*
D33*
X104600000Y-49365000D03*
X105099999Y-49365000D03*
X105599998Y-49365000D03*
D32*
X106306499Y-49162501D03*
X106306499Y-48662500D03*
X106306499Y-48162500D03*
X106306499Y-47662499D03*
D33*
X105599998Y-47460000D03*
X105099999Y-47460000D03*
X104600000Y-47460000D03*
%TD*%
D19*
%TO.C,U15*%
X94140000Y-49710000D03*
X94140000Y-50059999D03*
X94140000Y-50410001D03*
X94140000Y-50760000D03*
X93790001Y-49710000D03*
X93790001Y-50059999D03*
X93790001Y-50410001D03*
X93790001Y-50760000D03*
X93439999Y-49710000D03*
X93439999Y-50059999D03*
X93439999Y-50410001D03*
X93439999Y-50760000D03*
X93090000Y-49710000D03*
X93090000Y-50059999D03*
X93090000Y-50410001D03*
X93090000Y-50760000D03*
%TD*%
D34*
%TO.C,U11*%
X89770000Y-48335000D03*
X90170000Y-48335000D03*
X89770000Y-48735000D03*
X90170000Y-48735000D03*
X89770000Y-49135000D03*
X90170000Y-49135000D03*
%TD*%
D13*
%TO.C,C2*%
X99380000Y-23950000D03*
X100020000Y-23950000D03*
%TD*%
%TO.C,R2*%
X104280000Y-25700000D03*
X104920000Y-25700000D03*
%TD*%
%TO.C,R1*%
X104280000Y-23950000D03*
X104920000Y-23950000D03*
%TD*%
%TO.C,C6*%
X99380000Y-29200000D03*
X100020000Y-29200000D03*
%TD*%
%TO.C,C14*%
X92480000Y-23950000D03*
X93120000Y-23950000D03*
%TD*%
%TO.C,R15*%
X104280000Y-32700000D03*
X104920000Y-32700000D03*
%TD*%
%TO.C,D1*%
X144770000Y-68245000D03*
X145410000Y-68245000D03*
%TD*%
%TO.C,D2*%
X144770000Y-69995000D03*
X145410000Y-69995000D03*
%TD*%
D30*
%TO.C,Q3*%
X118053000Y-52350000D03*
D31*
X118310000Y-52350000D03*
D30*
X118568000Y-52350000D03*
%TD*%
D13*
%TO.C,R13*%
X94930000Y-25700000D03*
X95570000Y-25700000D03*
%TD*%
D35*
%TO.C,U4*%
X98400000Y-47765129D03*
X98800000Y-47765129D03*
X99200000Y-47765129D03*
X99600000Y-47765129D03*
X100000000Y-47765129D03*
X100400000Y-47765129D03*
X100800000Y-47765129D03*
X101200000Y-47765129D03*
X101600000Y-47765129D03*
X98600000Y-48111539D03*
X99000000Y-48111539D03*
X99400000Y-48111539D03*
X99800000Y-48111539D03*
X100200000Y-48111539D03*
X100600000Y-48111539D03*
X101000000Y-48111539D03*
X101400000Y-48111539D03*
X101800000Y-48111539D03*
X98400000Y-48457950D03*
X98800000Y-48457950D03*
X99200000Y-48457950D03*
X99600000Y-48457950D03*
X100000000Y-48457950D03*
X100400000Y-48457950D03*
X100800000Y-48457950D03*
X101200000Y-48457950D03*
X101600000Y-48457950D03*
X98600000Y-48804360D03*
X99000000Y-48804360D03*
X99400000Y-48804360D03*
X99800000Y-48804360D03*
X100200000Y-48804360D03*
X100600000Y-48804360D03*
X101000000Y-48804360D03*
X101400000Y-48804360D03*
X101800000Y-48804360D03*
X98400000Y-49150770D03*
X98800000Y-49150770D03*
X99200000Y-49150770D03*
X99600000Y-49150770D03*
X100000000Y-49150770D03*
X100400000Y-49150770D03*
X100800000Y-49150770D03*
X101200000Y-49150770D03*
X101600000Y-49150770D03*
X98600000Y-49497180D03*
X99000000Y-49497180D03*
X99400000Y-49497180D03*
X99800000Y-49497180D03*
X100200000Y-49497180D03*
X100600000Y-49497180D03*
X101000000Y-49497180D03*
X101400000Y-49497180D03*
X101800000Y-49497180D03*
X98400000Y-49843590D03*
X98800000Y-49843590D03*
X99200000Y-49843590D03*
X99600000Y-49843590D03*
X100000000Y-49843590D03*
X100400000Y-49843590D03*
X100800000Y-49843590D03*
X101200000Y-49843590D03*
X101600000Y-49843590D03*
X98600000Y-50190000D03*
X99000000Y-50190000D03*
X99400000Y-50190000D03*
X99800000Y-50190000D03*
X100200000Y-50190000D03*
X100600000Y-50190000D03*
X101000000Y-50190000D03*
X101400000Y-50190000D03*
X101800000Y-50190000D03*
X98400000Y-50536411D03*
X98800000Y-50536411D03*
X99200000Y-50536411D03*
X99600000Y-50536411D03*
X100000000Y-50536411D03*
X100400000Y-50536411D03*
X100800000Y-50536411D03*
X101200000Y-50536411D03*
X101600000Y-50536411D03*
X98600000Y-50882821D03*
X99000000Y-50882821D03*
X99400000Y-50882821D03*
X99800000Y-50882821D03*
X100200000Y-50882821D03*
X100600000Y-50882821D03*
X101000000Y-50882821D03*
X101400000Y-50882821D03*
X101800000Y-50882821D03*
%TD*%
D13*
%TO.C,C22*%
X101830000Y-30950000D03*
X102470000Y-30950000D03*
%TD*%
%TO.C,C10*%
X99380000Y-30950000D03*
X100020000Y-30950000D03*
%TD*%
%TO.C,C19*%
X109480000Y-38200000D03*
X110120000Y-38200000D03*
%TD*%
%TO.C,R8*%
X121095000Y-46025000D03*
X121735000Y-46025000D03*
%TD*%
%TO.C,R6*%
X142085000Y-68245000D03*
X142725000Y-68245000D03*
%TD*%
%TO.C,C5*%
X99380000Y-27450000D03*
X100020000Y-27450000D03*
%TD*%
D23*
%TO.C,BT3*%
X118800000Y-80500000D03*
D24*
X111500000Y-80500000D03*
X126100000Y-80500000D03*
%TD*%
D36*
%TO.C,CN2*%
X26065000Y-153920000D03*
X21025000Y-153920000D03*
X26065000Y-156460000D03*
X21025000Y-156460000D03*
X26065000Y-159000000D03*
X21025000Y-159000000D03*
%TD*%
D37*
%TO.C,J5*%
X100660000Y-61165000D03*
X104160000Y-61165000D03*
D38*
X101810000Y-57390000D03*
X103010000Y-57390000D03*
%TD*%
D13*
%TO.C,C9*%
X90030000Y-23950000D03*
X90670000Y-23950000D03*
%TD*%
%TO.C,C16*%
X101830000Y-22200000D03*
X102470000Y-22200000D03*
%TD*%
D39*
%TO.C,U7*%
X92782500Y-47590000D03*
X92782500Y-48090000D03*
X92782500Y-48590000D03*
X95657500Y-48590000D03*
X95657500Y-48090000D03*
X95657500Y-47590000D03*
D40*
X94220000Y-48090000D03*
%TD*%
D30*
%TO.C,Q4*%
X118053000Y-55930000D03*
D31*
X118310000Y-55930000D03*
D30*
X118568000Y-55930000D03*
%TD*%
D41*
%TO.C,J2*%
X107555000Y-58725000D03*
D42*
X109030000Y-60250000D03*
X106080000Y-60250000D03*
%TD*%
D13*
%TO.C,R7*%
X121095000Y-44275000D03*
X121735000Y-44275000D03*
%TD*%
%TO.C,R9*%
X142085000Y-69995000D03*
X142725000Y-69995000D03*
%TD*%
D43*
%TO.C,J4*%
X28625000Y-138750000D03*
X28625000Y-143250000D03*
D44*
X26025000Y-137500000D03*
X26025000Y-140000000D03*
X26025000Y-142000000D03*
X26025000Y-144500000D03*
D45*
X28625000Y-135150000D03*
X28625000Y-146850000D03*
%TD*%
M02*
