%TF.GenerationSoftware,KiCad,Pcbnew,10.0.3*%
%TF.CreationDate,2026-07-30T22:23:19-04:00*%
%TF.ProjectId,Pangotag_PCB,50616e67-6f74-4616-975f-5043422e6b69,rev?*%
%TF.SameCoordinates,Original*%
%TF.FileFunction,Soldermask,Bot*%
%TF.FilePolarity,Negative*%
%FSLAX46Y46*%
G04 Gerber Fmt 4.6, Leading zero omitted, Abs format (unit mm)*
G04 Created by KiCad (PCBNEW 10.0.3) date 2026-07-30 22:23:19*
%MOMM*%
%LPD*%
G01*
G04 APERTURE LIST*
G04 Aperture macros list*
%AMRoundRect*
0 Rectangle with rounded corners*
0 $1 Rounding radius*
0 $2 $3 $4 $5 $6 $7 $8 $9 X,Y pos of 4 corners*
0 Add a 4 corners polygon primitive as box body*
4,1,4,$2,$3,$4,$5,$6,$7,$8,$9,$2,$3,0*
0 Add four circle primitives for the rounded corners*
1,1,$1+$1,$2,$3*
1,1,$1+$1,$4,$5*
1,1,$1+$1,$6,$7*
1,1,$1+$1,$8,$9*
0 Add four rect primitives between the rounded corners*
20,1,$1+$1,$2,$3,$4,$5,0*
20,1,$1+$1,$4,$5,$6,$7,0*
20,1,$1+$1,$6,$7,$8,$9,0*
20,1,$1+$1,$8,$9,$2,$3,0*%
G04 Aperture macros list end*
%ADD10C,0.230000*%
%ADD11RoundRect,0.218750X0.218750X0.381250X-0.218750X0.381250X-0.218750X-0.381250X0.218750X-0.381250X0*%
%ADD12O,3.000000X1.600000*%
%ADD13RoundRect,0.100000X-0.100000X0.130000X-0.100000X-0.130000X0.100000X-0.130000X0.100000X0.130000X0*%
%ADD14RoundRect,0.100000X0.100000X-0.130000X0.100000X0.130000X-0.100000X0.130000X-0.100000X-0.130000X0*%
%ADD15RoundRect,0.100000X0.130000X0.100000X-0.130000X0.100000X-0.130000X-0.100000X0.130000X-0.100000X0*%
%ADD16RoundRect,0.100000X-0.130000X-0.100000X0.130000X-0.100000X0.130000X0.100000X-0.130000X0.100000X0*%
%ADD17R,0.200000X0.700000*%
%ADD18R,0.200000X0.600000*%
%ADD19R,0.600000X0.200000*%
%ADD20C,1.000000*%
%ADD21R,0.480000X0.145000*%
%ADD22R,0.480000X0.100000*%
%ADD23R,0.170000X0.350000*%
%ADD24C,1.700000*%
%ADD25R,1.700000X1.700000*%
%ADD26RoundRect,0.102000X0.600000X-0.300000X0.600000X0.300000X-0.600000X0.300000X-0.600000X-0.300000X0*%
%ADD27RoundRect,0.075000X0.075000X0.700000X-0.075000X0.700000X-0.075000X-0.700000X0.075000X-0.700000X0*%
%ADD28RoundRect,0.075000X0.700000X0.075000X-0.700000X0.075000X-0.700000X-0.075000X0.700000X-0.075000X0*%
%ADD29RoundRect,0.140000X-0.140000X-0.170000X0.140000X-0.170000X0.140000X0.170000X-0.140000X0.170000X0*%
%ADD30RoundRect,0.140000X0.140000X0.170000X-0.140000X0.170000X-0.140000X-0.170000X0.140000X-0.170000X0*%
%ADD31C,1.400000*%
%ADD32C,0.950000*%
%ADD33C,0.650000*%
G04 APERTURE END LIST*
%TO.C,U2*%
D10*
X107355000Y-50710000D02*
G75*
G02*
X107125000Y-50710000I-115000J0D01*
G01*
X107125000Y-50710000D02*
G75*
G02*
X107355000Y-50710000I115000J0D01*
G01*
X107355000Y-51210000D02*
G75*
G02*
X107125000Y-51210000I-115000J0D01*
G01*
X107125000Y-51210000D02*
G75*
G02*
X107355000Y-51210000I115000J0D01*
G01*
X107355000Y-51710000D02*
G75*
G02*
X107125000Y-51710000I-115000J0D01*
G01*
X107125000Y-51710000D02*
G75*
G02*
X107355000Y-51710000I115000J0D01*
G01*
X107355000Y-52210000D02*
G75*
G02*
X107125000Y-52210000I-115000J0D01*
G01*
X107125000Y-52210000D02*
G75*
G02*
X107355000Y-52210000I115000J0D01*
G01*
X107355000Y-52710000D02*
G75*
G02*
X107125000Y-52710000I-115000J0D01*
G01*
X107125000Y-52710000D02*
G75*
G02*
X107355000Y-52710000I115000J0D01*
G01*
X107355000Y-53210000D02*
G75*
G02*
X107125000Y-53210000I-115000J0D01*
G01*
X107125000Y-53210000D02*
G75*
G02*
X107355000Y-53210000I115000J0D01*
G01*
X107355000Y-53710000D02*
G75*
G02*
X107125000Y-53710000I-115000J0D01*
G01*
X107125000Y-53710000D02*
G75*
G02*
X107355000Y-53710000I115000J0D01*
G01*
X107355000Y-54210000D02*
G75*
G02*
X107125000Y-54210000I-115000J0D01*
G01*
X107125000Y-54210000D02*
G75*
G02*
X107355000Y-54210000I115000J0D01*
G01*
X107355000Y-54710000D02*
G75*
G02*
X107125000Y-54710000I-115000J0D01*
G01*
X107125000Y-54710000D02*
G75*
G02*
X107355000Y-54710000I115000J0D01*
G01*
X107355000Y-55210000D02*
G75*
G02*
X107125000Y-55210000I-115000J0D01*
G01*
X107125000Y-55210000D02*
G75*
G02*
X107355000Y-55210000I115000J0D01*
G01*
X107355000Y-55710000D02*
G75*
G02*
X107125000Y-55710000I-115000J0D01*
G01*
X107125000Y-55710000D02*
G75*
G02*
X107355000Y-55710000I115000J0D01*
G01*
X107355000Y-56210000D02*
G75*
G02*
X107125000Y-56210000I-115000J0D01*
G01*
X107125000Y-56210000D02*
G75*
G02*
X107355000Y-56210000I115000J0D01*
G01*
X107355000Y-56710000D02*
G75*
G02*
X107125000Y-56710000I-115000J0D01*
G01*
X107125000Y-56710000D02*
G75*
G02*
X107355000Y-56710000I115000J0D01*
G01*
X107355000Y-57210000D02*
G75*
G02*
X107125000Y-57210000I-115000J0D01*
G01*
X107125000Y-57210000D02*
G75*
G02*
X107355000Y-57210000I115000J0D01*
G01*
X107855000Y-50710000D02*
G75*
G02*
X107625000Y-50710000I-115000J0D01*
G01*
X107625000Y-50710000D02*
G75*
G02*
X107855000Y-50710000I115000J0D01*
G01*
X107855000Y-51210000D02*
G75*
G02*
X107625000Y-51210000I-115000J0D01*
G01*
X107625000Y-51210000D02*
G75*
G02*
X107855000Y-51210000I115000J0D01*
G01*
X107855000Y-51710000D02*
G75*
G02*
X107625000Y-51710000I-115000J0D01*
G01*
X107625000Y-51710000D02*
G75*
G02*
X107855000Y-51710000I115000J0D01*
G01*
X107855000Y-52210000D02*
G75*
G02*
X107625000Y-52210000I-115000J0D01*
G01*
X107625000Y-52210000D02*
G75*
G02*
X107855000Y-52210000I115000J0D01*
G01*
X107855000Y-52710000D02*
G75*
G02*
X107625000Y-52710000I-115000J0D01*
G01*
X107625000Y-52710000D02*
G75*
G02*
X107855000Y-52710000I115000J0D01*
G01*
X107855000Y-53210000D02*
G75*
G02*
X107625000Y-53210000I-115000J0D01*
G01*
X107625000Y-53210000D02*
G75*
G02*
X107855000Y-53210000I115000J0D01*
G01*
X107855000Y-53710000D02*
G75*
G02*
X107625000Y-53710000I-115000J0D01*
G01*
X107625000Y-53710000D02*
G75*
G02*
X107855000Y-53710000I115000J0D01*
G01*
X107855000Y-54210000D02*
G75*
G02*
X107625000Y-54210000I-115000J0D01*
G01*
X107625000Y-54210000D02*
G75*
G02*
X107855000Y-54210000I115000J0D01*
G01*
X107855000Y-54710000D02*
G75*
G02*
X107625000Y-54710000I-115000J0D01*
G01*
X107625000Y-54710000D02*
G75*
G02*
X107855000Y-54710000I115000J0D01*
G01*
X107855000Y-55210000D02*
G75*
G02*
X107625000Y-55210000I-115000J0D01*
G01*
X107625000Y-55210000D02*
G75*
G02*
X107855000Y-55210000I115000J0D01*
G01*
X107855000Y-55710000D02*
G75*
G02*
X107625000Y-55710000I-115000J0D01*
G01*
X107625000Y-55710000D02*
G75*
G02*
X107855000Y-55710000I115000J0D01*
G01*
X107855000Y-56210000D02*
G75*
G02*
X107625000Y-56210000I-115000J0D01*
G01*
X107625000Y-56210000D02*
G75*
G02*
X107855000Y-56210000I115000J0D01*
G01*
X107855000Y-56710000D02*
G75*
G02*
X107625000Y-56710000I-115000J0D01*
G01*
X107625000Y-56710000D02*
G75*
G02*
X107855000Y-56710000I115000J0D01*
G01*
X107855000Y-57210000D02*
G75*
G02*
X107625000Y-57210000I-115000J0D01*
G01*
X107625000Y-57210000D02*
G75*
G02*
X107855000Y-57210000I115000J0D01*
G01*
X108355000Y-50710000D02*
G75*
G02*
X108125000Y-50710000I-115000J0D01*
G01*
X108125000Y-50710000D02*
G75*
G02*
X108355000Y-50710000I115000J0D01*
G01*
X108355000Y-51210000D02*
G75*
G02*
X108125000Y-51210000I-115000J0D01*
G01*
X108125000Y-51210000D02*
G75*
G02*
X108355000Y-51210000I115000J0D01*
G01*
X108355000Y-51710000D02*
G75*
G02*
X108125000Y-51710000I-115000J0D01*
G01*
X108125000Y-51710000D02*
G75*
G02*
X108355000Y-51710000I115000J0D01*
G01*
X108355000Y-52210000D02*
G75*
G02*
X108125000Y-52210000I-115000J0D01*
G01*
X108125000Y-52210000D02*
G75*
G02*
X108355000Y-52210000I115000J0D01*
G01*
X108355000Y-52710000D02*
G75*
G02*
X108125000Y-52710000I-115000J0D01*
G01*
X108125000Y-52710000D02*
G75*
G02*
X108355000Y-52710000I115000J0D01*
G01*
X108355000Y-53210000D02*
G75*
G02*
X108125000Y-53210000I-115000J0D01*
G01*
X108125000Y-53210000D02*
G75*
G02*
X108355000Y-53210000I115000J0D01*
G01*
X108355000Y-53710000D02*
G75*
G02*
X108125000Y-53710000I-115000J0D01*
G01*
X108125000Y-53710000D02*
G75*
G02*
X108355000Y-53710000I115000J0D01*
G01*
X108355000Y-54210000D02*
G75*
G02*
X108125000Y-54210000I-115000J0D01*
G01*
X108125000Y-54210000D02*
G75*
G02*
X108355000Y-54210000I115000J0D01*
G01*
X108355000Y-54710000D02*
G75*
G02*
X108125000Y-54710000I-115000J0D01*
G01*
X108125000Y-54710000D02*
G75*
G02*
X108355000Y-54710000I115000J0D01*
G01*
X108355000Y-55210000D02*
G75*
G02*
X108125000Y-55210000I-115000J0D01*
G01*
X108125000Y-55210000D02*
G75*
G02*
X108355000Y-55210000I115000J0D01*
G01*
X108355000Y-55710000D02*
G75*
G02*
X108125000Y-55710000I-115000J0D01*
G01*
X108125000Y-55710000D02*
G75*
G02*
X108355000Y-55710000I115000J0D01*
G01*
X108355000Y-56210000D02*
G75*
G02*
X108125000Y-56210000I-115000J0D01*
G01*
X108125000Y-56210000D02*
G75*
G02*
X108355000Y-56210000I115000J0D01*
G01*
X108355000Y-56710000D02*
G75*
G02*
X108125000Y-56710000I-115000J0D01*
G01*
X108125000Y-56710000D02*
G75*
G02*
X108355000Y-56710000I115000J0D01*
G01*
X108355000Y-57210000D02*
G75*
G02*
X108125000Y-57210000I-115000J0D01*
G01*
X108125000Y-57210000D02*
G75*
G02*
X108355000Y-57210000I115000J0D01*
G01*
X108855000Y-50710000D02*
G75*
G02*
X108625000Y-50710000I-115000J0D01*
G01*
X108625000Y-50710000D02*
G75*
G02*
X108855000Y-50710000I115000J0D01*
G01*
X108855000Y-51210000D02*
G75*
G02*
X108625000Y-51210000I-115000J0D01*
G01*
X108625000Y-51210000D02*
G75*
G02*
X108855000Y-51210000I115000J0D01*
G01*
X108855000Y-51710000D02*
G75*
G02*
X108625000Y-51710000I-115000J0D01*
G01*
X108625000Y-51710000D02*
G75*
G02*
X108855000Y-51710000I115000J0D01*
G01*
X108855000Y-55710000D02*
G75*
G02*
X108625000Y-55710000I-115000J0D01*
G01*
X108625000Y-55710000D02*
G75*
G02*
X108855000Y-55710000I115000J0D01*
G01*
X108855000Y-56210000D02*
G75*
G02*
X108625000Y-56210000I-115000J0D01*
G01*
X108625000Y-56210000D02*
G75*
G02*
X108855000Y-56210000I115000J0D01*
G01*
X108855000Y-56710000D02*
G75*
G02*
X108625000Y-56710000I-115000J0D01*
G01*
X108625000Y-56710000D02*
G75*
G02*
X108855000Y-56710000I115000J0D01*
G01*
X108855000Y-57210000D02*
G75*
G02*
X108625000Y-57210000I-115000J0D01*
G01*
X108625000Y-57210000D02*
G75*
G02*
X108855000Y-57210000I115000J0D01*
G01*
X109355000Y-50710000D02*
G75*
G02*
X109125000Y-50710000I-115000J0D01*
G01*
X109125000Y-50710000D02*
G75*
G02*
X109355000Y-50710000I115000J0D01*
G01*
X109355000Y-51210000D02*
G75*
G02*
X109125000Y-51210000I-115000J0D01*
G01*
X109125000Y-51210000D02*
G75*
G02*
X109355000Y-51210000I115000J0D01*
G01*
X109355000Y-51710000D02*
G75*
G02*
X109125000Y-51710000I-115000J0D01*
G01*
X109125000Y-51710000D02*
G75*
G02*
X109355000Y-51710000I115000J0D01*
G01*
X109355000Y-52710000D02*
G75*
G02*
X109125000Y-52710000I-115000J0D01*
G01*
X109125000Y-52710000D02*
G75*
G02*
X109355000Y-52710000I115000J0D01*
G01*
X109355000Y-53210000D02*
G75*
G02*
X109125000Y-53210000I-115000J0D01*
G01*
X109125000Y-53210000D02*
G75*
G02*
X109355000Y-53210000I115000J0D01*
G01*
X109355000Y-53710000D02*
G75*
G02*
X109125000Y-53710000I-115000J0D01*
G01*
X109125000Y-53710000D02*
G75*
G02*
X109355000Y-53710000I115000J0D01*
G01*
X109355000Y-54210000D02*
G75*
G02*
X109125000Y-54210000I-115000J0D01*
G01*
X109125000Y-54210000D02*
G75*
G02*
X109355000Y-54210000I115000J0D01*
G01*
X109355000Y-54710000D02*
G75*
G02*
X109125000Y-54710000I-115000J0D01*
G01*
X109125000Y-54710000D02*
G75*
G02*
X109355000Y-54710000I115000J0D01*
G01*
X109355000Y-55210000D02*
G75*
G02*
X109125000Y-55210000I-115000J0D01*
G01*
X109125000Y-55210000D02*
G75*
G02*
X109355000Y-55210000I115000J0D01*
G01*
X109355000Y-56210000D02*
G75*
G02*
X109125000Y-56210000I-115000J0D01*
G01*
X109125000Y-56210000D02*
G75*
G02*
X109355000Y-56210000I115000J0D01*
G01*
X109355000Y-56710000D02*
G75*
G02*
X109125000Y-56710000I-115000J0D01*
G01*
X109125000Y-56710000D02*
G75*
G02*
X109355000Y-56710000I115000J0D01*
G01*
X109355000Y-57210000D02*
G75*
G02*
X109125000Y-57210000I-115000J0D01*
G01*
X109125000Y-57210000D02*
G75*
G02*
X109355000Y-57210000I115000J0D01*
G01*
X109855000Y-50710000D02*
G75*
G02*
X109625000Y-50710000I-115000J0D01*
G01*
X109625000Y-50710000D02*
G75*
G02*
X109855000Y-50710000I115000J0D01*
G01*
X109855000Y-51210000D02*
G75*
G02*
X109625000Y-51210000I-115000J0D01*
G01*
X109625000Y-51210000D02*
G75*
G02*
X109855000Y-51210000I115000J0D01*
G01*
X109855000Y-51710000D02*
G75*
G02*
X109625000Y-51710000I-115000J0D01*
G01*
X109625000Y-51710000D02*
G75*
G02*
X109855000Y-51710000I115000J0D01*
G01*
X109855000Y-52710000D02*
G75*
G02*
X109625000Y-52710000I-115000J0D01*
G01*
X109625000Y-52710000D02*
G75*
G02*
X109855000Y-52710000I115000J0D01*
G01*
X109855000Y-55210000D02*
G75*
G02*
X109625000Y-55210000I-115000J0D01*
G01*
X109625000Y-55210000D02*
G75*
G02*
X109855000Y-55210000I115000J0D01*
G01*
X109855000Y-56210000D02*
G75*
G02*
X109625000Y-56210000I-115000J0D01*
G01*
X109625000Y-56210000D02*
G75*
G02*
X109855000Y-56210000I115000J0D01*
G01*
X109855000Y-56710000D02*
G75*
G02*
X109625000Y-56710000I-115000J0D01*
G01*
X109625000Y-56710000D02*
G75*
G02*
X109855000Y-56710000I115000J0D01*
G01*
X109855000Y-57210000D02*
G75*
G02*
X109625000Y-57210000I-115000J0D01*
G01*
X109625000Y-57210000D02*
G75*
G02*
X109855000Y-57210000I115000J0D01*
G01*
X110355000Y-50710000D02*
G75*
G02*
X110125000Y-50710000I-115000J0D01*
G01*
X110125000Y-50710000D02*
G75*
G02*
X110355000Y-50710000I115000J0D01*
G01*
X110355000Y-51210000D02*
G75*
G02*
X110125000Y-51210000I-115000J0D01*
G01*
X110125000Y-51210000D02*
G75*
G02*
X110355000Y-51210000I115000J0D01*
G01*
X110355000Y-51710000D02*
G75*
G02*
X110125000Y-51710000I-115000J0D01*
G01*
X110125000Y-51710000D02*
G75*
G02*
X110355000Y-51710000I115000J0D01*
G01*
X110355000Y-52710000D02*
G75*
G02*
X110125000Y-52710000I-115000J0D01*
G01*
X110125000Y-52710000D02*
G75*
G02*
X110355000Y-52710000I115000J0D01*
G01*
X110355000Y-55210000D02*
G75*
G02*
X110125000Y-55210000I-115000J0D01*
G01*
X110125000Y-55210000D02*
G75*
G02*
X110355000Y-55210000I115000J0D01*
G01*
X110355000Y-56210000D02*
G75*
G02*
X110125000Y-56210000I-115000J0D01*
G01*
X110125000Y-56210000D02*
G75*
G02*
X110355000Y-56210000I115000J0D01*
G01*
X110355000Y-56710000D02*
G75*
G02*
X110125000Y-56710000I-115000J0D01*
G01*
X110125000Y-56710000D02*
G75*
G02*
X110355000Y-56710000I115000J0D01*
G01*
X110355000Y-57210000D02*
G75*
G02*
X110125000Y-57210000I-115000J0D01*
G01*
X110125000Y-57210000D02*
G75*
G02*
X110355000Y-57210000I115000J0D01*
G01*
X110855000Y-50710000D02*
G75*
G02*
X110625000Y-50710000I-115000J0D01*
G01*
X110625000Y-50710000D02*
G75*
G02*
X110855000Y-50710000I115000J0D01*
G01*
X110855000Y-51210000D02*
G75*
G02*
X110625000Y-51210000I-115000J0D01*
G01*
X110625000Y-51210000D02*
G75*
G02*
X110855000Y-51210000I115000J0D01*
G01*
X110855000Y-51710000D02*
G75*
G02*
X110625000Y-51710000I-115000J0D01*
G01*
X110625000Y-51710000D02*
G75*
G02*
X110855000Y-51710000I115000J0D01*
G01*
X110855000Y-52710000D02*
G75*
G02*
X110625000Y-52710000I-115000J0D01*
G01*
X110625000Y-52710000D02*
G75*
G02*
X110855000Y-52710000I115000J0D01*
G01*
X110855000Y-55210000D02*
G75*
G02*
X110625000Y-55210000I-115000J0D01*
G01*
X110625000Y-55210000D02*
G75*
G02*
X110855000Y-55210000I115000J0D01*
G01*
X110855000Y-56210000D02*
G75*
G02*
X110625000Y-56210000I-115000J0D01*
G01*
X110625000Y-56210000D02*
G75*
G02*
X110855000Y-56210000I115000J0D01*
G01*
X110855000Y-56710000D02*
G75*
G02*
X110625000Y-56710000I-115000J0D01*
G01*
X110625000Y-56710000D02*
G75*
G02*
X110855000Y-56710000I115000J0D01*
G01*
X110855000Y-57210000D02*
G75*
G02*
X110625000Y-57210000I-115000J0D01*
G01*
X110625000Y-57210000D02*
G75*
G02*
X110855000Y-57210000I115000J0D01*
G01*
X111355000Y-50710000D02*
G75*
G02*
X111125000Y-50710000I-115000J0D01*
G01*
X111125000Y-50710000D02*
G75*
G02*
X111355000Y-50710000I115000J0D01*
G01*
X111355000Y-51210000D02*
G75*
G02*
X111125000Y-51210000I-115000J0D01*
G01*
X111125000Y-51210000D02*
G75*
G02*
X111355000Y-51210000I115000J0D01*
G01*
X111355000Y-51710000D02*
G75*
G02*
X111125000Y-51710000I-115000J0D01*
G01*
X111125000Y-51710000D02*
G75*
G02*
X111355000Y-51710000I115000J0D01*
G01*
X111355000Y-52710000D02*
G75*
G02*
X111125000Y-52710000I-115000J0D01*
G01*
X111125000Y-52710000D02*
G75*
G02*
X111355000Y-52710000I115000J0D01*
G01*
X111355000Y-55210000D02*
G75*
G02*
X111125000Y-55210000I-115000J0D01*
G01*
X111125000Y-55210000D02*
G75*
G02*
X111355000Y-55210000I115000J0D01*
G01*
X111355000Y-56210000D02*
G75*
G02*
X111125000Y-56210000I-115000J0D01*
G01*
X111125000Y-56210000D02*
G75*
G02*
X111355000Y-56210000I115000J0D01*
G01*
X111355000Y-56710000D02*
G75*
G02*
X111125000Y-56710000I-115000J0D01*
G01*
X111125000Y-56710000D02*
G75*
G02*
X111355000Y-56710000I115000J0D01*
G01*
X111355000Y-57210000D02*
G75*
G02*
X111125000Y-57210000I-115000J0D01*
G01*
X111125000Y-57210000D02*
G75*
G02*
X111355000Y-57210000I115000J0D01*
G01*
X111855000Y-50710000D02*
G75*
G02*
X111625000Y-50710000I-115000J0D01*
G01*
X111625000Y-50710000D02*
G75*
G02*
X111855000Y-50710000I115000J0D01*
G01*
X111855000Y-51210000D02*
G75*
G02*
X111625000Y-51210000I-115000J0D01*
G01*
X111625000Y-51210000D02*
G75*
G02*
X111855000Y-51210000I115000J0D01*
G01*
X111855000Y-51710000D02*
G75*
G02*
X111625000Y-51710000I-115000J0D01*
G01*
X111625000Y-51710000D02*
G75*
G02*
X111855000Y-51710000I115000J0D01*
G01*
X111855000Y-52710000D02*
G75*
G02*
X111625000Y-52710000I-115000J0D01*
G01*
X111625000Y-52710000D02*
G75*
G02*
X111855000Y-52710000I115000J0D01*
G01*
X111855000Y-53210000D02*
G75*
G02*
X111625000Y-53210000I-115000J0D01*
G01*
X111625000Y-53210000D02*
G75*
G02*
X111855000Y-53210000I115000J0D01*
G01*
X111855000Y-53710000D02*
G75*
G02*
X111625000Y-53710000I-115000J0D01*
G01*
X111625000Y-53710000D02*
G75*
G02*
X111855000Y-53710000I115000J0D01*
G01*
X111855000Y-54210000D02*
G75*
G02*
X111625000Y-54210000I-115000J0D01*
G01*
X111625000Y-54210000D02*
G75*
G02*
X111855000Y-54210000I115000J0D01*
G01*
X111855000Y-54710000D02*
G75*
G02*
X111625000Y-54710000I-115000J0D01*
G01*
X111625000Y-54710000D02*
G75*
G02*
X111855000Y-54710000I115000J0D01*
G01*
X111855000Y-55210000D02*
G75*
G02*
X111625000Y-55210000I-115000J0D01*
G01*
X111625000Y-55210000D02*
G75*
G02*
X111855000Y-55210000I115000J0D01*
G01*
X111855000Y-56210000D02*
G75*
G02*
X111625000Y-56210000I-115000J0D01*
G01*
X111625000Y-56210000D02*
G75*
G02*
X111855000Y-56210000I115000J0D01*
G01*
X111855000Y-56710000D02*
G75*
G02*
X111625000Y-56710000I-115000J0D01*
G01*
X111625000Y-56710000D02*
G75*
G02*
X111855000Y-56710000I115000J0D01*
G01*
X111855000Y-57210000D02*
G75*
G02*
X111625000Y-57210000I-115000J0D01*
G01*
X111625000Y-57210000D02*
G75*
G02*
X111855000Y-57210000I115000J0D01*
G01*
X112355000Y-50710000D02*
G75*
G02*
X112125000Y-50710000I-115000J0D01*
G01*
X112125000Y-50710000D02*
G75*
G02*
X112355000Y-50710000I115000J0D01*
G01*
X112355000Y-51210000D02*
G75*
G02*
X112125000Y-51210000I-115000J0D01*
G01*
X112125000Y-51210000D02*
G75*
G02*
X112355000Y-51210000I115000J0D01*
G01*
X112355000Y-51710000D02*
G75*
G02*
X112125000Y-51710000I-115000J0D01*
G01*
X112125000Y-51710000D02*
G75*
G02*
X112355000Y-51710000I115000J0D01*
G01*
X112355000Y-56210000D02*
G75*
G02*
X112125000Y-56210000I-115000J0D01*
G01*
X112125000Y-56210000D02*
G75*
G02*
X112355000Y-56210000I115000J0D01*
G01*
X112355000Y-56710000D02*
G75*
G02*
X112125000Y-56710000I-115000J0D01*
G01*
X112125000Y-56710000D02*
G75*
G02*
X112355000Y-56710000I115000J0D01*
G01*
X112355000Y-57210000D02*
G75*
G02*
X112125000Y-57210000I-115000J0D01*
G01*
X112125000Y-57210000D02*
G75*
G02*
X112355000Y-57210000I115000J0D01*
G01*
X112855000Y-50710000D02*
G75*
G02*
X112625000Y-50710000I-115000J0D01*
G01*
X112625000Y-50710000D02*
G75*
G02*
X112855000Y-50710000I115000J0D01*
G01*
X112855000Y-51210000D02*
G75*
G02*
X112625000Y-51210000I-115000J0D01*
G01*
X112625000Y-51210000D02*
G75*
G02*
X112855000Y-51210000I115000J0D01*
G01*
X112855000Y-51710000D02*
G75*
G02*
X112625000Y-51710000I-115000J0D01*
G01*
X112625000Y-51710000D02*
G75*
G02*
X112855000Y-51710000I115000J0D01*
G01*
X112855000Y-52210000D02*
G75*
G02*
X112625000Y-52210000I-115000J0D01*
G01*
X112625000Y-52210000D02*
G75*
G02*
X112855000Y-52210000I115000J0D01*
G01*
X112855000Y-52710000D02*
G75*
G02*
X112625000Y-52710000I-115000J0D01*
G01*
X112625000Y-52710000D02*
G75*
G02*
X112855000Y-52710000I115000J0D01*
G01*
X112855000Y-53210000D02*
G75*
G02*
X112625000Y-53210000I-115000J0D01*
G01*
X112625000Y-53210000D02*
G75*
G02*
X112855000Y-53210000I115000J0D01*
G01*
X112855000Y-53710000D02*
G75*
G02*
X112625000Y-53710000I-115000J0D01*
G01*
X112625000Y-53710000D02*
G75*
G02*
X112855000Y-53710000I115000J0D01*
G01*
X112855000Y-54210000D02*
G75*
G02*
X112625000Y-54210000I-115000J0D01*
G01*
X112625000Y-54210000D02*
G75*
G02*
X112855000Y-54210000I115000J0D01*
G01*
X112855000Y-54710000D02*
G75*
G02*
X112625000Y-54710000I-115000J0D01*
G01*
X112625000Y-54710000D02*
G75*
G02*
X112855000Y-54710000I115000J0D01*
G01*
X112855000Y-55210000D02*
G75*
G02*
X112625000Y-55210000I-115000J0D01*
G01*
X112625000Y-55210000D02*
G75*
G02*
X112855000Y-55210000I115000J0D01*
G01*
X112855000Y-55710000D02*
G75*
G02*
X112625000Y-55710000I-115000J0D01*
G01*
X112625000Y-55710000D02*
G75*
G02*
X112855000Y-55710000I115000J0D01*
G01*
X112855000Y-56210000D02*
G75*
G02*
X112625000Y-56210000I-115000J0D01*
G01*
X112625000Y-56210000D02*
G75*
G02*
X112855000Y-56210000I115000J0D01*
G01*
X112855000Y-56710000D02*
G75*
G02*
X112625000Y-56710000I-115000J0D01*
G01*
X112625000Y-56710000D02*
G75*
G02*
X112855000Y-56710000I115000J0D01*
G01*
X112855000Y-57210000D02*
G75*
G02*
X112625000Y-57210000I-115000J0D01*
G01*
X112625000Y-57210000D02*
G75*
G02*
X112855000Y-57210000I115000J0D01*
G01*
X113355000Y-50710000D02*
G75*
G02*
X113125000Y-50710000I-115000J0D01*
G01*
X113125000Y-50710000D02*
G75*
G02*
X113355000Y-50710000I115000J0D01*
G01*
X113355000Y-51210000D02*
G75*
G02*
X113125000Y-51210000I-115000J0D01*
G01*
X113125000Y-51210000D02*
G75*
G02*
X113355000Y-51210000I115000J0D01*
G01*
X113355000Y-51710000D02*
G75*
G02*
X113125000Y-51710000I-115000J0D01*
G01*
X113125000Y-51710000D02*
G75*
G02*
X113355000Y-51710000I115000J0D01*
G01*
X113355000Y-52210000D02*
G75*
G02*
X113125000Y-52210000I-115000J0D01*
G01*
X113125000Y-52210000D02*
G75*
G02*
X113355000Y-52210000I115000J0D01*
G01*
X113355000Y-52710000D02*
G75*
G02*
X113125000Y-52710000I-115000J0D01*
G01*
X113125000Y-52710000D02*
G75*
G02*
X113355000Y-52710000I115000J0D01*
G01*
X113355000Y-53210000D02*
G75*
G02*
X113125000Y-53210000I-115000J0D01*
G01*
X113125000Y-53210000D02*
G75*
G02*
X113355000Y-53210000I115000J0D01*
G01*
X113355000Y-53710000D02*
G75*
G02*
X113125000Y-53710000I-115000J0D01*
G01*
X113125000Y-53710000D02*
G75*
G02*
X113355000Y-53710000I115000J0D01*
G01*
X113355000Y-54210000D02*
G75*
G02*
X113125000Y-54210000I-115000J0D01*
G01*
X113125000Y-54210000D02*
G75*
G02*
X113355000Y-54210000I115000J0D01*
G01*
X113355000Y-54710000D02*
G75*
G02*
X113125000Y-54710000I-115000J0D01*
G01*
X113125000Y-54710000D02*
G75*
G02*
X113355000Y-54710000I115000J0D01*
G01*
X113355000Y-55210000D02*
G75*
G02*
X113125000Y-55210000I-115000J0D01*
G01*
X113125000Y-55210000D02*
G75*
G02*
X113355000Y-55210000I115000J0D01*
G01*
X113355000Y-55710000D02*
G75*
G02*
X113125000Y-55710000I-115000J0D01*
G01*
X113125000Y-55710000D02*
G75*
G02*
X113355000Y-55710000I115000J0D01*
G01*
X113355000Y-56210000D02*
G75*
G02*
X113125000Y-56210000I-115000J0D01*
G01*
X113125000Y-56210000D02*
G75*
G02*
X113355000Y-56210000I115000J0D01*
G01*
X113355000Y-56710000D02*
G75*
G02*
X113125000Y-56710000I-115000J0D01*
G01*
X113125000Y-56710000D02*
G75*
G02*
X113355000Y-56710000I115000J0D01*
G01*
X113355000Y-57210000D02*
G75*
G02*
X113125000Y-57210000I-115000J0D01*
G01*
X113125000Y-57210000D02*
G75*
G02*
X113355000Y-57210000I115000J0D01*
G01*
X113855000Y-50710000D02*
G75*
G02*
X113625000Y-50710000I-115000J0D01*
G01*
X113625000Y-50710000D02*
G75*
G02*
X113855000Y-50710000I115000J0D01*
G01*
X113855000Y-51210000D02*
G75*
G02*
X113625000Y-51210000I-115000J0D01*
G01*
X113625000Y-51210000D02*
G75*
G02*
X113855000Y-51210000I115000J0D01*
G01*
X113855000Y-51710000D02*
G75*
G02*
X113625000Y-51710000I-115000J0D01*
G01*
X113625000Y-51710000D02*
G75*
G02*
X113855000Y-51710000I115000J0D01*
G01*
X113855000Y-52210000D02*
G75*
G02*
X113625000Y-52210000I-115000J0D01*
G01*
X113625000Y-52210000D02*
G75*
G02*
X113855000Y-52210000I115000J0D01*
G01*
X113855000Y-52710000D02*
G75*
G02*
X113625000Y-52710000I-115000J0D01*
G01*
X113625000Y-52710000D02*
G75*
G02*
X113855000Y-52710000I115000J0D01*
G01*
X113855000Y-53210000D02*
G75*
G02*
X113625000Y-53210000I-115000J0D01*
G01*
X113625000Y-53210000D02*
G75*
G02*
X113855000Y-53210000I115000J0D01*
G01*
X113855000Y-53710000D02*
G75*
G02*
X113625000Y-53710000I-115000J0D01*
G01*
X113625000Y-53710000D02*
G75*
G02*
X113855000Y-53710000I115000J0D01*
G01*
X113855000Y-54210000D02*
G75*
G02*
X113625000Y-54210000I-115000J0D01*
G01*
X113625000Y-54210000D02*
G75*
G02*
X113855000Y-54210000I115000J0D01*
G01*
X113855000Y-54710000D02*
G75*
G02*
X113625000Y-54710000I-115000J0D01*
G01*
X113625000Y-54710000D02*
G75*
G02*
X113855000Y-54710000I115000J0D01*
G01*
X113855000Y-55210000D02*
G75*
G02*
X113625000Y-55210000I-115000J0D01*
G01*
X113625000Y-55210000D02*
G75*
G02*
X113855000Y-55210000I115000J0D01*
G01*
X113855000Y-55710000D02*
G75*
G02*
X113625000Y-55710000I-115000J0D01*
G01*
X113625000Y-55710000D02*
G75*
G02*
X113855000Y-55710000I115000J0D01*
G01*
X113855000Y-56210000D02*
G75*
G02*
X113625000Y-56210000I-115000J0D01*
G01*
X113625000Y-56210000D02*
G75*
G02*
X113855000Y-56210000I115000J0D01*
G01*
X113855000Y-56710000D02*
G75*
G02*
X113625000Y-56710000I-115000J0D01*
G01*
X113625000Y-56710000D02*
G75*
G02*
X113855000Y-56710000I115000J0D01*
G01*
X113855000Y-57210000D02*
G75*
G02*
X113625000Y-57210000I-115000J0D01*
G01*
X113625000Y-57210000D02*
G75*
G02*
X113855000Y-57210000I115000J0D01*
G01*
%TD*%
D11*
%TO.C,L6*%
X94462500Y-51840000D03*
X92337500Y-51840000D03*
%TD*%
D12*
%TO.C,J4*%
X57635000Y-48000000D03*
X57635000Y-55800000D03*
%TD*%
D13*
%TO.C,C3*%
X102910000Y-58945000D03*
X102910000Y-59585000D03*
%TD*%
D14*
%TO.C,C16*%
X104370000Y-41790000D03*
X104370000Y-41150000D03*
%TD*%
D13*
%TO.C,C17*%
X106540000Y-38190000D03*
X106540000Y-38830000D03*
%TD*%
D15*
%TO.C,C28*%
X99065000Y-57450000D03*
X98425000Y-57450000D03*
%TD*%
D14*
%TO.C,C29*%
X89020000Y-39940000D03*
X89020000Y-39300000D03*
%TD*%
%TO.C,C31*%
X95640000Y-54040000D03*
X95640000Y-53400000D03*
%TD*%
D16*
%TO.C,C32*%
X99475000Y-59970000D03*
X100115000Y-59970000D03*
%TD*%
D13*
%TO.C,C36*%
X103690000Y-44890000D03*
X103690000Y-45530000D03*
%TD*%
D15*
%TO.C,C37*%
X102415000Y-35990000D03*
X101775000Y-35990000D03*
%TD*%
D13*
%TO.C,C38*%
X104800000Y-44900000D03*
X104800000Y-45540000D03*
%TD*%
D14*
%TO.C,C39*%
X90490000Y-48805000D03*
X90490000Y-48165000D03*
%TD*%
D15*
%TO.C,C40*%
X99650000Y-50370000D03*
X99010000Y-50370000D03*
%TD*%
D16*
%TO.C,C41*%
X99090000Y-35450000D03*
X99730000Y-35450000D03*
%TD*%
D14*
%TO.C,C42*%
X90870000Y-50820000D03*
X90870000Y-50180000D03*
%TD*%
D17*
%TO.C,IC5*%
X95505000Y-60450000D03*
D18*
X95105000Y-60500000D03*
X94705000Y-60500000D03*
X94305000Y-60500000D03*
D19*
X93705000Y-60300000D03*
X93705000Y-59900000D03*
X93705000Y-59500000D03*
X93705000Y-59100000D03*
D18*
X94305000Y-58900000D03*
X94705000Y-58900000D03*
X95105000Y-58900000D03*
X95505000Y-58900000D03*
D19*
X96105000Y-59100000D03*
X96105000Y-59500000D03*
X96105000Y-59900000D03*
X96105000Y-60300000D03*
%TD*%
D17*
%TO.C,IC6*%
X91575000Y-56390000D03*
D18*
X91175000Y-56440000D03*
X90775000Y-56440000D03*
X90375000Y-56440000D03*
D19*
X89775000Y-56240000D03*
X89775000Y-55840000D03*
X89775000Y-55440000D03*
X89775000Y-55040000D03*
D18*
X90375000Y-54840000D03*
X90775000Y-54840000D03*
X91175000Y-54840000D03*
X91575000Y-54840000D03*
D19*
X92175000Y-55040000D03*
X92175000Y-55440000D03*
X92175000Y-55840000D03*
X92175000Y-56240000D03*
%TD*%
D20*
%TO.C,J3*%
X66600000Y-52450000D03*
X71000000Y-52450000D03*
%TD*%
D14*
%TO.C,R6*%
X112830000Y-37732500D03*
X112830000Y-37092500D03*
%TD*%
%TO.C,R7*%
X113760000Y-37752500D03*
X113760000Y-37112500D03*
%TD*%
%TO.C,R8*%
X114760000Y-37802500D03*
X114760000Y-37162500D03*
%TD*%
%TO.C,R9*%
X115790000Y-37812500D03*
X115790000Y-37172500D03*
%TD*%
D15*
%TO.C,R15*%
X107135000Y-42345000D03*
X106495000Y-42345000D03*
%TD*%
D16*
%TO.C,R16*%
X106480000Y-43160000D03*
X107120000Y-43160000D03*
%TD*%
D21*
%TO.C,Q4*%
X115549000Y-38844500D03*
D22*
X115549000Y-39102500D03*
D21*
X115549000Y-39359500D03*
%TD*%
%TO.C,Q3*%
X114669000Y-38848500D03*
D22*
X114669000Y-39106500D03*
D21*
X114669000Y-39363500D03*
%TD*%
%TO.C,Q1*%
X113119000Y-38833500D03*
D22*
X113119000Y-39091500D03*
D21*
X113119000Y-39348500D03*
%TD*%
%TO.C,Q2*%
X113899000Y-38831500D03*
D22*
X113899000Y-39089500D03*
D21*
X113899000Y-39346500D03*
%TD*%
D23*
%TO.C,IC2*%
X100450000Y-55910000D03*
X100800000Y-55910000D03*
X101150000Y-55910000D03*
X101150000Y-54860000D03*
X100800000Y-54860000D03*
X100450000Y-54860000D03*
%TD*%
D24*
%TO.C,CN2*%
X71730000Y-40260000D03*
X71730000Y-42800000D03*
X69190000Y-40260000D03*
X69190000Y-42800000D03*
X66650000Y-40260000D03*
D25*
X66650000Y-42800000D03*
%TD*%
D26*
%TO.C,Y1*%
X106635000Y-40150000D03*
X106635000Y-41350000D03*
%TD*%
D27*
%TO.C,U8*%
X100075000Y-37465000D03*
X99575000Y-37465000D03*
X99075000Y-37465000D03*
X98575000Y-37465000D03*
X98075000Y-37465000D03*
X97575000Y-37465000D03*
X97075000Y-37465000D03*
X96575000Y-37465000D03*
X96075000Y-37465000D03*
X95575000Y-37465000D03*
X95075000Y-37465000D03*
X94575000Y-37465000D03*
X94075000Y-37465000D03*
X93575000Y-37465000D03*
X93075000Y-37465000D03*
X92575000Y-37465000D03*
D28*
X90650000Y-39390000D03*
X90650000Y-39890000D03*
X90650000Y-40390000D03*
X90650000Y-40890000D03*
X90650000Y-41390000D03*
X90650000Y-41890000D03*
X90650000Y-42390000D03*
X90650000Y-42890000D03*
X90650000Y-43390000D03*
X90650000Y-43890000D03*
X90650000Y-44390000D03*
X90650000Y-44890000D03*
X90650000Y-45390000D03*
X90650000Y-45890000D03*
X90650000Y-46390000D03*
X90650000Y-46890000D03*
D27*
X92575000Y-48815000D03*
X93075000Y-48815000D03*
X93575000Y-48815000D03*
X94075000Y-48815000D03*
X94575000Y-48815000D03*
X95075000Y-48815000D03*
X95575000Y-48815000D03*
X96075000Y-48815000D03*
X96575000Y-48815000D03*
X97075000Y-48815000D03*
X97575000Y-48815000D03*
X98075000Y-48815000D03*
X98575000Y-48815000D03*
X99075000Y-48815000D03*
X99575000Y-48815000D03*
X100075000Y-48815000D03*
D28*
X102000000Y-46890000D03*
X102000000Y-46390000D03*
X102000000Y-45890000D03*
X102000000Y-45390000D03*
X102000000Y-44890000D03*
X102000000Y-44390000D03*
X102000000Y-43890000D03*
X102000000Y-43390000D03*
X102000000Y-42890000D03*
X102000000Y-42390000D03*
X102000000Y-41890000D03*
X102000000Y-41390000D03*
X102000000Y-40890000D03*
X102000000Y-40390000D03*
X102000000Y-39890000D03*
X102000000Y-39390000D03*
%TD*%
D29*
%TO.C,C30*%
X93260000Y-50530000D03*
X94220000Y-50530000D03*
%TD*%
D30*
%TO.C,C35*%
X99800000Y-51180000D03*
X98840000Y-51180000D03*
%TD*%
D31*
%TO.C,J1*%
X98125000Y-58980000D03*
X97765000Y-53030000D03*
X89505000Y-53030000D03*
X89145000Y-58980000D03*
D32*
X97235000Y-51780000D03*
D33*
X90035000Y-51780000D03*
%TD*%
M02*
