%TF.GenerationSoftware,KiCad,Pcbnew,10.0.3*%
%TF.CreationDate,2026-07-17T23:31:57-04:00*%
%TF.ProjectId,Pangotag_PCB,50616e67-6f74-4616-975f-5043422e6b69,rev?*%
%TF.SameCoordinates,Original*%
%TF.FileFunction,Copper,L1,Top*%
%TF.FilePolarity,Positive*%
%FSLAX46Y46*%
G04 Gerber Fmt 4.6, Leading zero omitted, Abs format (unit mm)*
G04 Created by KiCad (PCBNEW 10.0.3) date 2026-07-17 23:31:57*
%MOMM*%
%LPD*%
G01*
G04 APERTURE LIST*
G04 Aperture macros list*
%AMRoundRect*
0 Rectangle with rounded corners*
0 $1 Rounding radius*
0 $2 $3 $4 $5 $6 $7 $8 $9 X,Y pos of 4 corners*
0 Add a 4 corners polygon primitive as box body*
4,1,4,$2,$3,$4,$5,$6,$7,$8,$9,$2,$3,0*
0 Add four circle primitives for the rounded corners*
1,1,$1+$1,$2,$3*
1,1,$1+$1,$4,$5*
1,1,$1+$1,$6,$7*
1,1,$1+$1,$8,$9*
0 Add four rect primitives between the rounded corners*
20,1,$1+$1,$2,$3,$4,$5,0*
20,1,$1+$1,$4,$5,$6,$7,0*
20,1,$1+$1,$6,$7,$8,$9,0*
20,1,$1+$1,$8,$9,$2,$3,0*%
G04 Aperture macros list end*
%TA.AperFunction,SMDPad,CuDef*%
%ADD10RoundRect,0.100000X-0.100000X0.130000X-0.100000X-0.130000X0.100000X-0.130000X0.100000X0.130000X0*%
%TD*%
%TA.AperFunction,BGAPad,CuDef*%
%ADD11C,0.270000*%
%TD*%
%TA.AperFunction,SMDPad,CuDef*%
%ADD12RoundRect,0.100000X-0.130000X-0.100000X0.130000X-0.100000X0.130000X0.100000X-0.130000X0.100000X0*%
%TD*%
%TA.AperFunction,SMDPad,CuDef*%
%ADD13RoundRect,0.075000X-0.075000X-0.275000X0.075000X-0.275000X0.075000X0.275000X-0.075000X0.275000X0*%
%TD*%
%TA.AperFunction,ComponentPad*%
%ADD14C,1.400000*%
%TD*%
%TA.AperFunction,SMDPad,CuDef*%
%ADD15R,1.700000X0.900000*%
%TD*%
%TA.AperFunction,SMDPad,CuDef*%
%ADD16C,0.250000*%
%TD*%
%TA.AperFunction,SMDPad,CuDef*%
%ADD17C,0.148750*%
%TD*%
%TA.AperFunction,SMDPad,CuDef*%
%ADD18R,0.600000X1.200000*%
%TD*%
%TA.AperFunction,SMDPad,CuDef*%
%ADD19R,0.250000X0.275000*%
%TD*%
%TA.AperFunction,SMDPad,CuDef*%
%ADD20R,0.275000X0.250000*%
%TD*%
%TA.AperFunction,SMDPad,CuDef*%
%ADD21R,3.960000X3.960000*%
%TD*%
%TA.AperFunction,SMDPad,CuDef*%
%ADD22R,3.180000X3.180000*%
%TD*%
%TA.AperFunction,SMDPad,CuDef*%
%ADD23RoundRect,0.125000X-0.125000X-0.875000X0.125000X-0.875000X0.125000X0.875000X-0.125000X0.875000X0*%
%TD*%
%TA.AperFunction,SMDPad,CuDef*%
%ADD24RoundRect,0.250000X-0.750000X-0.600000X0.750000X-0.600000X0.750000X0.600000X-0.750000X0.600000X0*%
%TD*%
%TA.AperFunction,SMDPad,CuDef*%
%ADD25RoundRect,0.095000X-0.095000X-0.405000X0.095000X-0.405000X0.095000X0.405000X-0.095000X0.405000X0*%
%TD*%
%TA.AperFunction,SMDPad,CuDef*%
%ADD26RoundRect,0.175000X-0.175000X-0.400000X0.175000X-0.400000X0.175000X0.400000X-0.175000X0.400000X0*%
%TD*%
%TA.AperFunction,SMDPad,CuDef*%
%ADD27R,0.145000X0.480000*%
%TD*%
%TA.AperFunction,SMDPad,CuDef*%
%ADD28R,0.100000X0.480000*%
%TD*%
%TA.AperFunction,SMDPad,CuDef*%
%ADD29R,0.482600X0.254000*%
%TD*%
%TA.AperFunction,SMDPad,CuDef*%
%ADD30R,0.254000X0.482600*%
%TD*%
%TA.AperFunction,SMDPad,CuDef*%
%ADD31C,0.200000*%
%TD*%
%TA.AperFunction,BGAPad,CuDef*%
%ADD32C,0.225000*%
%TD*%
%TA.AperFunction,SMDPad,CuDef*%
%ADD33R,3.000000X1.000000*%
%TD*%
%TA.AperFunction,SMDPad,CuDef*%
%ADD34RoundRect,0.175000X-0.175000X-0.225000X0.175000X-0.225000X0.175000X0.225000X-0.175000X0.225000X0*%
%TD*%
%TA.AperFunction,SMDPad,CuDef*%
%ADD35RoundRect,0.150000X-0.150000X-0.275000X0.150000X-0.275000X0.150000X0.275000X-0.150000X0.275000X0*%
%TD*%
%TA.AperFunction,SMDPad,CuDef*%
%ADD36RoundRect,0.062500X-0.350000X-0.062500X0.350000X-0.062500X0.350000X0.062500X-0.350000X0.062500X0*%
%TD*%
%TA.AperFunction,HeatsinkPad*%
%ADD37R,1.650000X1.350000*%
%TD*%
%TA.AperFunction,SMDPad,CuDef*%
%ADD38RoundRect,0.250000X-0.250000X0.275000X-0.250000X-0.275000X0.250000X-0.275000X0.250000X0.275000X0*%
%TD*%
%TA.AperFunction,SMDPad,CuDef*%
%ADD39RoundRect,0.250000X-0.275000X0.850000X-0.275000X-0.850000X0.275000X-0.850000X0.275000X0.850000X0*%
%TD*%
%TA.AperFunction,SMDPad,CuDef*%
%ADD40RoundRect,0.300000X-0.700000X-0.300000X0.700000X-0.300000X0.700000X0.300000X-0.700000X0.300000X0*%
%TD*%
%TA.AperFunction,ComponentPad*%
%ADD41O,3.200000X1.300000*%
%TD*%
G04 APERTURE END LIST*
D10*
%TO.P,R22,2*%
%TO.N,GND*%
X91530000Y-49895000D03*
%TO.P,R22,1*%
%TO.N,Net-(IC1-IN-)*%
X91530000Y-49255000D03*
%TD*%
D11*
%TO.P,U6,A1,GND_A1*%
%TO.N,GND*%
X108290000Y-51260000D03*
%TO.P,U6,A2,GND_A2*%
X108290000Y-51760000D03*
%TO.P,U6,A3,GND_A3*%
X108290000Y-52260000D03*
%TO.P,U6,A4,RTC_I_A4*%
%TO.N,unconnected-(U6-RTC_I-PadA4)*%
X108290000Y-52760000D03*
%TO.P,U6,A5,RTC_O_A5*%
%TO.N,GND*%
X108290000Y-53260000D03*
%TO.P,U6,A6,EXTINT_A6*%
%TO.N,GPS_EXTINT*%
X108290000Y-53760000D03*
%TO.P,U6,A7,TIMEPULSE_A7*%
%TO.N,Timepulse*%
X108290000Y-54260000D03*
%TO.P,U6,A8,GND_A8*%
%TO.N,GND*%
X108290000Y-54760000D03*
%TO.P,U6,A9,GND_A9*%
X108290000Y-55260000D03*
%TO.P,U6,B1,VCC_B1*%
%TO.N,+1V8*%
X107790000Y-51260000D03*
%TO.P,U6,B2,GND_B2*%
%TO.N,GND*%
X107790000Y-51760000D03*
%TO.P,U6,B8,GND_B8*%
X107790000Y-54760000D03*
%TO.P,U6,B9,RF_IN_B9*%
%TO.N,RF_IN*%
X107790000Y-55260000D03*
%TO.P,U6,C1,Reserved_C1*%
%TO.N,unconnected-(U6-Reserved-PadC1)*%
X107290000Y-51260000D03*
%TO.P,U6,C3,GND_C3*%
%TO.N,GND*%
X107290000Y-52260000D03*
%TO.P,U6,C4,~{RESET}_C4*%
%TO.N,unconnected-(U6-~{RESET}-PadC4)*%
X107290000Y-52760000D03*
%TO.P,U6,C5,Reserved_C5*%
%TO.N,unconnected-(U6-Reserved-PadC5)*%
X107290000Y-53260000D03*
%TO.P,U6,C6,VCC_RF_C6*%
%TO.N,VCC_RF*%
X107290000Y-53760000D03*
%TO.P,U6,C7,~{SAFEBOOT}_C7*%
%TO.N,unconnected-(U6-~{SAFEBOOT}-PadC7)*%
X107290000Y-54260000D03*
%TO.P,U6,C9,GND_C9*%
%TO.N,GND*%
X107290000Y-55260000D03*
%TO.P,U6,D1,SDA_D1*%
%TO.N,I2C1_SDA*%
X106790000Y-51260000D03*
%TO.P,U6,D2,Reserved_D2*%
%TO.N,unconnected-(U6-Reserved-PadD2)*%
X106790000Y-51760000D03*
%TO.P,U6,D9,Reserved_D9*%
%TO.N,unconnected-(U6-Reserved-PadD9)*%
X106790000Y-55260000D03*
%TO.P,U6,E1,SCL_E1*%
%TO.N,I2C1_SCL*%
X106290000Y-51260000D03*
%TO.P,U6,E2,Reserved_E2*%
%TO.N,unconnected-(U6-Reserved-PadE2)*%
X106290000Y-51760000D03*
%TO.P,U6,E3,GND_E3*%
%TO.N,GND*%
X106290000Y-52260000D03*
%TO.P,U6,E4,GND_E4*%
X106290000Y-52760000D03*
%TO.P,U6,E7,Reserved_E7*%
%TO.N,unconnected-(U6-Reserved-PadE7)*%
X106290000Y-54260000D03*
%TO.P,U6,E9,GND_E9*%
%TO.N,GND*%
X106290000Y-55260000D03*
%TO.P,U6,F1,GND_F1*%
X105790000Y-51260000D03*
%TO.P,U6,F3,GND_F3*%
X105790000Y-52260000D03*
%TO.P,U6,F4,GND_F4*%
X105790000Y-52760000D03*
%TO.P,U6,F7,PIO6_F7*%
%TO.N,unconnected-(U6-PIO6-PadF7)*%
X105790000Y-54260000D03*
%TO.P,U6,F9,Reserved_F9*%
%TO.N,unconnected-(U6-Reserved-PadF9)*%
X105790000Y-55260000D03*
%TO.P,U6,G1,TX_G1*%
%TO.N,USART1_RX*%
X105290000Y-51260000D03*
%TO.P,U6,G3,GND_G3*%
%TO.N,GND*%
X105290000Y-52260000D03*
%TO.P,U6,G4,GND_G4*%
X105290000Y-52760000D03*
%TO.P,U6,G5,GND_G5*%
X105290000Y-53260000D03*
%TO.P,U6,G6,GND_G6*%
X105290000Y-53760000D03*
%TO.P,U6,G7,Reserved_G7*%
%TO.N,unconnected-(U6-Reserved-PadG7)*%
X105290000Y-54260000D03*
%TO.P,U6,G9,Reserved_G9*%
%TO.N,unconnected-(U6-Reserved-PadG9)*%
X105290000Y-55260000D03*
%TO.P,U6,H1,RX_H1*%
%TO.N,USART1_TX*%
X104790000Y-51260000D03*
%TO.P,U6,H8,GND_H8*%
%TO.N,GND*%
X104790000Y-54760000D03*
%TO.P,U6,H9,LNA_EN_H9*%
%TO.N,unconnected-(U6-LNA_EN-PadH9)*%
X104790000Y-55260000D03*
%TO.P,U6,J1,Reserved_J1*%
%TO.N,unconnected-(U6-Reserved-PadJ1)*%
X104290000Y-51260000D03*
%TO.P,U6,J2,Reserved_J2*%
%TO.N,unconnected-(U6-Reserved-PadJ2)*%
X104290000Y-51760000D03*
%TO.P,U6,J3,Reserved_J3*%
%TO.N,unconnected-(U6-Reserved-PadJ3)*%
X104290000Y-52260000D03*
%TO.P,U6,J4,V_IO_J4*%
%TO.N,+1V8*%
X104290000Y-52760000D03*
%TO.P,U6,J5,V_BCKP_J5*%
X104290000Y-53260000D03*
%TO.P,U6,J6,VIO_SEL_J6*%
%TO.N,GND*%
X104290000Y-53760000D03*
%TO.P,U6,J7,Reserved_J7*%
%TO.N,unconnected-(U6-Reserved-PadJ7)*%
X104290000Y-54260000D03*
%TO.P,U6,J8,GND_J8*%
%TO.N,GND*%
X104290000Y-54760000D03*
%TO.P,U6,J9,GND_J9*%
X104290000Y-55260000D03*
%TD*%
D12*
%TO.P,C7,1*%
%TO.N,VDD2*%
X90030000Y-22200000D03*
%TO.P,C7,2*%
%TO.N,GND*%
X90670000Y-22200000D03*
%TD*%
%TO.P,R10,1,1_1*%
%TO.N,LED3*%
X142085000Y-71745000D03*
%TO.P,R10,2,2_2*%
%TO.N,Net-(D3-K)*%
X142725000Y-71745000D03*
%TD*%
%TO.P,R16,1*%
%TO.N,Net-(U4-VBAT)*%
X106730000Y-22200000D03*
%TO.P,R16,2*%
%TO.N,GND*%
X107370000Y-22200000D03*
%TD*%
%TO.P,R4,1,1_1*%
%TO.N,CC2*%
X104280000Y-29200000D03*
%TO.P,R4,2,2_2*%
%TO.N,GND*%
X104920000Y-29200000D03*
%TD*%
%TO.P,D3,1,K_1*%
%TO.N,Net-(D3-K)*%
X121330000Y-51275000D03*
%TO.P,D3,2,A_2*%
%TO.N,+3V3*%
X121970000Y-51275000D03*
%TD*%
D13*
%TO.P,J1,A1,GND_A1*%
%TO.N,GND*%
X91540000Y-51790000D03*
%TO.P,J1,A2,TX1+_A2*%
%TO.N,Net-(J1-TX1+)*%
X92040000Y-51790000D03*
%TO.P,J1,A3,TX1-_A3*%
%TO.N,Net-(J1-TX1-)*%
X92540000Y-51790000D03*
%TO.P,J1,A4,VBUS_A4*%
%TO.N,USB_OTG_VBUS*%
X93040000Y-51790000D03*
%TO.P,J1,A5,CC1_A5*%
%TO.N,CC1*%
X93540000Y-51790000D03*
%TO.P,J1,A6,D+_A6*%
%TO.N,USB_OTG_FS_DP*%
X94040000Y-51790000D03*
%TO.P,J1,A7,D-_A7*%
%TO.N,USB_OTG_FS_DM*%
X94540000Y-51790000D03*
%TO.P,J1,A8,SBU1_A8*%
%TO.N,Net-(J1-SBU1)*%
X95040000Y-51790000D03*
%TO.P,J1,A9,VBUS_A9*%
%TO.N,USB_OTG_VBUS*%
X95540000Y-51790000D03*
%TO.P,J1,A10,RX2-_A10*%
%TO.N,unconnected-(J1-RX2--PadA10)*%
X96040000Y-51790000D03*
%TO.P,J1,A11,RX2+_A11*%
%TO.N,Net-(J1-RX2+)*%
X96540000Y-51790000D03*
%TO.P,J1,A12,GND_A12*%
%TO.N,GND*%
X97040000Y-51790000D03*
%TO.P,J1,B1,GND_B1*%
X96790000Y-53490000D03*
%TO.P,J1,B2,TX2+_B2*%
%TO.N,Net-(J1-TX2+)*%
X96290000Y-53490000D03*
%TO.P,J1,B3,TX2-_B3*%
%TO.N,Net-(J1-TX2-)*%
X95790000Y-53490000D03*
%TO.P,J1,B4,VBUS_B4*%
%TO.N,USB_OTG_VBUS*%
X95290000Y-53490000D03*
%TO.P,J1,B5,CC2_B5*%
%TO.N,CC2*%
X94790000Y-53490000D03*
%TO.P,J1,B6,D+_B6*%
%TO.N,USB_OTG_FS_DP*%
X94290000Y-53490000D03*
%TO.P,J1,B7,D-_B7*%
%TO.N,USB_OTG_FS_DM*%
X93790000Y-53490000D03*
%TO.P,J1,B8,SBU2_B8*%
%TO.N,Net-(J1-SBU2)*%
X93290000Y-53490000D03*
%TO.P,J1,B9,VBUS_B9*%
%TO.N,USB_OTG_VBUS*%
X92790000Y-53490000D03*
%TO.P,J1,B10,RX1-_B10*%
%TO.N,unconnected-(J1-RX1--PadB10)*%
X92290000Y-53490000D03*
%TO.P,J1,B11,RX1+_B11*%
%TO.N,Net-(J1-RX1+)*%
X91790000Y-53490000D03*
%TO.P,J1,B12,GND_B12*%
%TO.N,GND*%
X91290000Y-53490000D03*
D14*
%TO.P,J1,SH,SHIELD_SH*%
X89800000Y-59650000D03*
X90160000Y-53700000D03*
X98420000Y-53700000D03*
X98780000Y-59650000D03*
%TD*%
D12*
%TO.P,R9,1,1_1*%
%TO.N,Net-(Q4-D)*%
X121095000Y-47775000D03*
%TO.P,R9,2,2_2*%
%TO.N,Net-(D4-K)*%
X121735000Y-47775000D03*
%TD*%
D15*
%TO.P,SW1,1,1_1*%
%TO.N,NRST*%
X46500000Y-154700000D03*
%TO.P,SW1,2,2_2*%
%TO.N,GND*%
X46500000Y-151300000D03*
%TD*%
D12*
%TO.P,C1,1*%
%TO.N,+1V8*%
X99380000Y-22200000D03*
%TO.P,C1,2*%
%TO.N,GND*%
X100020000Y-22200000D03*
%TD*%
%TO.P,L3,1,1_1*%
%TO.N,Net-(U13-SW)*%
X94930000Y-23950000D03*
%TO.P,L3,2,2_2*%
%TO.N,+1V8*%
X95570000Y-23950000D03*
%TD*%
D16*
%TO.P,U18,A1,GND_A1*%
%TO.N,GND*%
X32025000Y-159700000D03*
%TO.P,U18,A2,VOS_A2*%
%TO.N,+1V8_2*%
X32425000Y-159700000D03*
%TO.P,U18,B1,VIN_B1*%
%TO.N,VBUS_DONGLE*%
X32025000Y-160100000D03*
%TO.P,U18,B2,SW_B2*%
%TO.N,Net-(U18-SW)*%
X32425000Y-160100000D03*
%TO.P,U18,C1,EN_C1*%
%TO.N,VBUS_DONGLE*%
X32025000Y-160500000D03*
%TO.P,U18,C2,VSET_C2*%
%TO.N,GND*%
X32425000Y-160500000D03*
%TD*%
D12*
%TO.P,R14,1*%
%TO.N,VBUS_DONGLE*%
X109480000Y-43450000D03*
%TO.P,R14,2*%
%TO.N,Net-(P1-VCONN)*%
X110120000Y-43450000D03*
%TD*%
D17*
%TO.P,U5,1,S2A_1*%
%TO.N,SWCLK*%
X96210000Y-49800000D03*
%TO.P,U5,2,S1A_2*%
X96210000Y-50149999D03*
%TO.P,U5,3,S1B_3*%
%TO.N,unconnected-(U5-S1B-Pad3)*%
X96210000Y-50500001D03*
%TO.P,U5,4,S2B_4*%
%TO.N,unconnected-(U5-S2B-Pad4)*%
X96210000Y-50850000D03*
%TO.P,U5,5,S3A_5*%
%TO.N,NRST*%
X95860001Y-49800000D03*
%TO.P,U5,6,VDD_6*%
%TO.N,+1V8*%
X95860001Y-50149999D03*
%TO.P,U5,7,EN_N_7*%
X95860001Y-50500001D03*
%TO.P,U5,8,S3B_8*%
%TO.N,unconnected-(U5-S3B-Pad8)*%
X95860001Y-50850000D03*
%TO.P,U5,9,S4A_9*%
%TO.N,NRST*%
X95509999Y-49800000D03*
%TO.P,U5,10,SEL_10*%
%TO.N,USBC_FUNCTION*%
X95509999Y-50149999D03*
%TO.P,U5,11,GND_11*%
%TO.N,GND*%
X95509999Y-50500001D03*
%TO.P,U5,12,S4B_12*%
%TO.N,unconnected-(U5-S4B-Pad12)*%
X95509999Y-50850000D03*
%TO.P,U5,13,D1_13*%
%TO.N,Net-(J1-TX1+)*%
X95160000Y-49800000D03*
%TO.P,U5,14,D2_14*%
%TO.N,Net-(J1-TX2+)*%
X95160000Y-50149999D03*
%TO.P,U5,15,D3_15*%
%TO.N,Net-(J1-SBU1)*%
X95160000Y-50500001D03*
%TO.P,U5,16,D4_16*%
%TO.N,Net-(J1-SBU2)*%
X95160000Y-50850000D03*
%TD*%
D12*
%TO.P,R3,1,1_1*%
%TO.N,CC1*%
X104280000Y-27450000D03*
%TO.P,R3,2,2_2*%
%TO.N,GND*%
X104920000Y-27450000D03*
%TD*%
%TO.P,C20,1*%
%TO.N,GND*%
X101830000Y-27450000D03*
%TO.P,C20,2*%
%TO.N,+1V8*%
X102470000Y-27450000D03*
%TD*%
%TO.P,D4,1,K_1*%
%TO.N,Net-(D4-K)*%
X121330000Y-53025000D03*
%TO.P,D4,2,A_2*%
%TO.N,+3V3*%
X121970000Y-53025000D03*
%TD*%
%TO.P,C18,1*%
%TO.N,+1V8*%
X101830000Y-25700000D03*
%TO.P,C18,2*%
%TO.N,GND*%
X102470000Y-25700000D03*
%TD*%
%TO.P,R12,1,1_1*%
%TO.N,+1V8*%
X104280000Y-30950000D03*
%TO.P,R12,2,2_2*%
%TO.N,NRST*%
X104920000Y-30950000D03*
%TD*%
%TO.P,D2,1,K_1*%
%TO.N,Net-(D2-K)*%
X121330000Y-49525000D03*
%TO.P,D2,2,A_2*%
%TO.N,+3V3*%
X121970000Y-49525000D03*
%TD*%
D18*
%TO.P,Y1,1*%
%TO.N,OSC32_OUT*%
X125945000Y-48365000D03*
%TO.P,Y1,2*%
%TO.N,OSC32_IN*%
X127145000Y-48365000D03*
%TD*%
D19*
%TO.P,U14,1,VDDIO_1*%
%TO.N,+1V8*%
X114702500Y-56567500D03*
%TO.P,U14,2,SCK/SCL_2*%
%TO.N,I2C1_SCL*%
X114202500Y-56567500D03*
D20*
%TO.P,U14,3,GND_3*%
%TO.N,GND*%
X113690000Y-56830000D03*
%TO.P,U14,4,SDI/SDA_4*%
%TO.N,I2C1_SDA*%
X113690000Y-57330000D03*
%TO.P,U14,5,SDO/ADR_5*%
%TO.N,GND*%
X113690000Y-57830000D03*
D19*
%TO.P,U14,6,CSB_6*%
%TO.N,+1V8*%
X114202500Y-58092500D03*
%TO.P,U14,7,INT_7*%
%TO.N,PRS_INT*%
X114702500Y-58092500D03*
D20*
%TO.P,U14,8,GND_8*%
%TO.N,GND*%
X115215000Y-57830000D03*
%TO.P,U14,9,GND_9*%
X115215000Y-57330000D03*
%TO.P,U14,10,VDD_10*%
%TO.N,+1V8*%
X115215000Y-56830000D03*
%TD*%
D21*
%TO.P,BT1,N*%
%TO.N,Net-(BT1-PadN)*%
X74200000Y-71500000D03*
D22*
%TO.P,BT1,P1*%
%TO.N,Net-(BT1-PadP1)*%
X66900000Y-71500000D03*
%TO.P,BT1,P2*%
X81500000Y-71500000D03*
%TD*%
D10*
%TO.P,R21,1*%
%TO.N,+1V8*%
X91510000Y-47865000D03*
%TO.P,R21,2*%
%TO.N,Net-(IC1-IN-)*%
X91510000Y-48505000D03*
%TD*%
D12*
%TO.P,C11,1*%
%TO.N,VBUS_DONGLE*%
X109480000Y-36450000D03*
%TO.P,C11,2*%
%TO.N,GND*%
X110120000Y-36450000D03*
%TD*%
%TO.P,C3,1*%
%TO.N,Net-(U2-VDDi)*%
X99380000Y-25700000D03*
%TO.P,C3,2*%
%TO.N,GND*%
X100020000Y-25700000D03*
%TD*%
%TO.P,L4,1,1_1*%
%TO.N,Net-(U18-SW)*%
X109480000Y-39950000D03*
%TO.P,L4,2,2_2*%
%TO.N,+1V8_2*%
X110120000Y-39950000D03*
%TD*%
%TO.P,C15,1*%
%TO.N,+1V8*%
X99380000Y-32700000D03*
%TO.P,C15,2*%
%TO.N,GND*%
X100020000Y-32700000D03*
%TD*%
D21*
%TO.P,BT2,N*%
%TO.N,Net-(BT2-PadN)*%
X65500000Y-28000000D03*
D22*
%TO.P,BT2,P1*%
%TO.N,Net-(BT1-PadN)*%
X58200000Y-28000000D03*
%TO.P,BT2,P2*%
X72800000Y-28000000D03*
%TD*%
D12*
%TO.P,C17,1,1_1*%
%TO.N,GND*%
X101830000Y-23950000D03*
%TO.P,C17,2,2_2*%
%TO.N,OSC32_IN*%
X102470000Y-23950000D03*
%TD*%
%TO.P,L1,1,1_1*%
%TO.N,VCC_RF*%
X104280000Y-22200000D03*
%TO.P,L1,2,2_2*%
%TO.N,RF_IN*%
X104920000Y-22200000D03*
%TD*%
D23*
%TO.P,J3,1,VBUS_1*%
%TO.N,VBUS_DONGLE*%
X30875000Y-164450000D03*
%TO.P,J3,2,D-_2*%
%TO.N,Net-(J3-D-)*%
X31675000Y-164450000D03*
%TO.P,J3,3,D+_3*%
%TO.N,Net-(J3-D+)*%
X32475000Y-164450000D03*
%TO.P,J3,4,ID_4*%
%TO.N,unconnected-(J3-ID-Pad4)*%
X33275000Y-164450000D03*
%TO.P,J3,5,GND_5*%
%TO.N,GND*%
X34075000Y-164450000D03*
D24*
%TO.P,J3,SH,Shield_SH*%
X28025000Y-164550000D03*
X28025000Y-170000000D03*
X36925000Y-164550000D03*
X36925000Y-170000000D03*
%TD*%
D25*
%TO.P,P1,A1,GND_A1*%
%TO.N,GND*%
X18695000Y-168660000D03*
%TO.P,P1,A2,TX1+_A2*%
%TO.N,SWCLK_OUT*%
X19195000Y-168660000D03*
%TO.P,P1,A3,TX1-_A3*%
%TO.N,SWDIO_OUT*%
X19695000Y-168660000D03*
%TO.P,P1,A4,VBUS_A4*%
%TO.N,VBUS_DONGLE*%
X20195000Y-168660000D03*
%TO.P,P1,A5,CC_A5*%
%TO.N,Net-(P1-CC)*%
X20695000Y-168660000D03*
%TO.P,P1,A6,D+_A6*%
%TO.N,unconnected-(P1-D+-PadA6)*%
X21195000Y-168660000D03*
%TO.P,P1,A7,D-_A7*%
%TO.N,unconnected-(P1-D--PadA7)*%
X21695000Y-168660000D03*
%TO.P,P1,A8,SBU1_A8*%
%TO.N,NRST_OUT*%
X22195000Y-168660000D03*
%TO.P,P1,A9,VBUS_A9*%
%TO.N,VBUS_DONGLE*%
X22695000Y-168660000D03*
%TO.P,P1,A10,RX2-_A10*%
%TO.N,unconnected-(P1-RX2--PadA10)*%
X23195000Y-168660000D03*
%TO.P,P1,A11,RX2+_A11*%
%TO.N,unconnected-(P1-RX2+-PadA11)*%
X23695000Y-168660000D03*
%TO.P,P1,A12,GND_A12*%
%TO.N,GND*%
X24195000Y-168660000D03*
D26*
%TO.P,P1,SH,SHIELD_SH*%
X18025000Y-169500000D03*
%TD*%
D12*
%TO.P,R5,1*%
%TO.N,VBUS_DONGLE*%
X109480000Y-41700000D03*
%TO.P,R5,2*%
%TO.N,Net-(P1-CC)*%
X110120000Y-41700000D03*
%TD*%
%TO.P,C12,1*%
%TO.N,+3V3*%
X90030000Y-25700000D03*
%TO.P,C12,2*%
%TO.N,GND*%
X90670000Y-25700000D03*
%TD*%
D27*
%TO.P,Q2,1,G_1*%
%TO.N,LED2*%
X118053000Y-48770000D03*
D28*
%TO.P,Q2,2,S_2*%
%TO.N,GND*%
X118310000Y-48770000D03*
D27*
%TO.P,Q2,3,D_3*%
%TO.N,Net-(Q2-D)*%
X118568000Y-48770000D03*
%TD*%
D12*
%TO.P,L2,1,1_1*%
%TO.N,Net-(U1-SW)*%
X94930000Y-22200000D03*
%TO.P,L2,2,2_2*%
%TO.N,+3V3*%
X95570000Y-22200000D03*
%TD*%
D27*
%TO.P,Q1,1,G_1*%
%TO.N,LED1*%
X118053000Y-45190000D03*
D28*
%TO.P,Q1,2,S_2*%
%TO.N,GND*%
X118310000Y-45190000D03*
D27*
%TO.P,Q1,3,D_3*%
%TO.N,Net-(Q1-D)*%
X118568000Y-45190000D03*
%TD*%
D12*
%TO.P,D3,1,K_1*%
%TO.N,Net-(D3-K)*%
X144770000Y-71745000D03*
%TO.P,D3,2,A_2*%
%TO.N,+1V8*%
X145410000Y-71745000D03*
%TD*%
%TO.P,C21,1*%
%TO.N,+1V8*%
X101830000Y-29200000D03*
%TO.P,C21,2*%
%TO.N,GND*%
X102470000Y-29200000D03*
%TD*%
%TO.P,C23,1*%
%TO.N,+1V8*%
X101830000Y-32700000D03*
%TO.P,C23,2*%
%TO.N,GND*%
X102470000Y-32700000D03*
%TD*%
D16*
%TO.P,U13,A1,GND_A1*%
%TO.N,GND*%
X101010000Y-53870000D03*
%TO.P,U13,A2,VOS_A2*%
%TO.N,+1V8*%
X101410000Y-53870000D03*
%TO.P,U13,B1,VIN_B1*%
%TO.N,VDD2*%
X101010000Y-54270000D03*
%TO.P,U13,B2,SW_B2*%
%TO.N,Net-(U13-SW)*%
X101410000Y-54270000D03*
%TO.P,U13,C1,EN_C1*%
%TO.N,VDD2*%
X101010000Y-54670000D03*
%TO.P,U13,C2,VSET_C2*%
%TO.N,GND*%
X101410000Y-54670000D03*
%TD*%
D12*
%TO.P,C13,1*%
%TO.N,VDD*%
X92480000Y-22200000D03*
%TO.P,C13,2*%
%TO.N,GND*%
X93120000Y-22200000D03*
%TD*%
%TO.P,C24,1*%
%TO.N,VDD*%
X92480000Y-25700000D03*
%TO.P,C24,2*%
%TO.N,unconnected-(C24-Pad2)*%
X93120000Y-25700000D03*
%TD*%
D29*
%TO.P,U16,1,SDO_1*%
%TO.N,GND*%
X103893499Y-47662499D03*
%TO.P,U16,2,ASDX_2*%
%TO.N,unconnected-(U16-ASDX-Pad2)*%
X103893499Y-48162500D03*
%TO.P,U16,3,ASCX_3*%
%TO.N,unconnected-(U16-ASCX-Pad3)*%
X103893499Y-48662500D03*
%TO.P,U16,4,INT1_4*%
%TO.N,ACC_INT1*%
X103893499Y-49162501D03*
D30*
%TO.P,U16,5,VDDIO_5*%
%TO.N,+1V8*%
X104600000Y-49365000D03*
%TO.P,U16,6,GNDIO_6*%
%TO.N,GND*%
X105099999Y-49365000D03*
%TO.P,U16,7,GND_7*%
X105599998Y-49365000D03*
D29*
%TO.P,U16,8,VDD_8*%
%TO.N,+1V8*%
X106306499Y-49162501D03*
%TO.P,U16,9,INT2_9*%
%TO.N,ACC_INT2*%
X106306499Y-48662500D03*
%TO.P,U16,10,OCSB_10*%
%TO.N,unconnected-(U16-OCSB-Pad10)*%
X106306499Y-48162500D03*
%TO.P,U16,11,OSDO_11*%
%TO.N,unconnected-(U16-OSDO-Pad11)*%
X106306499Y-47662499D03*
D30*
%TO.P,U16,12,CSB_12*%
%TO.N,unconnected-(U16-CSB-Pad12)*%
X105599998Y-47460000D03*
%TO.P,U16,13,SCX_13*%
%TO.N,I2C1_SCL*%
X105099999Y-47460000D03*
%TO.P,U16,14,SDX_14*%
%TO.N,I2C1_SDA*%
X104600000Y-47460000D03*
%TD*%
D17*
%TO.P,U15,1,S2A_1*%
%TO.N,SWDIO*%
X94140000Y-49710000D03*
%TO.P,U15,2,S1A_2*%
X94140000Y-50059999D03*
%TO.P,U15,3,S1B_3*%
%TO.N,unconnected-(U15-S1B-Pad3)*%
X94140000Y-50410001D03*
%TO.P,U15,4,S2B_4*%
%TO.N,unconnected-(U15-S2B-Pad4)*%
X94140000Y-50760000D03*
%TO.P,U15,5,S3A_5*%
%TO.N,SWO*%
X93790001Y-49710000D03*
%TO.P,U15,6,VDD_6*%
%TO.N,+1V8*%
X93790001Y-50059999D03*
%TO.P,U15,7,EN_N_7*%
X93790001Y-50410001D03*
%TO.P,U15,8,S3B_8*%
%TO.N,unconnected-(U15-S3B-Pad8)*%
X93790001Y-50760000D03*
%TO.P,U15,9,S4A_9*%
%TO.N,SWO*%
X93439999Y-49710000D03*
%TO.P,U15,10,SEL_10*%
%TO.N,USBC_FUNCTION*%
X93439999Y-50059999D03*
%TO.P,U15,11,GND_11*%
%TO.N,GND*%
X93439999Y-50410001D03*
%TO.P,U15,12,S4B_12*%
%TO.N,unconnected-(U15-S4B-Pad12)*%
X93439999Y-50760000D03*
%TO.P,U15,13,D1_13*%
%TO.N,Net-(J1-TX1-)*%
X93090000Y-49710000D03*
%TO.P,U15,14,D2_14*%
%TO.N,Net-(J1-TX2-)*%
X93090000Y-50059999D03*
%TO.P,U15,15,D3_15*%
%TO.N,Net-(J1-RX1+)*%
X93090000Y-50410001D03*
%TO.P,U15,16,D4_16*%
%TO.N,Net-(J1-RX2+)*%
X93090000Y-50760000D03*
%TD*%
D16*
%TO.P,U1,A1,GND_A1*%
%TO.N,GND*%
X102950000Y-53860000D03*
%TO.P,U1,A2,VOS_A2*%
%TO.N,+3V3*%
X103350000Y-53860000D03*
%TO.P,U1,B1,VIN_B1*%
%TO.N,VDD2*%
X102950000Y-54260000D03*
%TO.P,U1,B2,SW_B2*%
%TO.N,Net-(U1-SW)*%
X103350000Y-54260000D03*
%TO.P,U1,C1,EN_C1*%
%TO.N,VDD2*%
X102950000Y-54660000D03*
%TO.P,U1,C2,VSET_C2*%
%TO.N,Net-(U1-VSET)*%
X103350000Y-54660000D03*
%TD*%
D31*
%TO.P,U11,A1,SDA_A1*%
%TO.N,I2C1_SDA*%
X89770000Y-48335000D03*
%TO.P,U11,A2,SCL_A2*%
%TO.N,I2C1_SCL*%
X90170000Y-48335000D03*
%TO.P,U11,B1,VDD_B1*%
%TO.N,+1V8*%
X89770000Y-48735000D03*
%TO.P,U11,B2,VSS_B2*%
%TO.N,GND*%
X90170000Y-48735000D03*
%TO.P,U11,C1,ADD0_C1*%
X89770000Y-49135000D03*
%TO.P,U11,C2,ALERT_C2*%
X90170000Y-49135000D03*
%TD*%
D12*
%TO.P,C2,1*%
%TO.N,GND*%
X99380000Y-23950000D03*
%TO.P,C2,2*%
%TO.N,+3V3*%
X100020000Y-23950000D03*
%TD*%
%TO.P,R2,1,1_1*%
%TO.N,I2C1_SDA*%
X104280000Y-25700000D03*
%TO.P,R2,2,2_2*%
%TO.N,+1V8*%
X104920000Y-25700000D03*
%TD*%
%TO.P,R1,1,1_1*%
%TO.N,I2C1_SCL*%
X104280000Y-23950000D03*
%TO.P,R1,2,2_2*%
%TO.N,+1V8*%
X104920000Y-23950000D03*
%TD*%
%TO.P,C6,1*%
%TO.N,+1V8*%
X99380000Y-29200000D03*
%TO.P,C6,2*%
%TO.N,GND*%
X100020000Y-29200000D03*
%TD*%
%TO.P,C14,1*%
%TO.N,+1V8*%
X92480000Y-23950000D03*
%TO.P,C14,2*%
%TO.N,GND*%
X93120000Y-23950000D03*
%TD*%
%TO.P,R15,1*%
%TO.N,VDD*%
X104280000Y-32700000D03*
%TO.P,R15,2*%
%TO.N,Net-(U4-VBAT)*%
X104920000Y-32700000D03*
%TD*%
%TO.P,D1,1,K_1*%
%TO.N,Net-(D1-K)*%
X144770000Y-68245000D03*
%TO.P,D1,2,A_2*%
%TO.N,+3V3*%
X145410000Y-68245000D03*
%TD*%
%TO.P,D2,1,K_1*%
%TO.N,Net-(D2-K)*%
X144770000Y-69995000D03*
%TO.P,D2,2,A_2*%
%TO.N,+1V8*%
X145410000Y-69995000D03*
%TD*%
D27*
%TO.P,Q3,1,G_1*%
%TO.N,LED3*%
X118053000Y-52350000D03*
D28*
%TO.P,Q3,2,S_2*%
%TO.N,GND*%
X118310000Y-52350000D03*
D27*
%TO.P,Q3,3,D_3*%
%TO.N,Net-(Q3-D)*%
X118568000Y-52350000D03*
%TD*%
D12*
%TO.P,R13,1*%
%TO.N,Net-(U1-VSET)*%
X94930000Y-25700000D03*
%TO.P,R13,2*%
%TO.N,GND*%
X95570000Y-25700000D03*
%TD*%
D32*
%TO.P,U4,A1,VDD_A1*%
%TO.N,+1V8*%
X98400000Y-47765129D03*
%TO.P,U4,A3,PC11_A3*%
%TO.N,SDMMC1_D3*%
X98800000Y-47765129D03*
%TO.P,U4,A5,PD2_A5*%
%TO.N,SDMMC1_CMD*%
X99200000Y-47765129D03*
%TO.P,U4,A7,PG10_A7*%
%TO.N,USART1_RX*%
X99600000Y-47765129D03*
%TO.P,U4,A9,PG14_A9*%
%TO.N,I2C1_SCL*%
X100000000Y-47765129D03*
%TO.P,U4,A11,VDDIO2_A11*%
%TO.N,+1V8*%
X100400000Y-47765129D03*
%TO.P,U4,A13,PB6_A13*%
%TO.N,USART1_TX*%
X100800000Y-47765129D03*
%TO.P,U4,A15,PB9_A15*%
%TO.N,I2C1_SDA*%
X101200000Y-47765129D03*
%TO.P,U4,A17,VDD11_A17*%
%TO.N,+1V8*%
X101600000Y-47765129D03*
%TO.P,U4,B2,VSS_B2*%
%TO.N,GND*%
X98600000Y-48111539D03*
%TO.P,U4,B4,PC12_B4*%
%TO.N,SDMMC1_CK*%
X99000000Y-48111539D03*
%TO.P,U4,B6,PD5_B6*%
%TO.N,unconnected-(U4-PD5-PadB6)*%
X99400000Y-48111539D03*
%TO.P,U4,B8,PG12_B8*%
%TO.N,unconnected-(U4-PG12-PadB8)*%
X99800000Y-48111539D03*
%TO.P,U4,B10,VSS_B10*%
%TO.N,GND*%
X100200000Y-48111539D03*
%TO.P,U4,B12,PB7_B12*%
%TO.N,unconnected-(U4-PB7-PadB12)*%
X100600000Y-48111539D03*
%TO.P,U4,B14,PB8_B14*%
%TO.N,unconnected-(U4-PB8-PadB14)*%
X101000000Y-48111539D03*
%TO.P,U4,B16,VSS_B16*%
%TO.N,GND*%
X101400000Y-48111539D03*
%TO.P,U4,B18,VDD_B18*%
%TO.N,+1V8*%
X101800000Y-48111539D03*
%TO.P,U4,C1,VDDUSB_C1*%
X98400000Y-48457950D03*
%TO.P,U4,C3,PA14_C3*%
%TO.N,SWCLK*%
X98800000Y-48457950D03*
%TO.P,U4,C5,PD0_C5*%
%TO.N,unconnected-(U4-PD0-PadC5)*%
X99200000Y-48457950D03*
%TO.P,U4,C7,PG9_C7*%
%TO.N,unconnected-(U4-PG9-PadC7)*%
X99600000Y-48457950D03*
%TO.P,U4,C9,PG13_C9*%
%TO.N,unconnected-(U4-PG13-PadC9)*%
X100000000Y-48457950D03*
%TO.P,U4,C11,PB4_C11*%
%TO.N,unconnected-(U4-PB4-PadC11)*%
X100400000Y-48457950D03*
%TO.P,U4,C13,PH3_C13*%
%TO.N,unconnected-(U4-PH3-PadC13)*%
X100800000Y-48457950D03*
%TO.P,U4,C15,PE3_C15*%
%TO.N,unconnected-(U4-PE3-PadC15)*%
X101200000Y-48457950D03*
%TO.P,U4,C17,VBAT_C17*%
%TO.N,Net-(U4-VBAT)*%
X101600000Y-48457950D03*
%TO.P,U4,D2,PA12_D2*%
%TO.N,USB_OTG_FS_DP*%
X98600000Y-48804360D03*
%TO.P,U4,D4,PA13_D4*%
%TO.N,SWDIO*%
X99000000Y-48804360D03*
%TO.P,U4,D6,PD1_D6*%
%TO.N,unconnected-(U4-PD1-PadD6)*%
X99400000Y-48804360D03*
%TO.P,U4,D8,PD4_D8*%
%TO.N,unconnected-(U4-PD4-PadD8)*%
X99800000Y-48804360D03*
%TO.P,U4,D10,PB3_D10*%
%TO.N,SWO*%
X100200000Y-48804360D03*
%TO.P,U4,D12,PB5_D12*%
%TO.N,unconnected-(U4-PB5-PadD12)*%
X100600000Y-48804360D03*
%TO.P,U4,D14,PE4_D14*%
%TO.N,unconnected-(U4-PE4-PadD14)*%
X101000000Y-48804360D03*
%TO.P,U4,D16,PE6_D16*%
%TO.N,unconnected-(U4-PE6-PadD16)*%
X101400000Y-48804360D03*
%TO.P,U4,D18,PC14_D18*%
%TO.N,OSC32_IN*%
X101800000Y-48804360D03*
%TO.P,U4,E1,PA10_E1*%
%TO.N,unconnected-(U4-PA10-PadE1)*%
X98400000Y-49150770D03*
%TO.P,U4,E3,PA11_E3*%
%TO.N,USB_OTG_FS_DM*%
X98800000Y-49150770D03*
%TO.P,U4,E5,PA15_E5*%
%TO.N,unconnected-(U4-PA15-PadE5)*%
X99200000Y-49150770D03*
%TO.P,U4,E7,PC10_E7*%
%TO.N,SDMMC1_D2*%
X99600000Y-49150770D03*
%TO.P,U4,E9,PG11_E9*%
%TO.N,unconnected-(U4-PG11-PadE9)*%
X100000000Y-49150770D03*
%TO.P,U4,E11,PA9_E11*%
%TO.N,USB_OTG_VBUS*%
X100400000Y-49150770D03*
%TO.P,U4,E13,PE5_E13*%
%TO.N,unconnected-(U4-PE5-PadE13)*%
X100800000Y-49150770D03*
%TO.P,U4,E15,PC13_E15*%
%TO.N,unconnected-(U4-PC13-PadE15)*%
X101200000Y-49150770D03*
%TO.P,U4,E17,PC15_E17*%
%TO.N,OSC32_OUT*%
X101600000Y-49150770D03*
%TO.P,U4,F2,PC8_F2*%
%TO.N,SDMMC1_D0*%
X98600000Y-49497180D03*
%TO.P,U4,F4,PC7_F4*%
%TO.N,unconnected-(U4-PC7-PadF4)*%
X99000000Y-49497180D03*
%TO.P,U4,F6,PC9_F6*%
%TO.N,SDMMC1_D1*%
X99400000Y-49497180D03*
%TO.P,U4,F8,PA8_F8*%
%TO.N,unconnected-(U4-PA8-PadF8)*%
X99800000Y-49497180D03*
%TO.P,U4,F10,PA6_F10*%
%TO.N,unconnected-(U4-PA6-PadF10)*%
X100200000Y-49497180D03*
%TO.P,U4,F12,PC2_F12*%
%TO.N,unconnected-(U4-PC2-PadF12)*%
X100600000Y-49497180D03*
%TO.P,U4,F14,PC0_F14*%
%TO.N,unconnected-(U4-PC0-PadF14)*%
X101000000Y-49497180D03*
%TO.P,U4,F16,PH1_F16*%
%TO.N,unconnected-(U4-PH1-PadF16)*%
X101400000Y-49497180D03*
%TO.P,U4,F18,PH0_F18*%
%TO.N,unconnected-(U4-PH0-PadF18)*%
X101800000Y-49497180D03*
%TO.P,U4,G1,PD14_G1*%
%TO.N,unconnected-(U4-PD14-PadG1)*%
X98400000Y-49843590D03*
%TO.P,U4,G3,PD15_G3*%
%TO.N,unconnected-(U4-PD15-PadG3)*%
X98800000Y-49843590D03*
%TO.P,U4,G5,PB15_G5*%
%TO.N,unconnected-(U4-PB15-PadG5)*%
X99200000Y-49843590D03*
%TO.P,U4,G7,PC6_G7*%
%TO.N,unconnected-(U4-PC6-PadG7)*%
X99600000Y-49843590D03*
%TO.P,U4,G9,PC5_G9*%
%TO.N,unconnected-(U4-PC5-PadG9)*%
X100000000Y-49843590D03*
%TO.P,U4,G11,PA0_G11*%
%TO.N,unconnected-(U4-PA0-PadG11)*%
X100400000Y-49843590D03*
%TO.P,U4,G13,PC3_G13*%
%TO.N,unconnected-(U4-PC3-PadG13)*%
X100800000Y-49843590D03*
%TO.P,U4,G15,PC1_G15*%
%TO.N,unconnected-(U4-PC1-PadG15)*%
X101200000Y-49843590D03*
%TO.P,U4,G17,NRST_G17*%
%TO.N,NRST*%
X101600000Y-49843590D03*
%TO.P,U4,H2,PB13_H2*%
%TO.N,unconnected-(U4-PB13-PadH2)*%
X98600000Y-50190000D03*
%TO.P,U4,H4,PB14_H4*%
%TO.N,unconnected-(U4-PB14-PadH4)*%
X99000000Y-50190000D03*
%TO.P,U4,H6,PB10_H6*%
%TO.N,unconnected-(U4-PB10-PadH6)*%
X99400000Y-50190000D03*
%TO.P,U4,H8,PE7_H8*%
%TO.N,unconnected-(U4-PE7-PadH8)*%
X99800000Y-50190000D03*
%TO.P,U4,H10,PA3_H10*%
%TO.N,unconnected-(U4-PA3-PadH10)*%
X100200000Y-50190000D03*
%TO.P,U4,H12,PA5_H12*%
%TO.N,LED4*%
X100600000Y-50190000D03*
%TO.P,U4,H14,PA4_H14*%
%TO.N,LED2*%
X101000000Y-50190000D03*
%TO.P,U4,H16,VREF+_H16*%
%TO.N,+1V8*%
X101400000Y-50190000D03*
%TO.P,U4,H18,VSSA_H18*%
%TO.N,GND*%
X101800000Y-50190000D03*
%TO.P,U4,J1,VDD_J1*%
%TO.N,+1V8*%
X98400000Y-50536411D03*
%TO.P,U4,J3,VSS_J3*%
%TO.N,GND*%
X98800000Y-50536411D03*
%TO.P,U4,J5,VSSSMPS_J5*%
X99200000Y-50536411D03*
%TO.P,U4,J7,PE10_J7*%
%TO.N,Timepulse*%
X99600000Y-50536411D03*
%TO.P,U4,J9,PE8_J9*%
%TO.N,unconnected-(U4-PE8-PadJ9)*%
X100000000Y-50536411D03*
%TO.P,U4,J11,PB1_J11*%
%TO.N,unconnected-(U4-PB1-PadJ11)*%
X100400000Y-50536411D03*
%TO.P,U4,J13,PA1_J13*%
%TO.N,LED3*%
X100800000Y-50536411D03*
%TO.P,U4,J15,PA2_J15*%
%TO.N,LED1*%
X101200000Y-50536411D03*
%TO.P,U4,J17,VDDA_J17*%
%TO.N,+1V8*%
X101600000Y-50536411D03*
%TO.P,U4,K2,VDD11_K2*%
X98600000Y-50882821D03*
%TO.P,U4,K4,VDDSMPS_K4*%
X99000000Y-50882821D03*
%TO.P,U4,K6,VLXSMPS_K6*%
%TO.N,unconnected-(U4-VLXSMPS-PadK6)*%
X99400000Y-50882821D03*
%TO.P,U4,K8,PE9_K8*%
%TO.N,PRS_INT*%
X99800000Y-50882821D03*
%TO.P,U4,K10,PB2_K10*%
%TO.N,ACC_INT1*%
X100200000Y-50882821D03*
%TO.P,U4,K12,PB0_K12*%
%TO.N,ACC_INT2*%
X100600000Y-50882821D03*
%TO.P,U4,K14,PA7_K14*%
%TO.N,GPS_EXTINT*%
X101000000Y-50882821D03*
%TO.P,U4,K16,VDD_K16*%
%TO.N,+1V8*%
X101400000Y-50882821D03*
%TO.P,U4,K18,VSS_K18*%
%TO.N,GND*%
X101800000Y-50882821D03*
%TD*%
D12*
%TO.P,C22,1*%
%TO.N,+1V8*%
X101830000Y-30950000D03*
%TO.P,C22,2*%
%TO.N,GND*%
X102470000Y-30950000D03*
%TD*%
%TO.P,C10,1*%
%TO.N,+1V8*%
X99380000Y-30950000D03*
%TO.P,C10,2*%
%TO.N,GND*%
X100020000Y-30950000D03*
%TD*%
%TO.P,C19,1*%
%TO.N,+1V8_2*%
X109480000Y-38200000D03*
%TO.P,C19,2*%
%TO.N,GND*%
X110120000Y-38200000D03*
%TD*%
%TO.P,R8,1,1_1*%
%TO.N,Net-(Q3-D)*%
X121095000Y-46025000D03*
%TO.P,R8,2,2_2*%
%TO.N,Net-(D3-K)*%
X121735000Y-46025000D03*
%TD*%
%TO.P,R6,1,1_1*%
%TO.N,Net-(Q1-D)*%
X142085000Y-68245000D03*
%TO.P,R6,2,2_2*%
%TO.N,Net-(D1-K)*%
X142725000Y-68245000D03*
%TD*%
%TO.P,C5,1*%
%TO.N,+1V8*%
X99380000Y-27450000D03*
%TO.P,C5,2*%
%TO.N,GND*%
X100020000Y-27450000D03*
%TD*%
D21*
%TO.P,BT3,N*%
%TO.N,unconnected-(BT3-PadN)*%
X118800000Y-80500000D03*
D22*
%TO.P,BT3,P1*%
%TO.N,Net-(BT2-PadN)*%
X111500000Y-80500000D03*
%TO.P,BT3,P2*%
X126100000Y-80500000D03*
%TD*%
D33*
%TO.P,CN2,1,1_1*%
%TO.N,+1V8_2*%
X26065000Y-153920000D03*
%TO.P,CN2,2,2_2*%
%TO.N,GND*%
X21025000Y-153920000D03*
%TO.P,CN2,3,3_3*%
%TO.N,SWDIO_OUT*%
X26065000Y-156460000D03*
%TO.P,CN2,4,4_4*%
%TO.N,SWCLK_OUT*%
X21025000Y-156460000D03*
%TO.P,CN2,5,5_5*%
%TO.N,SWO_OUT*%
X26065000Y-159000000D03*
%TO.P,CN2,6,6_6*%
%TO.N,NRST_OUT*%
X21025000Y-159000000D03*
%TD*%
D34*
%TO.P,J5,*%
%TO.N,*%
X100660000Y-61165000D03*
X104160000Y-61165000D03*
D35*
%TO.P,J5,1,Pin_1_1*%
%TO.N,VDD*%
X101810000Y-57390000D03*
%TO.P,J5,2,Pin_2_2*%
%TO.N,GND*%
X103010000Y-57390000D03*
%TD*%
D12*
%TO.P,C9,1*%
%TO.N,VDD2*%
X90030000Y-23950000D03*
%TO.P,C9,2*%
%TO.N,GND*%
X90670000Y-23950000D03*
%TD*%
%TO.P,C16,1,1_1*%
%TO.N,GND*%
X101830000Y-22200000D03*
%TO.P,C16,2,2_2*%
%TO.N,OSC32_OUT*%
X102470000Y-22200000D03*
%TD*%
D36*
%TO.P,U7,1,SENSE+_1*%
%TO.N,VDD*%
X92782500Y-47590000D03*
%TO.P,U7,2,GND_2*%
%TO.N,GND*%
X92782500Y-48090000D03*
%TO.P,U7,3,SCL_3*%
%TO.N,I2C1_SCL*%
X92782500Y-48590000D03*
%TO.P,U7,4,SDA_4*%
%TO.N,I2C1_SDA*%
X95657500Y-48590000D03*
%TO.P,U7,5,AL#/CC_5*%
%TO.N,unconnected-(U7-AL#{slash}CC-Pad5)*%
X95657500Y-48090000D03*
%TO.P,U7,6,SENSE\u2013_6*%
%TO.N,VDD2*%
X95657500Y-47590000D03*
D37*
%TO.P,U7,7,EP_7*%
%TO.N,GND*%
X94220000Y-48090000D03*
%TD*%
D27*
%TO.P,Q4,1,G_1*%
%TO.N,LED4*%
X118053000Y-55930000D03*
D28*
%TO.P,Q4,2,S_2*%
%TO.N,GND*%
X118310000Y-55930000D03*
D27*
%TO.P,Q4,3,D_3*%
%TO.N,Net-(Q4-D)*%
X118568000Y-55930000D03*
%TD*%
D38*
%TO.P,J2,1,In_1*%
%TO.N,RF_IN*%
X107555000Y-58725000D03*
D39*
%TO.P,J2,2,Ext_2*%
%TO.N,GND*%
X109030000Y-60250000D03*
X106080000Y-60250000D03*
%TD*%
D12*
%TO.P,R7,1,1_1*%
%TO.N,Net-(Q2-D)*%
X121095000Y-44275000D03*
%TO.P,R7,2,2_2*%
%TO.N,Net-(D2-K)*%
X121735000Y-44275000D03*
%TD*%
%TO.P,R9,1,1_1*%
%TO.N,LED2*%
X142085000Y-69995000D03*
%TO.P,R9,2,2_2*%
%TO.N,Net-(D2-K)*%
X142725000Y-69995000D03*
%TD*%
D40*
%TO.P,J4,1,VBUS_1*%
%TO.N,VBUS_DONGLE*%
X26025000Y-137500000D03*
%TO.P,J4,2,D-_2*%
%TO.N,Net-(J3-D-)*%
X26025000Y-140000000D03*
%TO.P,J4,3,D+_3*%
%TO.N,Net-(J3-D+)*%
X26025000Y-142000000D03*
%TO.P,J4,4,GND_4*%
%TO.N,GND*%
X26025000Y-144500000D03*
D41*
%TO.P,J4,SH,Shield_SH*%
X28625000Y-135150000D03*
X28625000Y-146850000D03*
%TD*%
M02*
