%TF.GenerationSoftware,KiCad,Pcbnew,10.0.3*%
%TF.CreationDate,2026-07-30T22:23:18-04:00*%
%TF.ProjectId,Pangotag_PCB,50616e67-6f74-4616-975f-5043422e6b69,rev?*%
%TF.SameCoordinates,Original*%
%TF.FileFunction,Copper,L5,Inr*%
%TF.FilePolarity,Positive*%
%FSLAX46Y46*%
G04 Gerber Fmt 4.6, Leading zero omitted, Abs format (unit mm)*
G04 Created by KiCad (PCBNEW 10.0.3) date 2026-07-30 22:23:18*
%MOMM*%
%LPD*%
G01*
G04 APERTURE LIST*
%TA.AperFunction,ComponentPad*%
%ADD10O,3.000000X1.600000*%
%TD*%
%TA.AperFunction,ComponentPad*%
%ADD11C,1.700000*%
%TD*%
%TA.AperFunction,ComponentPad*%
%ADD12R,1.700000X1.700000*%
%TD*%
%TA.AperFunction,ComponentPad*%
%ADD13C,1.400000*%
%TD*%
%TA.AperFunction,ViaPad*%
%ADD14C,0.400000*%
%TD*%
%TA.AperFunction,ViaPad*%
%ADD15C,0.300000*%
%TD*%
%TA.AperFunction,ViaPad*%
%ADD16C,0.250000*%
%TD*%
%TA.AperFunction,ViaPad*%
%ADD17C,0.600000*%
%TD*%
%TA.AperFunction,ViaPad*%
%ADD18C,0.450000*%
%TD*%
G04 APERTURE END LIST*
D10*
%TO.N,GND2*%
%TO.C,J4*%
X57635000Y-48000000D03*
X57635000Y-55800000D03*
%TD*%
D11*
%TO.N,NRST_OUT*%
%TO.C,CN2*%
X71730000Y-40260000D03*
%TO.N,SWO_OUT*%
X71730000Y-42800000D03*
%TO.N,SWCLK_OUT*%
X69190000Y-40260000D03*
%TO.N,SWDIO_OUT*%
X69190000Y-42800000D03*
%TO.N,GND2*%
X66650000Y-40260000D03*
D12*
%TO.N,+1V8_2*%
X66650000Y-42800000D03*
%TD*%
D13*
%TO.N,GND*%
%TO.C,J1*%
X98125000Y-58980000D03*
X97765000Y-53030000D03*
X89505000Y-53030000D03*
X89145000Y-58980000D03*
%TD*%
D14*
%TO.N,NRST*%
X96070000Y-57820000D03*
%TO.N,SWO*%
X95830000Y-39340000D03*
D15*
%TO.N,SDMMC1_CMD*%
X95090000Y-35570000D03*
D14*
%TO.N,GND*%
X107960000Y-36200000D03*
%TO.N,VDDA*%
X101550000Y-36980000D03*
D15*
%TO.N,ACC_INT1*%
X102000000Y-45890000D03*
D14*
%TO.N,USB_OTG_FS_D+*%
X93580000Y-54680000D03*
%TO.N,VDDA*%
X109280000Y-47570000D03*
D16*
%TO.N,SDMMC1_D1*%
X108740000Y-57210000D03*
D14*
%TO.N,USB_OTG_FS_D+*%
X87360000Y-42540000D03*
%TO.N,+3V3*%
X116040000Y-57790000D03*
%TO.N,SWDIO*%
X88150000Y-40920000D03*
%TO.N,I2C1_SDA*%
X115220000Y-50090000D03*
%TO.N,Timepulse*%
X113680000Y-44890000D03*
%TO.N,Net-(IC6-COM4)*%
X95630000Y-52020000D03*
%TO.N,NRST*%
X98432277Y-45797678D03*
D15*
%TO.N,Net-(IC6-COM1)*%
X91143477Y-55843485D03*
D14*
%TO.N,SWCLK*%
X92760000Y-39820000D03*
%TO.N,PRS_INT*%
X105360000Y-39050000D03*
%TO.N,LED2*%
X96950000Y-46030000D03*
%TO.N,GND*%
X88562500Y-46877500D03*
X92520000Y-54710000D03*
D16*
%TO.N,SDMMC1_CMD*%
X109240000Y-51710000D03*
D17*
%TO.N,Net-(J3-ID)*%
X77240000Y-52340000D03*
D15*
%TO.N,SDMMC1_CK*%
X94570000Y-36030000D03*
D14*
%TO.N,VDDA*%
X108740000Y-51220000D03*
D16*
%TO.N,GND*%
X109740000Y-50710000D03*
D14*
%TO.N,PRS_INT*%
X105120000Y-42900000D03*
%TO.N,Net-(IC5-COM3)*%
X95315000Y-49900000D03*
D16*
%TO.N,SDMMC1_D0*%
X108240000Y-57210000D03*
D14*
%TO.N,LED1*%
X113090000Y-40800000D03*
%TO.N,GND*%
X89390000Y-49080000D03*
D16*
%TO.N,Net-(IC5-COM2)*%
X96115000Y-55590000D03*
D14*
%TO.N,Net-(D4-K)*%
X115790000Y-37172500D03*
%TO.N,USART1_TX*%
X97010000Y-39340000D03*
%TO.N,VDDA*%
X92710000Y-44880000D03*
%TO.N,SWCLK*%
X94725000Y-59810000D03*
%TO.N,ACC_INT2*%
X106320000Y-46410000D03*
D17*
%TO.N,VBUS_DONGLE*%
X66460000Y-53930000D03*
D16*
%TO.N,Net-(U2-VDDi)*%
X107740000Y-56210000D03*
D17*
%TO.N,SWDIO_OUT*%
X63590000Y-52830000D03*
D16*
%TO.N,VDDA*%
X96770000Y-59560000D03*
X111510000Y-55750000D03*
D14*
X101390000Y-35280000D03*
%TO.N,LED2*%
X113880000Y-40850000D03*
%TO.N,I2C1_SCL*%
X100570000Y-39380000D03*
D17*
%TO.N,NRST_OUT*%
X62370000Y-47420000D03*
D14*
%TO.N,VDDA*%
X107180000Y-57800000D03*
D17*
%TO.N,SWCLK_OUT*%
X60930000Y-54100000D03*
D14*
%TO.N,Net-(IC6-COM3)*%
X88670000Y-54770000D03*
%TO.N,USB_OTG_VBUS*%
X91850000Y-54000000D03*
D15*
%TO.N,SDMMC1_D2*%
X93575000Y-36070000D03*
D14*
%TO.N,LED4*%
X98270000Y-47070000D03*
D17*
%TO.N,NRST_OUT*%
X58570000Y-45340000D03*
D15*
%TO.N,Net-(IC2-OUT)*%
X95520000Y-44660000D03*
D14*
%TO.N,Net-(D1-K)*%
X112830000Y-37092500D03*
D16*
%TO.N,SDMMC1_D3*%
X107740000Y-56710000D03*
D14*
%TO.N,VDDA*%
X95130000Y-55030000D03*
%TO.N,Net-(U2-VDDi)*%
X102910000Y-58940000D03*
%TO.N,SWCLK*%
X96890000Y-61070000D03*
%TO.N,Net-(IC1-IN-)*%
X100360000Y-53150000D03*
%TO.N,USB_OTG_VBUS*%
X89390000Y-45070000D03*
%TO.N,VDD*%
X101870000Y-58060000D03*
%TO.N,LED1*%
X96350000Y-46530000D03*
%TO.N,USART1_TX*%
X114800000Y-43070000D03*
%TO.N,SWO*%
X89440000Y-54560000D03*
%TO.N,Net-(IC5-COM1)*%
X91380000Y-52070000D03*
%TO.N,VDDA*%
X100580000Y-60790000D03*
%TO.N,GND*%
X109660000Y-39200000D03*
%TO.N,VDDA*%
X99880000Y-58060000D03*
X102020000Y-49955000D03*
%TO.N,I2C1_SCL*%
X106340000Y-54170000D03*
D17*
%TO.N,Net-(J3-ID)*%
X69380000Y-57060000D03*
D14*
%TO.N,+3V3*%
X87910000Y-39280000D03*
%TO.N,USB_OTG_FS_D-*%
X88150000Y-42540000D03*
%TO.N,GND2*%
X65880000Y-45780000D03*
%TO.N,LED3*%
X97960000Y-46380000D03*
X114710000Y-40910000D03*
%TO.N,Net-(D3-K)*%
X114760000Y-37162500D03*
%TO.N,USB_OTG_FS_D-*%
X93040000Y-54070000D03*
D17*
%TO.N,VBUS_DONGLE*%
X54970000Y-48870000D03*
D14*
%TO.N,VDDA*%
X88760000Y-45750000D03*
%TO.N,I2C1_SCL*%
X115840000Y-52270000D03*
%TO.N,SWDIO*%
X92440000Y-56890000D03*
%TO.N,VDDA*%
X95790000Y-45390000D03*
%TO.N,Net-(IC2-OUT)*%
X100320000Y-52050000D03*
%TO.N,GND2*%
X75540000Y-42140000D03*
%TO.N,USBC_FUNCTION*%
X99250000Y-60890000D03*
%TO.N,LED4*%
X115560000Y-40940000D03*
%TO.N,+3V3*%
X110320000Y-37470000D03*
D16*
%TO.N,GND*%
X93995000Y-46486300D03*
%TO.N,SDMMC1_CK*%
X109740000Y-51710000D03*
D14*
%TO.N,USB_OTG_VBUS*%
X94650000Y-54270000D03*
%TO.N,USBC_FUNCTION*%
X93550000Y-55860000D03*
%TO.N,Net-(D2-K)*%
X113760000Y-37112500D03*
%TO.N,+3V3*%
X112120000Y-52270000D03*
%TO.N,GND*%
X110380000Y-54390000D03*
D18*
X107740000Y-51210000D03*
D14*
%TO.N,VDDA*%
X108160000Y-41100000D03*
D17*
%TO.N,SWO_OUT*%
X55290000Y-54040000D03*
D14*
%TO.N,GND*%
X95580000Y-42500000D03*
D16*
%TO.N,USBC_FUNCTION*%
X99064360Y-44284216D03*
D14*
%TO.N,USART1_RX*%
X92530000Y-42010000D03*
%TO.N,CC2*%
X98295000Y-56610000D03*
%TO.N,SDMMC1_D0*%
X92230000Y-44080000D03*
%TO.N,GND*%
X88351651Y-38231651D03*
X103370000Y-35400000D03*
%TO.N,GPS_EXTINT*%
X112580000Y-44890000D03*
D16*
%TO.N,GND*%
X105330000Y-56050000D03*
D14*
%TO.N,Net-(IC5-COM4)*%
X94605000Y-58170000D03*
D16*
%TO.N,Net-(IC6-COM2)*%
X94770000Y-55670000D03*
D14*
%TO.N,I2C1_SCL*%
X103430000Y-41410000D03*
%TO.N,VDDA*%
X105100000Y-39800000D03*
%TO.N,+3V3*%
X116720000Y-47610000D03*
%TO.N,I2C1_SCL*%
X105300000Y-40860000D03*
D15*
%TO.N,SDMMC1_D3*%
X94070000Y-35590000D03*
D17*
%TO.N,VBUS_DONGLE*%
X77570000Y-40250000D03*
D16*
%TO.N,USB_OTG_FS_D-*%
X93090000Y-52330000D03*
X93696934Y-51800435D03*
D14*
%TO.N,USART1_RX*%
X115900000Y-43090000D03*
%TO.N,SDMMC1_D1*%
X92680000Y-43120000D03*
%TO.N,I2C1_SDA*%
X99120000Y-39950000D03*
%TO.N,SDMMC1_D2*%
X106038539Y-59061441D03*
%TO.N,GND*%
X88420000Y-36060000D03*
%TD*%
M02*
