%TF.GenerationSoftware,KiCad,Pcbnew,10.0.3*%
%TF.CreationDate,2026-08-03T22:04:37-04:00*%
%TF.ProjectId,Dongle,446f6e67-6c65-42e6-9b69-6361645f7063,rev?*%
%TF.SameCoordinates,Original*%
%TF.FileFunction,Soldermask,Top*%
%TF.FilePolarity,Negative*%
%FSLAX46Y46*%
G04 Gerber Fmt 4.6, Leading zero omitted, Abs format (unit mm)*
G04 Created by KiCad (PCBNEW 10.0.3) date 2026-08-03 22:04:37*
%MOMM*%
%LPD*%
G01*
G04 APERTURE LIST*
G04 Aperture macros list*
%AMRoundRect*
0 Rectangle with rounded corners*
0 $1 Rounding radius*
0 $2 $3 $4 $5 $6 $7 $8 $9 X,Y pos of 4 corners*
0 Add a 4 corners polygon primitive as box body*
4,1,4,$2,$3,$4,$5,$6,$7,$8,$9,$2,$3,0*
0 Add four circle primitives for the rounded corners*
1,1,$1+$1,$2,$3*
1,1,$1+$1,$4,$5*
1,1,$1+$1,$6,$7*
1,1,$1+$1,$8,$9*
0 Add four rect primitives between the rounded corners*
20,1,$1+$1,$2,$3,$4,$5,0*
20,1,$1+$1,$4,$5,$6,$7,0*
20,1,$1+$1,$6,$7,$8,$9,0*
20,1,$1+$1,$8,$9,$2,$3,0*%
G04 Aperture macros list end*
%ADD10C,0.175000*%
%ADD11RoundRect,0.140000X0.170000X-0.140000X0.170000X0.140000X-0.170000X0.140000X-0.170000X-0.140000X0*%
%ADD12RoundRect,0.135000X0.135000X0.185000X-0.135000X0.185000X-0.135000X-0.185000X0.135000X-0.185000X0*%
%ADD13R,1.700000X0.900000*%
%ADD14R,1.500000X1.500000*%
%ADD15RoundRect,0.135000X0.185000X-0.135000X0.185000X0.135000X-0.185000X0.135000X-0.185000X-0.135000X0*%
%ADD16RoundRect,0.140000X0.140000X0.170000X-0.140000X0.170000X-0.140000X-0.170000X0.140000X-0.170000X0*%
%ADD17RoundRect,0.135000X-0.185000X0.135000X-0.185000X-0.135000X0.185000X-0.135000X0.185000X0.135000X0*%
%ADD18RoundRect,0.125000X-0.125000X-0.875000X0.125000X-0.875000X0.125000X0.875000X-0.125000X0.875000X0*%
%ADD19RoundRect,0.250000X-0.750000X-0.600000X0.750000X-0.600000X0.750000X0.600000X-0.750000X0.600000X0*%
%ADD20R,1.700000X1.700000*%
%ADD21C,1.700000*%
%ADD22RoundRect,0.218750X0.381250X-0.218750X0.381250X0.218750X-0.381250X0.218750X-0.381250X-0.218750X0*%
%ADD23O,3.000000X1.600000*%
%ADD24R,0.850000X0.300000*%
G04 APERTURE END LIST*
%TO.C,U18*%
D10*
X73037500Y-45380000D02*
G75*
G02*
X72862500Y-45380000I-87500J0D01*
G01*
X72862500Y-45380000D02*
G75*
G02*
X73037500Y-45380000I87500J0D01*
G01*
X73037500Y-45780000D02*
G75*
G02*
X72862500Y-45780000I-87500J0D01*
G01*
X72862500Y-45780000D02*
G75*
G02*
X73037500Y-45780000I87500J0D01*
G01*
X73037500Y-46180000D02*
G75*
G02*
X72862500Y-46180000I-87500J0D01*
G01*
X72862500Y-46180000D02*
G75*
G02*
X73037500Y-46180000I87500J0D01*
G01*
X73437500Y-45380000D02*
G75*
G02*
X73262500Y-45380000I-87500J0D01*
G01*
X73262500Y-45380000D02*
G75*
G02*
X73437500Y-45380000I87500J0D01*
G01*
X73437500Y-45780000D02*
G75*
G02*
X73262500Y-45780000I-87500J0D01*
G01*
X73262500Y-45780000D02*
G75*
G02*
X73437500Y-45780000I87500J0D01*
G01*
X73437500Y-46180000D02*
G75*
G02*
X73262500Y-46180000I-87500J0D01*
G01*
X73262500Y-46180000D02*
G75*
G02*
X73437500Y-46180000I87500J0D01*
G01*
%TD*%
D11*
%TO.C,C11*%
X68740000Y-46420000D03*
X68740000Y-45460000D03*
%TD*%
D12*
%TO.C,R12*%
X63230000Y-44890000D03*
X64250000Y-44890000D03*
%TD*%
D13*
%TO.C,SW1*%
X75490000Y-38730000D03*
X75490000Y-42130000D03*
%TD*%
D14*
%TO.C,GND*%
X79550000Y-56530000D03*
%TD*%
%TO.C,ID*%
X79550000Y-52160000D03*
%TD*%
D15*
%TO.C,R10*%
X61030000Y-52770000D03*
X61030000Y-51750000D03*
%TD*%
D16*
%TO.C,C19*%
X75055000Y-44120000D03*
X74095000Y-44120000D03*
%TD*%
D17*
%TO.C,R17*%
X54610000Y-50335000D03*
X54610000Y-51355000D03*
%TD*%
D14*
%TO.C,D-*%
X79630000Y-44120000D03*
%TD*%
D18*
%TO.C,J3*%
X67200000Y-49750000D03*
X68000000Y-49750000D03*
X68800000Y-49750000D03*
X69600000Y-49750000D03*
X70400000Y-49750000D03*
D19*
X64350000Y-49850000D03*
X64350000Y-55300000D03*
X73250000Y-49850000D03*
X73250000Y-55300000D03*
%TD*%
D20*
%TO.C,CN2*%
X66650000Y-42800000D03*
D21*
X66650000Y-40260000D03*
X69190000Y-42800000D03*
X69190000Y-40260000D03*
X71730000Y-42800000D03*
X71730000Y-40260000D03*
%TD*%
D22*
%TO.C,L4*%
X76420000Y-45682500D03*
X76420000Y-43557500D03*
%TD*%
D14*
%TO.C,D+*%
X79630000Y-48140000D03*
%TD*%
D23*
%TO.C,J4*%
X57635000Y-48000000D03*
X57635000Y-55800000D03*
D24*
X58905000Y-54650000D03*
X58905000Y-54150000D03*
X58905000Y-53650000D03*
X58905000Y-53150000D03*
X58905000Y-52650000D03*
X58905000Y-52150000D03*
X58905000Y-51650000D03*
X58905000Y-51150000D03*
X58905000Y-50650000D03*
X58905000Y-50150000D03*
X58905000Y-49650000D03*
X58905000Y-49150000D03*
X56365000Y-49150000D03*
X56365000Y-49650000D03*
X56365000Y-50150000D03*
X56365000Y-50650000D03*
X56365000Y-51150000D03*
X56365000Y-51650000D03*
X56365000Y-52150000D03*
X56365000Y-52650000D03*
X56365000Y-53150000D03*
X56365000Y-53650000D03*
X56365000Y-54150000D03*
X56365000Y-54650000D03*
%TD*%
D14*
%TO.C,VBUS*%
X79790000Y-40180000D03*
%TD*%
M02*
