%TF.GenerationSoftware,KiCad,Pcbnew,10.0.3*%
%TF.CreationDate,2026-08-03T22:04:37-04:00*%
%TF.ProjectId,Dongle,446f6e67-6c65-42e6-9b69-6361645f7063,rev?*%
%TF.SameCoordinates,Original*%
%TF.FileFunction,Copper,L1,Top*%
%TF.FilePolarity,Positive*%
%FSLAX46Y46*%
G04 Gerber Fmt 4.6, Leading zero omitted, Abs format (unit mm)*
G04 Created by KiCad (PCBNEW 10.0.3) date 2026-08-03 22:04:37*
%MOMM*%
%LPD*%
G01*
G04 APERTURE LIST*
G04 Aperture macros list*
%AMRoundRect*
0 Rectangle with rounded corners*
0 $1 Rounding radius*
0 $2 $3 $4 $5 $6 $7 $8 $9 X,Y pos of 4 corners*
0 Add a 4 corners polygon primitive as box body*
4,1,4,$2,$3,$4,$5,$6,$7,$8,$9,$2,$3,0*
0 Add four circle primitives for the rounded corners*
1,1,$1+$1,$2,$3*
1,1,$1+$1,$4,$5*
1,1,$1+$1,$6,$7*
1,1,$1+$1,$8,$9*
0 Add four rect primitives between the rounded corners*
20,1,$1+$1,$2,$3,$4,$5,0*
20,1,$1+$1,$4,$5,$6,$7,0*
20,1,$1+$1,$6,$7,$8,$9,0*
20,1,$1+$1,$8,$9,$2,$3,0*%
G04 Aperture macros list end*
%ADD10C,0.175000*%
%TA.AperFunction,NonConductor*%
%ADD11C,0.175000*%
%TD*%
%TA.AperFunction,SMDPad,CuDef*%
%ADD12RoundRect,0.140000X0.170000X-0.140000X0.170000X0.140000X-0.170000X0.140000X-0.170000X-0.140000X0*%
%TD*%
%TA.AperFunction,SMDPad,CuDef*%
%ADD13RoundRect,0.135000X0.135000X0.185000X-0.135000X0.185000X-0.135000X-0.185000X0.135000X-0.185000X0*%
%TD*%
%TA.AperFunction,SMDPad,CuDef*%
%ADD14R,1.700000X0.900000*%
%TD*%
%TA.AperFunction,SMDPad,CuDef*%
%ADD15R,1.500000X1.500000*%
%TD*%
%TA.AperFunction,SMDPad,CuDef*%
%ADD16RoundRect,0.135000X0.185000X-0.135000X0.185000X0.135000X-0.185000X0.135000X-0.185000X-0.135000X0*%
%TD*%
%TA.AperFunction,SMDPad,CuDef*%
%ADD17RoundRect,0.140000X0.140000X0.170000X-0.140000X0.170000X-0.140000X-0.170000X0.140000X-0.170000X0*%
%TD*%
%TA.AperFunction,SMDPad,CuDef*%
%ADD18RoundRect,0.135000X-0.185000X0.135000X-0.185000X-0.135000X0.185000X-0.135000X0.185000X0.135000X0*%
%TD*%
%TA.AperFunction,SMDPad,CuDef*%
%ADD19RoundRect,0.125000X-0.125000X-0.875000X0.125000X-0.875000X0.125000X0.875000X-0.125000X0.875000X0*%
%TD*%
%TA.AperFunction,SMDPad,CuDef*%
%ADD20RoundRect,0.250000X-0.750000X-0.600000X0.750000X-0.600000X0.750000X0.600000X-0.750000X0.600000X0*%
%TD*%
%TA.AperFunction,ComponentPad*%
%ADD21R,1.700000X1.700000*%
%TD*%
%TA.AperFunction,ComponentPad*%
%ADD22C,1.700000*%
%TD*%
%TA.AperFunction,SMDPad,CuDef*%
%ADD23RoundRect,0.218750X0.381250X-0.218750X0.381250X0.218750X-0.381250X0.218750X-0.381250X-0.218750X0*%
%TD*%
%TA.AperFunction,ComponentPad*%
%ADD24O,3.000000X1.600000*%
%TD*%
%TA.AperFunction,SMDPad,CuDef*%
%ADD25R,0.850000X0.300000*%
%TD*%
%TA.AperFunction,SMDPad,CuDef*%
%ADD26C,0.250000*%
%TD*%
%TA.AperFunction,ViaPad*%
%ADD27C,0.500000*%
%TD*%
%TA.AperFunction,ViaPad*%
%ADD28C,0.600000*%
%TD*%
%TA.AperFunction,Conductor*%
%ADD29C,0.130000*%
%TD*%
%TA.AperFunction,Conductor*%
%ADD30C,0.120000*%
%TD*%
G04 APERTURE END LIST*
D10*
D11*
X134682631Y-60918272D02*
X134349297Y-60918272D01*
X134349297Y-60918272D02*
X134315964Y-61251605D01*
X134315964Y-61251605D02*
X134349297Y-61218272D01*
X134349297Y-61218272D02*
X134415964Y-61184939D01*
X134415964Y-61184939D02*
X134582631Y-61184939D01*
X134582631Y-61184939D02*
X134649297Y-61218272D01*
X134649297Y-61218272D02*
X134682631Y-61251605D01*
X134682631Y-61251605D02*
X134715964Y-61318272D01*
X134715964Y-61318272D02*
X134715964Y-61484939D01*
X134715964Y-61484939D02*
X134682631Y-61551605D01*
X134682631Y-61551605D02*
X134649297Y-61584939D01*
X134649297Y-61584939D02*
X134582631Y-61618272D01*
X134582631Y-61618272D02*
X134415964Y-61618272D01*
X134415964Y-61618272D02*
X134349297Y-61584939D01*
X134349297Y-61584939D02*
X134315964Y-61551605D01*
X135149298Y-60918272D02*
X135215964Y-60918272D01*
X135215964Y-60918272D02*
X135282631Y-60951605D01*
X135282631Y-60951605D02*
X135315964Y-60984939D01*
X135315964Y-60984939D02*
X135349298Y-61051605D01*
X135349298Y-61051605D02*
X135382631Y-61184939D01*
X135382631Y-61184939D02*
X135382631Y-61351605D01*
X135382631Y-61351605D02*
X135349298Y-61484939D01*
X135349298Y-61484939D02*
X135315964Y-61551605D01*
X135315964Y-61551605D02*
X135282631Y-61584939D01*
X135282631Y-61584939D02*
X135215964Y-61618272D01*
X135215964Y-61618272D02*
X135149298Y-61618272D01*
X135149298Y-61618272D02*
X135082631Y-61584939D01*
X135082631Y-61584939D02*
X135049298Y-61551605D01*
X135049298Y-61551605D02*
X135015964Y-61484939D01*
X135015964Y-61484939D02*
X134982631Y-61351605D01*
X134982631Y-61351605D02*
X134982631Y-61184939D01*
X134982631Y-61184939D02*
X135015964Y-61051605D01*
X135015964Y-61051605D02*
X135049298Y-60984939D01*
X135049298Y-60984939D02*
X135082631Y-60951605D01*
X135082631Y-60951605D02*
X135149298Y-60918272D01*
X136315964Y-61618272D02*
X136249298Y-61584939D01*
X136249298Y-61584939D02*
X136215964Y-61551605D01*
X136215964Y-61551605D02*
X136182631Y-61484939D01*
X136182631Y-61484939D02*
X136182631Y-61284939D01*
X136182631Y-61284939D02*
X136215964Y-61218272D01*
X136215964Y-61218272D02*
X136249298Y-61184939D01*
X136249298Y-61184939D02*
X136315964Y-61151605D01*
X136315964Y-61151605D02*
X136415964Y-61151605D01*
X136415964Y-61151605D02*
X136482631Y-61184939D01*
X136482631Y-61184939D02*
X136515964Y-61218272D01*
X136515964Y-61218272D02*
X136549298Y-61284939D01*
X136549298Y-61284939D02*
X136549298Y-61484939D01*
X136549298Y-61484939D02*
X136515964Y-61551605D01*
X136515964Y-61551605D02*
X136482631Y-61584939D01*
X136482631Y-61584939D02*
X136415964Y-61618272D01*
X136415964Y-61618272D02*
X136315964Y-61618272D01*
X136849297Y-61618272D02*
X136849297Y-60918272D01*
X137149297Y-61618272D02*
X137149297Y-61251605D01*
X137149297Y-61251605D02*
X137115964Y-61184939D01*
X137115964Y-61184939D02*
X137049297Y-61151605D01*
X137049297Y-61151605D02*
X136949297Y-61151605D01*
X136949297Y-61151605D02*
X136882631Y-61184939D01*
X136882631Y-61184939D02*
X136849297Y-61218272D01*
X137482630Y-61618272D02*
X137482630Y-61151605D01*
X137482630Y-61218272D02*
X137515964Y-61184939D01*
X137515964Y-61184939D02*
X137582630Y-61151605D01*
X137582630Y-61151605D02*
X137682630Y-61151605D01*
X137682630Y-61151605D02*
X137749297Y-61184939D01*
X137749297Y-61184939D02*
X137782630Y-61251605D01*
X137782630Y-61251605D02*
X137782630Y-61618272D01*
X137782630Y-61251605D02*
X137815964Y-61184939D01*
X137815964Y-61184939D02*
X137882630Y-61151605D01*
X137882630Y-61151605D02*
X137982630Y-61151605D01*
X137982630Y-61151605D02*
X138049297Y-61184939D01*
X138049297Y-61184939D02*
X138082630Y-61251605D01*
X138082630Y-61251605D02*
X138082630Y-61618272D01*
X138949296Y-61618272D02*
X138949296Y-61151605D01*
X138949296Y-60918272D02*
X138915963Y-60951605D01*
X138915963Y-60951605D02*
X138949296Y-60984939D01*
X138949296Y-60984939D02*
X138982630Y-60951605D01*
X138982630Y-60951605D02*
X138949296Y-60918272D01*
X138949296Y-60918272D02*
X138949296Y-60984939D01*
X139282629Y-61618272D02*
X139282629Y-61151605D01*
X139282629Y-61218272D02*
X139315963Y-61184939D01*
X139315963Y-61184939D02*
X139382629Y-61151605D01*
X139382629Y-61151605D02*
X139482629Y-61151605D01*
X139482629Y-61151605D02*
X139549296Y-61184939D01*
X139549296Y-61184939D02*
X139582629Y-61251605D01*
X139582629Y-61251605D02*
X139582629Y-61618272D01*
X139582629Y-61251605D02*
X139615963Y-61184939D01*
X139615963Y-61184939D02*
X139682629Y-61151605D01*
X139682629Y-61151605D02*
X139782629Y-61151605D01*
X139782629Y-61151605D02*
X139849296Y-61184939D01*
X139849296Y-61184939D02*
X139882629Y-61251605D01*
X139882629Y-61251605D02*
X139882629Y-61618272D01*
X140215962Y-61151605D02*
X140215962Y-61851605D01*
X140215962Y-61184939D02*
X140282629Y-61151605D01*
X140282629Y-61151605D02*
X140415962Y-61151605D01*
X140415962Y-61151605D02*
X140482629Y-61184939D01*
X140482629Y-61184939D02*
X140515962Y-61218272D01*
X140515962Y-61218272D02*
X140549296Y-61284939D01*
X140549296Y-61284939D02*
X140549296Y-61484939D01*
X140549296Y-61484939D02*
X140515962Y-61551605D01*
X140515962Y-61551605D02*
X140482629Y-61584939D01*
X140482629Y-61584939D02*
X140415962Y-61618272D01*
X140415962Y-61618272D02*
X140282629Y-61618272D01*
X140282629Y-61618272D02*
X140215962Y-61584939D01*
X141115962Y-61584939D02*
X141049295Y-61618272D01*
X141049295Y-61618272D02*
X140915962Y-61618272D01*
X140915962Y-61618272D02*
X140849295Y-61584939D01*
X140849295Y-61584939D02*
X140815962Y-61518272D01*
X140815962Y-61518272D02*
X140815962Y-61251605D01*
X140815962Y-61251605D02*
X140849295Y-61184939D01*
X140849295Y-61184939D02*
X140915962Y-61151605D01*
X140915962Y-61151605D02*
X141049295Y-61151605D01*
X141049295Y-61151605D02*
X141115962Y-61184939D01*
X141115962Y-61184939D02*
X141149295Y-61251605D01*
X141149295Y-61251605D02*
X141149295Y-61318272D01*
X141149295Y-61318272D02*
X140815962Y-61384939D01*
X141749295Y-61618272D02*
X141749295Y-60918272D01*
X141749295Y-61584939D02*
X141682629Y-61618272D01*
X141682629Y-61618272D02*
X141549295Y-61618272D01*
X141549295Y-61618272D02*
X141482629Y-61584939D01*
X141482629Y-61584939D02*
X141449295Y-61551605D01*
X141449295Y-61551605D02*
X141415962Y-61484939D01*
X141415962Y-61484939D02*
X141415962Y-61284939D01*
X141415962Y-61284939D02*
X141449295Y-61218272D01*
X141449295Y-61218272D02*
X141482629Y-61184939D01*
X141482629Y-61184939D02*
X141549295Y-61151605D01*
X141549295Y-61151605D02*
X141682629Y-61151605D01*
X141682629Y-61151605D02*
X141749295Y-61184939D01*
X142382628Y-61618272D02*
X142382628Y-61251605D01*
X142382628Y-61251605D02*
X142349295Y-61184939D01*
X142349295Y-61184939D02*
X142282628Y-61151605D01*
X142282628Y-61151605D02*
X142149295Y-61151605D01*
X142149295Y-61151605D02*
X142082628Y-61184939D01*
X142382628Y-61584939D02*
X142315962Y-61618272D01*
X142315962Y-61618272D02*
X142149295Y-61618272D01*
X142149295Y-61618272D02*
X142082628Y-61584939D01*
X142082628Y-61584939D02*
X142049295Y-61518272D01*
X142049295Y-61518272D02*
X142049295Y-61451605D01*
X142049295Y-61451605D02*
X142082628Y-61384939D01*
X142082628Y-61384939D02*
X142149295Y-61351605D01*
X142149295Y-61351605D02*
X142315962Y-61351605D01*
X142315962Y-61351605D02*
X142382628Y-61318272D01*
X142715961Y-61151605D02*
X142715961Y-61618272D01*
X142715961Y-61218272D02*
X142749295Y-61184939D01*
X142749295Y-61184939D02*
X142815961Y-61151605D01*
X142815961Y-61151605D02*
X142915961Y-61151605D01*
X142915961Y-61151605D02*
X142982628Y-61184939D01*
X142982628Y-61184939D02*
X143015961Y-61251605D01*
X143015961Y-61251605D02*
X143015961Y-61618272D01*
X143649294Y-61584939D02*
X143582628Y-61618272D01*
X143582628Y-61618272D02*
X143449294Y-61618272D01*
X143449294Y-61618272D02*
X143382628Y-61584939D01*
X143382628Y-61584939D02*
X143349294Y-61551605D01*
X143349294Y-61551605D02*
X143315961Y-61484939D01*
X143315961Y-61484939D02*
X143315961Y-61284939D01*
X143315961Y-61284939D02*
X143349294Y-61218272D01*
X143349294Y-61218272D02*
X143382628Y-61184939D01*
X143382628Y-61184939D02*
X143449294Y-61151605D01*
X143449294Y-61151605D02*
X143582628Y-61151605D01*
X143582628Y-61151605D02*
X143649294Y-61184939D01*
X144215961Y-61584939D02*
X144149294Y-61618272D01*
X144149294Y-61618272D02*
X144015961Y-61618272D01*
X144015961Y-61618272D02*
X143949294Y-61584939D01*
X143949294Y-61584939D02*
X143915961Y-61518272D01*
X143915961Y-61518272D02*
X143915961Y-61251605D01*
X143915961Y-61251605D02*
X143949294Y-61184939D01*
X143949294Y-61184939D02*
X144015961Y-61151605D01*
X144015961Y-61151605D02*
X144149294Y-61151605D01*
X144149294Y-61151605D02*
X144215961Y-61184939D01*
X144215961Y-61184939D02*
X144249294Y-61251605D01*
X144249294Y-61251605D02*
X144249294Y-61318272D01*
X144249294Y-61318272D02*
X143915961Y-61384939D01*
X145182627Y-61618272D02*
X145115961Y-61584939D01*
X145115961Y-61584939D02*
X145082627Y-61551605D01*
X145082627Y-61551605D02*
X145049294Y-61484939D01*
X145049294Y-61484939D02*
X145049294Y-61284939D01*
X145049294Y-61284939D02*
X145082627Y-61218272D01*
X145082627Y-61218272D02*
X145115961Y-61184939D01*
X145115961Y-61184939D02*
X145182627Y-61151605D01*
X145182627Y-61151605D02*
X145282627Y-61151605D01*
X145282627Y-61151605D02*
X145349294Y-61184939D01*
X145349294Y-61184939D02*
X145382627Y-61218272D01*
X145382627Y-61218272D02*
X145415961Y-61284939D01*
X145415961Y-61284939D02*
X145415961Y-61484939D01*
X145415961Y-61484939D02*
X145382627Y-61551605D01*
X145382627Y-61551605D02*
X145349294Y-61584939D01*
X145349294Y-61584939D02*
X145282627Y-61618272D01*
X145282627Y-61618272D02*
X145182627Y-61618272D01*
X145715960Y-61151605D02*
X145715960Y-61618272D01*
X145715960Y-61218272D02*
X145749294Y-61184939D01*
X145749294Y-61184939D02*
X145815960Y-61151605D01*
X145815960Y-61151605D02*
X145915960Y-61151605D01*
X145915960Y-61151605D02*
X145982627Y-61184939D01*
X145982627Y-61184939D02*
X146015960Y-61251605D01*
X146015960Y-61251605D02*
X146015960Y-61618272D01*
X147282626Y-61618272D02*
X147049293Y-61284939D01*
X146882626Y-61618272D02*
X146882626Y-60918272D01*
X146882626Y-60918272D02*
X147149293Y-60918272D01*
X147149293Y-60918272D02*
X147215960Y-60951605D01*
X147215960Y-60951605D02*
X147249293Y-60984939D01*
X147249293Y-60984939D02*
X147282626Y-61051605D01*
X147282626Y-61051605D02*
X147282626Y-61151605D01*
X147282626Y-61151605D02*
X147249293Y-61218272D01*
X147249293Y-61218272D02*
X147215960Y-61251605D01*
X147215960Y-61251605D02*
X147149293Y-61284939D01*
X147149293Y-61284939D02*
X146882626Y-61284939D01*
X147815960Y-61251605D02*
X147582626Y-61251605D01*
X147582626Y-61618272D02*
X147582626Y-60918272D01*
X147582626Y-60918272D02*
X147915960Y-60918272D01*
X148015960Y-61684939D02*
X148549293Y-61684939D01*
X148715959Y-61618272D02*
X148715959Y-60918272D01*
X149049292Y-61618272D02*
X149049292Y-60918272D01*
X149049292Y-60918272D02*
X149449292Y-61618272D01*
X149449292Y-61618272D02*
X149449292Y-60918272D01*
X134749297Y-62678566D02*
X134715964Y-62711900D01*
X134715964Y-62711900D02*
X134615964Y-62745233D01*
X134615964Y-62745233D02*
X134549297Y-62745233D01*
X134549297Y-62745233D02*
X134449297Y-62711900D01*
X134449297Y-62711900D02*
X134382631Y-62645233D01*
X134382631Y-62645233D02*
X134349297Y-62578566D01*
X134349297Y-62578566D02*
X134315964Y-62445233D01*
X134315964Y-62445233D02*
X134315964Y-62345233D01*
X134315964Y-62345233D02*
X134349297Y-62211900D01*
X134349297Y-62211900D02*
X134382631Y-62145233D01*
X134382631Y-62145233D02*
X134449297Y-62078566D01*
X134449297Y-62078566D02*
X134549297Y-62045233D01*
X134549297Y-62045233D02*
X134615964Y-62045233D01*
X134615964Y-62045233D02*
X134715964Y-62078566D01*
X134715964Y-62078566D02*
X134749297Y-62111900D01*
X135149297Y-62745233D02*
X135082631Y-62711900D01*
X135082631Y-62711900D02*
X135049297Y-62678566D01*
X135049297Y-62678566D02*
X135015964Y-62611900D01*
X135015964Y-62611900D02*
X135015964Y-62411900D01*
X135015964Y-62411900D02*
X135049297Y-62345233D01*
X135049297Y-62345233D02*
X135082631Y-62311900D01*
X135082631Y-62311900D02*
X135149297Y-62278566D01*
X135149297Y-62278566D02*
X135249297Y-62278566D01*
X135249297Y-62278566D02*
X135315964Y-62311900D01*
X135315964Y-62311900D02*
X135349297Y-62345233D01*
X135349297Y-62345233D02*
X135382631Y-62411900D01*
X135382631Y-62411900D02*
X135382631Y-62611900D01*
X135382631Y-62611900D02*
X135349297Y-62678566D01*
X135349297Y-62678566D02*
X135315964Y-62711900D01*
X135315964Y-62711900D02*
X135249297Y-62745233D01*
X135249297Y-62745233D02*
X135149297Y-62745233D01*
X135682630Y-62278566D02*
X135682630Y-62745233D01*
X135682630Y-62345233D02*
X135715964Y-62311900D01*
X135715964Y-62311900D02*
X135782630Y-62278566D01*
X135782630Y-62278566D02*
X135882630Y-62278566D01*
X135882630Y-62278566D02*
X135949297Y-62311900D01*
X135949297Y-62311900D02*
X135982630Y-62378566D01*
X135982630Y-62378566D02*
X135982630Y-62745233D01*
X136315963Y-62278566D02*
X136315963Y-62745233D01*
X136315963Y-62345233D02*
X136349297Y-62311900D01*
X136349297Y-62311900D02*
X136415963Y-62278566D01*
X136415963Y-62278566D02*
X136515963Y-62278566D01*
X136515963Y-62278566D02*
X136582630Y-62311900D01*
X136582630Y-62311900D02*
X136615963Y-62378566D01*
X136615963Y-62378566D02*
X136615963Y-62745233D01*
X137215963Y-62711900D02*
X137149296Y-62745233D01*
X137149296Y-62745233D02*
X137015963Y-62745233D01*
X137015963Y-62745233D02*
X136949296Y-62711900D01*
X136949296Y-62711900D02*
X136915963Y-62645233D01*
X136915963Y-62645233D02*
X136915963Y-62378566D01*
X136915963Y-62378566D02*
X136949296Y-62311900D01*
X136949296Y-62311900D02*
X137015963Y-62278566D01*
X137015963Y-62278566D02*
X137149296Y-62278566D01*
X137149296Y-62278566D02*
X137215963Y-62311900D01*
X137215963Y-62311900D02*
X137249296Y-62378566D01*
X137249296Y-62378566D02*
X137249296Y-62445233D01*
X137249296Y-62445233D02*
X136915963Y-62511900D01*
X137849296Y-62711900D02*
X137782630Y-62745233D01*
X137782630Y-62745233D02*
X137649296Y-62745233D01*
X137649296Y-62745233D02*
X137582630Y-62711900D01*
X137582630Y-62711900D02*
X137549296Y-62678566D01*
X137549296Y-62678566D02*
X137515963Y-62611900D01*
X137515963Y-62611900D02*
X137515963Y-62411900D01*
X137515963Y-62411900D02*
X137549296Y-62345233D01*
X137549296Y-62345233D02*
X137582630Y-62311900D01*
X137582630Y-62311900D02*
X137649296Y-62278566D01*
X137649296Y-62278566D02*
X137782630Y-62278566D01*
X137782630Y-62278566D02*
X137849296Y-62311900D01*
X138049296Y-62278566D02*
X138315963Y-62278566D01*
X138149296Y-62045233D02*
X138149296Y-62645233D01*
X138149296Y-62645233D02*
X138182630Y-62711900D01*
X138182630Y-62711900D02*
X138249296Y-62745233D01*
X138249296Y-62745233D02*
X138315963Y-62745233D01*
X138649296Y-62745233D02*
X138582630Y-62711900D01*
X138582630Y-62711900D02*
X138549296Y-62678566D01*
X138549296Y-62678566D02*
X138515963Y-62611900D01*
X138515963Y-62611900D02*
X138515963Y-62411900D01*
X138515963Y-62411900D02*
X138549296Y-62345233D01*
X138549296Y-62345233D02*
X138582630Y-62311900D01*
X138582630Y-62311900D02*
X138649296Y-62278566D01*
X138649296Y-62278566D02*
X138749296Y-62278566D01*
X138749296Y-62278566D02*
X138815963Y-62311900D01*
X138815963Y-62311900D02*
X138849296Y-62345233D01*
X138849296Y-62345233D02*
X138882630Y-62411900D01*
X138882630Y-62411900D02*
X138882630Y-62611900D01*
X138882630Y-62611900D02*
X138849296Y-62678566D01*
X138849296Y-62678566D02*
X138815963Y-62711900D01*
X138815963Y-62711900D02*
X138749296Y-62745233D01*
X138749296Y-62745233D02*
X138649296Y-62745233D01*
X139182629Y-62745233D02*
X139182629Y-62278566D01*
X139182629Y-62411900D02*
X139215963Y-62345233D01*
X139215963Y-62345233D02*
X139249296Y-62311900D01*
X139249296Y-62311900D02*
X139315963Y-62278566D01*
X139315963Y-62278566D02*
X139382629Y-62278566D01*
X140249295Y-62745233D02*
X140182629Y-62711900D01*
X140182629Y-62711900D02*
X140149295Y-62678566D01*
X140149295Y-62678566D02*
X140115962Y-62611900D01*
X140115962Y-62611900D02*
X140115962Y-62411900D01*
X140115962Y-62411900D02*
X140149295Y-62345233D01*
X140149295Y-62345233D02*
X140182629Y-62311900D01*
X140182629Y-62311900D02*
X140249295Y-62278566D01*
X140249295Y-62278566D02*
X140349295Y-62278566D01*
X140349295Y-62278566D02*
X140415962Y-62311900D01*
X140415962Y-62311900D02*
X140449295Y-62345233D01*
X140449295Y-62345233D02*
X140482629Y-62411900D01*
X140482629Y-62411900D02*
X140482629Y-62611900D01*
X140482629Y-62611900D02*
X140449295Y-62678566D01*
X140449295Y-62678566D02*
X140415962Y-62711900D01*
X140415962Y-62711900D02*
X140349295Y-62745233D01*
X140349295Y-62745233D02*
X140249295Y-62745233D01*
X140782628Y-62278566D02*
X140782628Y-62745233D01*
X140782628Y-62345233D02*
X140815962Y-62311900D01*
X140815962Y-62311900D02*
X140882628Y-62278566D01*
X140882628Y-62278566D02*
X140982628Y-62278566D01*
X140982628Y-62278566D02*
X141049295Y-62311900D01*
X141049295Y-62311900D02*
X141082628Y-62378566D01*
X141082628Y-62378566D02*
X141082628Y-62745233D01*
X142215961Y-62711900D02*
X142149294Y-62745233D01*
X142149294Y-62745233D02*
X142015961Y-62745233D01*
X142015961Y-62745233D02*
X141949294Y-62711900D01*
X141949294Y-62711900D02*
X141915961Y-62645233D01*
X141915961Y-62645233D02*
X141915961Y-62378566D01*
X141915961Y-62378566D02*
X141949294Y-62311900D01*
X141949294Y-62311900D02*
X142015961Y-62278566D01*
X142015961Y-62278566D02*
X142149294Y-62278566D01*
X142149294Y-62278566D02*
X142215961Y-62311900D01*
X142215961Y-62311900D02*
X142249294Y-62378566D01*
X142249294Y-62378566D02*
X142249294Y-62445233D01*
X142249294Y-62445233D02*
X141915961Y-62511900D01*
X142849294Y-62745233D02*
X142849294Y-62045233D01*
X142849294Y-62711900D02*
X142782628Y-62745233D01*
X142782628Y-62745233D02*
X142649294Y-62745233D01*
X142649294Y-62745233D02*
X142582628Y-62711900D01*
X142582628Y-62711900D02*
X142549294Y-62678566D01*
X142549294Y-62678566D02*
X142515961Y-62611900D01*
X142515961Y-62611900D02*
X142515961Y-62411900D01*
X142515961Y-62411900D02*
X142549294Y-62345233D01*
X142549294Y-62345233D02*
X142582628Y-62311900D01*
X142582628Y-62311900D02*
X142649294Y-62278566D01*
X142649294Y-62278566D02*
X142782628Y-62278566D01*
X142782628Y-62278566D02*
X142849294Y-62311900D01*
X143482627Y-62278566D02*
X143482627Y-62845233D01*
X143482627Y-62845233D02*
X143449294Y-62911900D01*
X143449294Y-62911900D02*
X143415961Y-62945233D01*
X143415961Y-62945233D02*
X143349294Y-62978566D01*
X143349294Y-62978566D02*
X143249294Y-62978566D01*
X143249294Y-62978566D02*
X143182627Y-62945233D01*
X143482627Y-62711900D02*
X143415961Y-62745233D01*
X143415961Y-62745233D02*
X143282627Y-62745233D01*
X143282627Y-62745233D02*
X143215961Y-62711900D01*
X143215961Y-62711900D02*
X143182627Y-62678566D01*
X143182627Y-62678566D02*
X143149294Y-62611900D01*
X143149294Y-62611900D02*
X143149294Y-62411900D01*
X143149294Y-62411900D02*
X143182627Y-62345233D01*
X143182627Y-62345233D02*
X143215961Y-62311900D01*
X143215961Y-62311900D02*
X143282627Y-62278566D01*
X143282627Y-62278566D02*
X143415961Y-62278566D01*
X143415961Y-62278566D02*
X143482627Y-62311900D01*
X144082627Y-62711900D02*
X144015960Y-62745233D01*
X144015960Y-62745233D02*
X143882627Y-62745233D01*
X143882627Y-62745233D02*
X143815960Y-62711900D01*
X143815960Y-62711900D02*
X143782627Y-62645233D01*
X143782627Y-62645233D02*
X143782627Y-62378566D01*
X143782627Y-62378566D02*
X143815960Y-62311900D01*
X143815960Y-62311900D02*
X143882627Y-62278566D01*
X143882627Y-62278566D02*
X144015960Y-62278566D01*
X144015960Y-62278566D02*
X144082627Y-62311900D01*
X144082627Y-62311900D02*
X144115960Y-62378566D01*
X144115960Y-62378566D02*
X144115960Y-62445233D01*
X144115960Y-62445233D02*
X143782627Y-62511900D01*
X145049293Y-62745233D02*
X144982627Y-62711900D01*
X144982627Y-62711900D02*
X144949293Y-62678566D01*
X144949293Y-62678566D02*
X144915960Y-62611900D01*
X144915960Y-62611900D02*
X144915960Y-62411900D01*
X144915960Y-62411900D02*
X144949293Y-62345233D01*
X144949293Y-62345233D02*
X144982627Y-62311900D01*
X144982627Y-62311900D02*
X145049293Y-62278566D01*
X145049293Y-62278566D02*
X145149293Y-62278566D01*
X145149293Y-62278566D02*
X145215960Y-62311900D01*
X145215960Y-62311900D02*
X145249293Y-62345233D01*
X145249293Y-62345233D02*
X145282627Y-62411900D01*
X145282627Y-62411900D02*
X145282627Y-62611900D01*
X145282627Y-62611900D02*
X145249293Y-62678566D01*
X145249293Y-62678566D02*
X145215960Y-62711900D01*
X145215960Y-62711900D02*
X145149293Y-62745233D01*
X145149293Y-62745233D02*
X145049293Y-62745233D01*
X145482626Y-62278566D02*
X145749293Y-62278566D01*
X145582626Y-62745233D02*
X145582626Y-62145233D01*
X145582626Y-62145233D02*
X145615960Y-62078566D01*
X145615960Y-62078566D02*
X145682626Y-62045233D01*
X145682626Y-62045233D02*
X145749293Y-62045233D01*
X146515959Y-62745233D02*
X146515959Y-62045233D01*
X146515959Y-62311900D02*
X146582626Y-62278566D01*
X146582626Y-62278566D02*
X146715959Y-62278566D01*
X146715959Y-62278566D02*
X146782626Y-62311900D01*
X146782626Y-62311900D02*
X146815959Y-62345233D01*
X146815959Y-62345233D02*
X146849293Y-62411900D01*
X146849293Y-62411900D02*
X146849293Y-62611900D01*
X146849293Y-62611900D02*
X146815959Y-62678566D01*
X146815959Y-62678566D02*
X146782626Y-62711900D01*
X146782626Y-62711900D02*
X146715959Y-62745233D01*
X146715959Y-62745233D02*
X146582626Y-62745233D01*
X146582626Y-62745233D02*
X146515959Y-62711900D01*
X147249292Y-62745233D02*
X147182626Y-62711900D01*
X147182626Y-62711900D02*
X147149292Y-62678566D01*
X147149292Y-62678566D02*
X147115959Y-62611900D01*
X147115959Y-62611900D02*
X147115959Y-62411900D01*
X147115959Y-62411900D02*
X147149292Y-62345233D01*
X147149292Y-62345233D02*
X147182626Y-62311900D01*
X147182626Y-62311900D02*
X147249292Y-62278566D01*
X147249292Y-62278566D02*
X147349292Y-62278566D01*
X147349292Y-62278566D02*
X147415959Y-62311900D01*
X147415959Y-62311900D02*
X147449292Y-62345233D01*
X147449292Y-62345233D02*
X147482626Y-62411900D01*
X147482626Y-62411900D02*
X147482626Y-62611900D01*
X147482626Y-62611900D02*
X147449292Y-62678566D01*
X147449292Y-62678566D02*
X147415959Y-62711900D01*
X147415959Y-62711900D02*
X147349292Y-62745233D01*
X147349292Y-62745233D02*
X147249292Y-62745233D01*
X148082625Y-62745233D02*
X148082625Y-62378566D01*
X148082625Y-62378566D02*
X148049292Y-62311900D01*
X148049292Y-62311900D02*
X147982625Y-62278566D01*
X147982625Y-62278566D02*
X147849292Y-62278566D01*
X147849292Y-62278566D02*
X147782625Y-62311900D01*
X148082625Y-62711900D02*
X148015959Y-62745233D01*
X148015959Y-62745233D02*
X147849292Y-62745233D01*
X147849292Y-62745233D02*
X147782625Y-62711900D01*
X147782625Y-62711900D02*
X147749292Y-62645233D01*
X147749292Y-62645233D02*
X147749292Y-62578566D01*
X147749292Y-62578566D02*
X147782625Y-62511900D01*
X147782625Y-62511900D02*
X147849292Y-62478566D01*
X147849292Y-62478566D02*
X148015959Y-62478566D01*
X148015959Y-62478566D02*
X148082625Y-62445233D01*
X148415958Y-62745233D02*
X148415958Y-62278566D01*
X148415958Y-62411900D02*
X148449292Y-62345233D01*
X148449292Y-62345233D02*
X148482625Y-62311900D01*
X148482625Y-62311900D02*
X148549292Y-62278566D01*
X148549292Y-62278566D02*
X148615958Y-62278566D01*
X149149291Y-62745233D02*
X149149291Y-62045233D01*
X149149291Y-62711900D02*
X149082625Y-62745233D01*
X149082625Y-62745233D02*
X148949291Y-62745233D01*
X148949291Y-62745233D02*
X148882625Y-62711900D01*
X148882625Y-62711900D02*
X148849291Y-62678566D01*
X148849291Y-62678566D02*
X148815958Y-62611900D01*
X148815958Y-62611900D02*
X148815958Y-62411900D01*
X148815958Y-62411900D02*
X148849291Y-62345233D01*
X148849291Y-62345233D02*
X148882625Y-62311900D01*
X148882625Y-62311900D02*
X148949291Y-62278566D01*
X148949291Y-62278566D02*
X149082625Y-62278566D01*
X149082625Y-62278566D02*
X149149291Y-62311900D01*
D12*
%TO.P,C11,1*%
%TO.N,VBUS_DONGLE*%
X68740000Y-46420000D03*
%TO.P,C11,2*%
%TO.N,GND2*%
X68740000Y-45460000D03*
%TD*%
D13*
%TO.P,R12,2,2_2*%
%TO.N,NRST_OUT*%
X63230000Y-44890000D03*
%TO.P,R12,1,1_1*%
%TO.N,+1V8_2*%
X64250000Y-44890000D03*
%TD*%
D14*
%TO.P,SW1,1,1_1*%
%TO.N,NRST_OUT*%
X75490000Y-38730000D03*
%TO.P,SW1,2,2_2*%
%TO.N,GND2*%
X75490000Y-42130000D03*
%TD*%
D15*
%TO.P,GND,1,1_1*%
%TO.N,GND2*%
X79550000Y-56530000D03*
%TD*%
%TO.P,ID,1,1_1*%
%TO.N,Net-(J3-ID)*%
X79550000Y-52160000D03*
%TD*%
D16*
%TO.P,R10,1*%
%TO.N,VBUS_DONGLE*%
X61030000Y-52770000D03*
%TO.P,R10,2*%
%TO.N,Net-(J4-CC1)*%
X61030000Y-51750000D03*
%TD*%
D17*
%TO.P,C19,1*%
%TO.N,+1V8_2*%
X75055000Y-44120000D03*
%TO.P,C19,2*%
%TO.N,GND2*%
X74095000Y-44120000D03*
%TD*%
D18*
%TO.P,R17,1*%
%TO.N,VBUS_DONGLE*%
X54610000Y-50335000D03*
%TO.P,R17,2*%
%TO.N,Net-(J4-CC2)*%
X54610000Y-51355000D03*
%TD*%
D15*
%TO.P,D-,1,1_1*%
%TO.N,ST_D-*%
X79630000Y-44120000D03*
%TD*%
D19*
%TO.P,J3,1,VBUS_1*%
%TO.N,VBUS_DONGLE*%
X67200000Y-49750000D03*
%TO.P,J3,2,D-_2*%
%TO.N,ST_D-*%
X68000000Y-49750000D03*
%TO.P,J3,3,D+_3*%
%TO.N,ST_D+*%
X68800000Y-49750000D03*
%TO.P,J3,4,ID_4*%
%TO.N,Net-(J3-ID)*%
X69600000Y-49750000D03*
%TO.P,J3,5,GND_5*%
%TO.N,GND2*%
X70400000Y-49750000D03*
D20*
%TO.P,J3,SH,Shield_SH*%
X64350000Y-49850000D03*
X64350000Y-55300000D03*
X73250000Y-49850000D03*
X73250000Y-55300000D03*
%TD*%
D21*
%TO.P,CN2,1,1_1*%
%TO.N,+1V8_2*%
X66650000Y-42800000D03*
D22*
%TO.P,CN2,2,2_2*%
%TO.N,GND2*%
X66650000Y-40260000D03*
%TO.P,CN2,3,3_3*%
%TO.N,SWDIO_OUT*%
X69190000Y-42800000D03*
%TO.P,CN2,4,4_4*%
%TO.N,SWCLK_OUT*%
X69190000Y-40260000D03*
%TO.P,CN2,5,5_5*%
%TO.N,SWO_OUT*%
X71730000Y-42800000D03*
%TO.P,CN2,6,6_6*%
%TO.N,NRST_OUT*%
X71730000Y-40260000D03*
%TD*%
D23*
%TO.P,L4,1,1_1*%
%TO.N,Net-(U18-SW)*%
X76420000Y-45682500D03*
%TO.P,L4,2,2_2*%
%TO.N,+1V8_2*%
X76420000Y-43557500D03*
%TD*%
D15*
%TO.P,D+,1,1_1*%
%TO.N,ST_D+*%
X79630000Y-48140000D03*
%TD*%
D24*
%TO.P,J4,14*%
%TO.N,GND2*%
X57635000Y-48000000D03*
X57635000Y-55800000D03*
D25*
%TO.P,J4,A1,GND_1_A1*%
X58905000Y-54650000D03*
%TO.P,J4,A2,SSTXP1_A2*%
%TO.N,SWCLK_OUT*%
X58905000Y-54150000D03*
%TO.P,J4,A3,SSTXN1_A3*%
%TO.N,SWDIO_OUT*%
X58905000Y-53650000D03*
%TO.P,J4,A4,VBUS_1_A4*%
%TO.N,VBUS_DONGLE*%
X58905000Y-53150000D03*
%TO.P,J4,A5,CC1_A5*%
%TO.N,Net-(J4-CC1)*%
X58905000Y-52650000D03*
%TO.P,J4,A6,DP1_A6*%
%TO.N,unconnected-(J4-DP1-PadA6)*%
X58905000Y-52150000D03*
%TO.P,J4,A7,DN1_A7*%
%TO.N,unconnected-(J4-DN1-PadA7)*%
X58905000Y-51650000D03*
%TO.P,J4,A8,SBU1_A8*%
%TO.N,NRST_OUT*%
X58905000Y-51150000D03*
%TO.P,J4,A9,VBUS_2_A9*%
%TO.N,VBUS_DONGLE*%
X58905000Y-50650000D03*
%TO.P,J4,A10,SSRXN2_A10*%
%TO.N,unconnected-(J4-SSRXN2-PadA10)*%
X58905000Y-50150000D03*
%TO.P,J4,A11,SSRXP2_A11*%
%TO.N,SWO_OUT*%
X58905000Y-49650000D03*
%TO.P,J4,A12,GND_2_A12*%
%TO.N,GND2*%
X58905000Y-49150000D03*
%TO.P,J4,B1,GND_3_B1*%
X56365000Y-49150000D03*
%TO.P,J4,B2,SSTXP2_B2*%
%TO.N,SWCLK_OUT*%
X56365000Y-49650000D03*
%TO.P,J4,B3,SSTXN2_B3*%
%TO.N,SWDIO_OUT*%
X56365000Y-50150000D03*
%TO.P,J4,B4,VBUS_3_B4*%
%TO.N,VBUS_DONGLE*%
X56365000Y-50650000D03*
%TO.P,J4,B5,CC2_B5*%
%TO.N,Net-(J4-CC2)*%
X56365000Y-51150000D03*
%TO.P,J4,B6,DP2_B6*%
%TO.N,unconnected-(J4-DP2-PadB6)*%
X56365000Y-51650000D03*
%TO.P,J4,B7,DN2_B7*%
%TO.N,unconnected-(J4-DN2-PadB7)*%
X56365000Y-52150000D03*
%TO.P,J4,B8,SBU2_B8*%
%TO.N,NRST_OUT*%
X56365000Y-52650000D03*
%TO.P,J4,B9,VBUS_4_B9*%
%TO.N,VBUS_DONGLE*%
X56365000Y-53150000D03*
%TO.P,J4,B10,SSRXN1_B10*%
%TO.N,unconnected-(J4-SSRXN1-PadB10)*%
X56365000Y-53650000D03*
%TO.P,J4,B11,SSRXP1_B11*%
%TO.N,SWO_OUT*%
X56365000Y-54150000D03*
%TO.P,J4,B12,GND_4_B12*%
%TO.N,GND2*%
X56365000Y-54650000D03*
%TD*%
D26*
%TO.P,U18,A1,GND_A1*%
%TO.N,GND2*%
X72950000Y-45380000D03*
%TO.P,U18,A2,VOS_A2*%
%TO.N,+1V8_2*%
X73350000Y-45380000D03*
%TO.P,U18,B1,VIN_B1*%
%TO.N,VBUS_DONGLE*%
X72950000Y-45780000D03*
%TO.P,U18,B2,SW_B2*%
%TO.N,Net-(U18-SW)*%
X73350000Y-45780000D03*
%TO.P,U18,C1,EN_C1*%
%TO.N,VBUS_DONGLE*%
X72950000Y-46180000D03*
%TO.P,U18,C2,VSET_C2*%
%TO.N,GND2*%
X73350000Y-46180000D03*
%TD*%
D15*
%TO.P,VBUS,1,1_1*%
%TO.N,VBUS_DONGLE*%
X79790000Y-40180000D03*
%TD*%
D27*
%TO.N,GND2*%
X75310000Y-46950000D03*
%TO.N,SWDIO_OUT*%
X57460000Y-50160000D03*
D28*
%TO.N,Net-(J3-ID)*%
X77240000Y-52340000D03*
%TO.N,VBUS_DONGLE*%
X66460000Y-53930000D03*
%TO.N,SWDIO_OUT*%
X63590000Y-52830000D03*
%TO.N,NRST_OUT*%
X61910000Y-47550000D03*
%TO.N,SWCLK_OUT*%
X60930000Y-54100000D03*
D27*
%TO.N,SWDIO_OUT*%
X57800000Y-53660000D03*
D28*
%TO.N,NRST_OUT*%
X58570000Y-45340000D03*
D27*
%TO.N,SWCLK_OUT*%
X57630000Y-49230000D03*
D28*
%TO.N,Net-(J3-ID)*%
X69380000Y-57060000D03*
D27*
%TO.N,GND2*%
X66160000Y-45520000D03*
D28*
%TO.N,VBUS_DONGLE*%
X54610000Y-47790000D03*
D27*
%TO.N,GND2*%
X75540000Y-42140000D03*
D28*
%TO.N,SWO_OUT*%
X55290000Y-54040000D03*
%TO.N,VBUS_DONGLE*%
X77570000Y-40250000D03*
D27*
%TO.N,SWO_OUT*%
X59930000Y-49370000D03*
%TD*%
%TO.N,VBUS_DONGLE*%
D29*
X68740000Y-46420000D02*
X69060000Y-46100000D01*
X69060000Y-46100000D02*
X72530000Y-46100000D01*
X72850000Y-45780000D02*
X72950000Y-45780000D01*
X72530000Y-46100000D02*
X72850000Y-45780000D01*
X67200000Y-48750001D02*
X68740000Y-47210001D01*
X68740000Y-47210001D02*
X68740000Y-46420000D01*
%TO.N,GND2*%
X57635000Y-47780000D02*
X59895000Y-45520000D01*
X59895000Y-45520000D02*
X71150000Y-45520000D01*
X71150000Y-45520000D02*
X71290000Y-45380000D01*
X71290000Y-45380000D02*
X72950000Y-45380000D01*
%TO.N,+1V8_2*%
X74895000Y-44525000D02*
X74895000Y-44120000D01*
%TO.N,SWO_OUT*%
X55430000Y-54180000D02*
X56570000Y-54180000D01*
%TO.N,+1V8_2*%
X64060000Y-44890000D02*
X66010000Y-42940000D01*
%TO.N,Net-(J3-ID)*%
X77240000Y-52340000D02*
X77420000Y-52160000D01*
%TO.N,VBUS_DONGLE*%
X67200000Y-49750000D02*
X67200000Y-48750001D01*
%TO.N,+1V8_2*%
X66650000Y-42800000D02*
X66650000Y-44080000D01*
%TO.N,SWDIO_OUT*%
X63590000Y-52830000D02*
X62790000Y-53630000D01*
%TO.N,GND2*%
X58560000Y-48705000D02*
X58560000Y-49040000D01*
%TO.N,NRST_OUT*%
X59020000Y-44890000D02*
X63420000Y-44890000D01*
%TO.N,ST_D-*%
D30*
X68000000Y-50210588D02*
X67835000Y-50375588D01*
%TO.N,VBUS_DONGLE*%
D29*
X67200000Y-49750000D02*
X67450000Y-50000000D01*
X79790000Y-40180000D02*
X79720000Y-40250000D01*
%TO.N,NRST_OUT*%
X58570000Y-45340000D02*
X59020000Y-44890000D01*
%TO.N,VBUS_DONGLE*%
X54610000Y-50525000D02*
X54755000Y-50670000D01*
%TO.N,SWDIO_OUT*%
X57460000Y-50160000D02*
X57450000Y-50150000D01*
%TO.N,Net-(U18-SW)*%
X73480000Y-45650000D02*
X73350000Y-45780000D01*
%TO.N,SWO_OUT*%
X59650000Y-49650000D02*
X59930000Y-49370000D01*
%TO.N,ST_D-*%
D30*
X72056949Y-46810000D02*
X73146948Y-47899999D01*
%TO.N,+1V8_2*%
D29*
X66650000Y-44080000D02*
X67420000Y-44850000D01*
%TO.N,ST_D+*%
D30*
X68520000Y-48979706D02*
X70449726Y-47049980D01*
%TO.N,ST_D-*%
X68553484Y-48590000D02*
X68570294Y-48590000D01*
%TO.N,NRST_OUT*%
D29*
X57090000Y-52650000D02*
X56365000Y-52650000D01*
%TO.N,ST_D-*%
D30*
X68280000Y-49470000D02*
X68280000Y-48863484D01*
%TO.N,NRST_OUT*%
D29*
X57120000Y-43330000D02*
X62310000Y-38140000D01*
%TO.N,Net-(J3-ID)*%
X77420000Y-52160000D02*
X79550000Y-52160000D01*
%TO.N,ST_D-*%
D30*
X73146948Y-47899999D02*
X75850001Y-47899999D01*
%TO.N,Net-(J3-ID)*%
D29*
X69380000Y-57060000D02*
X69380000Y-54060000D01*
%TO.N,VBUS_DONGLE*%
X54395000Y-50525000D02*
X54610000Y-50525000D01*
%TO.N,Net-(U18-SW)*%
X75907500Y-45312500D02*
X76290000Y-45312500D01*
%TO.N,GND2*%
X73350000Y-46180000D02*
X74120000Y-46950000D01*
%TO.N,+1V8_2*%
X75050000Y-44275000D02*
X74895000Y-44120000D01*
%TO.N,VBUS_DONGLE*%
X54950000Y-53140000D02*
X53830000Y-52020000D01*
X72950000Y-46180000D02*
X72950000Y-45780000D01*
%TO.N,SWDIO_OUT*%
X57800000Y-53660000D02*
X58895000Y-53660000D01*
%TO.N,ST_D-*%
D30*
X68000000Y-49750000D02*
X68280000Y-49470000D01*
%TO.N,GND2*%
D29*
X73250000Y-55300000D02*
X78320000Y-55300000D01*
%TO.N,VBUS_DONGLE*%
X53830000Y-51090000D02*
X54395000Y-50525000D01*
X79720000Y-40250000D02*
X77570000Y-40250000D01*
%TO.N,GND2*%
X58366000Y-56531000D02*
X63119000Y-56531000D01*
%TO.N,NRST_OUT*%
X62310000Y-38140000D02*
X69610000Y-38140000D01*
%TO.N,Net-(J4-CC1)*%
X60840000Y-51750000D02*
X61030000Y-51750000D01*
X59930000Y-52660000D02*
X60840000Y-51750000D01*
%TO.N,+1V8_2*%
X67420000Y-44850000D02*
X72030000Y-44850000D01*
%TO.N,VBUS_DONGLE*%
X67450000Y-52940000D02*
X66460000Y-53930000D01*
%TO.N,SWDIO_OUT*%
X57450000Y-50150000D02*
X56365000Y-50150000D01*
%TO.N,NRST_OUT*%
X75490000Y-38730000D02*
X73260000Y-38730000D01*
%TO.N,GND2*%
X72950000Y-45280000D02*
X72950000Y-45380000D01*
%TO.N,SWDIO_OUT*%
X62790000Y-53630000D02*
X58650000Y-53630000D01*
%TO.N,+1V8_2*%
X66010000Y-42940000D02*
X66510000Y-42940000D01*
X75095000Y-44275000D02*
X75050000Y-44275000D01*
%TO.N,GND2*%
X66930000Y-57880000D02*
X70670000Y-57880000D01*
%TO.N,VBUS_DONGLE*%
X54755000Y-50670000D02*
X58430000Y-50670000D01*
%TO.N,NRST_OUT*%
X57120000Y-44210000D02*
X57120000Y-43330000D01*
%TO.N,GND2*%
X73150000Y-49750000D02*
X73250000Y-49850000D01*
X57635000Y-55800000D02*
X57635000Y-55745000D01*
%TO.N,+1V8_2*%
X74895000Y-43645000D02*
X74895000Y-44120000D01*
%TO.N,GND2*%
X64350000Y-55300000D02*
X66930000Y-57880000D01*
%TO.N,+1V8_2*%
X74040000Y-45380000D02*
X74895000Y-44525000D01*
X75357500Y-44120000D02*
X76290000Y-43187500D01*
%TO.N,GND2*%
X63119000Y-56531000D02*
X64350000Y-55300000D01*
X57635000Y-47780000D02*
X57635000Y-48115000D01*
X56710000Y-54875000D02*
X56590000Y-54875000D01*
%TO.N,+1V8_2*%
X72030000Y-44850000D02*
X73650000Y-43230000D01*
%TO.N,GND2*%
X56590000Y-54875000D02*
X56365000Y-54650000D01*
X64350000Y-49850000D02*
X64350000Y-55300000D01*
%TO.N,Net-(J4-CC2)*%
X54610000Y-51355000D02*
X54845000Y-51355000D01*
%TO.N,SWCLK_OUT*%
X56395000Y-49620000D02*
X56365000Y-49650000D01*
%TO.N,ST_D+*%
D30*
X68800000Y-49750000D02*
X68800000Y-50730000D01*
%TO.N,VBUS_DONGLE*%
D29*
X60470000Y-53140000D02*
X54950000Y-53140000D01*
%TO.N,SWO_OUT*%
X55290000Y-54040000D02*
X55430000Y-54180000D01*
%TO.N,VBUS_DONGLE*%
X67450000Y-50000000D02*
X67450000Y-52940000D01*
%TO.N,NRST_OUT*%
X58250000Y-45340000D02*
X57120000Y-44210000D01*
%TO.N,+1V8_2*%
X73350000Y-45380000D02*
X74040000Y-45380000D01*
%TO.N,GND2*%
X57635000Y-47780000D02*
X58560000Y-48705000D01*
%TO.N,+1V8_2*%
X74480000Y-43230000D02*
X74895000Y-43645000D01*
%TO.N,GND2*%
X74120000Y-46950000D02*
X75310000Y-46950000D01*
%TO.N,SWDIO_OUT*%
X58895000Y-53660000D02*
X58905000Y-53650000D01*
%TO.N,Net-(U18-SW)*%
X75570000Y-45650000D02*
X75907500Y-45312500D01*
%TO.N,NRST_OUT*%
X73260000Y-38730000D02*
X71730000Y-40260000D01*
%TO.N,VBUS_DONGLE*%
X58430000Y-50670000D02*
X58560000Y-50540000D01*
%TO.N,NRST_OUT*%
X61910000Y-47550000D02*
X61910000Y-48580000D01*
%TO.N,VBUS_DONGLE*%
X54610000Y-47790000D02*
X54610000Y-50525000D01*
%TO.N,NRST_OUT*%
X61910000Y-48580000D02*
X59340000Y-51150000D01*
%TO.N,SWCLK_OUT*%
X57630000Y-49230000D02*
X57240000Y-49620000D01*
%TO.N,GND2*%
X70670000Y-57880000D02*
X73250000Y-55300000D01*
%TO.N,ST_D-*%
D30*
X75850001Y-47899999D02*
X79630000Y-44120000D01*
%TO.N,GND2*%
D29*
X73250000Y-55300000D02*
X73250000Y-49850000D01*
%TO.N,ST_D-*%
D30*
X68280000Y-48863484D02*
X68553484Y-48590000D01*
%TO.N,Net-(J3-ID)*%
D29*
X69600000Y-53840000D02*
X69600000Y-49750000D01*
%TO.N,GND2*%
X70400000Y-49750000D02*
X73150000Y-49750000D01*
%TO.N,ST_D-*%
D30*
X68570294Y-48590000D02*
X70350294Y-46810000D01*
%TO.N,NRST_OUT*%
D29*
X58905000Y-51150000D02*
X58590000Y-51150000D01*
%TO.N,SWCLK_OUT*%
X60930000Y-54100000D02*
X60890000Y-54140000D01*
X57240000Y-49620000D02*
X56395000Y-49620000D01*
%TO.N,ST_D+*%
D30*
X73047567Y-48140000D02*
X79630000Y-48140000D01*
%TO.N,VBUS_DONGLE*%
D29*
X53830000Y-52020000D02*
X53830000Y-51090000D01*
%TO.N,NRST_OUT*%
X59340000Y-51150000D02*
X58670000Y-51150000D01*
%TO.N,SWO_OUT*%
X58905000Y-49650000D02*
X59650000Y-49650000D01*
%TO.N,ST_D+*%
D30*
X71957547Y-47049980D02*
X73047567Y-48140000D01*
%TO.N,GND2*%
D29*
X78320000Y-55300000D02*
X79550000Y-56530000D01*
%TO.N,VBUS_DONGLE*%
X61030000Y-52580000D02*
X60470000Y-53140000D01*
%TO.N,Net-(J4-CC2)*%
X54845000Y-51355000D02*
X55070000Y-51130000D01*
%TO.N,GND2*%
X57635000Y-55745000D02*
X58700000Y-54680000D01*
%TO.N,Net-(U18-SW)*%
X75570000Y-45650000D02*
X73480000Y-45650000D01*
%TO.N,GND2*%
X57635000Y-48115000D02*
X56710000Y-49040000D01*
%TO.N,Net-(J4-CC1)*%
X58680000Y-52660000D02*
X59930000Y-52660000D01*
%TO.N,GND2*%
X57635000Y-55800000D02*
X58366000Y-56531000D01*
%TO.N,NRST_OUT*%
X69610000Y-38140000D02*
X71730000Y-40260000D01*
%TO.N,SWCLK_OUT*%
X60890000Y-54140000D02*
X58660000Y-54140000D01*
%TO.N,GND2*%
X57635000Y-55800000D02*
X56710000Y-54875000D01*
%TO.N,ST_D-*%
D30*
X68000000Y-49750000D02*
X68000000Y-50210588D01*
%TO.N,NRST_OUT*%
D29*
X58590000Y-51150000D02*
X57090000Y-52650000D01*
%TO.N,Net-(J3-ID)*%
X69380000Y-54060000D02*
X69600000Y-53840000D01*
%TO.N,Net-(J4-CC1)*%
X58560000Y-52540000D02*
X58680000Y-52660000D01*
%TO.N,GND2*%
X74110000Y-44120000D02*
X72950000Y-45280000D01*
X66150000Y-39760000D02*
X66650000Y-40260000D01*
%TO.N,ST_D-*%
D30*
X70350294Y-46810000D02*
X72056949Y-46810000D01*
%TO.N,NRST_OUT*%
D29*
X58570000Y-45340000D02*
X58250000Y-45340000D01*
%TO.N,ST_D+*%
D30*
X70449726Y-47049980D02*
X71957547Y-47049980D01*
%TO.N,+1V8_2*%
D29*
X73650000Y-43230000D02*
X74480000Y-43230000D01*
%TO.N,ST_D+*%
D30*
X68520000Y-49470000D02*
X68520000Y-48979706D01*
%TO.N,Net-(J4-CC2)*%
D29*
X55070000Y-51130000D02*
X56620000Y-51130000D01*
%TO.N,ST_D+*%
D30*
X68800000Y-49750000D02*
X68520000Y-49470000D01*
%TO.N,GND2*%
D29*
X74255000Y-44120000D02*
X74110000Y-44120000D01*
%TO.N,+1V8_2*%
X75055000Y-44120000D02*
X75357500Y-44120000D01*
X66510000Y-42940000D02*
X66650000Y-42800000D01*
%TD*%
M02*
