M48
; DRILL file KiCad 10.0.3 date 2026-08-03T22:04:37
; FORMAT={-:-/ absolute / inch / decimal}
; #@! TF.CreationDate,2026-08-03T22:04:37-04:00
; #@! TF.GenerationSoftware,Kicad,Pcbnew,10.0.3
; #@! TF.FileFunction,Plated,1,4,PTH
FMAT,2
INCH
; #@! TA.AperFunction,Plated,PTH,ViaDrill
T1C0.0118
; #@! TA.AperFunction,Plated,PTH,ComponentDrill
T2C0.0394
; #@! TA.AperFunction,Plated,PTH,ComponentDrill
T3C0.0472
%
G90
G05
T1
X2.15Y-1.8815
X2.1768Y-2.1276
X2.2622Y-1.9748
X2.2689Y-1.9382
X2.2756Y-2.1126
X2.3059Y-1.785
X2.3594Y-1.9437
X2.3988Y-2.1299
X2.4374Y-1.872
X2.5035Y-2.0799
X2.6047Y-1.7921
X2.6165Y-2.1232
X2.7315Y-2.2465
X2.965Y-1.8484
X2.974Y-1.6591
X3.0409Y-2.0606
X3.0539Y-1.5846
T2
X2.624Y-1.585
X2.624Y-1.685
X2.724Y-1.585
X2.724Y-1.685
X2.824Y-1.585
X2.824Y-1.685
T3
G00X2.2947Y-1.8898
M15
G01X2.2435Y-1.8898
M16
G05
G00X2.2947Y-2.1969
M15
G01X2.2435Y-2.1969
M16
G05
M30
