%TF.GenerationSoftware,KiCad,Pcbnew,10.0.3*%
%TF.CreationDate,2026-08-03T22:04:37-04:00*%
%TF.ProjectId,Dongle,446f6e67-6c65-42e6-9b69-6361645f7063,rev?*%
%TF.SameCoordinates,Original*%
%TF.FileFunction,Copper,L4,Bot*%
%TF.FilePolarity,Positive*%
%FSLAX46Y46*%
G04 Gerber Fmt 4.6, Leading zero omitted, Abs format (unit mm)*
G04 Created by KiCad (PCBNEW 10.0.3) date 2026-08-03 22:04:37*
%MOMM*%
%LPD*%
G01*
G04 APERTURE LIST*
%TA.AperFunction,ComponentPad*%
%ADD10R,1.700000X1.700000*%
%TD*%
%TA.AperFunction,ComponentPad*%
%ADD11C,1.700000*%
%TD*%
%TA.AperFunction,ComponentPad*%
%ADD12O,3.000000X1.600000*%
%TD*%
%TA.AperFunction,ViaPad*%
%ADD13C,0.500000*%
%TD*%
%TA.AperFunction,ViaPad*%
%ADD14C,0.600000*%
%TD*%
%TA.AperFunction,Conductor*%
%ADD15C,0.130000*%
%TD*%
G04 APERTURE END LIST*
D10*
%TO.P,CN2,1,1_1*%
%TO.N,+1V8_2*%
X66650000Y-42800000D03*
D11*
%TO.P,CN2,2,2_2*%
%TO.N,GND2*%
X66650000Y-40260000D03*
%TO.P,CN2,3,3_3*%
%TO.N,SWDIO_OUT*%
X69190000Y-42800000D03*
%TO.P,CN2,4,4_4*%
%TO.N,SWCLK_OUT*%
X69190000Y-40260000D03*
%TO.P,CN2,5,5_5*%
%TO.N,SWO_OUT*%
X71730000Y-42800000D03*
%TO.P,CN2,6,6_6*%
%TO.N,NRST_OUT*%
X71730000Y-40260000D03*
%TD*%
D12*
%TO.P,J4,14*%
%TO.N,GND2*%
X57635000Y-48000000D03*
X57635000Y-55800000D03*
%TD*%
D13*
%TO.N,GND2*%
X75310000Y-46950000D03*
%TO.N,SWDIO_OUT*%
X57460000Y-50160000D03*
D14*
%TO.N,Net-(J3-ID)*%
X77240000Y-52340000D03*
%TO.N,VBUS_DONGLE*%
X66460000Y-53930000D03*
%TO.N,SWDIO_OUT*%
X63590000Y-52830000D03*
%TO.N,NRST_OUT*%
X61910000Y-47550000D03*
%TO.N,SWCLK_OUT*%
X60930000Y-54100000D03*
D13*
%TO.N,SWDIO_OUT*%
X57800000Y-53660000D03*
D14*
%TO.N,NRST_OUT*%
X58570000Y-45340000D03*
D13*
%TO.N,SWCLK_OUT*%
X57630000Y-49230000D03*
D14*
%TO.N,Net-(J3-ID)*%
X69380000Y-57060000D03*
D13*
%TO.N,GND2*%
X66160000Y-45520000D03*
D14*
%TO.N,VBUS_DONGLE*%
X54610000Y-47790000D03*
D13*
%TO.N,GND2*%
X75540000Y-42140000D03*
D14*
%TO.N,SWO_OUT*%
X55290000Y-54040000D03*
%TO.N,VBUS_DONGLE*%
X77570000Y-40250000D03*
D13*
%TO.N,SWO_OUT*%
X59930000Y-49370000D03*
%TD*%
%TO.N,SWCLK_OUT*%
D15*
X67950000Y-41500000D02*
X67950000Y-47080000D01*
%TO.N,SWO_OUT*%
X66620000Y-50920000D02*
X68160000Y-50920000D01*
%TO.N,NRST_OUT*%
X61910000Y-46960000D02*
X59890000Y-44940000D01*
%TO.N,GND2*%
X62824000Y-50380749D02*
X57635000Y-55569749D01*
%TO.N,VBUS_DONGLE*%
X77570000Y-42820000D02*
X66460000Y-53930000D01*
%TO.N,NRST_OUT*%
X59890000Y-44940000D02*
X58970000Y-44940000D01*
%TO.N,GND2*%
X62824000Y-44086000D02*
X62824000Y-50380749D01*
%TO.N,VBUS_DONGLE*%
X54970000Y-47430000D02*
X54970000Y-46557947D01*
%TO.N,NRST_OUT*%
X58970000Y-44940000D02*
X58570000Y-45340000D01*
%TO.N,SWO_OUT*%
X59610000Y-57930000D02*
X66620000Y-50920000D01*
X54950000Y-54380000D02*
X54950000Y-56400000D01*
%TO.N,Net-(J3-ID)*%
X69380000Y-57060000D02*
X72520000Y-57060000D01*
%TO.N,SWDIO_OUT*%
X69190000Y-47260000D02*
X69190000Y-42800000D01*
%TO.N,SWO_OUT*%
X55290000Y-54040000D02*
X54950000Y-54380000D01*
X68160000Y-50920000D02*
X71730000Y-47350000D01*
%TO.N,GND2*%
X57635000Y-55569749D02*
X57635000Y-55800000D01*
%TO.N,SWO_OUT*%
X54950000Y-56400000D02*
X56480000Y-57930000D01*
X55290000Y-54040000D02*
X55290000Y-54010000D01*
%TO.N,SWCLK_OUT*%
X69190000Y-40260000D02*
X67950000Y-41500000D01*
%TO.N,VBUS_DONGLE*%
X77570000Y-40250000D02*
X77570000Y-42820000D01*
%TO.N,Net-(J3-ID)*%
X72520000Y-57060000D02*
X77240000Y-52340000D01*
%TO.N,SWO_OUT*%
X56480000Y-57930000D02*
X59610000Y-57930000D01*
%TO.N,GND2*%
X66650000Y-40260000D02*
X62824000Y-44086000D01*
%TO.N,SWDIO_OUT*%
X63590000Y-52830000D02*
X63620000Y-52830000D01*
%TO.N,VBUS_DONGLE*%
X54610000Y-47790000D02*
X54970000Y-47430000D01*
%TO.N,SWO_OUT*%
X55290000Y-54010000D02*
X59930000Y-49370000D01*
X71730000Y-47350000D02*
X71730000Y-42800000D01*
%TO.N,VBUS_DONGLE*%
X63107947Y-38420000D02*
X75740000Y-38420000D01*
X54970000Y-46557947D02*
X63107947Y-38420000D01*
%TO.N,SWCLK_OUT*%
X67950000Y-47080000D02*
X60930000Y-54100000D01*
%TO.N,SWDIO_OUT*%
X63620000Y-52830000D02*
X69190000Y-47260000D01*
%TO.N,VBUS_DONGLE*%
X75740000Y-38420000D02*
X77570000Y-40250000D01*
%TO.N,NRST_OUT*%
X61910000Y-47550000D02*
X61910000Y-46960000D01*
%TD*%
M02*
